<?xml version="1.0" encoding="UTF-8" standalone="no"?>
<!-- This is a Stata 16.1 generated SVG file (http://www.stata.com) -->

<svg version="1.1" width="5.50in" height="4.00in" viewBox="0 0 3960 2880" xmlns="http://www.w3.org/2000/svg" xmlns:xlink="http://www.w3.org/1999/xlink">
	<desc>Stata Graph - Graph</desc>
	<rect x="0" y="0" width="3960" height="2880" style="fill:#EAF2F3;stroke:none"/>
	<rect x="0.00" y="0.00" width="3959.88" height="2880.00" style="fill:#EAF2F3"/>
	<rect x="2.88" y="2.88" width="3954.12" height="2874.24" style="fill:none;stroke:#EAF2F3;stroke-width:5.76"/>
	<rect x="388.33" y="258.27" width="3436.17" height="578.30" style="fill:#FFFFFF"/>
	<rect x="390.78" y="260.72" width="3431.27" height="573.41" style="fill:none;stroke:#FFFFFF;stroke-width:4.90"/>
	<line x1="388.33" y1="836.58" x2="3824.49" y2="836.58" style="stroke:#EAF2F3;stroke-width:7.34"/>
	<line x1="388.33" y1="574.34" x2="3824.49" y2="574.34" style="stroke:#EAF2F3;stroke-width:7.34"/>
	<line x1="388.33" y1="312.11" x2="3824.49" y2="312.11" style="stroke:#EAF2F3;stroke-width:7.34"/>
	<rect x="388.33" y="1028.52" width="3436.17" height="578.30" style="fill:#FFFFFF"/>
	<rect x="390.78" y="1030.97" width="3431.27" height="573.41" style="fill:none;stroke:#FFFFFF;stroke-width:4.90"/>
	<line x1="388.33" y1="1606.82" x2="3824.49" y2="1606.82" style="stroke:#EAF2F3;stroke-width:7.34"/>
	<line x1="388.33" y1="1344.59" x2="3824.49" y2="1344.59" style="stroke:#EAF2F3;stroke-width:7.34"/>
	<line x1="388.33" y1="1082.35" x2="3824.49" y2="1082.35" style="stroke:#EAF2F3;stroke-width:7.34"/>
	<rect x="388.33" y="1798.76" width="3436.17" height="578.30" style="fill:#FFFFFF"/>
	<rect x="390.78" y="1801.21" width="3431.27" height="573.41" style="fill:none;stroke:#FFFFFF;stroke-width:4.90"/>
	<line x1="388.33" y1="2377.06" x2="3824.49" y2="2377.06" style="stroke:#EAF2F3;stroke-width:7.34"/>
	<line x1="388.33" y1="2114.83" x2="3824.49" y2="2114.83" style="stroke:#EAF2F3;stroke-width:7.34"/>
	<line x1="388.33" y1="1852.72" x2="3824.49" y2="1852.72" style="stroke:#EAF2F3;stroke-width:7.34"/>
	<rect x="2985.84" y="836.08" width="67.82" height="0.50" style="fill:#CAC27E"/>
	<rect x="2989.51" y="832.90" width="60.47" height="6.85" style="fill:none;stroke:#D7D29E;stroke-width:7.34"/>
	<rect x="3053.66" y="749.58" width="67.81" height="87.00" style="fill:#CAC27E"/>
	<rect x="3057.33" y="753.25" width="60.47" height="79.66" style="fill:none;stroke:#D7D29E;stroke-width:7.34"/>
	<rect x="3121.47" y="323.62" width="67.82" height="512.96" style="fill:#CAC27E"/>
	<rect x="3125.14" y="327.29" width="60.47" height="505.62" style="fill:none;stroke:#D7D29E;stroke-width:7.34"/>
	<rect x="3189.28" y="617.04" width="67.82" height="219.54" style="fill:#CAC27E"/>
	<rect x="3192.96" y="620.71" width="60.47" height="212.20" style="fill:none;stroke:#D7D29E;stroke-width:7.34"/>
	<rect x="3257.10" y="753.04" width="67.94" height="83.53" style="fill:#CAC27E"/>
	<rect x="3260.77" y="756.71" width="60.59" height="76.19" style="fill:none;stroke:#D7D29E;stroke-width:7.34"/>
	<rect x="3325.04" y="800.32" width="67.82" height="36.26" style="fill:#CAC27E"/>
	<rect x="3328.71" y="803.99" width="60.47" height="28.92" style="fill:none;stroke:#D7D29E;stroke-width:7.34"/>
	<rect x="3392.85" y="816.16" width="67.81" height="20.42" style="fill:#CAC27E"/>
	<rect x="3396.53" y="819.83" width="60.47" height="13.08" style="fill:none;stroke:#D7D29E;stroke-width:7.34"/>
	<rect x="3460.67" y="787.69" width="67.82" height="48.88" style="fill:#CAC27E"/>
	<rect x="3464.34" y="791.37" width="60.47" height="41.54" style="fill:none;stroke:#D7D29E;stroke-width:7.34"/>
	<rect x="3528.48" y="652.80" width="67.82" height="183.77" style="fill:#CAC27E"/>
	<rect x="3532.16" y="656.47" width="60.47" height="176.43" style="fill:none;stroke:#D7D29E;stroke-width:7.34"/>
	<rect x="3596.30" y="455.41" width="67.82" height="381.16" style="fill:#CAC27E"/>
	<rect x="3599.97" y="459.09" width="60.47" height="373.82" style="fill:none;stroke:#D7D29E;stroke-width:7.34"/>
	<rect x="3664.11" y="649.83" width="67.82" height="186.74" style="fill:#CAC27E"/>
	<rect x="3667.79" y="653.50" width="60.47" height="179.40" style="fill:none;stroke:#D7D29E;stroke-width:7.34"/>
	<rect x="476.07" y="1544.70" width="67.94" height="62.12" style="fill:#CAC27E"/>
	<rect x="479.74" y="1548.37" width="60.59" height="54.78" style="fill:none;stroke:#D7D29E;stroke-width:7.34"/>
	<rect x="543.88" y="1526.63" width="67.94" height="80.19" style="fill:#CAC27E"/>
	<rect x="547.55" y="1530.30" width="60.59" height="72.85" style="fill:none;stroke:#D7D29E;stroke-width:7.34"/>
	<rect x="679.63" y="1600.01" width="67.82" height="6.81" style="fill:#CAC27E"/>
	<rect x="683.31" y="1603.15" width="60.47" height="0.54" style="fill:none;stroke:#D7D29E;stroke-width:7.34"/>
	<rect x="747.45" y="1601.50" width="67.81" height="5.32" style="fill:#CAC27E"/>
	<rect x="751.12" y="1603.15" width="60.47" height="2.02" style="fill:none;stroke:#D7D29E;stroke-width:7.34"/>
	<rect x="815.26" y="1604.72" width="67.82" height="2.10" style="fill:#CAC27E"/>
	<rect x="818.94" y="1603.15" width="60.47" height="5.24" style="fill:none;stroke:#D7D29E;stroke-width:7.34"/>
	<rect x="883.08" y="1605.95" width="67.81" height="0.87" style="fill:#CAC27E"/>
	<rect x="886.75" y="1603.15" width="60.47" height="6.48" style="fill:none;stroke:#D7D29E;stroke-width:7.34"/>
	<rect x="950.89" y="1606.08" width="67.82" height="0.74" style="fill:#CAC27E"/>
	<rect x="954.57" y="1603.15" width="60.47" height="6.60" style="fill:none;stroke:#D7D29E;stroke-width:7.34"/>
	<rect x="1018.71" y="1604.35" width="67.82" height="2.48" style="fill:#CAC27E"/>
	<rect x="1022.38" y="1603.15" width="60.47" height="4.87" style="fill:none;stroke:#D7D29E;stroke-width:7.34"/>
	<rect x="1086.53" y="1603.23" width="67.94" height="3.59" style="fill:#CAC27E"/>
	<rect x="1090.20" y="1603.15" width="60.59" height="3.75" style="fill:none;stroke:#D7D29E;stroke-width:7.34"/>
	<rect x="1154.46" y="1602.37" width="67.82" height="4.46" style="fill:#CAC27E"/>
	<rect x="1158.14" y="1603.15" width="60.47" height="2.89" style="fill:none;stroke:#D7D29E;stroke-width:7.34"/>
	<rect x="1222.28" y="1550.39" width="67.82" height="56.43" style="fill:#CAC27E"/>
	<rect x="1225.95" y="1554.06" width="60.47" height="49.09" style="fill:none;stroke:#D7D29E;stroke-width:7.34"/>
	<rect x="1290.09" y="1336.05" width="67.82" height="270.77" style="fill:#CAC27E"/>
	<rect x="1293.77" y="1339.72" width="60.47" height="263.43" style="fill:none;stroke:#D7D29E;stroke-width:7.34"/>
	<rect x="1357.91" y="1382.21" width="67.82" height="224.61" style="fill:#CAC27E"/>
	<rect x="1361.58" y="1385.88" width="60.47" height="217.27" style="fill:none;stroke:#D7D29E;stroke-width:7.34"/>
	<rect x="1425.72" y="1425.40" width="67.81" height="181.42" style="fill:#CAC27E"/>
	<rect x="1429.40" y="1429.07" width="60.47" height="174.08" style="fill:none;stroke:#D7D29E;stroke-width:7.34"/>
	<rect x="1493.54" y="1533.31" width="67.82" height="73.51" style="fill:#CAC27E"/>
	<rect x="1497.21" y="1536.98" width="60.47" height="66.17" style="fill:none;stroke:#D7D29E;stroke-width:7.34"/>
	<rect x="1561.35" y="1596.55" width="67.82" height="10.27" style="fill:#CAC27E"/>
	<rect x="1565.03" y="1600.22" width="60.47" height="2.93" style="fill:none;stroke:#D7D29E;stroke-width:7.34"/>
	<rect x="1629.17" y="1604.35" width="67.94" height="2.48" style="fill:#CAC27E"/>
	<rect x="1632.84" y="1603.15" width="60.59" height="4.87" style="fill:none;stroke:#D7D29E;stroke-width:7.34"/>
	<rect x="1697.11" y="1604.59" width="67.81" height="2.23" style="fill:#CAC27E"/>
	<rect x="1700.78" y="1603.15" width="60.47" height="5.12" style="fill:none;stroke:#D7D29E;stroke-width:7.34"/>
	<rect x="1764.92" y="1606.20" width="67.82" height="0.62" style="fill:#CAC27E"/>
	<rect x="1768.59" y="1603.15" width="60.47" height="6.73" style="fill:none;stroke:#D7D29E;stroke-width:7.34"/>
	<rect x="1832.74" y="1604.96" width="67.82" height="1.86" style="fill:#CAC27E"/>
	<rect x="1836.41" y="1603.15" width="60.47" height="5.49" style="fill:none;stroke:#D7D29E;stroke-width:7.34"/>
	<rect x="1900.55" y="1603.36" width="67.82" height="3.47" style="fill:#CAC27E"/>
	<rect x="1904.22" y="1603.15" width="60.47" height="3.88" style="fill:none;stroke:#D7D29E;stroke-width:7.34"/>
	<rect x="1968.37" y="1597.66" width="67.81" height="9.16" style="fill:#CAC27E"/>
	<rect x="1972.04" y="1601.33" width="60.47" height="1.81" style="fill:none;stroke:#D7D29E;stroke-width:7.34"/>
	<rect x="2036.18" y="1555.71" width="67.82" height="51.11" style="fill:#CAC27E"/>
	<rect x="2039.85" y="1559.38" width="60.47" height="43.77" style="fill:none;stroke:#D7D29E;stroke-width:7.34"/>
	<rect x="2104.00" y="1382.70" width="67.82" height="224.12" style="fill:#CAC27E"/>
	<rect x="2107.67" y="1386.37" width="60.47" height="216.77" style="fill:none;stroke:#D7D29E;stroke-width:7.34"/>
	<rect x="2171.81" y="1327.88" width="67.94" height="278.94" style="fill:#CAC27E"/>
	<rect x="2175.48" y="1331.55" width="60.59" height="271.60" style="fill:none;stroke:#D7D29E;stroke-width:7.34"/>
	<rect x="2239.75" y="1496.56" width="67.82" height="110.26" style="fill:#CAC27E"/>
	<rect x="2243.42" y="1500.23" width="60.47" height="102.92" style="fill:none;stroke:#D7D29E;stroke-width:7.34"/>
	<rect x="2307.57" y="1552.37" width="67.82" height="54.45" style="fill:#CAC27E"/>
	<rect x="2311.24" y="1556.04" width="60.47" height="47.11" style="fill:none;stroke:#D7D29E;stroke-width:7.34"/>
	<rect x="2375.38" y="1593.83" width="67.82" height="12.99" style="fill:#CAC27E"/>
	<rect x="2379.05" y="1597.50" width="60.47" height="5.65" style="fill:none;stroke:#D7D29E;stroke-width:7.34"/>
	<rect x="2443.20" y="1601.50" width="67.82" height="5.32" style="fill:#CAC27E"/>
	<rect x="2446.87" y="1603.15" width="60.47" height="2.02" style="fill:none;stroke:#D7D29E;stroke-width:7.34"/>
	<rect x="2511.01" y="1603.48" width="67.82" height="3.34" style="fill:#CAC27E"/>
	<rect x="2514.68" y="1603.15" width="60.47" height="4.00" style="fill:none;stroke:#D7D29E;stroke-width:7.34"/>
	<rect x="2578.83" y="1603.85" width="67.82" height="2.97" style="fill:#CAC27E"/>
	<rect x="2582.50" y="1603.15" width="60.47" height="4.37" style="fill:none;stroke:#D7D29E;stroke-width:7.34"/>
	<rect x="2646.64" y="1602.74" width="67.82" height="4.08" style="fill:#CAC27E"/>
	<rect x="2650.31" y="1603.15" width="60.47" height="3.26" style="fill:none;stroke:#D7D29E;stroke-width:7.34"/>
	<rect x="2714.46" y="1599.89" width="67.94" height="6.93" style="fill:#CAC27E"/>
	<rect x="2718.13" y="1603.15" width="60.59" height="0.41" style="fill:none;stroke:#D7D29E;stroke-width:7.34"/>
	<rect x="2171.81" y="2376.69" width="67.94" height="0.37" style="fill:#CAC27E"/>
	<rect x="2175.48" y="2373.39" width="60.59" height="6.97" style="fill:none;stroke:#D7D29E;stroke-width:7.34"/>
	<rect x="2239.75" y="2297.24" width="67.82" height="79.82" style="fill:#CAC27E"/>
	<rect x="2243.42" y="2300.91" width="60.47" height="72.48" style="fill:none;stroke:#D7D29E;stroke-width:7.34"/>
	<rect x="2307.57" y="1881.43" width="67.82" height="495.63" style="fill:#CAC27E"/>
	<rect x="2311.24" y="1885.10" width="60.47" height="488.29" style="fill:none;stroke:#D7D29E;stroke-width:7.34"/>
	<rect x="2375.38" y="2148.61" width="67.82" height="228.45" style="fill:#CAC27E"/>
	<rect x="2379.05" y="2152.29" width="60.47" height="221.11" style="fill:none;stroke:#D7D29E;stroke-width:7.34"/>
	<rect x="2443.20" y="2286.11" width="67.82" height="90.96" style="fill:#CAC27E"/>
	<rect x="2446.87" y="2289.78" width="60.47" height="83.62" style="fill:none;stroke:#D7D29E;stroke-width:7.34"/>
	<rect x="2511.01" y="2335.73" width="67.82" height="41.33" style="fill:#CAC27E"/>
	<rect x="2514.68" y="2339.40" width="60.47" height="33.99" style="fill:none;stroke:#D7D29E;stroke-width:7.34"/>
	<rect x="2578.83" y="2355.78" width="67.82" height="21.29" style="fill:#CAC27E"/>
	<rect x="2582.50" y="2359.45" width="60.47" height="13.94" style="fill:none;stroke:#D7D29E;stroke-width:7.34"/>
	<rect x="2646.64" y="2328.68" width="67.82" height="48.39" style="fill:#CAC27E"/>
	<rect x="2650.31" y="2332.35" width="60.47" height="41.04" style="fill:none;stroke:#D7D29E;stroke-width:7.34"/>
	<rect x="2714.46" y="2200.47" width="67.94" height="176.60" style="fill:#CAC27E"/>
	<rect x="2718.13" y="2204.14" width="60.59" height="169.25" style="fill:none;stroke:#D7D29E;stroke-width:7.34"/>
	<rect x="2782.39" y="2000.48" width="67.82" height="376.58" style="fill:#CAC27E"/>
	<rect x="2786.07" y="2004.15" width="60.47" height="369.24" style="fill:none;stroke:#D7D29E;stroke-width:7.34"/>
	<rect x="2850.21" y="2176.58" width="67.82" height="200.48" style="fill:#CAC27E"/>
	<rect x="2853.88" y="2180.25" width="60.47" height="193.14" style="fill:none;stroke:#D7D29E;stroke-width:7.34"/>
	<line x1="388.33" y1="836.58" x2="388.33" y2="258.27" style="stroke:#000000;stroke-width:4.90"/>
	<line x1="388.33" y1="836.58" x2="354.30" y2="836.58" style="stroke:#000000;stroke-width:4.90"/>
	<text x="311.78" y="836.58" style="font-family:'Helvetica';font-size:85.02px;fill:#000000" transform="rotate(-90 311.78,836.58)" text-anchor="middle">0</text>
	<line x1="388.33" y1="574.34" x2="354.30" y2="574.34" style="stroke:#000000;stroke-width:4.90"/>
	<text x="311.78" y="574.34" style="font-family:'Helvetica';font-size:85.02px;fill:#000000" transform="rotate(-90 311.78,574.34)" text-anchor="middle">.005</text>
	<line x1="388.33" y1="312.11" x2="354.30" y2="312.11" style="stroke:#000000;stroke-width:4.90"/>
	<text x="311.78" y="312.11" style="font-family:'Helvetica';font-size:85.02px;fill:#000000" transform="rotate(-90 311.78,312.11)" text-anchor="middle">.01</text>
	<line x1="388.33" y1="1606.82" x2="388.33" y2="1028.52" style="stroke:#000000;stroke-width:4.90"/>
	<line x1="388.33" y1="1606.82" x2="354.30" y2="1606.82" style="stroke:#000000;stroke-width:4.90"/>
	<text x="311.78" y="1606.82" style="font-family:'Helvetica';font-size:85.02px;fill:#000000" transform="rotate(-90 311.78,1606.82)" text-anchor="middle">0</text>
	<line x1="388.33" y1="1344.59" x2="354.30" y2="1344.59" style="stroke:#000000;stroke-width:4.90"/>
	<text x="311.78" y="1344.59" style="font-family:'Helvetica';font-size:85.02px;fill:#000000" transform="rotate(-90 311.78,1344.59)" text-anchor="middle">.005</text>
	<line x1="388.33" y1="1082.35" x2="354.30" y2="1082.35" style="stroke:#000000;stroke-width:4.90"/>
	<text x="311.78" y="1082.35" style="font-family:'Helvetica';font-size:85.02px;fill:#000000" transform="rotate(-90 311.78,1082.35)" text-anchor="middle">.01</text>
	<line x1="388.33" y1="2377.06" x2="388.33" y2="1798.76" style="stroke:#000000;stroke-width:4.90"/>
	<line x1="388.33" y1="2377.06" x2="354.30" y2="2377.06" style="stroke:#000000;stroke-width:4.90"/>
	<text x="311.78" y="2377.06" style="font-family:'Helvetica';font-size:85.02px;fill:#000000" transform="rotate(-90 311.78,2377.06)" text-anchor="middle">0</text>
	<line x1="388.33" y1="2114.83" x2="354.30" y2="2114.83" style="stroke:#000000;stroke-width:4.90"/>
	<text x="311.78" y="2114.83" style="font-family:'Helvetica';font-size:85.02px;fill:#000000" transform="rotate(-90 311.78,2114.83)" text-anchor="middle">.005</text>
	<line x1="388.33" y1="1852.72" x2="354.30" y2="1852.72" style="stroke:#000000;stroke-width:4.90"/>
	<text x="311.78" y="1852.72" style="font-family:'Helvetica';font-size:85.02px;fill:#000000" transform="rotate(-90 311.78,1852.72)" text-anchor="middle">.01</text>
	<line x1="388.33" y1="2377.06" x2="3824.49" y2="2377.06" style="stroke:#000000;stroke-width:4.90"/>
	<line x1="444.26" y1="2377.06" x2="444.26" y2="2411.10" style="stroke:#000000;stroke-width:4.90"/>
	<text x="444.26" y="2487.50" style="font-family:'Helvetica';font-size:85.02px;fill:#000000" text-anchor="middle">01jan2017</text>
	<line x1="1275.24" y1="2377.06" x2="1275.24" y2="2411.10" style="stroke:#000000;stroke-width:4.90"/>
	<text x="1275.24" y="2487.50" style="font-family:'Helvetica';font-size:85.02px;fill:#000000" text-anchor="middle">01jan2018</text>
	<line x1="2106.35" y1="2377.06" x2="2106.35" y2="2411.10" style="stroke:#000000;stroke-width:4.90"/>
	<text x="2106.35" y="2487.50" style="font-family:'Helvetica';font-size:85.02px;fill:#000000" text-anchor="middle">01jan2019</text>
	<line x1="2937.33" y1="2377.06" x2="2937.33" y2="2411.10" style="stroke:#000000;stroke-width:4.90"/>
	<text x="2937.33" y="2487.50" style="font-family:'Helvetica';font-size:85.02px;fill:#000000" text-anchor="middle">01jan2020</text>
	<line x1="3770.66" y1="2377.06" x2="3770.66" y2="2411.10" style="stroke:#000000;stroke-width:4.90"/>
	<text x="3770.66" y="2487.50" style="font-family:'Helvetica';font-size:85.02px;fill:#000000" text-anchor="middle">01jan2021</text>
	<rect x="388.33" y="135.39" width="3436.17" height="122.89" style="fill:#D9E6EB"/>
	<rect x="390.78" y="137.83" width="3431.27" height="117.99" style="fill:none;stroke:#D9E6EB;stroke-width:4.90"/>
	<text x="2106.47" y="215.42" style="font-family:'Helvetica';font-size:93.56px;fill:#000000" text-anchor="middle">Hospitalised COVID-19</text>
	<rect x="388.33" y="905.63" width="3436.17" height="122.89" style="fill:#D9E6EB"/>
	<rect x="390.78" y="908.08" width="3431.27" height="117.99" style="fill:none;stroke:#D9E6EB;stroke-width:4.90"/>
	<text x="2106.47" y="985.66" style="font-family:'Helvetica';font-size:93.56px;fill:#000000" text-anchor="middle">Hospitalised flu 2017_19</text>
	<rect x="388.33" y="1676.00" width="3436.17" height="122.76" style="fill:#D9E6EB"/>
	<rect x="390.78" y="1678.45" width="3431.27" height="117.87" style="fill:none;stroke:#D9E6EB;stroke-width:4.90"/>
	<text x="2106.47" y="1756.03" style="font-family:'Helvetica';font-size:93.56px;fill:#000000" text-anchor="middle">General pop 2019</text>
	<text x="170.79" y="1332.71" style="font-family:'Helvetica';font-size:99.99px;fill:#000000" transform="rotate(-90 170.79,1332.71)" text-anchor="middle">Density</text>
	<text x="2029.99" y="2634.61" style="font-family:'Helvetica';font-size:99.99px;fill:#000000" text-anchor="middle">Entry date</text>
	<text x="218.05" y="2737.89" style="font-family:'Helvetica';font-size:79.94px;fill:#000000">Graphs by group</text>
</svg>
