<?xml version="1.0" encoding="UTF-8" standalone="no"?>
<!-- This is a Stata 16.1 generated SVG file (http://www.stata.com) -->

<svg version="1.1" width="5.50in" height="8.00in" viewBox="0 0 3960 5760" xmlns="http://www.w3.org/2000/svg" xmlns:xlink="http://www.w3.org/1999/xlink">
	<desc>Stata Graph - Graph</desc>
	<rect x="0" y="0" width="3960" height="5760" style="fill:#EAF2F3;stroke:none"/>
	<rect x="0.00" y="0.00" width="3960.00" height="5760.00" style="fill:#EAF2F3"/>
	<rect x="3.96" y="3.96" width="3952.08" height="5752.08" style="fill:none;stroke:#EAF2F3;stroke-width:7.92"/>
	<rect x="138.60" y="138.60" width="3682.80" height="5084.10" style="fill:#FFFFFF"/>
	<rect x="142.56" y="142.56" width="3674.88" height="5076.18" style="fill:none;stroke:#FFFFFF;stroke-width:7.92"/>
	<circle cx="2046.06" cy="618.66" r="26.64" style="fill:#000000"/>
	<circle cx="2046.06" cy="618.66" r="20.70" style="fill:none;stroke:#000000;stroke-width:11.88"/>
	<circle cx="1981.80" cy="815.04" r="26.64" style="fill:#000000"/>
	<circle cx="1981.80" cy="815.04" r="20.70" style="fill:none;stroke:#000000;stroke-width:11.88"/>
	<circle cx="1982.16" cy="1011.42" r="26.64" style="fill:#000000"/>
	<circle cx="1982.16" cy="1011.42" r="20.70" style="fill:none;stroke:#000000;stroke-width:11.88"/>
	<circle cx="1984.32" cy="1207.80" r="26.64" style="fill:#000000"/>
	<circle cx="1984.32" cy="1207.80" r="20.70" style="fill:none;stroke:#000000;stroke-width:11.88"/>
	<circle cx="1659.24" cy="1796.94" r="26.64" style="fill:#000000"/>
	<circle cx="1659.24" cy="1796.94" r="20.70" style="fill:none;stroke:#000000;stroke-width:11.88"/>
	<circle cx="1673.64" cy="1993.32" r="26.64" style="fill:#000000"/>
	<circle cx="1673.64" cy="1993.32" r="20.70" style="fill:none;stroke:#000000;stroke-width:11.88"/>
	<circle cx="1681.56" cy="2189.70" r="26.64" style="fill:#000000"/>
	<circle cx="1681.56" cy="2189.70" r="20.70" style="fill:none;stroke:#000000;stroke-width:11.88"/>
	<circle cx="1684.44" cy="2386.08" r="26.64" style="fill:#000000"/>
	<circle cx="1684.44" cy="2386.08" r="20.70" style="fill:none;stroke:#000000;stroke-width:11.88"/>
	<circle cx="2322.00" cy="3171.78" r="26.64" style="fill:#000000"/>
	<circle cx="2322.00" cy="3171.78" r="20.70" style="fill:none;stroke:#000000;stroke-width:11.88"/>
	<circle cx="2251.80" cy="3368.16" r="26.64" style="fill:#000000"/>
	<circle cx="2251.80" cy="3368.16" r="20.70" style="fill:none;stroke:#000000;stroke-width:11.88"/>
	<circle cx="2255.22" cy="3564.54" r="26.64" style="fill:#000000"/>
	<circle cx="2255.22" cy="3564.54" r="20.70" style="fill:none;stroke:#000000;stroke-width:11.88"/>
	<circle cx="2257.74" cy="3760.92" r="26.64" style="fill:#000000"/>
	<circle cx="2257.74" cy="3760.92" r="20.70" style="fill:none;stroke:#000000;stroke-width:11.88"/>
	<circle cx="1879.20" cy="4350.06" r="26.64" style="fill:#000000"/>
	<circle cx="1879.20" cy="4350.06" r="20.70" style="fill:none;stroke:#000000;stroke-width:11.88"/>
	<circle cx="1883.34" cy="4546.44" r="26.64" style="fill:#000000"/>
	<circle cx="1883.34" cy="4546.44" r="20.70" style="fill:none;stroke:#000000;stroke-width:11.88"/>
	<circle cx="1897.20" cy="4742.82" r="26.64" style="fill:#000000"/>
	<circle cx="1897.20" cy="4742.82" r="20.70" style="fill:none;stroke:#000000;stroke-width:11.88"/>
	<circle cx="1898.28" cy="4939.20" r="26.64" style="fill:#000000"/>
	<circle cx="1898.28" cy="4939.20" r="20.70" style="fill:none;stroke:#000000;stroke-width:11.88"/>
	<line x1="2034.90" y1="618.48" x2="2057.40" y2="618.48" style="stroke:#000000;stroke-width:7.92"/>
	<line x1="2057.40" y1="648.72" x2="2057.40" y2="588.24" stroke-linecap="round" style="stroke:#000000;stroke-width:7.92"/>
	<line x1="2034.90" y1="648.72" x2="2034.90" y2="588.24" stroke-linecap="round" style="stroke:#000000;stroke-width:7.92"/>
	<line x1="1969.92" y1="814.86" x2="1993.68" y2="814.86" style="stroke:#000000;stroke-width:7.92"/>
	<line x1="1993.68" y1="845.10" x2="1993.68" y2="784.62" stroke-linecap="round" style="stroke:#000000;stroke-width:7.92"/>
	<line x1="1969.92" y1="845.10" x2="1969.92" y2="784.62" stroke-linecap="round" style="stroke:#000000;stroke-width:7.92"/>
	<line x1="1970.28" y1="1011.24" x2="1994.22" y2="1011.24" style="stroke:#000000;stroke-width:7.92"/>
	<line x1="1994.22" y1="1041.48" x2="1994.22" y2="981.00" stroke-linecap="round" style="stroke:#000000;stroke-width:7.92"/>
	<line x1="1970.28" y1="1041.48" x2="1970.28" y2="981.00" stroke-linecap="round" style="stroke:#000000;stroke-width:7.92"/>
	<line x1="1972.44" y1="1207.62" x2="1996.56" y2="1207.62" style="stroke:#000000;stroke-width:7.92"/>
	<line x1="1996.56" y1="1237.86" x2="1996.56" y2="1177.38" stroke-linecap="round" style="stroke:#000000;stroke-width:7.92"/>
	<line x1="1972.44" y1="1237.86" x2="1972.44" y2="1177.38" stroke-linecap="round" style="stroke:#000000;stroke-width:7.92"/>
	<line x1="1646.28" y1="1796.94" x2="1672.38" y2="1796.94" style="stroke:#000000;stroke-width:7.92"/>
	<line x1="1672.38" y1="1827.18" x2="1672.38" y2="1766.70" stroke-linecap="round" style="stroke:#000000;stroke-width:7.92"/>
	<line x1="1646.28" y1="1827.18" x2="1646.28" y2="1766.70" stroke-linecap="round" style="stroke:#000000;stroke-width:7.92"/>
	<line x1="1660.50" y1="1993.32" x2="1686.96" y2="1993.32" style="stroke:#000000;stroke-width:7.92"/>
	<line x1="1686.96" y1="2023.56" x2="1686.96" y2="1963.08" stroke-linecap="round" style="stroke:#000000;stroke-width:7.92"/>
	<line x1="1660.50" y1="2023.56" x2="1660.50" y2="1963.08" stroke-linecap="round" style="stroke:#000000;stroke-width:7.92"/>
	<line x1="1668.24" y1="2189.70" x2="1695.06" y2="2189.70" style="stroke:#000000;stroke-width:7.92"/>
	<line x1="1695.06" y1="2219.94" x2="1695.06" y2="2159.46" stroke-linecap="round" style="stroke:#000000;stroke-width:7.92"/>
	<line x1="1668.24" y1="2219.94" x2="1668.24" y2="2159.46" stroke-linecap="round" style="stroke:#000000;stroke-width:7.92"/>
	<line x1="1671.12" y1="2386.08" x2="1697.94" y2="2386.08" style="stroke:#000000;stroke-width:7.92"/>
	<line x1="1697.94" y1="2416.32" x2="1697.94" y2="2355.84" stroke-linecap="round" style="stroke:#000000;stroke-width:7.92"/>
	<line x1="1671.12" y1="2416.32" x2="1671.12" y2="2355.84" stroke-linecap="round" style="stroke:#000000;stroke-width:7.92"/>
	<line x1="2298.42" y1="3171.60" x2="2345.94" y2="3171.60" style="stroke:#000000;stroke-width:7.92"/>
	<line x1="2345.94" y1="3201.84" x2="2345.94" y2="3141.36" stroke-linecap="round" style="stroke:#000000;stroke-width:7.92"/>
	<line x1="2298.42" y1="3201.84" x2="2298.42" y2="3141.36" stroke-linecap="round" style="stroke:#000000;stroke-width:7.92"/>
	<line x1="2226.42" y1="3367.98" x2="2277.54" y2="3367.98" style="stroke:#000000;stroke-width:7.92"/>
	<line x1="2277.54" y1="3398.22" x2="2277.54" y2="3337.74" stroke-linecap="round" style="stroke:#000000;stroke-width:7.92"/>
	<line x1="2226.42" y1="3398.22" x2="2226.42" y2="3337.74" stroke-linecap="round" style="stroke:#000000;stroke-width:7.92"/>
	<line x1="2229.48" y1="3564.36" x2="2280.96" y2="3564.36" style="stroke:#000000;stroke-width:7.92"/>
	<line x1="2280.96" y1="3594.60" x2="2280.96" y2="3534.12" stroke-linecap="round" style="stroke:#000000;stroke-width:7.92"/>
	<line x1="2229.48" y1="3594.60" x2="2229.48" y2="3534.12" stroke-linecap="round" style="stroke:#000000;stroke-width:7.92"/>
	<line x1="2232.18" y1="3760.74" x2="2283.66" y2="3760.74" style="stroke:#000000;stroke-width:7.92"/>
	<line x1="2283.66" y1="3790.98" x2="2283.66" y2="3730.50" stroke-linecap="round" style="stroke:#000000;stroke-width:7.92"/>
	<line x1="2232.18" y1="3790.98" x2="2232.18" y2="3730.50" stroke-linecap="round" style="stroke:#000000;stroke-width:7.92"/>
	<line x1="1852.02" y1="4349.88" x2="1906.38" y2="4349.88" style="stroke:#000000;stroke-width:7.92"/>
	<line x1="1906.38" y1="4380.12" x2="1906.38" y2="4319.64" stroke-linecap="round" style="stroke:#000000;stroke-width:7.92"/>
	<line x1="1852.02" y1="4380.12" x2="1852.02" y2="4319.64" stroke-linecap="round" style="stroke:#000000;stroke-width:7.92"/>
	<line x1="1855.98" y1="4546.44" x2="1910.70" y2="4546.44" style="stroke:#000000;stroke-width:7.92"/>
	<line x1="1910.70" y1="4576.68" x2="1910.70" y2="4516.20" stroke-linecap="round" style="stroke:#000000;stroke-width:7.92"/>
	<line x1="1855.98" y1="4576.68" x2="1855.98" y2="4516.20" stroke-linecap="round" style="stroke:#000000;stroke-width:7.92"/>
	<line x1="1869.66" y1="4742.82" x2="1924.92" y2="4742.82" style="stroke:#000000;stroke-width:7.92"/>
	<line x1="1924.92" y1="4773.06" x2="1924.92" y2="4712.58" stroke-linecap="round" style="stroke:#000000;stroke-width:7.92"/>
	<line x1="1869.66" y1="4773.06" x2="1869.66" y2="4712.58" stroke-linecap="round" style="stroke:#000000;stroke-width:7.92"/>
	<line x1="1870.74" y1="4939.20" x2="1925.82" y2="4939.20" style="stroke:#000000;stroke-width:7.92"/>
	<line x1="1925.82" y1="4969.44" x2="1925.82" y2="4908.96" stroke-linecap="round" style="stroke:#000000;stroke-width:7.92"/>
	<line x1="1870.74" y1="4969.44" x2="1870.74" y2="4908.96" stroke-linecap="round" style="stroke:#000000;stroke-width:7.92"/>
	<text x="2958.84" y="647.38" style="font-family:'Helvetica';font-size:82.44px;fill:#000000">2.64 (2.56-2.73)</text>
	<text x="2958.84" y="843.76" style="font-family:'Helvetica';font-size:82.44px;fill:#000000">2.20 (2.13-2.28)</text>
	<text x="2958.84" y="1040.14" style="font-family:'Helvetica';font-size:82.44px;fill:#000000">2.20 (2.13-2.28)</text>
	<text x="2958.84" y="1236.52" style="font-family:'Helvetica';font-size:82.44px;fill:#000000">2.22 (2.14-2.30)</text>
	<text x="2958.84" y="1825.84" style="font-family:'Helvetica';font-size:82.44px;fill:#000000">0.88 (0.85-0.91)</text>
	<text x="2958.84" y="2022.22" style="font-family:'Helvetica';font-size:82.44px;fill:#000000">0.92 (0.88-0.95)</text>
	<text x="2958.84" y="2218.60" style="font-family:'Helvetica';font-size:82.44px;fill:#000000">0.94 (0.90-0.97)</text>
	<text x="2958.84" y="2414.98" style="font-family:'Helvetica';font-size:82.44px;fill:#000000">0.95 (0.91-0.98)</text>
	<text x="2958.84" y="3200.50" style="font-family:'Helvetica';font-size:82.44px;fill:#000000">5.79 (5.41-6.20)</text>
	<text x="2958.84" y="3396.88" style="font-family:'Helvetica';font-size:82.44px;fill:#000000">4.74 (4.41-5.10)</text>
	<text x="2958.84" y="3593.26" style="font-family:'Helvetica';font-size:82.44px;fill:#000000">4.79 (4.45-5.15)</text>
	<text x="2958.84" y="3789.64" style="font-family:'Helvetica';font-size:82.44px;fill:#000000">4.82 (4.48-5.19)</text>
	<text x="2958.84" y="4378.78" style="font-family:'Helvetica';font-size:82.44px;fill:#000000">1.65 (1.52-1.78)</text>
	<text x="2958.84" y="4575.34" style="font-family:'Helvetica';font-size:82.44px;fill:#000000">1.66 (1.54-1.80)</text>
	<text x="2958.84" y="4771.72" style="font-family:'Helvetica';font-size:82.44px;fill:#000000">1.73 (1.60-1.87)</text>
	<text x="2958.84" y="4968.10" style="font-family:'Helvetica';font-size:82.44px;fill:#000000">1.74 (1.61-1.88)</text>
	<text x="384.84" y="647.38" style="font-family:'Helvetica';font-size:82.44px;fill:#707070">Adj for matching factors</text>
	<text x="384.84" y="843.76" style="font-family:'Helvetica';font-size:82.44px;fill:#707070">+ comorbidities</text>
	<text x="384.84" y="1040.14" style="font-family:'Helvetica';font-size:82.44px;fill:#707070">+ obesity/smoking</text>
	<text x="384.84" y="1236.52" style="font-family:'Helvetica';font-size:82.44px;fill:#707070">+ IMD/ethnicity</text>
	<text x="384.84" y="1825.84" style="font-family:'Helvetica';font-size:82.44px;fill:#707070">Adj for age, sex, geography</text>
	<text x="384.84" y="2022.22" style="font-family:'Helvetica';font-size:82.44px;fill:#707070">+ comorbidities</text>
	<text x="384.84" y="2218.60" style="font-family:'Helvetica';font-size:82.44px;fill:#707070">+ obesity/smoking</text>
	<text x="384.84" y="2414.98" style="font-family:'Helvetica';font-size:82.44px;fill:#707070">+ IMD/ethnicity</text>
	<text x="384.84" y="3200.50" style="font-family:'Helvetica';font-size:82.44px;fill:#707070">Adj for matching factors</text>
	<text x="384.84" y="3396.88" style="font-family:'Helvetica';font-size:82.44px;fill:#707070">+ comorbidities</text>
	<text x="384.84" y="3593.26" style="font-family:'Helvetica';font-size:82.44px;fill:#707070">+ obesity/smoking</text>
	<text x="384.84" y="3789.64" style="font-family:'Helvetica';font-size:82.44px;fill:#707070">+ IMD/ethnicity</text>
	<text x="384.84" y="4378.78" style="font-family:'Helvetica';font-size:82.44px;fill:#707070">Adj for age, sex, geography</text>
	<text x="384.84" y="4575.34" style="font-family:'Helvetica';font-size:82.44px;fill:#707070">+ comorbidities</text>
	<text x="384.84" y="4771.72" style="font-family:'Helvetica';font-size:82.44px;fill:#707070">+ obesity/smoking</text>
	<text x="384.84" y="4968.10" style="font-family:'Helvetica';font-size:82.44px;fill:#707070">+ IMD/ethnicity</text>
	<line x1="1703.88" y1="5135.58" x2="1703.88" y2="5056.38" style="stroke:#FF0000;stroke-width:11.88"/>
	<line x1="1703.88" y1="5016.78" x2="1703.88" y2="4937.58" style="stroke:#FF0000;stroke-width:11.88"/>
	<line x1="1703.88" y1="4897.98" x2="1703.88" y2="4818.78" style="stroke:#FF0000;stroke-width:11.88"/>
	<line x1="1703.88" y1="4779.18" x2="1703.88" y2="4699.98" style="stroke:#FF0000;stroke-width:11.88"/>
	<line x1="1703.88" y1="4660.20" x2="1703.88" y2="4581.00" style="stroke:#FF0000;stroke-width:11.88"/>
	<line x1="1703.88" y1="4541.40" x2="1703.88" y2="4462.20" style="stroke:#FF0000;stroke-width:11.88"/>
	<line x1="1703.88" y1="4422.60" x2="1703.88" y2="4343.40" style="stroke:#FF0000;stroke-width:11.88"/>
	<line x1="1703.88" y1="4303.80" x2="1703.88" y2="4224.60" style="stroke:#FF0000;stroke-width:11.88"/>
	<line x1="1703.88" y1="4185.00" x2="1703.88" y2="4105.80" style="stroke:#FF0000;stroke-width:11.88"/>
	<line x1="1703.88" y1="4066.20" x2="1703.88" y2="3986.82" style="stroke:#FF0000;stroke-width:11.88"/>
	<line x1="1703.88" y1="3947.22" x2="1703.88" y2="3868.02" style="stroke:#FF0000;stroke-width:11.88"/>
	<line x1="1703.88" y1="3828.42" x2="1703.88" y2="3749.22" style="stroke:#FF0000;stroke-width:11.88"/>
	<line x1="1703.88" y1="3709.62" x2="1703.88" y2="3630.42" style="stroke:#FF0000;stroke-width:11.88"/>
	<line x1="1703.88" y1="3590.82" x2="1703.88" y2="3511.62" style="stroke:#FF0000;stroke-width:11.88"/>
	<line x1="1703.88" y1="3472.02" x2="1703.88" y2="3392.64" style="stroke:#FF0000;stroke-width:11.88"/>
	<line x1="1703.88" y1="3353.04" x2="1703.88" y2="3273.84" style="stroke:#FF0000;stroke-width:11.88"/>
	<line x1="1703.88" y1="3234.24" x2="1703.88" y2="3155.04" style="stroke:#FF0000;stroke-width:11.88"/>
	<line x1="1703.88" y1="3115.44" x2="1703.88" y2="3036.24" style="stroke:#FF0000;stroke-width:11.88"/>
	<line x1="1703.88" y1="2996.64" x2="1703.88" y2="2917.44" style="stroke:#FF0000;stroke-width:11.88"/>
	<line x1="1703.88" y1="2877.84" x2="1703.88" y2="2798.64" style="stroke:#FF0000;stroke-width:11.88"/>
	<line x1="1703.88" y1="2759.04" x2="1703.88" y2="2679.66" style="stroke:#FF0000;stroke-width:11.88"/>
	<line x1="1703.88" y1="2640.06" x2="1703.88" y2="2560.86" style="stroke:#FF0000;stroke-width:11.88"/>
	<line x1="1703.88" y1="2521.26" x2="1703.88" y2="2442.06" style="stroke:#FF0000;stroke-width:11.88"/>
	<line x1="1703.88" y1="2402.46" x2="1703.88" y2="2323.26" style="stroke:#FF0000;stroke-width:11.88"/>
	<line x1="1703.88" y1="2283.66" x2="1703.88" y2="2204.46" style="stroke:#FF0000;stroke-width:11.88"/>
	<line x1="1703.88" y1="2164.86" x2="1703.88" y2="2085.48" style="stroke:#FF0000;stroke-width:11.88"/>
	<line x1="1703.88" y1="2045.88" x2="1703.88" y2="1966.68" style="stroke:#FF0000;stroke-width:11.88"/>
	<line x1="1703.88" y1="1927.08" x2="1703.88" y2="1847.88" style="stroke:#FF0000;stroke-width:11.88"/>
	<line x1="1703.88" y1="1808.28" x2="1703.88" y2="1729.08" style="stroke:#FF0000;stroke-width:11.88"/>
	<line x1="1703.88" y1="1689.48" x2="1703.88" y2="1610.28" style="stroke:#FF0000;stroke-width:11.88"/>
	<line x1="1703.88" y1="1570.68" x2="1703.88" y2="1491.48" style="stroke:#FF0000;stroke-width:11.88"/>
	<line x1="1703.88" y1="1451.70" x2="1703.88" y2="1372.50" style="stroke:#FF0000;stroke-width:11.88"/>
	<line x1="1703.88" y1="1332.90" x2="1703.88" y2="1253.70" style="stroke:#FF0000;stroke-width:11.88"/>
	<line x1="1703.88" y1="1214.10" x2="1703.88" y2="1134.90" style="stroke:#FF0000;stroke-width:11.88"/>
	<line x1="1703.88" y1="1095.30" x2="1703.88" y2="1016.10" style="stroke:#FF0000;stroke-width:11.88"/>
	<line x1="1703.88" y1="976.50" x2="1703.88" y2="897.30" style="stroke:#FF0000;stroke-width:11.88"/>
	<line x1="1703.88" y1="857.70" x2="1703.88" y2="778.32" style="stroke:#FF0000;stroke-width:11.88"/>
	<line x1="1703.88" y1="738.72" x2="1703.88" y2="659.52" style="stroke:#FF0000;stroke-width:11.88"/>
	<line x1="1703.88" y1="619.92" x2="1703.88" y2="540.72" style="stroke:#FF0000;stroke-width:11.88"/>
	<line x1="1703.88" y1="501.12" x2="1703.88" y2="422.28" style="stroke:#FF0000;stroke-width:11.88"/>
	<path d="" stroke-linejoin="round" style="fill:none;stroke:#FF0000;stroke-width:11.88"/>
	<text x="1149.12" y="254.62" style="font-family:'Helvetica';font-size:82.44px;fill:#000000" text-anchor="middle">a) Composite outcome of hospitalisation or death</text>
	<text x="533.52" y="1629.46" style="font-family:'Helvetica';font-size:82.44px;fill:#000000" text-anchor="middle">vs flu controls</text>
	<text x="940.68" y="451.00" style="font-family:'Helvetica';font-size:82.44px;fill:#000000" text-anchor="middle">vs 2019 general population controls</text>
	<text x="625.14" y="2807.74" style="font-family:'Helvetica';font-size:82.44px;fill:#000000" text-anchor="middle">b) All-cause mortality</text>
	<text x="533.52" y="4182.40" style="font-family:'Helvetica';font-size:82.44px;fill:#000000" text-anchor="middle">vs flu controls</text>
	<text x="940.68" y="3004.12" style="font-family:'Helvetica';font-size:82.44px;fill:#000000" text-anchor="middle">vs 2019 general population controls</text>
	<text x="3247.74" y="451.00" style="font-family:'Helvetica';font-size:82.44px;fill:#000000" text-anchor="middle">HR and 95% CI</text>
	<line x1="138.60" y1="5222.70" x2="3821.40" y2="5222.70" style="stroke:#000000;stroke-width:7.92"/>
	<line x1="1459.98" y1="5222.70" x2="1459.98" y2="5277.60" style="stroke:#000000;stroke-width:7.92"/>
	<text x="1459.98" y="5401.31" style="font-family:'Helvetica';font-size:137.52px;fill:#000000" text-anchor="middle">.5</text>
	<line x1="1703.88" y1="5222.70" x2="1703.88" y2="5277.60" style="stroke:#000000;stroke-width:7.92"/>
	<text x="1703.88" y="5401.31" style="font-family:'Helvetica';font-size:137.52px;fill:#000000" text-anchor="middle">1</text>
	<line x1="1947.96" y1="5222.70" x2="1947.96" y2="5277.60" style="stroke:#000000;stroke-width:7.92"/>
	<text x="1947.96" y="5401.31" style="font-family:'Helvetica';font-size:137.52px;fill:#000000" text-anchor="middle">2</text>
	<line x1="2270.52" y1="5222.70" x2="2270.52" y2="5277.60" style="stroke:#000000;stroke-width:7.92"/>
	<text x="2270.52" y="5401.31" style="font-family:'Helvetica';font-size:137.52px;fill:#000000" text-anchor="middle">5</text>
	<line x1="2514.42" y1="5222.70" x2="2514.42" y2="5277.60" style="stroke:#000000;stroke-width:7.92"/>
	<text x="2514.42" y="5401.31" style="font-family:'Helvetica';font-size:137.52px;fill:#000000" text-anchor="middle">10</text>
	<text x="1980.00" y="5552.51" style="font-family:'Helvetica';font-size:137.52px;fill:#000000" text-anchor="middle">HR and 95% CI</text>
</svg>
