<?xml version="1.0" encoding="UTF-8" standalone="no"?>
<!-- This is a Stata 16.1 generated SVG file (http://www.stata.com) -->

<svg version="1.1" width="5.50in" height="4.00in" viewBox="0 0 3960 2880" xmlns="http://www.w3.org/2000/svg" xmlns:xlink="http://www.w3.org/1999/xlink">
	<desc>Stata Graph - composite_agesex</desc>
	<rect x="0" y="0" width="3960" height="2880" style="fill:#EAF2F3;stroke:none"/>
	<rect x="0.00" y="0.00" width="3959.88" height="2880.00" style="fill:#EAF2F3"/>
	<rect x="2.88" y="2.88" width="3954.12" height="2874.24" style="fill:none;stroke:#EAF2F3;stroke-width:5.76"/>
	<rect x="290.81" y="100.86" width="3568.21" height="1852.84" style="fill:#FFFFFF"/>
	<rect x="293.69" y="103.74" width="3562.45" height="1847.08" style="fill:none;stroke:#FFFFFF;stroke-width:5.76"/>
	<line x1="290.81" y1="1890.34" x2="3859.02" y2="1890.34" style="stroke:#EAF2F3;stroke-width:8.64"/>
	<line x1="290.81" y1="1458.81" x2="3859.02" y2="1458.81" style="stroke:#EAF2F3;stroke-width:8.64"/>
	<line x1="290.81" y1="1027.28" x2="3859.02" y2="1027.28" style="stroke:#EAF2F3;stroke-width:8.64"/>
	<line x1="290.81" y1="595.75" x2="3859.02" y2="595.75" style="stroke:#EAF2F3;stroke-width:8.64"/>
	<path d=" M354.05 1890.34 L354.05 1890.34 L354.05 1890.34 L354.05 1890.34 L354.05 1890.34 L359.87 1890.34 L359.87 1877.47 L365.56 1877.47 L365.56 1862.62 L377.07 1862.62 L377.07 1850.74 L388.45 1850.74 L388.45 1838.24 L399.96 1838.24 L399.96 1828.46 L411.47 1828.46 L411.47 1818.19 L422.85 1818.19 L422.85 1809.53 L434.36 1809.53 L434.36 1799.26 L445.87 1799.26 L445.87 1791.58 L457.38 1791.58 L457.38 1782.80 L468.76 1782.80 L468.76 1774.26 L480.27 1774.26 L480.27 1766.22 L491.78 1766.22 L491.78 1759.04 L503.17 1759.04 L503.17 1752.23 L514.68 1752.23 L514.68 1746.29 L526.18 1746.29 L526.18 1740.35 L537.57 1740.35 L537.57 1733.79 L549.08 1733.79 L549.08 1728.10 L560.59 1728.10 L560.59 1723.52 L572.10 1723.52 L572.10 1717.70 L583.48 1717.70 L583.48 1713.25 L594.99 1713.25 L594.99 1709.16 L606.50 1709.16 L606.50 1705.20 L617.88 1705.20 L617.88 1701.62 L629.39 1701.62 L629.39 1695.55 L640.90 1695.55 L640.90 1689.74 L652.41 1689.74 L652.41 1683.42 L663.79 1683.42 L663.79 1678.10 L675.30 1678.10 L675.30 1673.77 L686.81 1673.77 L686.81 1670.06 L698.20 1670.06 L698.20 1665.60 L709.71 1665.60 L709.71 1662.26 L721.22 1662.26 L721.22 1658.18 L732.60 1658.18 L732.60 1653.85 L744.11 1653.85 L744.11 1648.28 L755.62 1648.28 L755.62 1644.94 L767.13 1644.94 L767.13 1641.47 L778.51 1641.47 L778.51 1638.25 L790.02 1638.25 L790.02 1635.04 L801.53 1635.04 L801.53 1632.07 L812.91 1632.07 L812.91 1628.97 L824.42 1628.97 L824.42 1625.88 L835.93 1625.88 L835.93 1622.66 L847.32 1622.66 L847.32 1619.57 L858.83 1619.57 L858.83 1615.73 L870.33 1615.73 L870.33 1613.63 L881.84 1613.63 L881.84 1610.90 L893.23 1610.90 L893.23 1606.33 L904.74 1606.33 L904.74 1603.48 L916.25 1603.48 L916.25 1599.39 L927.63 1599.39 L927.63 1596.92 L939.14 1596.92 L939.14 1593.21 L950.65 1593.21 L950.65 1589.87 L962.03 1589.87 L962.03 1587.14 L973.54 1587.14 L973.54 1583.55 L985.05 1583.55 L985.05 1580.46 L996.56 1580.46 L996.56 1577.24 L1007.94 1577.24 L1007.94 1573.90 L1019.45 1573.90 L1019.45 1571.06 L1030.96 1571.06 L1030.96 1567.96 L1042.35 1567.96 L1042.35 1564.74 L1053.86 1564.74 L1053.86 1561.65 L1065.36 1561.65 L1065.36 1558.68 L1076.87 1558.68 L1076.87 1555.34 L1088.26 1555.34 L1088.26 1552.49 L1099.77 1552.49 L1099.77 1550.26 L1111.28 1550.26 L1111.28 1548.78 L1122.66 1548.78 L1122.66 1546.55 L1134.17 1546.55 L1134.17 1543.21 L1145.68 1543.21 L1145.68 1540.49 L1157.06 1540.49 L1157.06 1538.14 L1168.57 1538.14 L1168.57 1536.03 L1180.08 1536.03 L1180.08 1533.19 L1191.59 1533.19 L1191.59 1531.08 L1202.97 1531.08 L1202.97 1528.98 L1214.48 1528.98 L1214.48 1526.50 L1225.99 1526.50 L1225.99 1524.52 L1237.38 1524.52 L1237.38 1521.80 L1248.88 1521.80 L1248.88 1518.58 L1260.39 1518.58 L1260.39 1515.98 L1271.78 1515.98 L1271.78 1513.01 L1283.29 1513.01 L1283.29 1509.67 L1294.80 1509.67 L1294.80 1507.45 L1306.31 1507.45 L1306.31 1505.22 L1317.69 1505.22 L1317.69 1502.00 L1329.20 1502.00 L1329.20 1499.90 L1340.71 1499.90 L1340.71 1497.92 L1352.09 1497.92 L1352.09 1494.58 L1363.60 1494.58 L1363.60 1491.61 L1375.11 1491.61 L1375.11 1489.38 L1386.49 1489.38 L1386.49 1487.52 L1398.00 1487.52 L1398.00 1486.04 L1409.51 1486.04 L1409.51 1482.94 L1421.02 1482.94 L1421.02 1481.09 L1432.41 1481.09 L1432.41 1478.86 L1443.91 1478.86 L1443.91 1477.62 L1455.42 1477.62 L1455.42 1475.52 L1466.81 1475.52 L1466.81 1473.78 L1478.32 1473.78 L1478.32 1471.43 L1489.83 1471.43 L1489.83 1469.58 L1501.34 1469.58 L1501.34 1467.84 L1512.72 1467.84 L1512.72 1465.86 L1524.23 1465.86 L1524.23 1463.51 L1535.74 1463.51 L1535.74 1461.78 L1547.12 1461.78 L1547.12 1460.17 L1558.63 1460.17 L1558.63 1458.44 L1570.14 1458.44 L1570.14 1457.20 L1581.53 1457.20 L1581.53 1454.60 L1593.03 1454.60 L1593.03 1452.38 L1604.54 1452.38 L1604.54 1450.52 L1616.05 1450.52 L1616.05 1448.54 L1627.44 1448.54 L1627.44 1446.19 L1638.94 1446.19 L1638.94 1444.46 L1650.45 1444.46 L1650.45 1442.72 L1661.84 1442.72 L1661.84 1440.50 L1673.35 1440.50 L1673.35 1438.02 L1684.86 1438.02 L1684.86 1436.66 L1696.24 1436.66 L1696.24 1433.69 L1707.75 1433.69 L1707.75 1431.58 L1719.26 1431.58 L1719.26 1429.36 L1730.77 1429.36 L1730.77 1428.24 L1742.15 1428.24 L1742.15 1426.39 L1753.66 1426.39 L1753.66 1424.65 L1765.17 1424.65 L1765.17 1421.93 L1776.56 1421.93 L1776.56 1420.69 L1788.06 1420.69 L1788.06 1418.47 L1799.57 1418.47 L1799.57 1416.86 L1810.96 1416.86 L1810.96 1414.63 L1822.47 1414.63 L1822.47 1413.02 L1833.97 1413.02 L1833.97 1411.78 L1845.48 1411.78 L1845.48 1409.56 L1856.87 1409.56 L1856.87 1407.70 L1868.38 1407.70 L1868.38 1405.60 L1879.89 1405.60 L1879.89 1403.12 L1891.27 1403.12 L1891.27 1401.02 L1902.78 1401.02 L1902.78 1398.91 L1914.29 1398.91 L1914.29 1396.69 L1925.67 1396.69 L1925.67 1394.83 L1937.18 1394.83 L1937.18 1393.10 L1948.69 1393.10 L1948.69 1392.11 L1960.20 1392.11 L1960.20 1390.37 L1971.59 1390.37 L1971.59 1389.38 L1983.09 1389.38 L1983.09 1386.91 L1994.60 1386.91 L1994.60 1384.93 L2005.99 1384.93 L2005.99 1383.32 L2017.50 1383.32 L2017.50 1381.22 L2029.01 1381.22 L2029.01 1380.23 L2040.51 1380.23 L2040.51 1378.25 L2051.90 1378.25 L2051.90 1376.27 L2063.41 1376.27 L2063.41 1373.79 L2074.92 1373.79 L2074.92 1371.81 L2086.30 1371.81 L2086.30 1369.71 L2097.81 1369.71 L2097.81 1366.99 L2109.32 1366.99 L2109.32 1366.00 L2120.70 1366.00 L2120.70 1365.13 L2132.21 1365.13 L2132.21 1363.64 L2143.72 1363.64 L2143.72 1362.16 L2155.23 1362.16 L2155.23 1360.43 L2166.61 1360.43 L2166.61 1358.32 L2178.12 1358.32 L2178.12 1357.21 L2189.63 1357.21 L2189.63 1354.73 L2201.02 1354.73 L2201.02 1352.75 L2212.53 1352.75 L2212.53 1351.52 L2224.03 1351.52 L2224.03 1350.15 L2235.42 1350.15 L2235.42 1349.16 L2246.93 1349.16 L2246.93 1346.94 L2258.44 1346.94 L2258.44 1346.44 L2269.95 1346.44 L2269.95 1344.09 L2281.33 1344.09 L2281.33 1343.10 L2292.84 1343.10 L2292.84 1341.86 L2304.35 1341.86 L2304.35 1340.25 L2315.73 1340.25 L2315.73 1339.14 L2327.24 1339.14 L2327.24 1336.42 L2338.75 1336.42 L2338.75 1334.93 L2350.14 1334.93 L2350.14 1334.19 L2361.64 1334.19 L2361.64 1332.33 L2373.15 1332.33 L2373.15 1330.97 L2384.66 1330.97 L2384.66 1329.49 L2396.05 1329.49 L2396.05 1328.75 L2407.56 1328.75 L2407.56 1327.88 L2419.07 1327.88 L2419.07 1325.90 L2430.45 1325.90 L2430.45 1324.54 L2441.96 1324.54 L2441.96 1323.30 L2453.47 1323.30 L2453.47 1321.69 L2464.98 1321.69 L2464.98 1321.20 L2476.36 1321.20 L2476.36 1319.71 L2487.87 1319.71 L2487.87 1318.10 L2499.38 1318.10 L2499.38 1317.11 L2510.76 1317.11 L2510.76 1316.74 L2522.27 1316.74 L2522.27 1314.76 L2533.78 1314.76 L2533.78 1312.41 L2545.17 1312.41 L2545.17 1311.17 L2556.68 1311.17 L2556.68 1310.55 L2568.18 1310.55 L2568.18 1309.19 L2579.69 1309.19 L2579.69 1308.08 L2591.08 1308.08 L2591.08 1306.84 L2602.59 1306.84 L2602.59 1305.60 L2614.09 1305.60 L2614.09 1305.23 L2625.48 1305.23 L2625.48 1303.25 L2636.99 1303.25 L2636.99 1303.25 L2648.50 1303.25 L2648.50 1301.40 L2659.88 1301.40 L2659.88 1300.65 L2671.39 1300.65 L2671.39 1298.18 L2682.90 1298.18 L2682.90 1295.58 L2694.41 1295.58 L2694.41 1294.59 L2705.79 1294.59 L2705.79 1292.36 L2717.30 1292.36 L2717.30 1289.64 L2728.81 1289.64 L2728.81 1288.03 L2740.20 1288.03 L2740.20 1288.03 L2751.70 1288.03 L2751.70 1285.80 L2763.21 1285.80 L2763.21 1285.80 L2774.60 1285.80 L2774.60 1285.80 L2786.11 1285.80 L2786.11 1285.80 L2797.62 1285.80 L2797.62 1285.80 L2809.13 1285.80 L2809.13 1285.80 L2820.51 1285.80 L2820.51 1285.80 L2832.02 1285.80 L2832.02 1285.80 L2843.53 1285.80 L2843.53 1285.80 L2854.91 1285.80 L2854.91 1285.80 L2866.42 1285.80 L2866.42 1285.80 L2877.93 1285.80 L2877.93 1285.80 L2889.44 1285.80 L2889.44 1285.80 L2900.82 1285.80 L2900.82 1250.66 L2912.33 1250.66 L2912.33 1250.66 L2923.84 1250.66 L2923.84 1250.66 L2935.23 1250.66 L2935.23 1250.66 L2946.74 1250.66 L2946.74 1250.66 L2958.24 1250.66 L2958.24 1250.66 L2969.63 1250.66 L2969.63 1250.66 L2981.14 1250.66 L2981.14 1250.66 L2992.65 1250.66 L2992.65 1250.66 L3004.16 1250.66 L3004.16 1250.66 L3015.54 1250.66 L3015.54 1250.66 L3027.05 1250.66 L3027.05 1250.66 L3038.56 1250.66 L3038.56 1250.66 L3072.96 1250.66 L3072.96 1250.66 L3095.85 1250.66 L3095.85 1250.66 L3256.48 1250.66 L3256.48 1250.66 L3290.88 1250.66 L3290.88 1250.66" stroke-linejoin="round" style="fill:none;stroke:#1A476F;stroke-width:8.64"/>
	<path d=" M354.05 1890.34 L354.05 1890.34 L354.05 1890.34 L354.05 1890.34 L354.05 1890.34 L359.87 1890.34 L359.87 1877.84 L365.56 1877.84 L365.56 1864.72 L377.07 1864.72 L377.07 1851.23 L388.45 1851.23 L388.45 1840.47 L399.96 1840.47 L399.96 1829.08 L411.47 1829.08 L411.47 1817.94 L422.85 1817.94 L422.85 1807.55 L434.36 1807.55 L434.36 1799.01 L445.87 1799.01 L445.87 1790.84 L457.38 1790.84 L457.38 1782.43 L468.76 1782.43 L468.76 1773.76 L480.27 1773.76 L480.27 1768.07 L491.78 1768.07 L491.78 1760.40 L503.17 1760.40 L503.17 1752.48 L514.68 1752.48 L514.68 1745.30 L526.18 1745.30 L526.18 1738.12 L537.57 1738.12 L537.57 1731.19 L549.08 1731.19 L549.08 1726.49 L560.59 1726.49 L560.59 1720.06 L572.10 1720.06 L572.10 1713.74 L583.48 1713.74 L583.48 1707.18 L594.99 1707.18 L594.99 1701.24 L606.50 1701.24 L606.50 1696.42 L617.88 1696.42 L617.88 1690.48 L629.39 1690.48 L629.39 1685.28 L640.90 1685.28 L640.90 1680.33 L652.41 1680.33 L652.41 1675.01 L663.79 1675.01 L663.79 1669.44 L675.30 1669.44 L675.30 1662.88 L686.81 1662.88 L686.81 1658.18 L698.20 1658.18 L698.20 1653.10 L709.71 1653.10 L709.71 1647.66 L721.22 1647.66 L721.22 1644.69 L732.60 1644.69 L732.60 1638.13 L744.11 1638.13 L744.11 1633.92 L755.62 1633.92 L755.62 1629.22 L767.13 1629.22 L767.13 1624.76 L778.51 1624.76 L778.51 1619.94 L790.02 1619.94 L790.02 1615.85 L801.53 1615.85 L801.53 1611.77 L812.91 1611.77 L812.91 1607.93 L824.42 1607.93 L824.42 1604.72 L835.93 1604.72 L835.93 1601.38 L847.32 1601.38 L847.32 1598.78 L858.83 1598.78 L858.83 1594.20 L870.33 1594.20 L870.33 1590.86 L881.84 1590.86 L881.84 1588.13 L893.23 1588.13 L893.23 1583.80 L904.74 1583.80 L904.74 1580.21 L916.25 1580.21 L916.25 1576.13 L927.63 1576.13 L927.63 1572.05 L939.14 1572.05 L939.14 1568.46 L950.65 1568.46 L950.65 1566.11 L962.03 1566.11 L962.03 1562.39 L973.54 1562.39 L973.54 1559.42 L985.05 1559.42 L985.05 1556.20 L996.56 1556.20 L996.56 1552.00 L1007.94 1552.00 L1007.94 1548.41 L1019.45 1548.41 L1019.45 1546.18 L1030.96 1546.18 L1030.96 1542.84 L1042.35 1542.84 L1042.35 1539.50 L1053.86 1539.50 L1053.86 1535.91 L1065.36 1535.91 L1065.36 1532.32 L1076.87 1532.32 L1076.87 1528.73 L1088.26 1528.73 L1088.26 1524.03 L1099.77 1524.03 L1099.77 1520.94 L1111.28 1520.94 L1111.28 1517.59 L1122.66 1517.59 L1122.66 1514.87 L1134.17 1514.87 L1134.17 1511.78 L1145.68 1511.78 L1145.68 1508.68 L1157.06 1508.68 L1157.06 1505.96 L1168.57 1505.96 L1168.57 1501.75 L1180.08 1501.75 L1180.08 1498.91 L1191.59 1498.91 L1191.59 1495.32 L1202.97 1495.32 L1202.97 1492.97 L1214.48 1492.97 L1214.48 1490.62 L1225.99 1490.62 L1225.99 1487.89 L1237.38 1487.89 L1237.38 1485.17 L1248.88 1485.17 L1248.88 1482.45 L1260.39 1482.45 L1260.39 1479.97 L1271.78 1479.97 L1271.78 1477.99 L1283.29 1477.99 L1283.29 1475.39 L1294.80 1475.39 L1294.80 1472.79 L1306.31 1472.79 L1306.31 1470.32 L1317.69 1470.32 L1317.69 1467.23 L1329.20 1467.23 L1329.20 1465.49 L1340.71 1465.49 L1340.71 1462.52 L1352.09 1462.52 L1352.09 1460.17 L1363.60 1460.17 L1363.60 1457.57 L1375.11 1457.57 L1375.11 1454.60 L1386.49 1454.60 L1386.49 1452.00 L1398.00 1452.00 L1398.00 1449.41 L1409.51 1449.41 L1409.51 1447.05 L1421.02 1447.05 L1421.02 1445.07 L1432.41 1445.07 L1432.41 1442.10 L1443.91 1442.10 L1443.91 1439.50 L1455.42 1439.50 L1455.42 1436.41 L1466.81 1436.41 L1466.81 1433.56 L1478.32 1433.56 L1478.32 1430.97 L1489.83 1430.97 L1489.83 1428.12 L1501.34 1428.12 L1501.34 1425.52 L1512.72 1425.52 L1512.72 1423.17 L1524.23 1423.17 L1524.23 1420.94 L1535.74 1420.94 L1535.74 1418.59 L1547.12 1418.59 L1547.12 1416.49 L1558.63 1416.49 L1558.63 1414.63 L1570.14 1414.63 L1570.14 1412.65 L1581.53 1412.65 L1581.53 1409.93 L1593.03 1409.93 L1593.03 1407.82 L1604.54 1407.82 L1604.54 1405.10 L1616.05 1405.10 L1616.05 1402.26 L1627.44 1402.26 L1627.44 1399.90 L1638.94 1399.90 L1638.94 1397.68 L1650.45 1397.68 L1650.45 1394.95 L1661.84 1394.95 L1661.84 1392.35 L1673.35 1392.35 L1673.35 1389.76 L1684.86 1389.76 L1684.86 1387.53 L1696.24 1387.53 L1696.24 1384.31 L1707.75 1384.31 L1707.75 1381.59 L1719.26 1381.59 L1719.26 1379.86 L1730.77 1379.86 L1730.77 1378.00 L1742.15 1378.00 L1742.15 1375.77 L1753.66 1375.77 L1753.66 1375.03 L1765.17 1375.03 L1765.17 1372.80 L1776.56 1372.80 L1776.56 1371.07 L1788.06 1371.07 L1788.06 1369.21 L1799.57 1369.21 L1799.57 1367.23 L1810.96 1367.23 L1810.96 1365.25 L1822.47 1365.25 L1822.47 1362.90 L1833.97 1362.90 L1833.97 1359.81 L1845.48 1359.81 L1845.48 1357.08 L1856.87 1357.08 L1856.87 1355.35 L1868.38 1355.35 L1868.38 1352.51 L1879.89 1352.51 L1879.89 1350.15 L1891.27 1350.15 L1891.27 1349.04 L1902.78 1349.04 L1902.78 1347.06 L1914.29 1347.06 L1914.29 1344.96 L1925.67 1344.96 L1925.67 1344.21 L1937.18 1344.21 L1937.18 1342.23 L1948.69 1342.23 L1948.69 1340.50 L1960.20 1340.50 L1960.20 1338.27 L1971.59 1338.27 L1971.59 1336.42 L1983.09 1336.42 L1983.09 1333.70 L1994.60 1333.70 L1994.60 1332.21 L2005.99 1332.21 L2005.99 1330.35 L2017.50 1330.35 L2017.50 1328.37 L2029.01 1328.37 L2029.01 1326.02 L2040.51 1326.02 L2040.51 1324.66 L2051.90 1324.66 L2051.90 1322.93 L2063.41 1322.93 L2063.41 1321.44 L2074.92 1321.44 L2074.92 1318.84 L2086.30 1318.84 L2086.30 1317.24 L2097.81 1317.24 L2097.81 1315.26 L2109.32 1315.26 L2109.32 1313.89 L2120.70 1313.89 L2120.70 1311.30 L2132.21 1311.30 L2132.21 1309.56 L2143.72 1309.56 L2143.72 1307.95 L2155.23 1307.95 L2155.23 1305.73 L2166.61 1305.73 L2166.61 1303.50 L2178.12 1303.50 L2178.12 1301.89 L2189.63 1301.89 L2189.63 1299.29 L2201.02 1299.29 L2201.02 1297.31 L2212.53 1297.31 L2212.53 1296.07 L2224.03 1296.07 L2224.03 1293.85 L2235.42 1293.85 L2235.42 1292.24 L2246.93 1292.24 L2246.93 1290.26 L2258.44 1290.26 L2258.44 1288.77 L2269.95 1288.77 L2269.95 1287.04 L2281.33 1287.04 L2281.33 1284.69 L2292.84 1284.69 L2292.84 1282.71 L2304.35 1282.71 L2304.35 1280.85 L2315.73 1280.85 L2315.73 1279.74 L2327.24 1279.74 L2327.24 1278.62 L2338.75 1278.62 L2338.75 1276.40 L2350.14 1276.40 L2350.14 1274.05 L2361.64 1274.05 L2361.64 1271.45 L2373.15 1271.45 L2373.15 1269.84 L2384.66 1269.84 L2384.66 1267.86 L2396.05 1267.86 L2396.05 1265.38 L2407.56 1265.38 L2407.56 1263.65 L2419.07 1263.65 L2419.07 1262.17 L2430.45 1262.17 L2430.45 1260.93 L2441.96 1260.93 L2441.96 1259.20 L2453.47 1259.20 L2453.47 1258.33 L2464.98 1258.33 L2464.98 1256.35 L2476.36 1256.35 L2476.36 1254.49 L2487.87 1254.49 L2487.87 1252.76 L2499.38 1252.76 L2499.38 1251.77 L2510.76 1251.77 L2510.76 1250.16 L2522.27 1250.16 L2522.27 1248.68 L2533.78 1248.68 L2533.78 1247.44 L2545.17 1247.44 L2545.17 1245.71 L2556.68 1245.71 L2556.68 1244.47 L2568.18 1244.47 L2568.18 1242.61 L2579.69 1242.61 L2579.69 1240.88 L2591.08 1240.88 L2591.08 1240.01 L2602.59 1240.01 L2602.59 1239.27 L2614.09 1239.27 L2614.09 1237.54 L2625.48 1237.54 L2625.48 1235.81 L2636.99 1235.81 L2636.99 1234.32 L2648.50 1234.32 L2648.50 1233.08 L2659.88 1233.08 L2659.88 1231.97 L2671.39 1231.97 L2671.39 1230.11 L2682.90 1230.11 L2682.90 1229.25 L2694.41 1229.25 L2694.41 1227.89 L2705.79 1227.89 L2705.79 1226.52 L2717.30 1226.52 L2717.30 1225.41 L2728.81 1225.41 L2728.81 1223.80 L2740.20 1223.80 L2740.20 1222.32 L2751.70 1222.32 L2751.70 1220.46 L2763.21 1220.46 L2763.21 1218.36 L2774.60 1218.36 L2774.60 1216.87 L2786.11 1216.87 L2786.11 1215.51 L2797.62 1215.51 L2797.62 1214.64 L2809.13 1214.64 L2809.13 1212.29 L2820.51 1212.29 L2820.51 1211.06 L2832.02 1211.06 L2832.02 1209.69 L2843.53 1209.69 L2843.53 1208.09 L2854.91 1208.09 L2854.91 1206.60 L2866.42 1206.60 L2866.42 1204.74 L2877.93 1204.74 L2877.93 1203.51 L2889.44 1203.51 L2889.44 1202.02 L2900.82 1202.02 L2900.82 1200.66 L2912.33 1200.66 L2912.33 1198.56 L2923.84 1198.56 L2923.84 1196.95 L2935.23 1196.95 L2935.23 1194.97 L2946.74 1194.97 L2946.74 1192.62 L2958.24 1192.62 L2958.24 1190.64 L2969.63 1190.64 L2969.63 1189.27 L2981.14 1189.27 L2981.14 1187.91 L2992.65 1187.91 L2992.65 1186.18 L3004.16 1186.18 L3004.16 1184.94 L3015.54 1184.94 L3015.54 1183.09 L3027.05 1183.09 L3027.05 1182.10 L3038.56 1182.10 L3038.56 1180.61 L3049.94 1180.61 L3049.94 1179.00 L3061.45 1179.00 L3061.45 1177.64 L3072.96 1177.64 L3072.96 1175.79 L3084.34 1175.79 L3084.34 1173.93 L3095.85 1173.93 L3095.85 1172.69 L3107.36 1172.69 L3107.36 1170.34 L3118.87 1170.34 L3118.87 1168.86 L3130.26 1168.86 L3130.26 1166.50 L3141.76 1166.50 L3141.76 1164.90 L3153.27 1164.90 L3153.27 1163.78 L3164.66 1163.78 L3164.66 1162.54 L3176.17 1162.54 L3176.17 1161.55 L3187.68 1161.55 L3187.68 1159.94 L3199.06 1159.94 L3199.06 1158.46 L3210.57 1158.46 L3210.57 1157.47 L3222.08 1157.47 L3222.08 1155.98 L3233.59 1155.98 L3233.59 1155.24 L3244.97 1155.24 L3244.97 1153.26 L3256.48 1153.26 L3256.48 1151.03 L3267.99 1151.03 L3267.99 1149.55 L3279.38 1149.55 L3279.38 1147.94 L3290.88 1147.94 L3290.88 1145.84 L3302.39 1145.84 L3302.39 1144.23 L3313.78 1144.23 L3313.78 1141.88 L3325.29 1141.88 L3325.29 1139.77 L3336.80 1139.77 L3336.80 1138.41 L3348.30 1138.41 L3348.30 1137.79 L3359.69 1137.79 L3359.69 1136.31 L3371.20 1136.31 L3371.20 1134.45 L3382.71 1134.45 L3382.71 1133.21 L3394.09 1133.21 L3394.09 1130.74 L3405.60 1130.74 L3405.60 1128.88" stroke-linejoin="round" style="fill:none;stroke:#90353B;stroke-width:8.64"/>
	<path d=" M354.05 1890.34 L354.05 1890.34 L354.05 1890.34 L354.05 1890.34 L354.05 1890.34 L359.87 1890.34 L359.87 1888.11 L365.56 1888.11 L365.56 1885.89 L377.07 1885.89 L377.07 1883.66 L388.45 1883.66 L388.45 1881.31 L399.96 1881.31 L399.96 1879.57 L411.47 1879.57 L411.47 1878.34 L422.85 1878.34 L422.85 1876.97 L434.36 1876.97 L434.36 1875.24 L445.87 1875.24 L445.87 1873.14 L457.38 1873.14 L457.38 1870.91 L468.76 1870.91 L468.76 1868.93 L480.27 1868.93 L480.27 1867.32 L491.78 1867.32 L491.78 1865.84 L503.17 1865.84 L503.17 1864.35 L514.68 1864.35 L514.68 1862.87 L526.18 1862.87 L526.18 1860.89 L537.57 1860.89 L537.57 1859.53 L549.08 1859.53 L549.08 1857.79 L560.59 1857.79 L560.59 1856.93 L572.10 1856.93 L572.10 1855.81 L583.48 1855.81 L583.48 1854.58 L594.99 1854.58 L594.99 1853.34 L606.50 1853.34 L606.50 1851.98 L617.88 1851.98 L617.88 1850.37 L629.39 1850.37 L629.39 1848.76 L640.90 1848.76 L640.90 1847.15 L652.41 1847.15 L652.41 1845.91 L663.79 1845.91 L663.79 1844.92 L675.30 1844.92 L675.30 1843.44 L686.81 1843.44 L686.81 1841.95 L698.20 1841.95 L698.20 1840.22 L709.71 1840.22 L709.71 1838.61 L721.22 1838.61 L721.22 1837.13 L732.60 1837.13 L732.60 1836.01 L744.11 1836.01 L744.11 1835.02 L755.62 1835.02 L755.62 1833.66 L767.13 1833.66 L767.13 1831.93 L778.51 1831.93 L778.51 1830.44 L790.02 1830.44 L790.02 1828.83 L801.53 1828.83 L801.53 1827.23 L812.91 1827.23 L812.91 1826.11 L824.42 1826.11 L824.42 1825.25 L835.93 1825.25 L835.93 1823.76 L847.32 1823.76 L847.32 1822.15 L858.83 1822.15 L858.83 1820.54 L870.33 1820.54 L870.33 1819.06 L881.84 1819.06 L881.84 1817.94 L893.23 1817.94 L893.23 1816.71 L904.74 1816.71 L904.74 1815.72 L916.25 1815.72 L916.25 1814.23 L927.63 1814.23 L927.63 1812.75 L939.14 1812.75 L939.14 1811.26 L950.65 1811.26 L950.65 1809.78 L962.03 1809.78 L962.03 1808.42 L973.54 1808.42 L973.54 1807.18 L985.05 1807.18 L985.05 1806.19 L996.56 1806.19 L996.56 1805.32 L1007.94 1805.32 L1007.94 1803.96 L1019.45 1803.96 L1019.45 1802.60 L1030.96 1802.60 L1030.96 1801.49 L1042.35 1801.49 L1042.35 1800.12 L1053.86 1800.12 L1053.86 1799.13 L1065.36 1799.13 L1065.36 1798.02 L1076.87 1798.02 L1076.87 1796.66 L1088.26 1796.66 L1088.26 1795.54 L1099.77 1795.54 L1099.77 1794.31 L1111.28 1794.31 L1111.28 1792.95 L1122.66 1792.95 L1122.66 1791.34 L1134.17 1791.34 L1134.17 1790.22 L1145.68 1790.22 L1145.68 1789.11 L1157.06 1789.11 L1157.06 1787.38 L1168.57 1787.38 L1168.57 1786.14 L1180.08 1786.14 L1180.08 1784.78 L1191.59 1784.78 L1191.59 1783.29 L1202.97 1783.29 L1202.97 1782.18 L1214.48 1782.18 L1214.48 1781.19 L1225.99 1781.19 L1225.99 1780.20 L1237.38 1780.20 L1237.38 1779.09 L1248.88 1779.09 L1248.88 1777.48 L1260.39 1777.48 L1260.39 1776.24 L1271.78 1776.24 L1271.78 1775.00 L1283.29 1775.00 L1283.29 1773.89 L1294.80 1773.89 L1294.80 1772.90 L1306.31 1772.90 L1306.31 1771.91 L1317.69 1771.91 L1317.69 1770.55 L1329.20 1770.55 L1329.20 1769.06 L1340.71 1769.06 L1340.71 1767.95 L1352.09 1767.95 L1352.09 1766.71 L1363.60 1766.71 L1363.60 1765.47 L1375.11 1765.47 L1375.11 1764.24 L1386.49 1764.24 L1386.49 1763.62 L1398.00 1763.62 L1398.00 1762.01 L1409.51 1762.01 L1409.51 1760.52 L1421.02 1760.52 L1421.02 1759.41 L1432.41 1759.41 L1432.41 1758.42 L1443.91 1758.42 L1443.91 1757.06 L1455.42 1757.06 L1455.42 1756.19 L1466.81 1756.19 L1466.81 1755.20 L1478.32 1755.20 L1478.32 1753.72 L1489.83 1753.72 L1489.83 1752.60 L1501.34 1752.60 L1501.34 1751.24 L1512.72 1751.24 L1512.72 1750.00 L1524.23 1750.00 L1524.23 1749.01 L1535.74 1749.01 L1535.74 1748.02 L1547.12 1748.02 L1547.12 1747.03 L1558.63 1747.03 L1558.63 1746.04 L1570.14 1746.04 L1570.14 1744.56 L1581.53 1744.56 L1581.53 1743.20 L1593.03 1743.20 L1593.03 1741.96 L1604.54 1741.96 L1604.54 1740.72 L1616.05 1740.72 L1616.05 1739.86 L1627.44 1739.86 L1627.44 1739.11 L1638.94 1739.11 L1638.94 1737.88 L1650.45 1737.88 L1650.45 1736.76 L1661.84 1736.76 L1661.84 1735.40 L1673.35 1735.40 L1673.35 1734.29 L1684.86 1734.29 L1684.86 1733.30 L1696.24 1733.30 L1696.24 1732.68 L1707.75 1732.68 L1707.75 1731.81 L1719.26 1731.81 L1719.26 1730.33 L1730.77 1730.33 L1730.77 1729.09 L1742.15 1729.09 L1742.15 1728.10 L1753.66 1728.10 L1753.66 1727.11 L1765.17 1727.11 L1765.17 1726.00 L1776.56 1726.00 L1776.56 1725.13 L1788.06 1725.13 L1788.06 1724.14 L1799.57 1724.14 L1799.57 1723.03 L1810.96 1723.03 L1810.96 1722.04 L1822.47 1722.04 L1822.47 1720.80 L1833.97 1720.80 L1833.97 1719.68 L1845.48 1719.68 L1845.48 1718.57 L1856.87 1718.57 L1856.87 1717.70 L1868.38 1717.70 L1868.38 1716.84 L1879.89 1716.84 L1879.89 1715.60 L1891.27 1715.60 L1891.27 1714.11 L1902.78 1714.11 L1902.78 1712.51 L1914.29 1712.51 L1914.29 1711.14 L1925.67 1711.14 L1925.67 1710.15 L1937.18 1710.15 L1937.18 1709.16 L1948.69 1709.16 L1948.69 1708.30 L1960.20 1708.30 L1960.20 1707.31 L1971.59 1707.31 L1971.59 1706.44 L1983.09 1706.44 L1983.09 1704.96 L1994.60 1704.96 L1994.60 1703.72 L2005.99 1703.72 L2005.99 1702.48 L2017.50 1702.48 L2017.50 1701.62 L2029.01 1701.62 L2029.01 1700.75 L2040.51 1700.75 L2040.51 1700.01 L2051.90 1700.01 L2051.90 1699.26 L2063.41 1699.26 L2063.41 1697.78 L2074.92 1697.78 L2074.92 1696.91 L2086.30 1696.91 L2086.30 1695.92 L2097.81 1695.92 L2097.81 1694.93 L2109.32 1694.93 L2109.32 1693.94 L2120.70 1693.94 L2120.70 1693.08 L2132.21 1693.08 L2132.21 1692.33 L2143.72 1692.33 L2143.72 1691.22 L2155.23 1691.22 L2155.23 1690.23 L2166.61 1690.23 L2166.61 1689.12 L2178.12 1689.12 L2178.12 1688.37 L2189.63 1688.37 L2189.63 1687.76 L2201.02 1687.76 L2201.02 1686.52 L2212.53 1686.52 L2212.53 1685.53 L2224.03 1685.53 L2224.03 1684.41 L2235.42 1684.41 L2235.42 1683.30 L2246.93 1683.30 L2246.93 1682.43 L2258.44 1682.43 L2258.44 1681.57 L2269.95 1681.57 L2269.95 1680.95 L2281.33 1680.95 L2281.33 1679.71 L2292.84 1679.71 L2292.84 1678.47 L2304.35 1678.47 L2304.35 1677.73 L2315.73 1677.73 L2315.73 1676.74 L2327.24 1676.74 L2327.24 1676.25 L2338.75 1676.25 L2338.75 1675.26 L2350.14 1675.26 L2350.14 1674.51 L2361.64 1674.51 L2361.64 1673.52 L2373.15 1673.52 L2373.15 1672.66 L2384.66 1672.66 L2384.66 1671.42 L2396.05 1671.42 L2396.05 1670.80 L2407.56 1670.80 L2407.56 1669.93 L2419.07 1669.93 L2419.07 1669.32 L2430.45 1669.32 L2430.45 1668.57 L2441.96 1668.57 L2441.96 1667.83 L2453.47 1667.83 L2453.47 1666.72 L2464.98 1666.72 L2464.98 1665.60 L2476.36 1665.60 L2476.36 1664.86 L2487.87 1664.86 L2487.87 1663.87 L2499.38 1663.87 L2499.38 1663.50 L2510.76 1663.50 L2510.76 1662.88 L2522.27 1662.88 L2522.27 1661.27 L2533.78 1661.27 L2533.78 1660.28 L2545.17 1660.28 L2545.17 1659.29 L2556.68 1659.29 L2556.68 1658.18 L2568.18 1658.18 L2568.18 1656.82 L2579.69 1656.82 L2579.69 1656.20 L2591.08 1656.20 L2591.08 1655.58 L2602.59 1655.58 L2602.59 1654.34 L2614.09 1654.34 L2614.09 1652.98 L2625.48 1652.98 L2625.48 1651.50 L2636.99 1651.50 L2636.99 1650.51 L2648.50 1650.51 L2648.50 1649.52 L2659.88 1649.52 L2659.88 1649.14 L2671.39 1649.14 L2671.39 1648.65 L2682.90 1648.65 L2682.90 1647.78 L2694.41 1647.78 L2694.41 1646.30 L2705.79 1646.30 L2705.79 1645.56 L2717.30 1645.56 L2717.30 1644.32 L2728.81 1644.32 L2728.81 1643.20 L2740.20 1643.20 L2740.20 1642.83 L2751.70 1642.83 L2751.70 1642.34 L2763.21 1642.34 L2763.21 1641.47 L2774.60 1641.47 L2774.60 1640.11 L2786.11 1640.11 L2786.11 1639.24 L2797.62 1639.24 L2797.62 1638.01 L2809.13 1638.01 L2809.13 1636.77 L2820.51 1636.77 L2820.51 1636.27 L2832.02 1636.27 L2832.02 1634.29 L2843.53 1634.29 L2843.53 1633.06 L2854.91 1633.06 L2854.91 1632.07 L2866.42 1632.07 L2866.42 1631.82 L2877.93 1631.82 L2877.93 1630.21 L2889.44 1630.21 L2889.44 1629.22 L2900.82 1629.22 L2900.82 1628.60 L2912.33 1628.60 L2912.33 1626.74 L2923.84 1626.74 L2923.84 1625.14 L2958.24 1625.14 L2958.24 1623.90 L2969.63 1623.90 L2969.63 1621.67 L2981.14 1621.67 L2981.14 1620.06 L2992.65 1620.06 L2992.65 1617.46 L3004.16 1617.46 L3004.16 1615.98 L3015.54 1615.98 L3015.54 1614.99 L3038.56 1614.99 L3038.56 1613.75 L3049.94 1613.75 L3049.94 1613.01 L3061.45 1613.01 L3061.45 1612.39 L3072.96 1612.39 L3072.96 1610.53 L3084.34 1610.53 L3084.34 1609.91 L3107.36 1609.91 L3107.36 1609.54 L3118.87 1609.54 L3118.87 1606.94 L3130.26 1606.94 L3130.26 1605.46 L3141.76 1605.46 L3141.76 1604.72 L3153.27 1604.72 L3153.27 1604.10 L3164.66 1604.10 L3164.66 1602.49 L3176.17 1602.49 L3176.17 1602.24 L3497.42 1602.24 L3497.42 1602.24" stroke-linejoin="round" style="fill:none;stroke:#55752F;stroke-width:8.64"/>
	<line x1="290.81" y1="1953.70" x2="290.81" y2="100.86" style="stroke:#000000;stroke-width:5.76"/>
	<line x1="290.81" y1="1890.34" x2="250.84" y2="1890.34" style="stroke:#000000;stroke-width:5.76"/>
	<text x="200.73" y="1890.34" style="font-family:'Helvetica';font-size:99.99px;fill:#000000" transform="rotate(-90 200.73,1890.34)" text-anchor="middle">0.00</text>
	<line x1="290.81" y1="1458.81" x2="250.84" y2="1458.81" style="stroke:#000000;stroke-width:5.76"/>
	<text x="200.73" y="1458.81" style="font-family:'Helvetica';font-size:99.99px;fill:#000000" transform="rotate(-90 200.73,1458.81)" text-anchor="middle">0.25</text>
	<line x1="290.81" y1="1027.28" x2="250.84" y2="1027.28" style="stroke:#000000;stroke-width:5.76"/>
	<text x="200.73" y="1027.28" style="font-family:'Helvetica';font-size:99.99px;fill:#000000" transform="rotate(-90 200.73,1027.28)" text-anchor="middle">0.50</text>
	<line x1="290.81" y1="595.75" x2="250.84" y2="595.75" style="stroke:#000000;stroke-width:5.76"/>
	<text x="200.73" y="595.75" style="font-family:'Helvetica';font-size:99.99px;fill:#000000" transform="rotate(-90 200.73,595.75)" text-anchor="middle">0.75</text>
	<line x1="290.81" y1="164.22" x2="250.84" y2="164.22" style="stroke:#000000;stroke-width:5.76"/>
	<text x="200.73" y="164.22" style="font-family:'Helvetica';font-size:99.99px;fill:#000000" transform="rotate(-90 200.73,164.22)" text-anchor="middle">1.00</text>
	<line x1="290.81" y1="1953.70" x2="3859.02" y2="1953.70" style="stroke:#000000;stroke-width:5.76"/>
	<line x1="354.17" y1="1953.70" x2="354.17" y2="1993.67" style="stroke:#000000;stroke-width:5.76"/>
	<text x="354.17" y="2083.66" style="font-family:'Helvetica';font-size:99.99px;fill:#000000" text-anchor="middle">0</text>
	<line x1="1501.34" y1="1953.70" x2="1501.34" y2="1993.67" style="stroke:#000000;stroke-width:5.76"/>
	<text x="1501.34" y="2083.66" style="font-family:'Helvetica';font-size:99.99px;fill:#000000" text-anchor="middle">100</text>
	<line x1="2648.50" y1="1953.70" x2="2648.50" y2="1993.67" style="stroke:#000000;stroke-width:5.76"/>
	<text x="2648.50" y="2083.66" style="font-family:'Helvetica';font-size:99.99px;fill:#000000" text-anchor="middle">200</text>
	<line x1="3795.66" y1="1953.70" x2="3795.66" y2="1993.67" style="stroke:#000000;stroke-width:5.76"/>
	<text x="3795.66" y="2083.66" style="font-family:'Helvetica';font-size:99.99px;fill:#000000" text-anchor="middle">300</text>
	<text x="2074.92" y="2193.67" style="font-family:'Helvetica';font-size:99.99px;fill:#000000" text-anchor="middle">Days from index date</text>
	<rect x="1054.72" y="2278.31" width="2040.39" height="466.30" style="fill:#FFFFFF"/>
	<rect x="1057.60" y="2281.19" width="2034.63" height="460.54" style="fill:none;stroke:#000000;stroke-width:5.76"/>
	<line x1="1098.03" y1="2371.50" x2="1472.38" y2="2371.50" style="stroke:#1A476F;stroke-width:8.64"/>
	<line x1="1098.03" y1="2511.46" x2="1472.38" y2="2511.46" style="stroke:#90353B;stroke-width:8.64"/>
	<line x1="1098.03" y1="2651.43" x2="1472.38" y2="2651.43" style="stroke:#55752F;stroke-width:8.64"/>
	<text x="1532.40" y="2406.52" style="font-family:'Helvetica';font-size:99.99px;fill:#000000">group = Hospitalised COVID-19</text>
	<text x="1532.40" y="2546.49" style="font-family:'Helvetica';font-size:99.99px;fill:#000000">group = Hospitalised flu 2017_19</text>
	<text x="1532.40" y="2686.46" style="font-family:'Helvetica';font-size:99.99px;fill:#000000">group = General pop 2019</text>
</svg>
