<?xml version="1.0" encoding="UTF-8" standalone="no"?>
<!-- This is a Stata 16.1 generated SVG file (http://www.stata.com) -->

<svg version="1.1" width="5.50in" height="4.00in" viewBox="0 0 3960 2880" xmlns="http://www.w3.org/2000/svg" xmlns:xlink="http://www.w3.org/1999/xlink">
	<desc>Stata Graph - death</desc>
	<rect x="0" y="0" width="3960" height="2880" style="fill:#EAF2F3;stroke:none"/>
	<rect x="0.00" y="0.00" width="3959.88" height="2880.00" style="fill:#EAF2F3"/>
	<rect x="2.88" y="2.88" width="3954.12" height="2874.24" style="fill:none;stroke:#EAF2F3;stroke-width:5.76"/>
	<rect x="290.81" y="100.86" width="3568.21" height="1852.84" style="fill:#FFFFFF"/>
	<rect x="293.69" y="103.74" width="3562.45" height="1847.08" style="fill:none;stroke:#FFFFFF;stroke-width:5.76"/>
	<line x1="290.81" y1="1890.34" x2="3859.02" y2="1890.34" style="stroke:#EAF2F3;stroke-width:8.64"/>
	<line x1="290.81" y1="1458.81" x2="3859.02" y2="1458.81" style="stroke:#EAF2F3;stroke-width:8.64"/>
	<line x1="290.81" y1="1027.28" x2="3859.02" y2="1027.28" style="stroke:#EAF2F3;stroke-width:8.64"/>
	<line x1="290.81" y1="595.75" x2="3859.02" y2="595.75" style="stroke:#EAF2F3;stroke-width:8.64"/>
	<path d=" M354.05 1890.34 L354.05 1890.34 L354.05 1890.34 L354.05 1890.34 L354.05 1890.34 L362.71 1890.34 L362.71 1885.76 L371.25 1885.76 L371.25 1883.04 L379.91 1883.04 L379.91 1879.70 L388.45 1879.70 L388.45 1876.73 L397.11 1876.73 L397.11 1873.63 L405.65 1873.63 L405.65 1871.41 L414.31 1871.41 L414.31 1868.06 L422.85 1868.06 L422.85 1866.08 L431.52 1866.08 L431.52 1863.86 L440.18 1863.86 L440.18 1861.63 L448.72 1861.63 L448.72 1859.53 L457.38 1859.53 L457.38 1858.41 L465.92 1858.41 L465.92 1856.80 L474.58 1856.80 L474.58 1854.45 L483.12 1854.45 L483.12 1851.98 L491.78 1851.98 L491.78 1850.62 L500.32 1850.62 L500.32 1848.88 L508.98 1848.88 L508.98 1847.65 L517.52 1847.65 L517.52 1846.16 L526.18 1846.16 L526.18 1844.30 L534.72 1844.30 L534.72 1843.19 L543.39 1843.19 L543.39 1842.45 L551.92 1842.45 L551.92 1840.72 L560.59 1840.72 L560.59 1839.35 L569.13 1839.35 L569.13 1838.24 L577.79 1838.24 L577.79 1837.50 L586.33 1837.50 L586.33 1836.63 L594.99 1836.63 L594.99 1835.52 L603.65 1835.52 L603.65 1834.65 L612.19 1834.65 L612.19 1834.03 L620.85 1834.03 L620.85 1833.04 L629.39 1833.04 L629.39 1832.42 L638.05 1832.42 L638.05 1831.68 L646.59 1831.68 L646.59 1830.57 L655.26 1830.57 L655.26 1830.32 L663.79 1830.32 L663.79 1829.95 L672.46 1829.95 L672.46 1829.45 L681.00 1829.45 L681.00 1828.46 L689.66 1828.46 L689.66 1827.10 L698.20 1827.10 L698.20 1826.24 L706.86 1826.24 L706.86 1825.12 L715.40 1825.12 L715.40 1824.87 L724.06 1824.87 L724.06 1823.64 L732.60 1823.64 L732.60 1822.65 L741.26 1822.65 L741.26 1822.28 L749.80 1822.28 L749.80 1821.66 L758.46 1821.66 L758.46 1820.79 L767.13 1820.79 L767.13 1819.92 L775.66 1819.92 L775.66 1818.93 L784.33 1818.93 L784.33 1818.44 L792.87 1818.44 L792.87 1818.19 L801.53 1818.19 L801.53 1817.57 L810.07 1817.57 L810.07 1817.20 L818.73 1817.20 L818.73 1816.46 L827.27 1816.46 L827.27 1815.96 L835.93 1815.96 L835.93 1814.97 L844.47 1814.97 L844.47 1813.74 L853.13 1813.74 L853.13 1812.87 L861.67 1812.87 L861.67 1812.13 L870.33 1812.13 L870.33 1811.76 L878.87 1811.76 L878.87 1810.77 L887.53 1810.77 L887.53 1810.27 L896.07 1810.27 L896.07 1809.65 L904.74 1809.65 L904.74 1809.03 L913.40 1809.03 L913.40 1808.66 L921.94 1808.66 L921.94 1808.17 L930.60 1808.17 L930.60 1808.04 L939.14 1808.04 L939.14 1807.30 L947.80 1807.30 L947.80 1806.44 L956.34 1806.44 L956.34 1805.45 L965.00 1805.45 L965.00 1804.58 L973.54 1804.58 L973.54 1803.71 L982.20 1803.71 L982.20 1803.34 L990.74 1803.34 L990.74 1802.60 L999.40 1802.60 L999.40 1801.98 L1007.94 1801.98 L1007.94 1801.61 L1016.61 1801.61 L1016.61 1800.74 L1025.14 1800.74 L1025.14 1799.63 L1033.81 1799.63 L1033.81 1799.38 L1042.35 1799.38 L1042.35 1798.89 L1051.01 1798.89 L1051.01 1797.40 L1059.55 1797.40 L1059.55 1796.66 L1068.21 1796.66 L1068.21 1796.41 L1076.87 1796.41 L1076.87 1795.54 L1085.41 1795.54 L1085.41 1795.17 L1094.07 1795.17 L1094.07 1794.55 L1102.61 1794.55 L1102.61 1793.69 L1111.28 1793.69 L1111.28 1792.82 L1119.81 1792.82 L1119.81 1792.33 L1128.48 1792.33 L1128.48 1791.83 L1137.02 1791.83 L1137.02 1791.09 L1145.68 1791.09 L1145.68 1790.59 L1154.22 1790.59 L1154.22 1789.98 L1162.88 1789.98 L1162.88 1789.73 L1171.42 1789.73 L1171.42 1789.36 L1180.08 1789.36 L1180.08 1788.86 L1188.62 1788.86 L1188.62 1788.49 L1197.28 1788.49 L1197.28 1788.00 L1205.82 1788.00 L1205.82 1787.50 L1214.48 1787.50 L1214.48 1787.25 L1223.02 1787.25 L1223.02 1786.39 L1231.68 1786.39 L1231.68 1786.26 L1240.35 1786.26 L1240.35 1785.77 L1248.88 1785.77 L1248.88 1785.03 L1257.55 1785.03 L1257.55 1784.53 L1266.09 1784.53 L1266.09 1783.91 L1274.75 1783.91 L1274.75 1783.42 L1283.29 1783.42 L1283.29 1782.80 L1291.95 1782.80 L1291.95 1782.06 L1300.49 1782.06 L1300.49 1781.19 L1309.15 1781.19 L1309.15 1780.69 L1317.69 1780.69 L1317.69 1780.32 L1326.35 1780.32 L1326.35 1779.95 L1334.89 1779.95 L1334.89 1779.70 L1343.55 1779.70 L1343.55 1778.96 L1352.09 1778.96 L1352.09 1778.59 L1360.76 1778.59 L1360.76 1777.97 L1369.29 1777.97 L1369.29 1777.11 L1377.96 1777.11 L1377.96 1776.61 L1386.49 1776.61 L1386.49 1775.99 L1395.16 1775.99 L1395.16 1775.62 L1403.82 1775.62 L1403.82 1775.00 L1412.36 1775.00 L1412.36 1774.63 L1421.02 1774.63 L1421.02 1774.26 L1429.56 1774.26 L1429.56 1774.14 L1438.22 1774.14 L1438.22 1773.64 L1446.76 1773.64 L1446.76 1773.15 L1455.42 1773.15 L1455.42 1772.53 L1463.96 1772.53 L1463.96 1771.91 L1472.63 1771.91 L1472.63 1771.54 L1481.16 1771.54 L1481.16 1771.17 L1489.83 1771.17 L1489.83 1770.18 L1498.37 1770.18 L1498.37 1769.56 L1507.03 1769.56 L1507.03 1769.19 L1515.57 1769.19 L1515.57 1768.69 L1524.23 1768.69 L1524.23 1768.07 L1532.77 1768.07 L1532.77 1767.58 L1541.43 1767.58 L1541.43 1766.96 L1549.97 1766.96 L1549.97 1766.59 L1558.63 1766.59 L1558.63 1765.84 L1567.29 1765.84 L1567.29 1765.35 L1575.83 1765.35 L1575.83 1764.61 L1584.49 1764.61 L1584.49 1763.86 L1593.03 1763.86 L1593.03 1763.25 L1601.70 1763.25 L1601.70 1762.13 L1610.23 1762.13 L1610.23 1761.64 L1618.90 1761.64 L1618.90 1761.27 L1627.44 1761.27 L1627.44 1761.02 L1636.10 1761.02 L1636.10 1760.15 L1644.64 1760.15 L1644.64 1760.03 L1653.30 1760.03 L1653.30 1759.53 L1661.84 1759.53 L1661.84 1759.28 L1670.50 1759.28 L1670.50 1758.79 L1679.04 1758.79 L1679.04 1758.05 L1687.70 1758.05 L1687.70 1757.43 L1696.24 1757.43 L1696.24 1756.81 L1704.90 1756.81 L1704.90 1756.44 L1713.44 1756.44 L1713.44 1756.31 L1722.11 1756.31 L1722.11 1755.70 L1730.77 1755.70 L1730.77 1755.08 L1739.31 1755.08 L1739.31 1754.83 L1747.97 1754.83 L1747.97 1754.21 L1756.51 1754.21 L1756.51 1754.21 L1765.17 1754.21 L1765.17 1753.10 L1773.71 1753.10 L1773.71 1752.73 L1782.37 1752.73 L1782.37 1752.23 L1790.91 1752.23 L1790.91 1751.49 L1799.57 1751.49 L1799.57 1751.12 L1808.11 1751.12 L1808.11 1750.87 L1816.77 1750.87 L1816.77 1750.62 L1825.31 1750.62 L1825.31 1749.76 L1833.97 1749.76 L1833.97 1749.51 L1842.51 1749.51 L1842.51 1748.89 L1851.18 1748.89 L1851.18 1748.39 L1859.71 1748.39 L1859.71 1748.27 L1868.38 1748.27 L1868.38 1747.78 L1877.04 1747.78 L1877.04 1746.91 L1885.58 1746.91 L1885.58 1746.54 L1894.24 1746.54 L1894.24 1746.17 L1902.78 1746.17 L1902.78 1745.80 L1911.44 1745.80 L1911.44 1745.18 L1919.98 1745.18 L1919.98 1744.93 L1928.64 1744.93 L1928.64 1744.56 L1937.18 1744.56 L1937.18 1744.06 L1945.85 1744.06 L1945.85 1743.32 L1954.38 1743.32 L1954.38 1742.95 L1963.05 1742.95 L1963.05 1742.33 L1971.59 1742.33 L1971.59 1741.96 L1980.25 1741.96 L1980.25 1741.46 L1988.79 1741.46 L1988.79 1741.09 L1997.45 1741.09 L1997.45 1740.85 L2005.99 1740.85 L2005.99 1740.35 L2014.65 1740.35 L2014.65 1739.61 L2023.19 1739.61 L2023.19 1739.48 L2031.85 1739.48 L2031.85 1739.36 L2040.51 1739.36 L2040.51 1738.99 L2049.05 1738.99 L2049.05 1738.62 L2057.72 1738.62 L2057.72 1737.75 L2066.25 1737.75 L2066.25 1737.38 L2074.92 1737.38 L2074.92 1737.13 L2083.45 1737.13 L2083.45 1737.01 L2092.12 1737.01 L2092.12 1736.02 L2100.66 1736.02 L2100.66 1735.52 L2109.32 1735.52 L2109.32 1734.78 L2117.86 1734.78 L2117.86 1733.54 L2126.52 1733.54 L2126.52 1733.30 L2135.06 1733.30 L2135.06 1733.30 L2143.72 1733.30 L2143.72 1732.68 L2152.26 1732.68 L2152.26 1732.18 L2160.92 1732.18 L2160.92 1731.56 L2169.46 1731.56 L2169.46 1730.70 L2178.12 1730.70 L2178.12 1730.57 L2186.66 1730.57 L2186.66 1730.20 L2195.32 1730.20 L2195.32 1729.83 L2203.99 1729.83 L2203.99 1729.34 L2212.53 1729.34 L2212.53 1728.97 L2221.19 1728.97 L2221.19 1728.72 L2229.73 1728.72 L2229.73 1728.22 L2238.39 1728.22 L2238.39 1727.36 L2246.93 1727.36 L2246.93 1727.36 L2255.59 1727.36 L2255.59 1726.86 L2264.13 1726.86 L2264.13 1726.49 L2272.79 1726.49 L2272.79 1725.75 L2281.33 1725.75 L2281.33 1725.50 L2289.99 1725.50 L2289.99 1725.25 L2298.53 1725.25 L2298.53 1724.88 L2307.20 1724.88 L2307.20 1724.63 L2315.73 1724.63 L2315.73 1724.51 L2324.40 1724.51 L2324.40 1724.02 L2332.93 1724.02 L2332.93 1723.89 L2341.60 1723.89 L2341.60 1723.64 L2350.14 1723.64 L2350.14 1723.27 L2358.80 1723.27 L2358.80 1723.15 L2367.46 1723.15 L2367.46 1722.41 L2376.00 1722.41 L2376.00 1722.16 L2384.66 1722.16 L2384.66 1721.66 L2393.20 1721.66 L2393.20 1721.29 L2401.86 1721.29 L2401.86 1721.05 L2410.40 1721.05 L2410.40 1720.92 L2419.07 1720.92 L2419.07 1720.55 L2427.60 1720.55 L2427.60 1719.93 L2436.27 1719.93 L2436.27 1719.31 L2444.80 1719.31 L2444.80 1718.94 L2453.47 1718.94 L2453.47 1718.32 L2462.01 1718.32 L2462.01 1717.58 L2470.67 1717.58 L2470.67 1717.21 L2479.21 1717.21 L2479.21 1716.71 L2487.87 1716.71 L2487.87 1716.59 L2496.41 1716.59 L2496.41 1716.22 L2505.07 1716.22 L2505.07 1715.72 L2513.61 1715.72 L2513.61 1714.73 L2522.27 1714.73 L2522.27 1713.99 L2530.93 1713.99 L2530.93 1713.12 L2539.47 1713.12 L2539.47 1712.38 L2548.14 1712.38 L2548.14 1712.01 L2556.68 1712.01 L2556.68 1711.39 L2565.34 1711.39 L2565.34 1710.77 L2573.88 1710.77 L2573.88 1710.40 L2582.54 1710.40 L2582.54 1709.91 L2591.08 1709.91 L2591.08 1709.54 L2599.74 1709.54 L2599.74 1708.92 L2608.28 1708.92 L2608.28 1708.30 L2616.94 1708.30 L2616.94 1708.05 L2625.48 1708.05 L2625.48 1708.05 L2634.14 1708.05 L2634.14 1707.93 L2642.68 1707.93 L2642.68 1707.06 L2651.34 1707.06 L2651.34 1707.06 L2659.88 1707.06 L2659.88 1706.32 L2668.55 1706.32 L2668.55 1706.07 L2677.21 1706.07 L2677.21 1705.82 L2685.75 1705.82 L2685.75 1705.70 L2694.41 1705.70 L2694.41 1705.45 L2702.95 1705.45 L2702.95 1705.08 L2711.61 1705.08 L2711.61 1704.83 L2720.15 1704.83 L2720.15 1704.83 L2728.81 1704.83 L2728.81 1704.83 L2737.35 1704.83 L2737.35 1704.34 L2746.01 1704.34 L2746.01 1704.34 L2754.55 1704.34 L2754.55 1703.97 L2763.21 1703.97 L2763.21 1703.97 L2771.75 1703.97 L2771.75 1703.60 L2780.41 1703.60 L2780.41 1703.22 L2788.95 1703.22 L2788.95 1702.73 L2797.62 1702.73 L2797.62 1701.86 L2806.16 1701.86 L2806.16 1700.50 L2814.82 1700.50 L2814.82 1700.50 L2823.36 1700.50 L2823.36 1700.50 L2832.02 1700.50 L2832.02 1700.50 L2840.68 1700.50 L2840.68 1700.50 L2849.22 1700.50 L2849.22 1700.50 L2857.88 1700.50 L2857.88 1700.50 L2866.42 1700.50 L2866.42 1700.50 L2875.08 1700.50 L2875.08 1700.50 L2883.62 1700.50 L2883.62 1700.50 L2892.28 1700.50 L2892.28 1700.50 L2900.82 1700.50 L2900.82 1700.50 L2909.49 1700.50 L2909.49 1700.50 L2918.03 1700.50 L2918.03 1700.50 L2926.69 1700.50 L2926.69 1700.50 L2935.23 1700.50 L2935.23 1700.50 L2943.89 1700.50 L2943.89 1700.50 L2952.43 1700.50 L2952.43 1700.50 L2961.09 1700.50 L2961.09 1700.50 L2969.63 1700.50 L2969.63 1700.50 L2978.29 1700.50 L2978.29 1700.50 L2986.83 1700.50 L2986.83 1700.50 L2995.49 1700.50 L2995.49 1700.50 L3004.16 1700.50 L3004.16 1700.50 L3012.69 1700.50 L3012.69 1700.50 L3021.36 1700.50 L3021.36 1700.50 L3029.89 1700.50 L3029.89 1700.50 L3038.56 1700.50 L3038.56 1700.50 L3047.10 1700.50 L3047.10 1700.50 L3055.76 1700.50 L3055.76 1700.50 L3064.30 1700.50 L3064.30 1700.50 L3072.96 1700.50 L3072.96 1700.50 L3081.50 1700.50 L3081.50 1700.50 L3090.16 1700.50 L3090.16 1700.50 L3098.70 1700.50 L3098.70 1700.50 L3107.36 1700.50 L3107.36 1700.50 L3115.90 1700.50 L3115.90 1700.50 L3124.56 1700.50 L3124.56 1700.50 L3141.76 1700.50 L3141.76 1700.50 L3158.97 1700.50 L3158.97 1700.50 L3279.38 1700.50 L3279.38 1700.50 L3305.24 1700.50 L3305.24 1700.50" stroke-linejoin="round" style="fill:none;stroke:#1A476F;stroke-width:8.64"/>
	<path d=" M354.05 1890.34 L354.05 1890.34 L354.05 1890.34 L354.05 1890.34 L354.05 1890.34 L362.71 1890.34 L362.71 1890.09 L371.25 1890.09 L371.25 1889.85 L379.91 1889.85 L379.91 1889.47 L388.45 1889.47 L388.45 1888.98 L397.11 1888.98 L397.11 1888.86 L405.65 1888.86 L405.65 1888.36 L414.31 1888.36 L414.31 1888.11 L431.52 1888.11 L431.52 1887.74 L440.18 1887.74 L440.18 1887.62 L448.72 1887.62 L448.72 1887.37 L457.38 1887.37 L457.38 1887.25 L474.58 1887.25 L474.58 1886.75 L491.78 1886.75 L491.78 1886.63 L500.32 1886.63 L500.32 1886.26 L508.98 1886.26 L508.98 1885.76 L517.52 1885.76 L517.52 1885.27 L526.18 1885.27 L526.18 1885.02 L534.72 1885.02 L534.72 1884.65 L543.39 1884.65 L543.39 1884.52 L551.92 1884.52 L551.92 1884.15 L560.59 1884.15 L560.59 1883.91 L569.13 1883.91 L569.13 1883.41 L577.79 1883.41 L577.79 1883.41 L586.33 1883.41 L586.33 1882.67 L594.99 1882.67 L594.99 1882.54 L603.65 1882.54 L603.65 1882.30 L620.85 1882.30 L620.85 1881.93 L629.39 1881.93 L629.39 1881.68 L638.05 1881.68 L638.05 1881.18 L655.26 1881.18 L655.26 1881.18 L672.46 1881.18 L672.46 1880.56 L681.00 1880.56 L681.00 1880.32 L689.66 1880.32 L689.66 1880.19 L698.20 1880.19 L698.20 1879.94 L706.86 1879.94 L706.86 1879.70 L715.40 1879.70 L715.40 1879.45 L724.06 1879.45 L724.06 1879.08 L741.26 1879.08 L741.26 1878.83 L749.80 1878.83 L749.80 1878.83 L758.46 1878.83 L758.46 1878.46 L767.13 1878.46 L767.13 1878.34 L775.66 1878.34 L775.66 1878.21 L784.33 1878.21 L784.33 1878.09 L792.87 1878.09 L792.87 1877.96 L801.53 1877.96 L801.53 1877.72 L810.07 1877.72 L810.07 1877.47 L818.73 1877.47 L818.73 1877.35 L827.27 1877.35 L827.27 1877.10 L835.93 1877.10 L835.93 1876.97 L853.13 1876.97 L853.13 1876.60 L861.67 1876.60 L861.67 1876.48 L870.33 1876.48 L870.33 1876.11 L878.87 1876.11 L878.87 1875.74 L887.53 1875.74 L887.53 1875.61 L896.07 1875.61 L896.07 1875.49 L904.74 1875.49 L904.74 1875.24 L930.60 1875.24 L930.60 1874.99 L939.14 1874.99 L939.14 1874.62 L947.80 1874.62 L947.80 1874.50 L956.34 1874.50 L956.34 1874.38 L990.74 1874.38 L990.74 1874.25 L1007.94 1874.25 L1007.94 1874.13 L1025.14 1874.13 L1025.14 1874.00 L1059.55 1874.00 L1059.55 1873.63 L1068.21 1873.63 L1068.21 1873.39 L1076.87 1873.39 L1076.87 1873.14 L1085.41 1873.14 L1085.41 1873.01 L1094.07 1873.01 L1094.07 1872.77 L1102.61 1872.77 L1102.61 1872.64 L1111.28 1872.64 L1111.28 1872.52 L1119.81 1872.52 L1119.81 1872.40 L1128.48 1872.40 L1128.48 1872.27 L1137.02 1872.27 L1137.02 1871.90 L1145.68 1871.90 L1145.68 1871.65 L1154.22 1871.65 L1154.22 1871.53 L1171.42 1871.53 L1171.42 1871.16 L1180.08 1871.16 L1180.08 1871.03 L1188.62 1871.03 L1188.62 1870.91 L1197.28 1870.91 L1197.28 1870.42 L1205.82 1870.42 L1205.82 1870.42 L1214.48 1870.42 L1214.48 1870.17 L1231.68 1870.17 L1231.68 1869.92 L1240.35 1869.92 L1240.35 1869.80 L1248.88 1869.80 L1248.88 1869.67 L1257.55 1869.67 L1257.55 1869.67 L1266.09 1869.67 L1266.09 1869.18 L1274.75 1869.18 L1274.75 1869.05 L1283.29 1869.05 L1283.29 1868.81 L1291.95 1868.81 L1291.95 1868.68 L1300.49 1868.68 L1300.49 1868.19 L1309.15 1868.19 L1309.15 1868.06 L1317.69 1868.06 L1317.69 1867.94 L1326.35 1867.94 L1326.35 1867.69 L1334.89 1867.69 L1334.89 1867.32 L1343.55 1867.32 L1343.55 1867.20 L1360.76 1867.20 L1360.76 1866.83 L1369.29 1866.83 L1369.29 1866.58 L1377.96 1866.58 L1377.96 1866.33 L1386.49 1866.33 L1386.49 1866.08 L1395.16 1866.08 L1395.16 1865.96 L1403.82 1865.96 L1403.82 1865.84 L1412.36 1865.84 L1412.36 1865.59 L1421.02 1865.59 L1421.02 1865.22 L1429.56 1865.22 L1429.56 1864.97 L1438.22 1864.97 L1438.22 1864.85 L1455.42 1864.85 L1455.42 1864.72 L1463.96 1864.72 L1463.96 1864.48 L1472.63 1864.48 L1472.63 1864.23 L1481.16 1864.23 L1481.16 1863.98 L1489.83 1863.98 L1489.83 1863.86 L1498.37 1863.86 L1498.37 1863.73 L1507.03 1863.73 L1507.03 1863.49 L1515.57 1863.49 L1515.57 1863.36 L1524.23 1863.36 L1524.23 1863.24 L1541.43 1863.24 L1541.43 1862.99 L1549.97 1862.99 L1549.97 1862.87 L1558.63 1862.87 L1558.63 1862.74 L1567.29 1862.74 L1567.29 1862.74 L1575.83 1862.74 L1575.83 1862.50 L1584.49 1862.50 L1584.49 1862.37 L1601.70 1862.37 L1601.70 1862.12 L1610.23 1862.12 L1610.23 1862.00 L1618.90 1862.00 L1618.90 1861.88 L1627.44 1861.88 L1627.44 1861.75 L1636.10 1861.75 L1636.10 1861.38 L1670.50 1861.38 L1670.50 1861.26 L1679.04 1861.26 L1679.04 1861.13 L1687.70 1861.13 L1687.70 1861.01 L1696.24 1861.01 L1696.24 1860.52 L1713.44 1860.52 L1713.44 1860.14 L1739.31 1860.14 L1739.31 1859.90 L1747.97 1859.90 L1747.97 1859.77 L1756.51 1859.77 L1756.51 1859.65 L1765.17 1859.65 L1765.17 1859.65 L1782.37 1859.65 L1782.37 1859.40 L1790.91 1859.40 L1790.91 1859.15 L1799.57 1859.15 L1799.57 1858.91 L1808.11 1858.91 L1808.11 1858.91 L1816.77 1858.91 L1816.77 1858.66 L1825.31 1858.66 L1825.31 1858.54 L1842.51 1858.54 L1842.51 1858.16 L1851.18 1858.16 L1851.18 1858.04 L1859.71 1858.04 L1859.71 1857.79 L1868.38 1857.79 L1868.38 1857.55 L1877.04 1857.55 L1877.04 1857.42 L1885.58 1857.42 L1885.58 1857.30 L1894.24 1857.30 L1894.24 1857.05 L1902.78 1857.05 L1902.78 1856.93 L1911.44 1856.93 L1911.44 1856.80 L1919.98 1856.80 L1919.98 1856.68 L1937.18 1856.68 L1937.18 1856.56 L1945.85 1856.56 L1945.85 1856.56 L1954.38 1856.56 L1954.38 1856.43 L1971.59 1856.43 L1971.59 1856.18 L1980.25 1856.18 L1980.25 1856.06 L1997.45 1856.06 L1997.45 1855.81 L2005.99 1855.81 L2005.99 1855.69 L2014.65 1855.69 L2014.65 1855.32 L2023.19 1855.32 L2023.19 1855.19 L2031.85 1855.19 L2031.85 1855.07 L2040.51 1855.07 L2040.51 1854.95 L2049.05 1854.95 L2049.05 1854.82 L2057.72 1854.82 L2057.72 1854.45 L2074.92 1854.45 L2074.92 1854.20 L2083.45 1854.20 L2083.45 1853.96 L2092.12 1853.96 L2092.12 1853.71 L2100.66 1853.71 L2100.66 1853.46 L2109.32 1853.46 L2109.32 1853.21 L2135.06 1853.21 L2135.06 1853.09 L2143.72 1853.09 L2143.72 1852.97 L2152.26 1852.97 L2152.26 1852.84 L2160.92 1852.84 L2160.92 1852.72 L2169.46 1852.72 L2169.46 1852.60 L2178.12 1852.60 L2178.12 1851.98 L2195.32 1851.98 L2195.32 1851.85 L2203.99 1851.85 L2203.99 1851.73 L2212.53 1851.73 L2212.53 1851.23 L2229.73 1851.23 L2229.73 1851.11 L2246.93 1851.11 L2246.93 1850.62 L2255.59 1850.62 L2255.59 1850.49 L2264.13 1850.49 L2264.13 1850.37 L2281.33 1850.37 L2281.33 1850.37 L2289.99 1850.37 L2289.99 1850.12 L2307.20 1850.12 L2307.20 1850.00 L2315.73 1850.00 L2315.73 1849.87 L2324.40 1849.87 L2324.40 1849.63 L2332.93 1849.63 L2332.93 1849.50 L2341.60 1849.50 L2341.60 1849.38 L2350.14 1849.38 L2350.14 1849.25 L2358.80 1849.25 L2358.80 1848.88 L2367.46 1848.88 L2367.46 1848.76 L2384.66 1848.76 L2384.66 1848.64 L2393.20 1848.64 L2393.20 1848.14 L2410.40 1848.14 L2410.40 1848.02 L2427.60 1848.02 L2427.60 1847.89 L2444.80 1847.89 L2444.80 1847.65 L2453.47 1847.65 L2453.47 1847.52 L2462.01 1847.52 L2462.01 1847.40 L2470.67 1847.40 L2470.67 1847.15 L2487.87 1847.15 L2487.87 1846.78 L2505.07 1846.78 L2505.07 1846.53 L2513.61 1846.53 L2513.61 1846.53 L2522.27 1846.53 L2522.27 1846.28 L2530.93 1846.28 L2530.93 1846.16 L2539.47 1846.16 L2539.47 1845.79 L2556.68 1845.79 L2556.68 1845.67 L2573.88 1845.67 L2573.88 1845.54 L2591.08 1845.54 L2591.08 1845.29 L2599.74 1845.29 L2599.74 1844.92 L2608.28 1844.92 L2608.28 1844.68 L2616.94 1844.68 L2616.94 1844.55 L2625.48 1844.55 L2625.48 1844.43 L2634.14 1844.43 L2634.14 1844.30 L2642.68 1844.30 L2642.68 1844.18 L2651.34 1844.18 L2651.34 1844.06 L2659.88 1844.06 L2659.88 1843.81 L2668.55 1843.81 L2668.55 1843.69 L2677.21 1843.69 L2677.21 1843.56 L2685.75 1843.56 L2685.75 1843.44 L2694.41 1843.44 L2694.41 1843.19 L2702.95 1843.19 L2702.95 1843.07 L2711.61 1843.07 L2711.61 1842.82 L2720.15 1842.82 L2720.15 1842.70 L2737.35 1842.70 L2737.35 1842.45 L2746.01 1842.45 L2746.01 1842.32 L2754.55 1842.32 L2754.55 1842.20 L2771.75 1842.20 L2771.75 1841.95 L2780.41 1841.95 L2780.41 1841.95 L2814.82 1841.95 L2814.82 1841.83 L2823.36 1841.83 L2823.36 1841.71 L2840.68 1841.71 L2840.68 1841.58 L2849.22 1841.58 L2849.22 1841.21 L2857.88 1841.21 L2857.88 1840.96 L2875.08 1840.96 L2875.08 1840.59 L2883.62 1840.59 L2883.62 1840.47 L2892.28 1840.47 L2892.28 1840.10 L2900.82 1840.10 L2900.82 1839.85 L2909.49 1839.85 L2909.49 1839.72 L2918.03 1839.72 L2918.03 1839.48 L2926.69 1839.48 L2926.69 1838.98 L2935.23 1838.98 L2935.23 1838.86 L2943.89 1838.86 L2943.89 1838.86 L2952.43 1838.86 L2952.43 1838.61 L2961.09 1838.61 L2961.09 1838.36 L2978.29 1838.36 L2978.29 1838.24 L2986.83 1838.24 L2986.83 1838.12 L2995.49 1838.12 L2995.49 1837.62 L3004.16 1837.62 L3004.16 1837.37 L3012.69 1837.37 L3012.69 1837.13 L3021.36 1837.13 L3021.36 1836.88 L3029.89 1836.88 L3029.89 1836.63 L3047.10 1836.63 L3047.10 1836.38 L3055.76 1836.38 L3055.76 1836.14 L3064.30 1836.14 L3064.30 1835.89 L3072.96 1835.89 L3072.96 1835.89 L3081.50 1835.89 L3081.50 1835.76 L3090.16 1835.76 L3090.16 1835.64 L3098.70 1835.64 L3098.70 1835.39 L3107.36 1835.39 L3107.36 1835.02 L3115.90 1835.02 L3115.90 1835.02 L3124.56 1835.02 L3124.56 1834.77 L3133.10 1834.77 L3133.10 1834.40 L3141.76 1834.40 L3141.76 1834.28 L3150.30 1834.28 L3150.30 1833.78 L3158.97 1833.78 L3158.97 1833.54 L3167.63 1833.54 L3167.63 1833.41 L3176.17 1833.41 L3176.17 1833.04 L3184.83 1833.04 L3184.83 1832.79 L3202.03 1832.79 L3202.03 1832.67 L3210.57 1832.67 L3210.57 1832.55 L3219.23 1832.55 L3219.23 1832.18 L3227.77 1832.18 L3227.77 1831.93 L3244.97 1831.93 L3244.97 1831.68 L3253.64 1831.68 L3253.64 1831.56 L3262.17 1831.56 L3262.17 1831.43 L3270.84 1831.43 L3270.84 1831.06 L3279.38 1831.06 L3279.38 1830.57 L3288.04 1830.57 L3288.04 1830.32 L3296.58 1830.32 L3296.58 1829.70 L3305.24 1829.70 L3305.24 1828.96" stroke-linejoin="round" style="fill:none;stroke:#90353B;stroke-width:8.64"/>
	<path d=" M354.05 1890.34 L354.05 1890.34 L354.05 1890.34 L354.05 1890.34 L354.05 1890.34 L362.71 1890.34 L362.71 1890.34 L371.25 1890.34 L371.25 1890.09 L379.91 1890.09 L379.91 1889.97 L388.45 1889.97 L388.45 1889.97 L397.11 1889.97 L397.11 1889.85 L405.65 1889.85 L405.65 1889.72 L414.31 1889.72 L414.31 1889.60 L422.85 1889.60 L422.85 1889.47 L431.52 1889.47 L431.52 1889.35 L440.18 1889.35 L440.18 1889.23 L448.72 1889.23 L448.72 1889.10 L457.38 1889.10 L457.38 1888.98 L465.92 1888.98 L465.92 1888.86 L483.12 1888.86 L483.12 1888.73 L491.78 1888.73 L491.78 1888.73 L500.32 1888.73 L500.32 1888.48 L508.98 1888.48 L508.98 1888.48 L517.52 1888.48 L517.52 1888.48 L526.18 1888.48 L526.18 1888.36 L534.72 1888.36 L534.72 1888.24 L543.39 1888.24 L543.39 1888.11 L551.92 1888.11 L551.92 1887.99 L560.59 1887.99 L560.59 1887.99 L569.13 1887.99 L569.13 1887.87 L577.79 1887.87 L577.79 1887.87 L586.33 1887.87 L586.33 1887.74 L594.99 1887.74 L594.99 1887.62 L603.65 1887.62 L603.65 1887.62 L612.19 1887.62 L612.19 1887.49 L620.85 1887.49 L620.85 1887.25 L629.39 1887.25 L629.39 1887.25 L638.05 1887.25 L638.05 1887.00 L646.59 1887.00 L646.59 1886.75 L655.26 1886.75 L655.26 1886.63 L663.79 1886.63 L663.79 1886.38 L672.46 1886.38 L672.46 1886.26 L681.00 1886.26 L681.00 1886.13 L689.66 1886.13 L689.66 1886.01 L698.20 1886.01 L698.20 1885.89 L706.86 1885.89 L706.86 1885.89 L715.40 1885.89 L715.40 1885.64 L724.06 1885.64 L724.06 1885.51 L732.60 1885.51 L732.60 1885.39 L741.26 1885.39 L741.26 1885.27 L749.80 1885.27 L749.80 1885.27 L758.46 1885.27 L758.46 1885.14 L767.13 1885.14 L767.13 1885.02 L775.66 1885.02 L775.66 1884.77 L784.33 1884.77 L784.33 1884.77 L792.87 1884.77 L792.87 1884.65 L801.53 1884.65 L801.53 1884.52 L810.07 1884.52 L810.07 1884.40 L818.73 1884.40 L818.73 1884.28 L827.27 1884.28 L827.27 1884.03 L835.93 1884.03 L835.93 1884.03 L844.47 1884.03 L844.47 1883.91 L853.13 1883.91 L853.13 1883.78 L861.67 1883.78 L861.67 1883.66 L870.33 1883.66 L870.33 1883.53 L878.87 1883.53 L878.87 1883.41 L887.53 1883.41 L887.53 1883.16 L896.07 1883.16 L896.07 1883.16 L904.74 1883.16 L904.74 1883.04 L913.40 1883.04 L913.40 1882.92 L921.94 1882.92 L921.94 1882.79 L930.60 1882.79 L930.60 1882.54 L939.14 1882.54 L939.14 1882.54 L947.80 1882.54 L947.80 1882.42 L956.34 1882.42 L956.34 1882.30 L965.00 1882.30 L965.00 1882.17 L973.54 1882.17 L973.54 1882.05 L982.20 1882.05 L982.20 1881.80 L990.74 1881.80 L990.74 1881.68 L999.40 1881.68 L999.40 1881.68 L1007.94 1881.68 L1007.94 1881.55 L1016.61 1881.55 L1016.61 1881.43 L1025.14 1881.43 L1025.14 1881.31 L1033.81 1881.31 L1033.81 1881.18 L1042.35 1881.18 L1042.35 1881.18 L1051.01 1881.18 L1051.01 1880.94 L1059.55 1880.94 L1059.55 1880.81 L1068.21 1880.81 L1068.21 1880.69 L1076.87 1880.69 L1076.87 1880.44 L1085.41 1880.44 L1085.41 1880.32 L1094.07 1880.32 L1094.07 1880.19 L1102.61 1880.19 L1102.61 1879.94 L1111.28 1879.94 L1111.28 1879.82 L1119.81 1879.82 L1119.81 1879.70 L1128.48 1879.70 L1128.48 1879.57 L1137.02 1879.57 L1137.02 1879.45 L1145.68 1879.45 L1145.68 1879.33 L1154.22 1879.33 L1154.22 1879.33 L1162.88 1879.33 L1162.88 1879.20 L1171.42 1879.20 L1171.42 1879.08 L1180.08 1879.08 L1180.08 1878.95 L1188.62 1878.95 L1188.62 1878.83 L1197.28 1878.83 L1197.28 1878.58 L1205.82 1878.58 L1205.82 1878.46 L1214.48 1878.46 L1214.48 1878.34 L1223.02 1878.34 L1223.02 1878.09 L1231.68 1878.09 L1231.68 1877.96 L1240.35 1877.96 L1240.35 1877.84 L1248.88 1877.84 L1248.88 1877.59 L1257.55 1877.59 L1257.55 1877.47 L1266.09 1877.47 L1266.09 1877.35 L1274.75 1877.35 L1274.75 1877.35 L1283.29 1877.35 L1283.29 1877.22 L1291.95 1877.22 L1291.95 1876.97 L1300.49 1876.97 L1300.49 1876.97 L1309.15 1876.97 L1309.15 1876.85 L1317.69 1876.85 L1317.69 1876.85 L1326.35 1876.85 L1326.35 1876.60 L1334.89 1876.60 L1334.89 1876.48 L1343.55 1876.48 L1343.55 1876.36 L1352.09 1876.36 L1352.09 1876.11 L1360.76 1876.11 L1360.76 1875.86 L1369.29 1875.86 L1369.29 1875.74 L1377.96 1875.74 L1377.96 1875.61 L1386.49 1875.61 L1386.49 1875.49 L1395.16 1875.49 L1395.16 1875.37 L1403.82 1875.37 L1403.82 1875.24 L1412.36 1875.24 L1412.36 1874.99 L1421.02 1874.99 L1421.02 1874.99 L1429.56 1874.99 L1429.56 1874.75 L1438.22 1874.75 L1438.22 1874.62 L1446.76 1874.62 L1446.76 1874.50 L1455.42 1874.50 L1455.42 1874.38 L1463.96 1874.38 L1463.96 1874.25 L1472.63 1874.25 L1472.63 1874.00 L1481.16 1874.00 L1481.16 1873.88 L1489.83 1873.88 L1489.83 1873.76 L1498.37 1873.76 L1498.37 1873.63 L1507.03 1873.63 L1507.03 1873.39 L1515.57 1873.39 L1515.57 1873.26 L1524.23 1873.26 L1524.23 1873.14 L1532.77 1873.14 L1532.77 1872.89 L1541.43 1872.89 L1541.43 1872.64 L1549.97 1872.64 L1549.97 1872.52 L1558.63 1872.52 L1558.63 1872.15 L1567.29 1872.15 L1567.29 1872.15 L1575.83 1872.15 L1575.83 1871.90 L1584.49 1871.90 L1584.49 1871.78 L1593.03 1871.78 L1593.03 1871.53 L1601.70 1871.53 L1601.70 1871.41 L1610.23 1871.41 L1610.23 1871.28 L1618.90 1871.28 L1618.90 1871.16 L1627.44 1871.16 L1627.44 1871.03 L1636.10 1871.03 L1636.10 1870.91 L1644.64 1870.91 L1644.64 1870.79 L1653.30 1870.79 L1653.30 1870.66 L1661.84 1870.66 L1661.84 1870.54 L1670.50 1870.54 L1670.50 1870.42 L1679.04 1870.42 L1679.04 1870.29 L1687.70 1870.29 L1687.70 1870.29 L1696.24 1870.29 L1696.24 1870.17 L1704.90 1870.17 L1704.90 1870.04 L1713.44 1870.04 L1713.44 1869.92 L1722.11 1869.92 L1722.11 1869.67 L1730.77 1869.67 L1730.77 1869.55 L1739.31 1869.55 L1739.31 1869.43 L1747.97 1869.43 L1747.97 1869.30 L1756.51 1869.30 L1756.51 1869.05 L1765.17 1869.05 L1765.17 1869.05 L1773.71 1869.05 L1773.71 1868.93 L1782.37 1868.93 L1782.37 1868.81 L1790.91 1868.81 L1790.91 1868.68 L1799.57 1868.68 L1799.57 1868.56 L1808.11 1868.56 L1808.11 1868.44 L1816.77 1868.44 L1816.77 1868.31 L1825.31 1868.31 L1825.31 1868.19 L1833.97 1868.19 L1833.97 1868.06 L1842.51 1868.06 L1842.51 1867.94 L1851.18 1867.94 L1851.18 1867.82 L1859.71 1867.82 L1859.71 1867.57 L1868.38 1867.57 L1868.38 1867.45 L1877.04 1867.45 L1877.04 1867.32 L1885.58 1867.32 L1885.58 1867.07 L1894.24 1867.07 L1894.24 1866.83 L1902.78 1866.83 L1902.78 1866.70 L1911.44 1866.70 L1911.44 1866.58 L1919.98 1866.58 L1919.98 1866.33 L1928.64 1866.33 L1928.64 1866.08 L1937.18 1866.08 L1937.18 1865.96 L1945.85 1865.96 L1945.85 1865.71 L1954.38 1865.71 L1954.38 1865.71 L1963.05 1865.71 L1963.05 1865.47 L1971.59 1865.47 L1971.59 1865.34 L1980.25 1865.34 L1980.25 1865.09 L1988.79 1865.09 L1988.79 1864.97 L1997.45 1864.97 L1997.45 1864.85 L2005.99 1864.85 L2005.99 1864.72 L2023.19 1864.72 L2023.19 1864.48 L2031.85 1864.48 L2031.85 1864.48 L2040.51 1864.48 L2040.51 1864.35 L2049.05 1864.35 L2049.05 1864.23 L2057.72 1864.23 L2057.72 1863.98 L2066.25 1863.98 L2066.25 1863.86 L2074.92 1863.86 L2074.92 1863.86 L2083.45 1863.86 L2083.45 1863.61 L2092.12 1863.61 L2092.12 1863.49 L2100.66 1863.49 L2100.66 1863.24 L2109.32 1863.24 L2109.32 1863.11 L2117.86 1863.11 L2117.86 1862.87 L2126.52 1862.87 L2126.52 1862.62 L2135.06 1862.62 L2135.06 1862.50 L2143.72 1862.50 L2143.72 1862.12 L2152.26 1862.12 L2152.26 1862.00 L2160.92 1862.00 L2160.92 1861.88 L2169.46 1861.88 L2169.46 1861.75 L2178.12 1861.75 L2178.12 1861.63 L2186.66 1861.63 L2186.66 1861.38 L2195.32 1861.38 L2195.32 1861.26 L2203.99 1861.26 L2203.99 1861.13 L2212.53 1861.13 L2212.53 1861.01 L2221.19 1861.01 L2221.19 1860.76 L2229.73 1860.76 L2229.73 1860.64 L2238.39 1860.64 L2238.39 1860.52 L2246.93 1860.52 L2246.93 1860.39 L2255.59 1860.39 L2255.59 1860.27 L2264.13 1860.27 L2264.13 1860.14 L2272.79 1860.14 L2272.79 1860.02 L2281.33 1860.02 L2281.33 1859.90 L2289.99 1859.90 L2289.99 1859.77 L2298.53 1859.77 L2298.53 1859.65 L2307.20 1859.65 L2307.20 1859.53 L2315.73 1859.53 L2315.73 1859.28 L2324.40 1859.28 L2324.40 1859.15 L2332.93 1859.15 L2332.93 1859.03 L2341.60 1859.03 L2341.60 1858.91 L2350.14 1858.91 L2350.14 1858.78 L2358.80 1858.78 L2358.80 1858.66 L2367.46 1858.66 L2367.46 1858.54 L2376.00 1858.54 L2376.00 1858.41 L2384.66 1858.41 L2384.66 1858.29 L2393.20 1858.29 L2393.20 1858.04 L2401.86 1858.04 L2401.86 1857.92 L2410.40 1857.92 L2410.40 1857.79 L2419.07 1857.79 L2419.07 1857.67 L2427.60 1857.67 L2427.60 1857.55 L2436.27 1857.55 L2436.27 1857.30 L2444.80 1857.30 L2444.80 1857.17 L2453.47 1857.17 L2453.47 1857.05 L2462.01 1857.05 L2462.01 1856.93 L2470.67 1856.93 L2470.67 1856.80 L2479.21 1856.80 L2479.21 1856.68 L2487.87 1856.68 L2487.87 1856.56 L2496.41 1856.56 L2496.41 1856.31 L2505.07 1856.31 L2505.07 1856.06 L2513.61 1856.06 L2513.61 1855.94 L2522.27 1855.94 L2522.27 1855.81 L2530.93 1855.81 L2530.93 1855.69 L2539.47 1855.69 L2539.47 1855.44 L2548.14 1855.44 L2548.14 1855.32 L2556.68 1855.32 L2556.68 1855.19 L2565.34 1855.19 L2565.34 1854.95 L2573.88 1854.95 L2573.88 1854.82 L2582.54 1854.82 L2582.54 1854.70 L2591.08 1854.70 L2591.08 1854.58 L2599.74 1854.58 L2599.74 1854.45 L2608.28 1854.45 L2608.28 1854.33 L2616.94 1854.33 L2616.94 1854.20 L2625.48 1854.20 L2625.48 1854.20 L2634.14 1854.20 L2634.14 1854.08 L2642.68 1854.08 L2642.68 1854.08 L2651.34 1854.08 L2651.34 1853.83 L2659.88 1853.83 L2659.88 1853.71 L2668.55 1853.71 L2668.55 1853.59 L2677.21 1853.59 L2677.21 1853.34 L2685.75 1853.34 L2685.75 1853.21 L2694.41 1853.21 L2694.41 1853.09 L2702.95 1853.09 L2702.95 1852.97 L2711.61 1852.97 L2711.61 1852.72 L2720.15 1852.72 L2720.15 1852.47 L2728.81 1852.47 L2728.81 1852.35 L2737.35 1852.35 L2737.35 1852.22 L2746.01 1852.22 L2746.01 1852.10 L2754.55 1852.10 L2754.55 1851.98 L2763.21 1851.98 L2763.21 1851.85 L2771.75 1851.85 L2771.75 1851.73 L2780.41 1851.73 L2780.41 1851.48 L2788.95 1851.48 L2788.95 1851.36 L2797.62 1851.36 L2797.62 1851.11 L2806.16 1851.11 L2806.16 1850.86 L2814.82 1850.86 L2814.82 1850.74 L2823.36 1850.74 L2823.36 1850.62 L2832.02 1850.62 L2832.02 1850.49 L2840.68 1850.49 L2840.68 1850.37 L2849.22 1850.37 L2849.22 1850.12 L2857.88 1850.12 L2857.88 1850.00 L2866.42 1850.00 L2866.42 1849.63 L2875.08 1849.63 L2875.08 1849.38 L2883.62 1849.38 L2883.62 1849.25 L2892.28 1849.25 L2892.28 1849.01 L2900.82 1849.01 L2900.82 1848.88 L2909.49 1848.88 L2909.49 1848.76 L2918.03 1848.76 L2918.03 1848.76 L2926.69 1848.76 L2926.69 1848.51 L2935.23 1848.51 L2935.23 1848.39 L2943.89 1848.39 L2943.89 1848.14 L2952.43 1848.14 L2952.43 1848.02 L2961.09 1848.02 L2961.09 1847.89 L2969.63 1847.89 L2969.63 1847.52 L2978.29 1847.52 L2978.29 1847.40 L2986.83 1847.40 L2986.83 1847.15 L2995.49 1847.15 L2995.49 1847.03 L3004.16 1847.03 L3004.16 1846.66 L3012.69 1846.66 L3012.69 1846.53 L3021.36 1846.53 L3021.36 1846.28 L3029.89 1846.28 L3029.89 1846.16 L3038.56 1846.16 L3038.56 1846.04 L3047.10 1846.04 L3047.10 1845.79 L3055.76 1845.79 L3055.76 1845.67 L3064.30 1845.67 L3064.30 1845.42 L3072.96 1845.42 L3072.96 1845.17 L3081.50 1845.17 L3081.50 1845.05 L3090.16 1845.05 L3090.16 1844.92 L3098.70 1844.92 L3098.70 1844.68 L3107.36 1844.68 L3107.36 1844.43 L3115.90 1844.43 L3115.90 1844.18 L3124.56 1844.18 L3124.56 1843.93 L3133.10 1843.93 L3133.10 1843.81 L3141.76 1843.81 L3141.76 1843.69 L3150.30 1843.69 L3150.30 1843.56 L3158.97 1843.56 L3158.97 1843.44 L3167.63 1843.44 L3167.63 1843.19 L3176.17 1843.19 L3176.17 1843.07 L3184.83 1843.07 L3184.83 1842.82 L3193.37 1842.82 L3193.37 1842.45 L3202.03 1842.45 L3202.03 1842.32 L3210.57 1842.32 L3210.57 1842.08 L3219.23 1842.08 L3219.23 1841.83 L3227.77 1841.83 L3227.77 1841.58 L3236.43 1841.58 L3236.43 1841.46 L3244.97 1841.46 L3244.97 1841.21 L3253.64 1841.21 L3253.64 1841.09 L3262.17 1841.09 L3262.17 1840.96 L3270.84 1840.96 L3270.84 1840.84 L3279.38 1840.84 L3279.38 1840.59 L3288.04 1840.59 L3288.04 1840.47 L3296.58 1840.47 L3296.58 1840.22 L3305.24 1840.22 L3305.24 1839.97" stroke-linejoin="round" style="fill:none;stroke:#55752F;stroke-width:8.64"/>
	<line x1="290.81" y1="1953.70" x2="290.81" y2="100.86" style="stroke:#000000;stroke-width:5.76"/>
	<line x1="290.81" y1="1890.34" x2="250.84" y2="1890.34" style="stroke:#000000;stroke-width:5.76"/>
	<text x="200.73" y="1890.34" style="font-family:'Helvetica';font-size:99.99px;fill:#000000" transform="rotate(-90 200.73,1890.34)" text-anchor="middle">0.00</text>
	<line x1="290.81" y1="1458.81" x2="250.84" y2="1458.81" style="stroke:#000000;stroke-width:5.76"/>
	<text x="200.73" y="1458.81" style="font-family:'Helvetica';font-size:99.99px;fill:#000000" transform="rotate(-90 200.73,1458.81)" text-anchor="middle">0.25</text>
	<line x1="290.81" y1="1027.28" x2="250.84" y2="1027.28" style="stroke:#000000;stroke-width:5.76"/>
	<text x="200.73" y="1027.28" style="font-family:'Helvetica';font-size:99.99px;fill:#000000" transform="rotate(-90 200.73,1027.28)" text-anchor="middle">0.50</text>
	<line x1="290.81" y1="595.75" x2="250.84" y2="595.75" style="stroke:#000000;stroke-width:5.76"/>
	<text x="200.73" y="595.75" style="font-family:'Helvetica';font-size:99.99px;fill:#000000" transform="rotate(-90 200.73,595.75)" text-anchor="middle">0.75</text>
	<line x1="290.81" y1="164.22" x2="250.84" y2="164.22" style="stroke:#000000;stroke-width:5.76"/>
	<text x="200.73" y="164.22" style="font-family:'Helvetica';font-size:99.99px;fill:#000000" transform="rotate(-90 200.73,164.22)" text-anchor="middle">1.00</text>
	<line x1="290.81" y1="1953.70" x2="3859.02" y2="1953.70" style="stroke:#000000;stroke-width:5.76"/>
	<line x1="354.17" y1="1953.70" x2="354.17" y2="1993.67" style="stroke:#000000;stroke-width:5.76"/>
	<text x="354.17" y="2083.66" style="font-family:'Helvetica';font-size:99.99px;fill:#000000" text-anchor="middle">0</text>
	<line x1="1214.48" y1="1953.70" x2="1214.48" y2="1993.67" style="stroke:#000000;stroke-width:5.76"/>
	<text x="1214.48" y="2083.66" style="font-family:'Helvetica';font-size:99.99px;fill:#000000" text-anchor="middle">100</text>
	<line x1="2074.92" y1="1953.70" x2="2074.92" y2="1993.67" style="stroke:#000000;stroke-width:5.76"/>
	<text x="2074.92" y="2083.66" style="font-family:'Helvetica';font-size:99.99px;fill:#000000" text-anchor="middle">200</text>
	<line x1="2935.35" y1="1953.70" x2="2935.35" y2="1993.67" style="stroke:#000000;stroke-width:5.76"/>
	<text x="2935.35" y="2083.66" style="font-family:'Helvetica';font-size:99.99px;fill:#000000" text-anchor="middle">300</text>
	<line x1="3795.66" y1="1953.70" x2="3795.66" y2="1993.67" style="stroke:#000000;stroke-width:5.76"/>
	<text x="3795.66" y="2083.66" style="font-family:'Helvetica';font-size:99.99px;fill:#000000" text-anchor="middle">400</text>
	<text x="2074.92" y="2193.67" style="font-family:'Helvetica';font-size:99.99px;fill:#000000" text-anchor="middle">Days from index date</text>
	<rect x="1054.72" y="2278.31" width="2040.39" height="466.30" style="fill:#FFFFFF"/>
	<rect x="1057.60" y="2281.19" width="2034.63" height="460.54" style="fill:none;stroke:#000000;stroke-width:5.76"/>
	<line x1="1098.03" y1="2371.50" x2="1472.38" y2="2371.50" style="stroke:#1A476F;stroke-width:8.64"/>
	<line x1="1098.03" y1="2511.46" x2="1472.38" y2="2511.46" style="stroke:#90353B;stroke-width:8.64"/>
	<line x1="1098.03" y1="2651.43" x2="1472.38" y2="2651.43" style="stroke:#55752F;stroke-width:8.64"/>
	<text x="1532.40" y="2406.52" style="font-family:'Helvetica';font-size:99.99px;fill:#000000">group = Hospitalised COVID-19</text>
	<text x="1532.40" y="2546.49" style="font-family:'Helvetica';font-size:99.99px;fill:#000000">group = Hospitalised flu 2017_19</text>
	<text x="1532.40" y="2686.46" style="font-family:'Helvetica';font-size:99.99px;fill:#000000">group = General pop 2019</text>
</svg>
