<?xml version="1.0" encoding="UTF-8" standalone="no"?>
<!-- This is a Stata 16.1 generated SVG file (http://www.stata.com) -->

<svg version="1.1" width="5.50in" height="4.00in" viewBox="0 0 3960 2880" xmlns="http://www.w3.org/2000/svg" xmlns:xlink="http://www.w3.org/1999/xlink">
	<desc>Stata Graph - death_agesex</desc>
	<rect x="0" y="0" width="3960" height="2880" style="fill:#EAF2F3;stroke:none"/>
	<rect x="0.00" y="0.00" width="3959.88" height="2880.00" style="fill:#EAF2F3"/>
	<rect x="2.88" y="2.88" width="3954.12" height="2874.24" style="fill:none;stroke:#EAF2F3;stroke-width:5.76"/>
	<rect x="290.81" y="100.86" width="3568.21" height="1852.84" style="fill:#FFFFFF"/>
	<rect x="293.69" y="103.74" width="3562.45" height="1847.08" style="fill:none;stroke:#FFFFFF;stroke-width:5.76"/>
	<line x1="290.81" y1="1890.34" x2="3859.02" y2="1890.34" style="stroke:#EAF2F3;stroke-width:8.64"/>
	<line x1="290.81" y1="1458.81" x2="3859.02" y2="1458.81" style="stroke:#EAF2F3;stroke-width:8.64"/>
	<line x1="290.81" y1="1027.28" x2="3859.02" y2="1027.28" style="stroke:#EAF2F3;stroke-width:8.64"/>
	<line x1="290.81" y1="595.75" x2="3859.02" y2="595.75" style="stroke:#EAF2F3;stroke-width:8.64"/>
	<path d=" M354.05 1890.34 L354.05 1890.34 L354.05 1890.34 L354.05 1890.34 L354.05 1890.34 L362.71 1890.34 L362.71 1888.24 L371.25 1888.24 L371.25 1886.88 L379.91 1886.88 L379.91 1885.39 L388.45 1885.39 L388.45 1883.91 L397.11 1883.91 L397.11 1882.42 L405.65 1882.42 L405.65 1881.43 L414.31 1881.43 L414.31 1879.82 L422.85 1879.82 L422.85 1878.83 L431.52 1878.83 L431.52 1877.72 L440.18 1877.72 L440.18 1876.60 L448.72 1876.60 L448.72 1875.61 L457.38 1875.61 L457.38 1875.12 L465.92 1875.12 L465.92 1874.25 L474.58 1874.25 L474.58 1873.14 L483.12 1873.14 L483.12 1871.90 L491.78 1871.90 L491.78 1871.16 L500.32 1871.16 L500.32 1870.42 L508.98 1870.42 L508.98 1869.80 L517.52 1869.80 L517.52 1869.05 L526.18 1869.05 L526.18 1868.19 L534.72 1868.19 L534.72 1867.57 L543.39 1867.57 L543.39 1867.20 L551.92 1867.20 L551.92 1866.33 L560.59 1866.33 L560.59 1865.71 L569.13 1865.71 L569.13 1865.09 L577.79 1865.09 L577.79 1864.72 L586.33 1864.72 L586.33 1864.35 L594.99 1864.35 L594.99 1863.73 L603.65 1863.73 L603.65 1863.36 L612.19 1863.36 L612.19 1862.99 L620.85 1862.99 L620.85 1862.50 L629.39 1862.50 L629.39 1862.12 L638.05 1862.12 L638.05 1861.75 L646.59 1861.75 L646.59 1861.26 L655.26 1861.26 L655.26 1861.13 L663.79 1861.13 L663.79 1861.01 L672.46 1861.01 L672.46 1860.76 L681.00 1860.76 L681.00 1860.27 L689.66 1860.27 L689.66 1859.53 L698.20 1859.53 L698.20 1859.03 L706.86 1859.03 L706.86 1858.54 L715.40 1858.54 L715.40 1858.41 L724.06 1858.41 L724.06 1857.79 L732.60 1857.79 L732.60 1857.30 L741.26 1857.30 L741.26 1857.05 L749.80 1857.05 L749.80 1856.80 L758.46 1856.80 L758.46 1856.31 L767.13 1856.31 L767.13 1855.94 L775.66 1855.94 L775.66 1855.32 L784.33 1855.32 L784.33 1855.19 L792.87 1855.19 L792.87 1854.95 L801.53 1854.95 L801.53 1854.70 L810.07 1854.70 L810.07 1854.45 L818.73 1854.45 L818.73 1854.20 L827.27 1854.20 L827.27 1853.83 L835.93 1853.83 L835.93 1853.34 L844.47 1853.34 L844.47 1852.72 L853.13 1852.72 L853.13 1852.35 L861.67 1852.35 L861.67 1851.98 L870.33 1851.98 L870.33 1851.73 L878.87 1851.73 L878.87 1851.23 L887.53 1851.23 L887.53 1850.99 L896.07 1850.99 L896.07 1850.62 L904.74 1850.62 L904.74 1850.24 L913.40 1850.24 L913.40 1850.12 L921.94 1850.12 L921.94 1849.87 L930.60 1849.87 L930.60 1849.75 L939.14 1849.75 L939.14 1849.50 L947.80 1849.50 L947.80 1849.01 L956.34 1849.01 L956.34 1848.51 L965.00 1848.51 L965.00 1848.02 L973.54 1848.02 L973.54 1847.65 L982.20 1847.65 L982.20 1847.40 L990.74 1847.40 L990.74 1847.03 L999.40 1847.03 L999.40 1846.66 L1007.94 1846.66 L1007.94 1846.53 L1016.61 1846.53 L1016.61 1846.04 L1025.14 1846.04 L1025.14 1845.42 L1033.81 1845.42 L1033.81 1845.42 L1042.35 1845.42 L1042.35 1845.05 L1051.01 1845.05 L1051.01 1844.30 L1059.55 1844.30 L1059.55 1843.93 L1068.21 1843.93 L1068.21 1843.81 L1076.87 1843.81 L1076.87 1843.44 L1085.41 1843.44 L1085.41 1843.19 L1094.07 1843.19 L1094.07 1842.82 L1102.61 1842.82 L1102.61 1842.32 L1111.28 1842.32 L1111.28 1841.95 L1119.81 1841.95 L1119.81 1841.71 L1128.48 1841.71 L1128.48 1841.46 L1137.02 1841.46 L1137.02 1841.09 L1145.68 1841.09 L1145.68 1840.72 L1154.22 1840.72 L1154.22 1840.47 L1162.88 1840.47 L1162.88 1840.34 L1171.42 1840.34 L1171.42 1840.10 L1180.08 1840.10 L1180.08 1839.85 L1188.62 1839.85 L1188.62 1839.72 L1197.28 1839.72 L1197.28 1839.35 L1205.82 1839.35 L1205.82 1839.11 L1214.48 1839.11 L1214.48 1839.11 L1223.02 1839.11 L1223.02 1838.61 L1231.68 1838.61 L1231.68 1838.61 L1240.35 1838.61 L1240.35 1838.24 L1248.88 1838.24 L1248.88 1837.87 L1257.55 1837.87 L1257.55 1837.62 L1266.09 1837.62 L1266.09 1837.37 L1274.75 1837.37 L1274.75 1837.13 L1283.29 1837.13 L1283.29 1836.75 L1291.95 1836.75 L1291.95 1836.38 L1300.49 1836.38 L1300.49 1835.89 L1309.15 1835.89 L1309.15 1835.64 L1317.69 1835.64 L1317.69 1835.52 L1326.35 1835.52 L1326.35 1835.27 L1334.89 1835.27 L1334.89 1835.15 L1343.55 1835.15 L1343.55 1834.77 L1352.09 1834.77 L1352.09 1834.65 L1360.76 1834.65 L1360.76 1834.28 L1369.29 1834.28 L1369.29 1833.78 L1377.96 1833.78 L1377.96 1833.54 L1386.49 1833.54 L1386.49 1833.29 L1395.16 1833.29 L1395.16 1833.04 L1403.82 1833.04 L1403.82 1832.79 L1412.36 1832.79 L1412.36 1832.55 L1421.02 1832.55 L1421.02 1832.30 L1429.56 1832.30 L1429.56 1832.30 L1438.22 1832.30 L1438.22 1832.05 L1446.76 1832.05 L1446.76 1831.80 L1455.42 1831.80 L1455.42 1831.43 L1463.96 1831.43 L1463.96 1831.19 L1472.63 1831.19 L1472.63 1830.94 L1481.16 1830.94 L1481.16 1830.69 L1489.83 1830.69 L1489.83 1830.20 L1498.37 1830.20 L1498.37 1829.95 L1507.03 1829.95 L1507.03 1829.82 L1515.57 1829.82 L1515.57 1829.58 L1524.23 1829.58 L1524.23 1829.21 L1532.77 1829.21 L1532.77 1828.96 L1541.43 1828.96 L1541.43 1828.59 L1549.97 1828.59 L1549.97 1828.46 L1558.63 1828.46 L1558.63 1827.97 L1567.29 1827.97 L1567.29 1827.72 L1575.83 1827.72 L1575.83 1827.47 L1584.49 1827.47 L1584.49 1826.98 L1593.03 1826.98 L1593.03 1826.73 L1601.70 1826.73 L1601.70 1826.11 L1610.23 1826.11 L1610.23 1825.86 L1618.90 1825.86 L1618.90 1825.62 L1627.44 1825.62 L1627.44 1825.49 L1636.10 1825.49 L1636.10 1825.12 L1644.64 1825.12 L1644.64 1825.00 L1653.30 1825.00 L1653.30 1824.75 L1661.84 1824.75 L1661.84 1824.63 L1670.50 1824.63 L1670.50 1824.38 L1679.04 1824.38 L1679.04 1824.01 L1687.70 1824.01 L1687.70 1823.64 L1696.24 1823.64 L1696.24 1823.39 L1704.90 1823.39 L1704.90 1823.14 L1713.44 1823.14 L1713.44 1823.14 L1722.11 1823.14 L1722.11 1822.77 L1730.77 1822.77 L1730.77 1822.40 L1739.31 1822.40 L1739.31 1822.28 L1747.97 1822.28 L1747.97 1822.03 L1756.51 1822.03 L1756.51 1822.03 L1765.17 1822.03 L1765.17 1821.41 L1773.71 1821.41 L1773.71 1821.29 L1782.37 1821.29 L1782.37 1821.04 L1790.91 1821.04 L1790.91 1820.54 L1799.57 1820.54 L1799.57 1820.42 L1808.11 1820.42 L1808.11 1820.30 L1816.77 1820.30 L1816.77 1820.17 L1825.31 1820.17 L1825.31 1819.68 L1833.97 1819.68 L1833.97 1819.55 L1842.51 1819.55 L1842.51 1819.18 L1851.18 1819.18 L1851.18 1819.06 L1859.71 1819.06 L1859.71 1818.93 L1868.38 1818.93 L1868.38 1818.69 L1877.04 1818.69 L1877.04 1818.19 L1885.58 1818.19 L1885.58 1817.94 L1894.24 1817.94 L1894.24 1817.82 L1902.78 1817.82 L1902.78 1817.70 L1911.44 1817.70 L1911.44 1817.33 L1919.98 1817.33 L1919.98 1817.20 L1928.64 1817.20 L1928.64 1816.95 L1937.18 1816.95 L1937.18 1816.71 L1945.85 1816.71 L1945.85 1816.34 L1954.38 1816.34 L1954.38 1816.09 L1963.05 1816.09 L1963.05 1815.84 L1971.59 1815.84 L1971.59 1815.72 L1980.25 1815.72 L1980.25 1815.35 L1988.79 1815.35 L1988.79 1815.22 L1997.45 1815.22 L1997.45 1814.97 L2005.99 1814.97 L2005.99 1814.85 L2014.65 1814.85 L2014.65 1814.36 L2023.19 1814.36 L2023.19 1814.36 L2031.85 1814.36 L2031.85 1814.23 L2040.51 1814.23 L2040.51 1814.11 L2049.05 1814.11 L2049.05 1813.86 L2057.72 1813.86 L2057.72 1813.37 L2066.25 1813.37 L2066.25 1813.24 L2074.92 1813.24 L2074.92 1813.12 L2083.45 1813.12 L2083.45 1813.12 L2092.12 1813.12 L2092.12 1812.50 L2100.66 1812.50 L2100.66 1812.25 L2109.32 1812.25 L2109.32 1811.88 L2117.86 1811.88 L2117.86 1811.14 L2126.52 1811.14 L2126.52 1811.01 L2135.06 1811.01 L2135.06 1811.01 L2143.72 1811.01 L2143.72 1810.77 L2152.26 1810.77 L2152.26 1810.52 L2160.92 1810.52 L2160.92 1810.15 L2169.46 1810.15 L2169.46 1809.78 L2178.12 1809.78 L2178.12 1809.65 L2186.66 1809.65 L2186.66 1809.41 L2195.32 1809.41 L2195.32 1809.16 L2203.99 1809.16 L2203.99 1809.03 L2212.53 1809.03 L2212.53 1808.79 L2221.19 1808.79 L2221.19 1808.66 L2229.73 1808.66 L2229.73 1808.42 L2238.39 1808.42 L2238.39 1807.92 L2246.93 1807.92 L2246.93 1807.92 L2255.59 1807.92 L2255.59 1807.67 L2264.13 1807.67 L2264.13 1807.43 L2272.79 1807.43 L2272.79 1807.05 L2281.33 1807.05 L2281.33 1806.93 L2289.99 1806.93 L2289.99 1806.81 L2298.53 1806.81 L2298.53 1806.56 L2307.20 1806.56 L2307.20 1806.44 L2315.73 1806.44 L2315.73 1806.44 L2324.40 1806.44 L2324.40 1806.19 L2332.93 1806.19 L2332.93 1806.06 L2341.60 1806.06 L2341.60 1805.94 L2350.14 1805.94 L2350.14 1805.69 L2358.80 1805.69 L2358.80 1805.69 L2367.46 1805.69 L2367.46 1805.20 L2376.00 1805.20 L2376.00 1805.07 L2384.66 1805.07 L2384.66 1804.83 L2393.20 1804.83 L2393.20 1804.70 L2401.86 1804.70 L2401.86 1804.46 L2410.40 1804.46 L2410.40 1804.46 L2419.07 1804.46 L2419.07 1804.21 L2427.60 1804.21 L2427.60 1803.96 L2436.27 1803.96 L2436.27 1803.59 L2444.80 1803.59 L2444.80 1803.34 L2453.47 1803.34 L2453.47 1802.97 L2462.01 1802.97 L2462.01 1802.60 L2470.67 1802.60 L2470.67 1802.35 L2479.21 1802.35 L2479.21 1802.10 L2487.87 1802.10 L2487.87 1801.98 L2496.41 1801.98 L2496.41 1801.86 L2505.07 1801.86 L2505.07 1801.61 L2513.61 1801.61 L2513.61 1800.99 L2522.27 1800.99 L2522.27 1800.62 L2530.93 1800.62 L2530.93 1800.12 L2539.47 1800.12 L2539.47 1799.75 L2548.14 1799.75 L2548.14 1799.50 L2556.68 1799.50 L2556.68 1799.13 L2565.34 1799.13 L2565.34 1798.76 L2573.88 1798.76 L2573.88 1798.51 L2582.54 1798.51 L2582.54 1798.27 L2591.08 1798.27 L2591.08 1798.02 L2599.74 1798.02 L2599.74 1797.65 L2608.28 1797.65 L2608.28 1797.28 L2616.94 1797.28 L2616.94 1797.15 L2625.48 1797.15 L2625.48 1797.15 L2634.14 1797.15 L2634.14 1797.03 L2642.68 1797.03 L2642.68 1796.53 L2651.34 1796.53 L2651.34 1796.53 L2659.88 1796.53 L2659.88 1796.16 L2668.55 1796.16 L2668.55 1795.92 L2677.21 1795.92 L2677.21 1795.79 L2685.75 1795.79 L2685.75 1795.67 L2694.41 1795.67 L2694.41 1795.54 L2702.95 1795.54 L2702.95 1795.42 L2711.61 1795.42 L2711.61 1795.17 L2720.15 1795.17 L2720.15 1795.17 L2728.81 1795.17 L2728.81 1795.17 L2737.35 1795.17 L2737.35 1794.80 L2746.01 1794.80 L2746.01 1794.80 L2754.55 1794.80 L2754.55 1794.55 L2763.21 1794.55 L2763.21 1794.55 L2771.75 1794.55 L2771.75 1794.31 L2780.41 1794.31 L2780.41 1794.06 L2788.95 1794.06 L2788.95 1793.81 L2797.62 1793.81 L2797.62 1793.19 L2806.16 1793.19 L2806.16 1792.20 L2814.82 1792.20 L2814.82 1792.20 L2823.36 1792.20 L2823.36 1792.20 L2832.02 1792.20 L2832.02 1792.20 L2840.68 1792.20 L2840.68 1792.20 L2849.22 1792.20 L2849.22 1792.20 L2857.88 1792.20 L2857.88 1792.20 L2866.42 1792.20 L2866.42 1792.20 L2875.08 1792.20 L2875.08 1792.20 L2883.62 1792.20 L2883.62 1792.20 L2892.28 1792.20 L2892.28 1792.20 L2900.82 1792.20 L2900.82 1792.20 L2909.49 1792.20 L2909.49 1792.20 L2918.03 1792.20 L2918.03 1792.20 L2926.69 1792.20 L2926.69 1792.20 L2935.23 1792.20 L2935.23 1792.20 L2943.89 1792.20 L2943.89 1792.20 L2952.43 1792.20 L2952.43 1792.20 L2961.09 1792.20 L2961.09 1792.20 L2969.63 1792.20 L2969.63 1792.20 L2978.29 1792.20 L2978.29 1792.20 L2986.83 1792.20 L2986.83 1792.20 L2995.49 1792.20 L2995.49 1792.20 L3004.16 1792.20 L3004.16 1792.20 L3012.69 1792.20 L3012.69 1792.20 L3021.36 1792.20 L3021.36 1792.20 L3029.89 1792.20 L3029.89 1792.20 L3038.56 1792.20 L3038.56 1792.20 L3047.10 1792.20 L3047.10 1792.20 L3055.76 1792.20 L3055.76 1792.20 L3064.30 1792.20 L3064.30 1792.20 L3072.96 1792.20 L3072.96 1792.20 L3081.50 1792.20 L3081.50 1792.20 L3090.16 1792.20 L3090.16 1792.20 L3098.70 1792.20 L3098.70 1792.20 L3107.36 1792.20 L3107.36 1792.20 L3115.90 1792.20 L3115.90 1792.20 L3124.56 1792.20 L3124.56 1792.20 L3141.76 1792.20 L3141.76 1792.20 L3158.97 1792.20 L3158.97 1792.20 L3279.38 1792.20 L3279.38 1792.20 L3305.24 1792.20 L3305.24 1792.20" stroke-linejoin="round" style="fill:none;stroke:#1A476F;stroke-width:8.64"/>
	<path d=" M354.05 1890.34 L354.05 1890.34 L354.05 1890.34 L354.05 1890.34 L354.05 1890.34 L362.71 1890.34 L362.71 1890.22 L371.25 1890.22 L371.25 1890.09 L379.91 1890.09 L379.91 1889.72 L388.45 1889.72 L388.45 1889.47 L397.11 1889.47 L397.11 1889.35 L405.65 1889.35 L405.65 1889.10 L414.31 1889.10 L414.31 1888.86 L431.52 1888.86 L431.52 1888.61 L440.18 1888.61 L440.18 1888.61 L448.72 1888.61 L448.72 1888.48 L457.38 1888.48 L457.38 1888.36 L474.58 1888.36 L474.58 1887.99 L491.78 1887.99 L491.78 1887.99 L500.32 1887.99 L500.32 1887.62 L508.98 1887.62 L508.98 1887.37 L517.52 1887.37 L517.52 1887.00 L526.18 1887.00 L526.18 1886.75 L534.72 1886.75 L534.72 1886.63 L543.39 1886.63 L543.39 1886.50 L551.92 1886.50 L551.92 1886.26 L560.59 1886.26 L560.59 1886.13 L569.13 1886.13 L569.13 1885.76 L577.79 1885.76 L577.79 1885.76 L586.33 1885.76 L586.33 1885.27 L594.99 1885.27 L594.99 1885.14 L603.65 1885.14 L603.65 1885.02 L620.85 1885.02 L620.85 1884.77 L629.39 1884.77 L629.39 1884.65 L638.05 1884.65 L638.05 1884.40 L655.26 1884.40 L655.26 1884.28 L672.46 1884.28 L672.46 1883.91 L681.00 1883.91 L681.00 1883.66 L689.66 1883.66 L689.66 1883.66 L698.20 1883.66 L698.20 1883.53 L706.86 1883.53 L706.86 1883.41 L715.40 1883.41 L715.40 1883.16 L724.06 1883.16 L724.06 1882.92 L741.26 1882.92 L741.26 1882.79 L749.80 1882.79 L749.80 1882.67 L758.46 1882.67 L758.46 1882.54 L767.13 1882.54 L767.13 1882.42 L775.66 1882.42 L775.66 1882.42 L784.33 1882.42 L784.33 1882.17 L792.87 1882.17 L792.87 1882.17 L801.53 1882.17 L801.53 1882.05 L810.07 1882.05 L810.07 1881.93 L818.73 1881.93 L818.73 1881.80 L827.27 1881.80 L827.27 1881.55 L835.93 1881.55 L835.93 1881.55 L853.13 1881.55 L853.13 1881.31 L861.67 1881.31 L861.67 1881.18 L870.33 1881.18 L870.33 1880.94 L878.87 1880.94 L878.87 1880.69 L887.53 1880.69 L887.53 1880.56 L896.07 1880.56 L896.07 1880.56 L904.74 1880.56 L904.74 1880.44 L930.60 1880.44 L930.60 1880.19 L939.14 1880.19 L939.14 1879.94 L947.80 1879.94 L947.80 1879.94 L956.34 1879.94 L956.34 1879.82 L990.74 1879.82 L990.74 1879.70 L1007.94 1879.70 L1007.94 1879.57 L1025.14 1879.57 L1025.14 1879.57 L1059.55 1879.57 L1059.55 1879.33 L1068.21 1879.33 L1068.21 1879.08 L1076.87 1879.08 L1076.87 1878.95 L1085.41 1878.95 L1085.41 1878.95 L1094.07 1878.95 L1094.07 1878.71 L1102.61 1878.71 L1102.61 1878.58 L1111.28 1878.58 L1111.28 1878.58 L1119.81 1878.58 L1119.81 1878.46 L1128.48 1878.46 L1128.48 1878.34 L1137.02 1878.34 L1137.02 1878.09 L1145.68 1878.09 L1145.68 1877.96 L1154.22 1877.96 L1154.22 1877.84 L1171.42 1877.84 L1171.42 1877.72 L1180.08 1877.72 L1180.08 1877.59 L1188.62 1877.59 L1188.62 1877.47 L1197.28 1877.47 L1197.28 1877.22 L1205.82 1877.22 L1205.82 1877.10 L1214.48 1877.10 L1214.48 1876.97 L1231.68 1876.97 L1231.68 1876.85 L1240.35 1876.85 L1240.35 1876.73 L1248.88 1876.73 L1248.88 1876.73 L1257.55 1876.73 L1257.55 1876.60 L1266.09 1876.60 L1266.09 1876.36 L1274.75 1876.36 L1274.75 1876.23 L1283.29 1876.23 L1283.29 1876.11 L1291.95 1876.11 L1291.95 1875.98 L1300.49 1875.98 L1300.49 1875.74 L1309.15 1875.74 L1309.15 1875.61 L1317.69 1875.61 L1317.69 1875.49 L1326.35 1875.49 L1326.35 1875.37 L1334.89 1875.37 L1334.89 1875.12 L1343.55 1875.12 L1343.55 1874.99 L1360.76 1874.99 L1360.76 1874.75 L1369.29 1874.75 L1369.29 1874.62 L1377.96 1874.62 L1377.96 1874.38 L1386.49 1874.38 L1386.49 1874.25 L1395.16 1874.25 L1395.16 1874.25 L1403.82 1874.25 L1403.82 1874.00 L1412.36 1874.00 L1412.36 1873.88 L1421.02 1873.88 L1421.02 1873.76 L1429.56 1873.76 L1429.56 1873.51 L1438.22 1873.51 L1438.22 1873.39 L1455.42 1873.39 L1455.42 1873.39 L1463.96 1873.39 L1463.96 1873.26 L1472.63 1873.26 L1472.63 1873.01 L1481.16 1873.01 L1481.16 1872.89 L1489.83 1872.89 L1489.83 1872.77 L1498.37 1872.77 L1498.37 1872.77 L1507.03 1872.77 L1507.03 1872.52 L1515.57 1872.52 L1515.57 1872.40 L1524.23 1872.40 L1524.23 1872.40 L1541.43 1872.40 L1541.43 1872.27 L1549.97 1872.27 L1549.97 1872.15 L1558.63 1872.15 L1558.63 1872.02 L1567.29 1872.02 L1567.29 1872.02 L1575.83 1872.02 L1575.83 1871.90 L1584.49 1871.90 L1584.49 1871.78 L1601.70 1871.78 L1601.70 1871.65 L1610.23 1871.65 L1610.23 1871.53 L1618.90 1871.53 L1618.90 1871.41 L1627.44 1871.41 L1627.44 1871.41 L1636.10 1871.41 L1636.10 1871.16 L1670.50 1871.16 L1670.50 1871.03 L1679.04 1871.03 L1679.04 1871.03 L1687.70 1871.03 L1687.70 1870.91 L1696.24 1870.91 L1696.24 1870.54 L1713.44 1870.54 L1713.44 1870.29 L1739.31 1870.29 L1739.31 1870.17 L1747.97 1870.17 L1747.97 1870.04 L1756.51 1870.04 L1756.51 1870.04 L1765.17 1870.04 L1765.17 1869.92 L1782.37 1869.92 L1782.37 1869.80 L1790.91 1869.80 L1790.91 1869.67 L1799.57 1869.67 L1799.57 1869.55 L1808.11 1869.55 L1808.11 1869.43 L1816.77 1869.43 L1816.77 1869.30 L1825.31 1869.30 L1825.31 1869.18 L1842.51 1869.18 L1842.51 1869.05 L1851.18 1869.05 L1851.18 1868.93 L1859.71 1868.93 L1859.71 1868.68 L1868.38 1868.68 L1868.38 1868.56 L1877.04 1868.56 L1877.04 1868.56 L1885.58 1868.56 L1885.58 1868.44 L1894.24 1868.44 L1894.24 1868.19 L1902.78 1868.19 L1902.78 1868.19 L1911.44 1868.19 L1911.44 1868.06 L1919.98 1868.06 L1919.98 1868.06 L1937.18 1868.06 L1937.18 1867.94 L1945.85 1867.94 L1945.85 1867.82 L1954.38 1867.82 L1954.38 1867.82 L1971.59 1867.82 L1971.59 1867.69 L1980.25 1867.69 L1980.25 1867.57 L1997.45 1867.57 L1997.45 1867.45 L2005.99 1867.45 L2005.99 1867.32 L2014.65 1867.32 L2014.65 1867.07 L2023.19 1867.07 L2023.19 1866.95 L2031.85 1866.95 L2031.85 1866.83 L2040.51 1866.83 L2040.51 1866.83 L2049.05 1866.83 L2049.05 1866.70 L2057.72 1866.70 L2057.72 1866.46 L2074.92 1866.46 L2074.92 1866.33 L2083.45 1866.33 L2083.45 1866.21 L2092.12 1866.21 L2092.12 1865.96 L2100.66 1865.96 L2100.66 1865.84 L2109.32 1865.84 L2109.32 1865.59 L2135.06 1865.59 L2135.06 1865.59 L2143.72 1865.59 L2143.72 1865.47 L2152.26 1865.47 L2152.26 1865.47 L2160.92 1865.47 L2160.92 1865.34 L2169.46 1865.34 L2169.46 1865.22 L2178.12 1865.22 L2178.12 1864.85 L2195.32 1864.85 L2195.32 1864.72 L2203.99 1864.72 L2203.99 1864.60 L2212.53 1864.60 L2212.53 1864.35 L2229.73 1864.35 L2229.73 1864.23 L2246.93 1864.23 L2246.93 1863.98 L2255.59 1863.98 L2255.59 1863.86 L2264.13 1863.86 L2264.13 1863.73 L2281.33 1863.73 L2281.33 1863.73 L2289.99 1863.73 L2289.99 1863.61 L2307.20 1863.61 L2307.20 1863.49 L2315.73 1863.49 L2315.73 1863.49 L2324.40 1863.49 L2324.40 1863.24 L2332.93 1863.24 L2332.93 1863.11 L2341.60 1863.11 L2341.60 1863.11 L2350.14 1863.11 L2350.14 1862.99 L2358.80 1862.99 L2358.80 1862.74 L2367.46 1862.74 L2367.46 1862.62 L2384.66 1862.62 L2384.66 1862.62 L2393.20 1862.62 L2393.20 1862.25 L2410.40 1862.25 L2410.40 1862.12 L2427.60 1862.12 L2427.60 1862.12 L2444.80 1862.12 L2444.80 1861.88 L2453.47 1861.88 L2453.47 1861.88 L2462.01 1861.88 L2462.01 1861.75 L2470.67 1861.75 L2470.67 1861.63 L2487.87 1861.63 L2487.87 1861.38 L2505.07 1861.38 L2505.07 1861.26 L2513.61 1861.26 L2513.61 1861.13 L2522.27 1861.13 L2522.27 1861.01 L2530.93 1861.01 L2530.93 1860.89 L2539.47 1860.89 L2539.47 1860.64 L2556.68 1860.64 L2556.68 1860.52 L2573.88 1860.52 L2573.88 1860.52 L2591.08 1860.52 L2591.08 1860.39 L2599.74 1860.39 L2599.74 1860.02 L2608.28 1860.02 L2608.28 1859.90 L2616.94 1859.90 L2616.94 1859.90 L2625.48 1859.90 L2625.48 1859.77 L2634.14 1859.77 L2634.14 1859.65 L2642.68 1859.65 L2642.68 1859.53 L2651.34 1859.53 L2651.34 1859.53 L2659.88 1859.53 L2659.88 1859.40 L2668.55 1859.40 L2668.55 1859.28 L2677.21 1859.28 L2677.21 1859.15 L2685.75 1859.15 L2685.75 1859.03 L2694.41 1859.03 L2694.41 1858.91 L2702.95 1858.91 L2702.95 1858.78 L2711.61 1858.78 L2711.61 1858.66 L2720.15 1858.66 L2720.15 1858.54 L2737.35 1858.54 L2737.35 1858.41 L2746.01 1858.41 L2746.01 1858.29 L2754.55 1858.29 L2754.55 1858.29 L2771.75 1858.29 L2771.75 1858.16 L2780.41 1858.16 L2780.41 1858.04 L2814.82 1858.04 L2814.82 1858.04 L2823.36 1858.04 L2823.36 1857.92 L2840.68 1857.92 L2840.68 1857.79 L2849.22 1857.79 L2849.22 1857.55 L2857.88 1857.55 L2857.88 1857.42 L2875.08 1857.42 L2875.08 1857.17 L2883.62 1857.17 L2883.62 1857.05 L2892.28 1857.05 L2892.28 1856.80 L2900.82 1856.80 L2900.82 1856.68 L2909.49 1856.68 L2909.49 1856.56 L2918.03 1856.56 L2918.03 1856.43 L2926.69 1856.43 L2926.69 1856.06 L2935.23 1856.06 L2935.23 1856.06 L2943.89 1856.06 L2943.89 1855.94 L2952.43 1855.94 L2952.43 1855.81 L2961.09 1855.81 L2961.09 1855.69 L2978.29 1855.69 L2978.29 1855.57 L2986.83 1855.57 L2986.83 1855.44 L2995.49 1855.44 L2995.49 1855.19 L3004.16 1855.19 L3004.16 1854.95 L3012.69 1854.95 L3012.69 1854.82 L3021.36 1854.82 L3021.36 1854.70 L3029.89 1854.70 L3029.89 1854.58 L3047.10 1854.58 L3047.10 1854.33 L3055.76 1854.33 L3055.76 1854.20 L3064.30 1854.20 L3064.30 1854.08 L3072.96 1854.08 L3072.96 1853.96 L3081.50 1853.96 L3081.50 1853.83 L3090.16 1853.83 L3090.16 1853.83 L3098.70 1853.83 L3098.70 1853.71 L3107.36 1853.71 L3107.36 1853.46 L3115.90 1853.46 L3115.90 1853.34 L3124.56 1853.34 L3124.56 1853.21 L3133.10 1853.21 L3133.10 1852.97 L3141.76 1852.97 L3141.76 1852.97 L3150.30 1852.97 L3150.30 1852.60 L3158.97 1852.60 L3158.97 1852.47 L3167.63 1852.47 L3167.63 1852.35 L3176.17 1852.35 L3176.17 1852.10 L3184.83 1852.10 L3184.83 1851.98 L3202.03 1851.98 L3202.03 1851.85 L3210.57 1851.85 L3210.57 1851.73 L3219.23 1851.73 L3219.23 1851.48 L3227.77 1851.48 L3227.77 1851.23 L3244.97 1851.23 L3244.97 1851.11 L3253.64 1851.11 L3253.64 1851.11 L3262.17 1851.11 L3262.17 1850.99 L3270.84 1850.99 L3270.84 1850.74 L3279.38 1850.74 L3279.38 1850.37 L3288.04 1850.37 L3288.04 1850.24 L3296.58 1850.24 L3296.58 1849.87 L3305.24 1849.87 L3305.24 1849.25" stroke-linejoin="round" style="fill:none;stroke:#90353B;stroke-width:8.64"/>
	<path d=" M354.05 1890.34 L354.05 1890.34 L354.05 1890.34 L354.05 1890.34 L354.05 1890.34 L362.71 1890.34 L362.71 1890.34 L371.25 1890.34 L371.25 1890.34 L379.91 1890.34 L379.91 1890.34 L388.45 1890.34 L388.45 1890.34 L397.11 1890.34 L397.11 1890.22 L405.65 1890.22 L405.65 1890.22 L414.31 1890.22 L414.31 1890.22 L422.85 1890.22 L422.85 1890.22 L431.52 1890.22 L431.52 1890.09 L440.18 1890.09 L440.18 1890.09 L448.72 1890.09 L448.72 1890.09 L457.38 1890.09 L457.38 1890.09 L465.92 1890.09 L465.92 1890.09 L483.12 1890.09 L483.12 1889.97 L491.78 1889.97 L491.78 1889.97 L500.32 1889.97 L500.32 1889.97 L508.98 1889.97 L508.98 1889.97 L517.52 1889.97 L517.52 1889.97 L526.18 1889.97 L526.18 1889.97 L534.72 1889.97 L534.72 1889.85 L543.39 1889.85 L543.39 1889.85 L551.92 1889.85 L551.92 1889.85 L560.59 1889.85 L560.59 1889.85 L569.13 1889.85 L569.13 1889.85 L577.79 1889.85 L577.79 1889.85 L586.33 1889.85 L586.33 1889.72 L594.99 1889.72 L594.99 1889.72 L603.65 1889.72 L603.65 1889.72 L612.19 1889.72 L612.19 1889.72 L620.85 1889.72 L620.85 1889.72 L629.39 1889.72 L629.39 1889.60 L638.05 1889.60 L638.05 1889.60 L646.59 1889.60 L646.59 1889.60 L655.26 1889.60 L655.26 1889.47 L663.79 1889.47 L663.79 1889.47 L672.46 1889.47 L672.46 1889.47 L681.00 1889.47 L681.00 1889.35 L689.66 1889.35 L689.66 1889.35 L698.20 1889.35 L698.20 1889.35 L706.86 1889.35 L706.86 1889.35 L715.40 1889.35 L715.40 1889.35 L724.06 1889.35 L724.06 1889.23 L732.60 1889.23 L732.60 1889.23 L741.26 1889.23 L741.26 1889.23 L749.80 1889.23 L749.80 1889.23 L758.46 1889.23 L758.46 1889.23 L767.13 1889.23 L767.13 1889.10 L775.66 1889.10 L775.66 1889.10 L784.33 1889.10 L784.33 1889.10 L792.87 1889.10 L792.87 1889.10 L801.53 1889.10 L801.53 1888.98 L810.07 1888.98 L810.07 1888.98 L818.73 1888.98 L818.73 1888.98 L827.27 1888.98 L827.27 1888.98 L835.93 1888.98 L835.93 1888.86 L844.47 1888.86 L844.47 1888.86 L853.13 1888.86 L853.13 1888.86 L861.67 1888.86 L861.67 1888.86 L870.33 1888.86 L870.33 1888.86 L878.87 1888.86 L878.87 1888.73 L887.53 1888.73 L887.53 1888.73 L896.07 1888.73 L896.07 1888.73 L904.74 1888.73 L904.74 1888.73 L913.40 1888.73 L913.40 1888.61 L921.94 1888.61 L921.94 1888.61 L930.60 1888.61 L930.60 1888.61 L939.14 1888.61 L939.14 1888.61 L947.80 1888.61 L947.80 1888.61 L956.34 1888.61 L956.34 1888.48 L965.00 1888.48 L965.00 1888.48 L973.54 1888.48 L973.54 1888.48 L982.20 1888.48 L982.20 1888.36 L990.74 1888.36 L990.74 1888.36 L999.40 1888.36 L999.40 1888.36 L1007.94 1888.36 L1007.94 1888.36 L1016.61 1888.36 L1016.61 1888.36 L1025.14 1888.36 L1025.14 1888.24 L1033.81 1888.24 L1033.81 1888.24 L1042.35 1888.24 L1042.35 1888.24 L1051.01 1888.24 L1051.01 1888.24 L1059.55 1888.24 L1059.55 1888.11 L1068.21 1888.11 L1068.21 1888.11 L1076.87 1888.11 L1076.87 1888.11 L1085.41 1888.11 L1085.41 1887.99 L1094.07 1887.99 L1094.07 1887.99 L1102.61 1887.99 L1102.61 1887.99 L1111.28 1887.99 L1111.28 1887.87 L1119.81 1887.87 L1119.81 1887.87 L1128.48 1887.87 L1128.48 1887.87 L1137.02 1887.87 L1137.02 1887.87 L1145.68 1887.87 L1145.68 1887.87 L1154.22 1887.87 L1154.22 1887.74 L1162.88 1887.74 L1162.88 1887.74 L1171.42 1887.74 L1171.42 1887.74 L1180.08 1887.74 L1180.08 1887.74 L1188.62 1887.74 L1188.62 1887.74 L1197.28 1887.74 L1197.28 1887.62 L1205.82 1887.62 L1205.82 1887.62 L1214.48 1887.62 L1214.48 1887.62 L1223.02 1887.62 L1223.02 1887.49 L1231.68 1887.49 L1231.68 1887.49 L1240.35 1887.49 L1240.35 1887.49 L1248.88 1887.49 L1248.88 1887.37 L1257.55 1887.37 L1257.55 1887.37 L1266.09 1887.37 L1266.09 1887.37 L1274.75 1887.37 L1274.75 1887.37 L1283.29 1887.37 L1283.29 1887.25 L1291.95 1887.25 L1291.95 1887.25 L1300.49 1887.25 L1300.49 1887.25 L1309.15 1887.25 L1309.15 1887.25 L1317.69 1887.25 L1317.69 1887.25 L1326.35 1887.25 L1326.35 1887.12 L1334.89 1887.12 L1334.89 1887.12 L1343.55 1887.12 L1343.55 1887.12 L1352.09 1887.12 L1352.09 1887.00 L1360.76 1887.00 L1360.76 1887.00 L1369.29 1887.00 L1369.29 1887.00 L1377.96 1887.00 L1377.96 1886.88 L1386.49 1886.88 L1386.49 1886.88 L1395.16 1886.88 L1395.16 1886.88 L1403.82 1886.88 L1403.82 1886.88 L1412.36 1886.88 L1412.36 1886.75 L1421.02 1886.75 L1421.02 1886.75 L1429.56 1886.75 L1429.56 1886.75 L1438.22 1886.75 L1438.22 1886.75 L1446.76 1886.75 L1446.76 1886.63 L1455.42 1886.63 L1455.42 1886.63 L1463.96 1886.63 L1463.96 1886.63 L1472.63 1886.63 L1472.63 1886.50 L1481.16 1886.50 L1481.16 1886.50 L1489.83 1886.50 L1489.83 1886.50 L1498.37 1886.50 L1498.37 1886.50 L1507.03 1886.50 L1507.03 1886.38 L1515.57 1886.38 L1515.57 1886.38 L1524.23 1886.38 L1524.23 1886.38 L1532.77 1886.38 L1532.77 1886.26 L1541.43 1886.26 L1541.43 1886.26 L1549.97 1886.26 L1549.97 1886.13 L1558.63 1886.13 L1558.63 1886.13 L1567.29 1886.13 L1567.29 1886.13 L1575.83 1886.13 L1575.83 1886.01 L1584.49 1886.01 L1584.49 1886.01 L1593.03 1886.01 L1593.03 1886.01 L1601.70 1886.01 L1601.70 1885.89 L1610.23 1885.89 L1610.23 1885.89 L1618.90 1885.89 L1618.90 1885.89 L1627.44 1885.89 L1627.44 1885.89 L1636.10 1885.89 L1636.10 1885.76 L1644.64 1885.76 L1644.64 1885.76 L1653.30 1885.76 L1653.30 1885.76 L1661.84 1885.76 L1661.84 1885.76 L1670.50 1885.76 L1670.50 1885.64 L1679.04 1885.64 L1679.04 1885.64 L1687.70 1885.64 L1687.70 1885.64 L1696.24 1885.64 L1696.24 1885.64 L1704.90 1885.64 L1704.90 1885.64 L1713.44 1885.64 L1713.44 1885.51 L1722.11 1885.51 L1722.11 1885.51 L1730.77 1885.51 L1730.77 1885.51 L1739.31 1885.51 L1739.31 1885.39 L1747.97 1885.39 L1747.97 1885.39 L1756.51 1885.39 L1756.51 1885.39 L1765.17 1885.39 L1765.17 1885.39 L1773.71 1885.39 L1773.71 1885.39 L1782.37 1885.39 L1782.37 1885.27 L1790.91 1885.27 L1790.91 1885.27 L1799.57 1885.27 L1799.57 1885.27 L1808.11 1885.27 L1808.11 1885.27 L1816.77 1885.27 L1816.77 1885.14 L1825.31 1885.14 L1825.31 1885.14 L1833.97 1885.14 L1833.97 1885.14 L1842.51 1885.14 L1842.51 1885.14 L1851.18 1885.14 L1851.18 1885.02 L1859.71 1885.02 L1859.71 1885.02 L1868.38 1885.02 L1868.38 1885.02 L1877.04 1885.02 L1877.04 1884.90 L1885.58 1884.90 L1885.58 1884.90 L1894.24 1884.90 L1894.24 1884.90 L1902.78 1884.90 L1902.78 1884.77 L1911.44 1884.77 L1911.44 1884.77 L1919.98 1884.77 L1919.98 1884.77 L1928.64 1884.77 L1928.64 1884.65 L1937.18 1884.65 L1937.18 1884.65 L1945.85 1884.65 L1945.85 1884.52 L1954.38 1884.52 L1954.38 1884.52 L1963.05 1884.52 L1963.05 1884.52 L1971.59 1884.52 L1971.59 1884.52 L1980.25 1884.52 L1980.25 1884.40 L1988.79 1884.40 L1988.79 1884.40 L1997.45 1884.40 L1997.45 1884.28 L2005.99 1884.28 L2005.99 1884.28 L2023.19 1884.28 L2023.19 1884.28 L2031.85 1884.28 L2031.85 1884.28 L2040.51 1884.28 L2040.51 1884.28 L2049.05 1884.28 L2049.05 1884.15 L2057.72 1884.15 L2057.72 1884.15 L2066.25 1884.15 L2066.25 1884.15 L2074.92 1884.15 L2074.92 1884.15 L2083.45 1884.15 L2083.45 1884.03 L2092.12 1884.03 L2092.12 1884.03 L2100.66 1884.03 L2100.66 1883.91 L2109.32 1883.91 L2109.32 1883.91 L2117.86 1883.91 L2117.86 1883.91 L2126.52 1883.91 L2126.52 1883.78 L2135.06 1883.78 L2135.06 1883.78 L2143.72 1883.78 L2143.72 1883.66 L2152.26 1883.66 L2152.26 1883.66 L2160.92 1883.66 L2160.92 1883.66 L2169.46 1883.66 L2169.46 1883.53 L2178.12 1883.53 L2178.12 1883.53 L2186.66 1883.53 L2186.66 1883.53 L2195.32 1883.53 L2195.32 1883.53 L2203.99 1883.53 L2203.99 1883.41 L2212.53 1883.41 L2212.53 1883.41 L2221.19 1883.41 L2221.19 1883.41 L2229.73 1883.41 L2229.73 1883.29 L2238.39 1883.29 L2238.39 1883.29 L2246.93 1883.29 L2246.93 1883.29 L2255.59 1883.29 L2255.59 1883.16 L2264.13 1883.16 L2264.13 1883.16 L2272.79 1883.16 L2272.79 1883.16 L2281.33 1883.16 L2281.33 1883.16 L2289.99 1883.16 L2289.99 1883.04 L2298.53 1883.04 L2298.53 1883.04 L2307.20 1883.04 L2307.20 1883.04 L2315.73 1883.04 L2315.73 1882.92 L2324.40 1882.92 L2324.40 1882.92 L2332.93 1882.92 L2332.93 1882.92 L2341.60 1882.92 L2341.60 1882.92 L2350.14 1882.92 L2350.14 1882.79 L2358.80 1882.79 L2358.80 1882.79 L2367.46 1882.79 L2367.46 1882.79 L2376.00 1882.79 L2376.00 1882.79 L2384.66 1882.79 L2384.66 1882.79 L2393.20 1882.79 L2393.20 1882.67 L2401.86 1882.67 L2401.86 1882.67 L2410.40 1882.67 L2410.40 1882.67 L2419.07 1882.67 L2419.07 1882.54 L2427.60 1882.54 L2427.60 1882.54 L2436.27 1882.54 L2436.27 1882.54 L2444.80 1882.54 L2444.80 1882.42 L2453.47 1882.42 L2453.47 1882.42 L2462.01 1882.42 L2462.01 1882.42 L2470.67 1882.42 L2470.67 1882.42 L2479.21 1882.42 L2479.21 1882.30 L2487.87 1882.30 L2487.87 1882.30 L2496.41 1882.30 L2496.41 1882.30 L2505.07 1882.30 L2505.07 1882.17 L2513.61 1882.17 L2513.61 1882.17 L2522.27 1882.17 L2522.27 1882.17 L2530.93 1882.17 L2530.93 1882.05 L2539.47 1882.05 L2539.47 1882.05 L2548.14 1882.05 L2548.14 1882.05 L2556.68 1882.05 L2556.68 1881.93 L2565.34 1881.93 L2565.34 1881.93 L2573.88 1881.93 L2573.88 1881.93 L2582.54 1881.93 L2582.54 1881.80 L2591.08 1881.80 L2591.08 1881.80 L2599.74 1881.80 L2599.74 1881.80 L2608.28 1881.80 L2608.28 1881.80 L2616.94 1881.80 L2616.94 1881.80 L2625.48 1881.80 L2625.48 1881.68 L2634.14 1881.68 L2634.14 1881.68 L2642.68 1881.68 L2642.68 1881.68 L2651.34 1881.68 L2651.34 1881.68 L2659.88 1881.68 L2659.88 1881.55 L2668.55 1881.55 L2668.55 1881.55 L2677.21 1881.55 L2677.21 1881.55 L2685.75 1881.55 L2685.75 1881.55 L2694.41 1881.55 L2694.41 1881.43 L2702.95 1881.43 L2702.95 1881.43 L2711.61 1881.43 L2711.61 1881.31 L2720.15 1881.31 L2720.15 1881.31 L2728.81 1881.31 L2728.81 1881.31 L2737.35 1881.31 L2737.35 1881.18 L2746.01 1881.18 L2746.01 1881.18 L2754.55 1881.18 L2754.55 1881.18 L2763.21 1881.18 L2763.21 1881.18 L2771.75 1881.18 L2771.75 1881.06 L2780.41 1881.06 L2780.41 1881.06 L2788.95 1881.06 L2788.95 1881.06 L2797.62 1881.06 L2797.62 1880.94 L2806.16 1880.94 L2806.16 1880.94 L2814.82 1880.94 L2814.82 1880.81 L2823.36 1880.81 L2823.36 1880.81 L2832.02 1880.81 L2832.02 1880.81 L2840.68 1880.81 L2840.68 1880.81 L2849.22 1880.81 L2849.22 1880.69 L2857.88 1880.69 L2857.88 1880.69 L2866.42 1880.69 L2866.42 1880.56 L2875.08 1880.56 L2875.08 1880.56 L2883.62 1880.56 L2883.62 1880.44 L2892.28 1880.44 L2892.28 1880.44 L2900.82 1880.44 L2900.82 1880.44 L2909.49 1880.44 L2909.49 1880.32 L2918.03 1880.32 L2918.03 1880.32 L2926.69 1880.32 L2926.69 1880.32 L2935.23 1880.32 L2935.23 1880.32 L2943.89 1880.32 L2943.89 1880.19 L2952.43 1880.19 L2952.43 1880.19 L2961.09 1880.19 L2961.09 1880.19 L2969.63 1880.19 L2969.63 1880.07 L2978.29 1880.07 L2978.29 1880.07 L2986.83 1880.07 L2986.83 1879.94 L2995.49 1879.94 L2995.49 1879.94 L3004.16 1879.94 L3004.16 1879.82 L3012.69 1879.82 L3012.69 1879.82 L3021.36 1879.82 L3021.36 1879.70 L3029.89 1879.70 L3029.89 1879.70 L3038.56 1879.70 L3038.56 1879.70 L3047.10 1879.70 L3047.10 1879.57 L3055.76 1879.57 L3055.76 1879.57 L3064.30 1879.57 L3064.30 1879.57 L3072.96 1879.57 L3072.96 1879.45 L3081.50 1879.45 L3081.50 1879.45 L3090.16 1879.45 L3090.16 1879.45 L3098.70 1879.45 L3098.70 1879.33 L3107.36 1879.33 L3107.36 1879.33 L3115.90 1879.33 L3115.90 1879.20 L3124.56 1879.20 L3124.56 1879.20 L3133.10 1879.20 L3133.10 1879.08 L3141.76 1879.08 L3141.76 1879.08 L3150.30 1879.08 L3150.30 1879.08 L3158.97 1879.08 L3158.97 1878.95 L3167.63 1878.95 L3167.63 1878.95 L3176.17 1878.95 L3176.17 1878.95 L3184.83 1878.95 L3184.83 1878.83 L3193.37 1878.83 L3193.37 1878.83 L3202.03 1878.83 L3202.03 1878.71 L3210.57 1878.71 L3210.57 1878.71 L3219.23 1878.71 L3219.23 1878.58 L3227.77 1878.58 L3227.77 1878.58 L3236.43 1878.58 L3236.43 1878.46 L3244.97 1878.46 L3244.97 1878.46 L3253.64 1878.46 L3253.64 1878.46 L3262.17 1878.46 L3262.17 1878.34 L3270.84 1878.34 L3270.84 1878.34 L3279.38 1878.34 L3279.38 1878.34 L3288.04 1878.34 L3288.04 1878.21 L3296.58 1878.21 L3296.58 1878.21 L3305.24 1878.21 L3305.24 1878.09" stroke-linejoin="round" style="fill:none;stroke:#55752F;stroke-width:8.64"/>
	<line x1="290.81" y1="1953.70" x2="290.81" y2="100.86" style="stroke:#000000;stroke-width:5.76"/>
	<line x1="290.81" y1="1890.34" x2="250.84" y2="1890.34" style="stroke:#000000;stroke-width:5.76"/>
	<text x="200.73" y="1890.34" style="font-family:'Helvetica';font-size:99.99px;fill:#000000" transform="rotate(-90 200.73,1890.34)" text-anchor="middle">0.00</text>
	<line x1="290.81" y1="1458.81" x2="250.84" y2="1458.81" style="stroke:#000000;stroke-width:5.76"/>
	<text x="200.73" y="1458.81" style="font-family:'Helvetica';font-size:99.99px;fill:#000000" transform="rotate(-90 200.73,1458.81)" text-anchor="middle">0.25</text>
	<line x1="290.81" y1="1027.28" x2="250.84" y2="1027.28" style="stroke:#000000;stroke-width:5.76"/>
	<text x="200.73" y="1027.28" style="font-family:'Helvetica';font-size:99.99px;fill:#000000" transform="rotate(-90 200.73,1027.28)" text-anchor="middle">0.50</text>
	<line x1="290.81" y1="595.75" x2="250.84" y2="595.75" style="stroke:#000000;stroke-width:5.76"/>
	<text x="200.73" y="595.75" style="font-family:'Helvetica';font-size:99.99px;fill:#000000" transform="rotate(-90 200.73,595.75)" text-anchor="middle">0.75</text>
	<line x1="290.81" y1="164.22" x2="250.84" y2="164.22" style="stroke:#000000;stroke-width:5.76"/>
	<text x="200.73" y="164.22" style="font-family:'Helvetica';font-size:99.99px;fill:#000000" transform="rotate(-90 200.73,164.22)" text-anchor="middle">1.00</text>
	<line x1="290.81" y1="1953.70" x2="3859.02" y2="1953.70" style="stroke:#000000;stroke-width:5.76"/>
	<line x1="354.17" y1="1953.70" x2="354.17" y2="1993.67" style="stroke:#000000;stroke-width:5.76"/>
	<text x="354.17" y="2083.66" style="font-family:'Helvetica';font-size:99.99px;fill:#000000" text-anchor="middle">0</text>
	<line x1="1214.48" y1="1953.70" x2="1214.48" y2="1993.67" style="stroke:#000000;stroke-width:5.76"/>
	<text x="1214.48" y="2083.66" style="font-family:'Helvetica';font-size:99.99px;fill:#000000" text-anchor="middle">100</text>
	<line x1="2074.92" y1="1953.70" x2="2074.92" y2="1993.67" style="stroke:#000000;stroke-width:5.76"/>
	<text x="2074.92" y="2083.66" style="font-family:'Helvetica';font-size:99.99px;fill:#000000" text-anchor="middle">200</text>
	<line x1="2935.35" y1="1953.70" x2="2935.35" y2="1993.67" style="stroke:#000000;stroke-width:5.76"/>
	<text x="2935.35" y="2083.66" style="font-family:'Helvetica';font-size:99.99px;fill:#000000" text-anchor="middle">300</text>
	<line x1="3795.66" y1="1953.70" x2="3795.66" y2="1993.67" style="stroke:#000000;stroke-width:5.76"/>
	<text x="3795.66" y="2083.66" style="font-family:'Helvetica';font-size:99.99px;fill:#000000" text-anchor="middle">400</text>
	<text x="2074.92" y="2193.67" style="font-family:'Helvetica';font-size:99.99px;fill:#000000" text-anchor="middle">Days from index date</text>
	<rect x="1054.72" y="2278.31" width="2040.39" height="466.30" style="fill:#FFFFFF"/>
	<rect x="1057.60" y="2281.19" width="2034.63" height="460.54" style="fill:none;stroke:#000000;stroke-width:5.76"/>
	<line x1="1098.03" y1="2371.50" x2="1472.38" y2="2371.50" style="stroke:#1A476F;stroke-width:8.64"/>
	<line x1="1098.03" y1="2511.46" x2="1472.38" y2="2511.46" style="stroke:#90353B;stroke-width:8.64"/>
	<line x1="1098.03" y1="2651.43" x2="1472.38" y2="2651.43" style="stroke:#55752F;stroke-width:8.64"/>
	<text x="1532.40" y="2406.52" style="font-family:'Helvetica';font-size:99.99px;fill:#000000">group = Hospitalised COVID-19</text>
	<text x="1532.40" y="2546.49" style="font-family:'Helvetica';font-size:99.99px;fill:#000000">group = Hospitalised flu 2017_19</text>
	<text x="1532.40" y="2686.46" style="font-family:'Helvetica';font-size:99.99px;fill:#000000">group = General pop 2019</text>
</svg>
