<?xml version="1.0" encoding="UTF-8" standalone="no"?>
<!-- This is a Stata 16.1 generated SVG file (http://www.stata.com) -->

<svg version="1.1" width="5.50in" height="4.00in" viewBox="0 0 3960 2880" xmlns="http://www.w3.org/2000/svg" xmlns:xlink="http://www.w3.org/1999/xlink">
	<desc>Stata Graph - Graph</desc>
	<rect x="0" y="0" width="3960" height="2880" style="fill:#EAF2F3;stroke:none"/>
	<rect x="0.00" y="0.00" width="3959.88" height="2880.00" style="fill:#EAF2F3"/>
	<rect x="2.88" y="2.88" width="3954.12" height="2874.24" style="fill:none;stroke:#EAF2F3;stroke-width:5.76"/>
	<rect x="290.81" y="100.86" width="3568.21" height="2132.77" style="fill:#FFFFFF"/>
	<rect x="293.69" y="103.74" width="3562.45" height="2127.01" style="fill:none;stroke:#FFFFFF;stroke-width:5.76"/>
	<line x1="290.81" y1="2170.27" x2="3859.02" y2="2170.27" style="stroke:#EAF2F3;stroke-width:8.64"/>
	<line x1="290.81" y1="1668.82" x2="3859.02" y2="1668.82" style="stroke:#EAF2F3;stroke-width:8.64"/>
	<line x1="290.81" y1="1167.25" x2="3859.02" y2="1167.25" style="stroke:#EAF2F3;stroke-width:8.64"/>
	<line x1="290.81" y1="665.67" x2="3859.02" y2="665.67" style="stroke:#EAF2F3;stroke-width:8.64"/>
	<path d=" M354.05 2170.40 L354.05 2170.40 L354.05 2170.40 L358.38 2170.40 L358.38 2168.79 L362.71 2168.79 L362.71 2166.81 L371.25 2166.81 L371.25 2165.07 L379.91 2165.07 L379.91 2163.71 L388.45 2163.71 L388.45 2162.10 L397.11 2162.10 L397.11 2160.50 L405.65 2160.50 L405.65 2159.13 L414.31 2159.13 L414.31 2157.77 L422.85 2157.77 L422.85 2156.04 L431.52 2156.04 L431.52 2154.68 L440.18 2154.68 L440.18 2153.44 L448.72 2153.44 L448.72 2151.58 L457.38 2151.58 L457.38 2150.22 L465.92 2150.22 L465.92 2148.61 L474.58 2148.61 L474.58 2147.01 L483.12 2147.01 L483.12 2145.77 L491.78 2145.77 L491.78 2144.53 L500.32 2144.53 L500.32 2143.05 L508.98 2143.05 L508.98 2141.81 L517.52 2141.81 L517.52 2139.83 L526.18 2139.83 L526.18 2138.47 L534.72 2138.47 L534.72 2137.35 L543.39 2137.35 L543.39 2135.99 L551.92 2135.99 L551.92 2134.38 L560.59 2134.38 L560.59 2133.39 L569.13 2133.39 L569.13 2132.03 L577.79 2132.03 L577.79 2130.67 L586.33 2130.67 L586.33 2129.19 L594.99 2129.19 L594.99 2127.82 L603.65 2127.82 L603.65 2126.46 L612.19 2126.46 L612.19 2125.10 L620.85 2125.10 L620.85 2123.86 L629.39 2123.86 L629.39 2122.63 L638.05 2122.63 L638.05 2121.51 L646.59 2121.51 L646.59 2120.28 L655.26 2120.28 L655.26 2118.67 L663.79 2118.67 L663.79 2117.18 L672.46 2117.18 L672.46 2115.57 L681.00 2115.57 L681.00 2114.33 L689.66 2114.33 L689.66 2113.10 L698.20 2113.10 L698.20 2111.61 L706.86 2111.61 L706.86 2110.25 L715.40 2110.25 L715.40 2109.14 L724.06 2109.14 L724.06 2107.65 L732.60 2107.65 L732.60 2106.41 L741.26 2106.41 L741.26 2105.05 L749.80 2105.05 L749.80 2103.82 L758.46 2103.82 L758.46 2102.58 L767.13 2102.58 L767.13 2101.34 L775.66 2101.34 L775.66 2099.98 L784.33 2099.98 L784.33 2098.74 L792.87 2098.74 L792.87 2097.75 L801.53 2097.75 L801.53 2096.64 L810.07 2096.64 L810.07 2095.77 L818.73 2095.77 L818.73 2094.66 L827.27 2094.66 L827.27 2093.30 L835.93 2093.30 L835.93 2092.06 L844.47 2092.06 L844.47 2090.70 L853.13 2090.70 L853.13 2089.58 L861.67 2089.58 L861.67 2088.47 L870.33 2088.47 L870.33 2087.48 L878.87 2087.48 L878.87 2086.12 L887.53 2086.12 L887.53 2084.88 L896.07 2084.88 L896.07 2083.52 L904.74 2083.52 L904.74 2082.65 L913.40 2082.65 L913.40 2081.66 L921.94 2081.66 L921.94 2080.55 L930.60 2080.55 L930.60 2079.44 L939.14 2079.44 L939.14 2078.07 L947.80 2078.07 L947.80 2076.84 L956.34 2076.84 L956.34 2075.35 L965.00 2075.35 L965.00 2074.11 L973.54 2074.11 L973.54 2073.00 L982.20 2073.00 L982.20 2071.89 L990.74 2071.89 L990.74 2070.90 L999.40 2070.90 L999.40 2069.78 L1007.94 2069.78 L1007.94 2068.67 L1016.61 2068.67 L1016.61 2067.31 L1025.14 2067.31 L1025.14 2066.07 L1033.81 2066.07 L1033.81 2064.96 L1042.35 2064.96 L1042.35 2063.84 L1051.01 2063.84 L1051.01 2062.73 L1059.55 2062.73 L1059.55 2061.24 L1068.21 2061.24 L1068.21 2059.88 L1076.87 2059.88 L1076.87 2059.02 L1085.41 2059.02 L1085.41 2058.03 L1094.07 2058.03 L1094.07 2057.04 L1102.61 2057.04 L1102.61 2056.05 L1111.28 2056.05 L1111.28 2055.18 L1119.81 2055.18 L1119.81 2053.70 L1128.48 2053.70 L1128.48 2052.33 L1137.02 2052.33 L1137.02 2051.22 L1145.68 2051.22 L1145.68 2049.98 L1154.22 2049.98 L1154.22 2048.62 L1162.88 2048.62 L1162.88 2047.51 L1171.42 2047.51 L1171.42 2046.39 L1180.08 2046.39 L1180.08 2045.16 L1188.62 2045.16 L1188.62 2043.80 L1197.28 2043.80 L1197.28 2042.56 L1205.82 2042.56 L1205.82 2041.69 L1214.48 2041.69 L1214.48 2040.58 L1223.02 2040.58 L1223.02 2039.22 L1231.68 2039.22 L1231.68 2037.73 L1240.35 2037.73 L1240.35 2036.37 L1248.88 2036.37 L1248.88 2034.88 L1257.55 2034.88 L1257.55 2033.65 L1266.09 2033.65 L1266.09 2032.78 L1274.75 2032.78 L1274.75 2031.67 L1283.29 2031.67 L1283.29 2030.68 L1291.95 2030.68 L1291.95 2029.69 L1300.49 2029.69 L1300.49 2028.82 L1309.15 2028.82 L1309.15 2027.71 L1317.69 2027.71 L1317.69 2026.47 L1326.35 2026.47 L1326.35 2025.23 L1334.89 2025.23 L1334.89 2023.75 L1343.55 2023.75 L1343.55 2022.63 L1352.09 2022.63 L1352.09 2021.77 L1360.76 2021.77 L1360.76 2020.41 L1369.29 2020.41 L1369.29 2019.17 L1377.96 2019.17 L1377.96 2017.81 L1386.49 2017.81 L1386.49 2016.57 L1395.16 2016.57 L1395.16 2015.46 L1403.82 2015.46 L1403.82 2014.47 L1412.36 2014.47 L1412.36 2013.72 L1421.02 2013.72 L1421.02 2012.36 L1429.56 2012.36 L1429.56 2011.00 L1438.22 2011.00 L1438.22 2010.01 L1446.76 2010.01 L1446.76 2008.77 L1455.42 2008.77 L1455.42 2007.41 L1463.96 2007.41 L1463.96 2006.55 L1472.63 2006.55 L1472.63 2005.31 L1481.16 2005.31 L1481.16 2004.19 L1489.83 2004.19 L1489.83 2002.83 L1498.37 2002.83 L1498.37 2001.72 L1507.03 2001.72 L1507.03 2000.11 L1515.57 2000.11 L1515.57 1999.00 L1524.23 1999.00 L1524.23 1998.13 L1532.77 1998.13 L1532.77 1997.26 L1541.43 1997.26 L1541.43 1995.78 L1549.97 1995.78 L1549.97 1994.29 L1558.63 1994.29 L1558.63 1992.68 L1567.29 1992.68 L1567.29 1991.69 L1575.83 1991.69 L1575.83 1990.33 L1584.49 1990.33 L1584.49 1989.10 L1593.03 1989.10 L1593.03 1988.23 L1601.70 1988.23 L1601.70 1986.62 L1610.23 1986.62 L1610.23 1985.26 L1618.90 1985.26 L1618.90 1983.65 L1627.44 1983.65 L1627.44 1982.54 L1636.10 1982.54 L1636.10 1981.67 L1644.64 1981.67 L1644.64 1980.43 L1653.30 1980.43 L1653.30 1979.57 L1661.84 1979.57 L1661.84 1978.33 L1670.50 1978.33 L1670.50 1977.22 L1679.04 1977.22 L1679.04 1975.98 L1687.70 1975.98 L1687.70 1974.86 L1696.24 1974.86 L1696.24 1973.63 L1704.90 1973.63 L1704.90 1972.39 L1713.44 1972.39 L1713.44 1971.15 L1722.11 1971.15 L1722.11 1969.91 L1730.77 1969.91 L1730.77 1968.68 L1739.31 1968.68 L1739.31 1967.07 L1747.97 1967.07 L1747.97 1965.71 L1756.51 1965.71 L1756.51 1964.22 L1765.17 1964.22 L1765.17 1962.74 L1773.71 1962.74 L1773.71 1961.75 L1782.37 1961.75 L1782.37 1960.39 L1790.91 1960.39 L1790.91 1959.27 L1799.57 1959.27 L1799.57 1958.03 L1808.11 1958.03 L1808.11 1956.55 L1816.77 1956.55 L1816.77 1955.68 L1825.31 1955.68 L1825.31 1954.57 L1833.97 1954.57 L1833.97 1953.45 L1842.51 1953.45 L1842.51 1952.22 L1851.18 1952.22 L1851.18 1951.23 L1859.71 1951.23 L1859.71 1949.87 L1868.38 1949.87 L1868.38 1948.88 L1877.04 1948.88 L1877.04 1947.89 L1885.58 1947.89 L1885.58 1946.65 L1894.24 1946.65 L1894.24 1945.91 L1902.78 1945.91 L1902.78 1944.30 L1911.44 1944.30 L1911.44 1943.06 L1919.98 1943.06 L1919.98 1941.95 L1928.64 1941.95 L1928.64 1940.71 L1937.18 1940.71 L1937.18 1939.35 L1945.85 1939.35 L1945.85 1938.23 L1954.38 1938.23 L1954.38 1937.24 L1963.05 1937.24 L1963.05 1935.88 L1971.59 1935.88 L1971.59 1934.77 L1980.25 1934.77 L1980.25 1933.16 L1988.79 1933.16 L1988.79 1931.92 L1997.45 1931.92 L1997.45 1930.56 L2005.99 1930.56 L2005.99 1929.45 L2014.65 1929.45 L2014.65 1928.33 L2023.19 1928.33 L2023.19 1927.22 L2031.85 1927.22 L2031.85 1925.86 L2040.51 1925.86 L2040.51 1924.62 L2049.05 1924.62 L2049.05 1923.75 L2057.72 1923.75 L2057.72 1922.76 L2066.25 1922.76 L2066.25 1921.65 L2074.92 1921.65 L2074.92 1920.66 L2083.45 1920.66 L2083.45 1919.30 L2092.12 1919.30 L2092.12 1918.31 L2100.66 1918.31 L2100.66 1916.70 L2109.32 1916.70 L2109.32 1915.46 L2117.86 1915.46 L2117.86 1914.35 L2126.52 1914.35 L2126.52 1913.36 L2135.06 1913.36 L2135.06 1912.49 L2143.72 1912.49 L2143.72 1911.25 L2152.26 1911.25 L2152.26 1910.26 L2160.92 1910.26 L2160.92 1908.90 L2169.46 1908.90 L2169.46 1907.67 L2178.12 1907.67 L2178.12 1906.68 L2186.66 1906.68 L2186.66 1905.81 L2195.32 1905.81 L2195.32 1904.82 L2203.99 1904.82 L2203.99 1903.83 L2212.53 1903.83 L2212.53 1902.72 L2221.19 1902.72 L2221.19 1901.73 L2229.73 1901.73 L2229.73 1900.61 L2238.39 1900.61 L2238.39 1899.62 L2246.93 1899.62 L2246.93 1898.63 L2255.59 1898.63 L2255.59 1897.39 L2264.13 1897.39 L2264.13 1896.16 L2272.79 1896.16 L2272.79 1894.92 L2281.33 1894.92 L2281.33 1893.81 L2289.99 1893.81 L2289.99 1892.44 L2298.53 1892.44 L2298.53 1891.33 L2307.20 1891.33 L2307.20 1890.22 L2315.73 1890.22 L2315.73 1889.47 L2324.40 1889.47 L2324.40 1888.11 L2332.93 1888.11 L2332.93 1887.12 L2341.60 1887.12 L2341.60 1885.76 L2350.14 1885.76 L2350.14 1884.77 L2358.80 1884.77 L2358.80 1883.78 L2367.46 1883.78 L2367.46 1883.29 L2376.00 1883.29 L2376.00 1882.54 L2384.66 1882.54 L2384.66 1881.31 L2393.20 1881.31 L2393.20 1880.32 L2401.86 1880.32 L2401.86 1879.45 L2410.40 1879.45 L2410.40 1878.83 L2419.07 1878.83 L2419.07 1877.72 L2427.60 1877.72 L2427.60 1877.10 L2436.27 1877.10 L2436.27 1876.36 L2444.80 1876.36 L2444.80 1874.99 L2453.47 1874.99 L2453.47 1874.00 L2462.01 1874.00 L2462.01 1873.14 L2470.67 1873.14 L2470.67 1872.40 L2479.21 1872.40 L2479.21 1871.28 L2487.87 1871.28 L2487.87 1870.54 L2496.41 1870.54 L2496.41 1869.43 L2505.07 1869.43 L2505.07 1868.31 L2513.61 1868.31 L2513.61 1867.20 L2522.27 1867.20 L2522.27 1866.46 L2530.93 1866.46 L2530.93 1865.22 L2539.47 1865.22 L2539.47 1864.23 L2548.14 1864.23 L2548.14 1863.49 L2556.68 1863.49 L2556.68 1862.99 L2565.34 1862.99 L2565.34 1861.88 L2573.88 1861.88 L2573.88 1861.13 L2582.54 1861.13 L2582.54 1860.14 L2591.08 1860.14 L2591.08 1859.28 L2599.74 1859.28 L2599.74 1858.29 L2608.28 1858.29 L2608.28 1857.55 L2616.94 1857.55 L2616.94 1856.93 L2625.48 1856.93 L2625.48 1855.94 L2634.14 1855.94 L2634.14 1854.95 L2642.68 1854.95 L2642.68 1853.96 L2651.34 1853.96 L2651.34 1853.34 L2659.88 1853.34 L2659.88 1852.97 L2668.55 1852.97 L2668.55 1852.22 L2677.21 1852.22 L2677.21 1851.61 L2685.75 1851.61 L2685.75 1850.99 L2694.41 1850.99 L2694.41 1850.49 L2702.95 1850.49 L2702.95 1849.87 L2711.61 1849.87 L2711.61 1849.63 L2720.15 1849.63 L2720.15 1848.14 L2728.81 1848.14 L2728.81 1846.53 L2737.35 1846.53 L2737.35 1845.42 L2746.01 1845.42 L2746.01 1844.18 L2754.55 1844.18 L2754.55 1842.70 L2763.21 1842.70 L2763.21 1841.46 L2771.75 1841.46 L2771.75 1841.09 L2780.41 1841.09 L2780.41 1840.22 L2788.95 1840.22 L2788.95 1838.36 L2797.62 1838.36 L2797.62 1836.88 L2806.16 1836.88 L2806.16 1836.01 L2814.82 1836.01 L2814.82 1835.39 L2832.02 1835.39 L2832.02 1834.53 L2840.68 1834.53 L2840.68 1834.16 L2849.22 1834.16 L2849.22 1833.04 L2857.88 1833.04 L2857.88 1832.05 L2866.42 1832.05 L2866.42 1831.19 L2875.08 1831.19 L2875.08 1830.57 L2883.62 1830.57 L2883.62 1829.95 L2892.28 1829.95 L2892.28 1829.08 L2900.82 1829.08 L2900.82 1827.60 L2909.49 1827.60 L2909.49 1826.98 L2935.23 1826.98 L2935.23 1826.36 L2961.09 1826.36 L2961.09 1825.99 L2978.29 1825.99 L2978.29 1825.49 L3227.77 1825.49 L3227.77 1825.49" stroke-linejoin="round" style="fill:none;stroke:#1A476F;stroke-width:8.64"/>
	<path d=" M354.05 2170.40 L354.05 2170.40 L354.05 2170.40 L362.71 2170.40 L362.71 2124.61 L371.25 2124.61 L371.25 2086.49 L379.91 2086.49 L379.91 2054.69 L388.45 2054.69 L388.45 2027.34 L397.11 2027.34 L397.11 2003.33 L405.65 2003.33 L405.65 1982.54 L414.31 1982.54 L414.31 1964.22 L422.85 1964.22 L422.85 1945.66 L431.52 1945.66 L431.52 1929.45 L440.18 1929.45 L440.18 1915.34 L448.72 1915.34 L448.72 1903.58 L457.38 1903.58 L457.38 1891.45 L465.92 1891.45 L465.92 1879.70 L474.58 1879.70 L474.58 1869.80 L483.12 1869.80 L483.12 1858.41 L491.78 1858.41 L491.78 1849.63 L500.32 1849.63 L500.32 1841.09 L508.98 1841.09 L508.98 1831.43 L517.52 1831.43 L517.52 1823.02 L526.18 1823.02 L526.18 1816.09 L534.72 1816.09 L534.72 1807.92 L543.39 1807.92 L543.39 1801.98 L551.92 1801.98 L551.92 1794.80 L560.59 1794.80 L560.59 1787.75 L569.13 1787.75 L569.13 1781.44 L577.79 1781.44 L577.79 1775.99 L586.33 1775.99 L586.33 1769.68 L594.99 1769.68 L594.99 1765.10 L603.65 1765.10 L603.65 1760.52 L612.19 1760.52 L612.19 1756.56 L620.85 1756.56 L620.85 1753.10 L629.39 1753.10 L629.39 1746.79 L638.05 1746.79 L638.05 1741.59 L646.59 1741.59 L646.59 1735.28 L655.26 1735.28 L655.26 1729.34 L663.79 1729.34 L663.79 1725.50 L672.46 1725.50 L672.46 1721.54 L681.00 1721.54 L681.00 1716.84 L689.66 1716.84 L689.66 1713.37 L698.20 1713.37 L698.20 1709.41 L706.86 1709.41 L706.86 1704.46 L715.40 1704.46 L715.40 1699.14 L724.06 1699.14 L724.06 1696.29 L732.60 1696.29 L732.60 1693.08 L741.26 1693.08 L741.26 1689.61 L749.80 1689.61 L749.80 1686.52 L758.46 1686.52 L758.46 1683.18 L767.13 1683.18 L767.13 1680.21 L775.66 1680.21 L775.66 1677.11 L784.33 1677.11 L784.33 1673.77 L792.87 1673.77 L792.87 1670.80 L801.53 1670.80 L801.53 1667.09 L810.07 1667.09 L810.07 1664.86 L818.73 1664.86 L818.73 1662.51 L827.27 1662.51 L827.27 1658.43 L835.93 1658.43 L835.93 1655.95 L844.47 1655.95 L844.47 1652.24 L853.13 1652.24 L853.13 1650.38 L861.67 1650.38 L861.67 1646.55 L870.33 1646.55 L870.33 1643.45 L878.87 1643.45 L878.87 1640.48 L887.53 1640.48 L887.53 1636.77 L896.07 1636.77 L896.07 1633.67 L904.74 1633.67 L904.74 1630.09 L913.40 1630.09 L913.40 1626.62 L921.94 1626.62 L921.94 1623.40 L930.60 1623.40 L930.60 1620.56 L939.14 1620.56 L939.14 1617.09 L947.80 1617.09 L947.80 1613.26 L956.34 1613.26 L956.34 1609.91 L965.00 1609.91 L965.00 1606.82 L973.54 1606.82 L973.54 1603.60 L982.20 1603.60 L982.20 1601.00 L990.74 1601.00 L990.74 1599.64 L999.40 1599.64 L999.40 1597.41 L1007.94 1597.41 L1007.94 1594.07 L1016.61 1594.07 L1016.61 1591.23 L1025.14 1591.23 L1025.14 1588.38 L1033.81 1588.38 L1033.81 1586.77 L1042.35 1586.77 L1042.35 1584.05 L1051.01 1584.05 L1051.01 1581.70 L1059.55 1581.70 L1059.55 1579.47 L1068.21 1579.47 L1068.21 1577.12 L1076.87 1577.12 L1076.87 1574.89 L1085.41 1574.89 L1085.41 1572.29 L1094.07 1572.29 L1094.07 1568.83 L1102.61 1568.83 L1102.61 1565.98 L1111.28 1565.98 L1111.28 1563.38 L1119.81 1563.38 L1119.81 1560.17 L1128.48 1560.17 L1128.48 1557.69 L1137.02 1557.69 L1137.02 1554.97 L1145.68 1554.97 L1145.68 1551.63 L1154.22 1551.63 L1154.22 1549.52 L1162.88 1549.52 L1162.88 1547.42 L1171.42 1547.42 L1171.42 1544.08 L1180.08 1544.08 L1180.08 1540.36 L1188.62 1540.36 L1188.62 1537.77 L1197.28 1537.77 L1197.28 1535.91 L1205.82 1535.91 L1205.82 1534.42 L1214.48 1534.42 L1214.48 1531.83 L1223.02 1531.83 L1223.02 1529.97 L1231.68 1529.97 L1231.68 1527.62 L1240.35 1527.62 L1240.35 1525.89 L1248.88 1525.89 L1248.88 1523.41 L1257.55 1523.41 L1257.55 1521.18 L1266.09 1521.18 L1266.09 1518.71 L1274.75 1518.71 L1274.75 1516.60 L1283.29 1516.60 L1283.29 1514.75 L1291.95 1514.75 L1291.95 1512.64 L1300.49 1512.64 L1300.49 1510.17 L1309.15 1510.17 L1309.15 1508.06 L1317.69 1508.06 L1317.69 1506.33 L1326.35 1506.33 L1326.35 1504.48 L1334.89 1504.48 L1334.89 1502.87 L1343.55 1502.87 L1343.55 1500.14 L1352.09 1500.14 L1352.09 1497.30 L1360.76 1497.30 L1360.76 1495.69 L1369.29 1495.69 L1369.29 1493.46 L1377.96 1493.46 L1377.96 1490.74 L1386.49 1490.74 L1386.49 1489.01 L1395.16 1489.01 L1395.16 1486.90 L1403.82 1486.90 L1403.82 1484.43 L1412.36 1484.43 L1412.36 1481.46 L1421.02 1481.46 L1421.02 1480.22 L1429.56 1480.22 L1429.56 1477.62 L1438.22 1477.62 L1438.22 1475.52 L1446.76 1475.52 L1446.76 1473.54 L1455.42 1473.54 L1455.42 1471.93 L1463.96 1471.93 L1463.96 1470.07 L1472.63 1470.07 L1472.63 1468.46 L1481.16 1468.46 L1481.16 1465.74 L1489.83 1465.74 L1489.83 1463.88 L1498.37 1463.88 L1498.37 1461.66 L1507.03 1461.66 L1507.03 1459.80 L1515.57 1459.80 L1515.57 1457.45 L1524.23 1457.45 L1524.23 1455.84 L1532.77 1455.84 L1532.77 1454.73 L1541.43 1454.73 L1541.43 1452.38 L1549.97 1452.38 L1549.97 1450.77 L1558.63 1450.77 L1558.63 1448.54 L1567.29 1448.54 L1567.29 1445.82 L1575.83 1445.82 L1575.83 1443.71 L1584.49 1443.71 L1584.49 1441.36 L1593.03 1441.36 L1593.03 1439.13 L1601.70 1439.13 L1601.70 1437.28 L1610.23 1437.28 L1610.23 1435.42 L1618.90 1435.42 L1618.90 1433.94 L1627.44 1433.94 L1627.44 1432.20 L1636.10 1432.20 L1636.10 1430.97 L1644.64 1430.97 L1644.64 1428.49 L1653.30 1428.49 L1653.30 1426.26 L1661.84 1426.26 L1661.84 1425.27 L1670.50 1425.27 L1670.50 1422.92 L1679.04 1422.92 L1679.04 1421.93 L1687.70 1421.93 L1687.70 1419.70 L1696.24 1419.70 L1696.24 1417.97 L1704.90 1417.97 L1704.90 1415.25 L1713.44 1415.25 L1713.44 1413.27 L1722.11 1413.27 L1722.11 1411.04 L1730.77 1411.04 L1730.77 1408.32 L1739.31 1408.32 L1739.31 1407.08 L1747.97 1407.08 L1747.97 1406.46 L1756.51 1406.46 L1756.51 1405.10 L1765.17 1405.10 L1765.17 1403.62 L1773.71 1403.62 L1773.71 1401.51 L1782.37 1401.51 L1782.37 1399.66 L1790.91 1399.66 L1790.91 1398.29 L1799.57 1398.29 L1799.57 1395.57 L1808.11 1395.57 L1808.11 1393.34 L1816.77 1393.34 L1816.77 1392.11 L1825.31 1392.11 L1825.31 1390.75 L1833.97 1390.75 L1833.97 1390.00 L1842.51 1390.00 L1842.51 1387.65 L1851.18 1387.65 L1851.18 1386.54 L1859.71 1386.54 L1859.71 1384.19 L1868.38 1384.19 L1868.38 1383.20 L1877.04 1383.20 L1877.04 1381.84 L1885.58 1381.84 L1885.58 1379.61 L1894.24 1379.61 L1894.24 1377.88 L1902.78 1377.88 L1902.78 1375.65 L1911.44 1375.65 L1911.44 1373.79 L1919.98 1373.79 L1919.98 1372.80 L1928.64 1372.80 L1928.64 1371.07 L1937.18 1371.07 L1937.18 1369.46 L1945.85 1369.46 L1945.85 1367.60 L1954.38 1367.60 L1954.38 1366.12 L1963.05 1366.12 L1963.05 1365.13 L1971.59 1365.13 L1971.59 1363.03 L1980.25 1363.03 L1980.25 1361.54 L1988.79 1361.54 L1988.79 1360.18 L1997.45 1360.18 L1997.45 1358.45 L2005.99 1358.45 L2005.99 1357.70 L2014.65 1357.70 L2014.65 1356.71 L2023.19 1356.71 L2023.19 1354.98 L2031.85 1354.98 L2031.85 1352.88 L2040.51 1352.88 L2040.51 1352.13 L2049.05 1352.13 L2049.05 1350.65 L2057.72 1350.65 L2057.72 1348.67 L2066.25 1348.67 L2066.25 1347.93 L2074.92 1347.93 L2074.92 1346.81 L2083.45 1346.81 L2083.45 1345.33 L2092.12 1345.33 L2092.12 1344.46 L2100.66 1344.46 L2100.66 1343.60 L2109.32 1343.60 L2109.32 1342.48 L2117.86 1342.48 L2117.86 1341.74 L2126.52 1341.74 L2126.52 1339.64 L2135.06 1339.64 L2135.06 1338.65 L2143.72 1338.65 L2143.72 1337.41 L2152.26 1337.41 L2152.26 1336.17 L2160.92 1336.17 L2160.92 1334.07 L2169.46 1334.07 L2169.46 1332.46 L2178.12 1332.46 L2178.12 1331.84 L2186.66 1331.84 L2186.66 1330.35 L2195.32 1330.35 L2195.32 1328.87 L2203.99 1328.87 L2203.99 1327.63 L2212.53 1327.63 L2212.53 1327.14 L2221.19 1327.14 L2221.19 1326.27 L2229.73 1326.27 L2229.73 1324.41 L2238.39 1324.41 L2238.39 1323.18 L2246.93 1323.18 L2246.93 1322.31 L2255.59 1322.31 L2255.59 1320.83 L2264.13 1320.83 L2264.13 1319.46 L2272.79 1319.46 L2272.79 1318.23 L2281.33 1318.23 L2281.33 1316.74 L2289.99 1316.74 L2289.99 1315.63 L2298.53 1315.63 L2298.53 1314.51 L2307.20 1314.51 L2307.20 1313.65 L2315.73 1313.65 L2315.73 1312.66 L2324.40 1312.66 L2324.40 1311.79 L2332.93 1311.79 L2332.93 1309.69 L2341.60 1309.69 L2341.60 1307.95 L2350.14 1307.95 L2350.14 1307.21 L2358.80 1307.21 L2358.80 1305.48 L2367.46 1305.48 L2367.46 1303.62 L2376.00 1303.62 L2376.00 1303.13 L2384.66 1303.13 L2384.66 1302.14 L2393.20 1302.14 L2393.20 1301.02 L2401.86 1301.02 L2401.86 1299.91 L2410.40 1299.91 L2410.40 1299.29 L2419.07 1299.29 L2419.07 1298.05 L2427.60 1298.05 L2427.60 1296.45 L2436.27 1296.45 L2436.27 1295.83 L2444.80 1295.83 L2444.80 1294.84 L2453.47 1294.84 L2453.47 1293.72 L2462.01 1293.72 L2462.01 1292.98 L2470.67 1292.98 L2470.67 1292.24 L2479.21 1292.24 L2479.21 1291.12 L2487.87 1291.12 L2487.87 1290.88 L2496.41 1290.88 L2496.41 1290.01 L2505.07 1290.01 L2505.07 1289.27 L2513.61 1289.27 L2513.61 1288.28 L2522.27 1288.28 L2522.27 1287.54 L2530.93 1287.54 L2530.93 1286.79 L2539.47 1286.79 L2539.47 1286.30 L2548.14 1286.30 L2548.14 1285.68 L2556.68 1285.68 L2556.68 1284.57 L2565.34 1284.57 L2565.34 1283.08 L2573.88 1283.08 L2573.88 1282.83 L2582.54 1282.83 L2582.54 1282.21 L2591.08 1282.21 L2591.08 1281.84 L2599.74 1281.84 L2599.74 1281.22 L2608.28 1281.22 L2608.28 1280.85 L2616.94 1280.85 L2616.94 1280.85 L2625.48 1280.85 L2625.48 1280.36 L2634.14 1280.36 L2634.14 1279.49 L2642.68 1279.49 L2642.68 1279.49 L2651.34 1279.49 L2651.34 1279.00 L2659.88 1279.00 L2659.88 1279.00 L2668.55 1279.00 L2668.55 1278.25 L2677.21 1278.25 L2677.21 1278.25 L2685.75 1278.25 L2685.75 1277.51 L2694.41 1277.51 L2694.41 1277.51 L2702.95 1277.51 L2702.95 1277.51 L2711.61 1277.51 L2711.61 1277.51 L2720.15 1277.51 L2720.15 1277.51 L2728.81 1277.51 L2728.81 1277.51 L2737.35 1277.51 L2737.35 1277.51 L2746.01 1277.51 L2746.01 1277.51 L2754.55 1277.51 L2754.55 1277.51 L2763.21 1277.51 L2763.21 1277.51 L2771.75 1277.51 L2771.75 1277.51 L2780.41 1277.51 L2780.41 1277.51 L2788.95 1277.51 L2788.95 1277.51 L2797.62 1277.51 L2797.62 1277.51 L2806.16 1277.51 L2806.16 1277.51 L2814.82 1277.51 L2814.82 1277.51 L2823.36 1277.51 L2823.36 1277.51 L2832.02 1277.51 L2832.02 1277.51 L2840.68 1277.51 L2840.68 1277.51 L2849.22 1277.51 L2849.22 1277.51 L2857.88 1277.51 L2857.88 1277.51 L2866.42 1277.51 L2866.42 1277.51 L2875.08 1277.51 L2875.08 1277.51 L2883.62 1277.51 L2883.62 1277.51 L2892.28 1277.51 L2892.28 1277.51 L2900.82 1277.51 L2900.82 1277.51 L2909.49 1277.51 L2909.49 1277.51 L2918.03 1277.51 L2918.03 1277.51 L2926.69 1277.51 L2926.69 1277.51 L2935.23 1277.51 L2935.23 1277.51 L2943.89 1277.51 L2943.89 1277.51 L2952.43 1277.51 L2952.43 1277.51 L2978.29 1277.51 L2978.29 1277.51 L2995.49 1277.51 L2995.49 1277.51 L3115.90 1277.51 L3115.90 1277.51 L3141.76 1277.51 L3141.76 1277.51" stroke-linejoin="round" style="fill:none;stroke:#90353B;stroke-width:8.64"/>
	<line x1="290.81" y1="2233.63" x2="290.81" y2="100.86" style="stroke:#000000;stroke-width:5.76"/>
	<line x1="290.81" y1="2170.27" x2="250.84" y2="2170.27" style="stroke:#000000;stroke-width:5.76"/>
	<text x="200.73" y="2170.27" style="font-family:'Helvetica';font-size:99.99px;fill:#000000" transform="rotate(-90 200.73,2170.27)" text-anchor="middle">0.00</text>
	<line x1="290.81" y1="1668.82" x2="250.84" y2="1668.82" style="stroke:#000000;stroke-width:5.76"/>
	<text x="200.73" y="1668.82" style="font-family:'Helvetica';font-size:99.99px;fill:#000000" transform="rotate(-90 200.73,1668.82)" text-anchor="middle">0.25</text>
	<line x1="290.81" y1="1167.25" x2="250.84" y2="1167.25" style="stroke:#000000;stroke-width:5.76"/>
	<text x="200.73" y="1167.25" style="font-family:'Helvetica';font-size:99.99px;fill:#000000" transform="rotate(-90 200.73,1167.25)" text-anchor="middle">0.50</text>
	<line x1="290.81" y1="665.67" x2="250.84" y2="665.67" style="stroke:#000000;stroke-width:5.76"/>
	<text x="200.73" y="665.67" style="font-family:'Helvetica';font-size:99.99px;fill:#000000" transform="rotate(-90 200.73,665.67)" text-anchor="middle">0.75</text>
	<line x1="290.81" y1="164.22" x2="250.84" y2="164.22" style="stroke:#000000;stroke-width:5.76"/>
	<text x="200.73" y="164.22" style="font-family:'Helvetica';font-size:99.99px;fill:#000000" transform="rotate(-90 200.73,164.22)" text-anchor="middle">1.00</text>
	<line x1="290.81" y1="2233.63" x2="3859.02" y2="2233.63" style="stroke:#000000;stroke-width:5.76"/>
	<line x1="354.17" y1="2233.63" x2="354.17" y2="2273.73" style="stroke:#000000;stroke-width:5.76"/>
	<text x="354.17" y="2363.59" style="font-family:'Helvetica';font-size:99.99px;fill:#000000" text-anchor="middle">0</text>
	<line x1="1214.48" y1="2233.63" x2="1214.48" y2="2273.73" style="stroke:#000000;stroke-width:5.76"/>
	<text x="1214.48" y="2363.59" style="font-family:'Helvetica';font-size:99.99px;fill:#000000" text-anchor="middle">100</text>
	<line x1="2074.92" y1="2233.63" x2="2074.92" y2="2273.73" style="stroke:#000000;stroke-width:5.76"/>
	<text x="2074.92" y="2363.59" style="font-family:'Helvetica';font-size:99.99px;fill:#000000" text-anchor="middle">200</text>
	<line x1="2935.35" y1="2233.63" x2="2935.35" y2="2273.73" style="stroke:#000000;stroke-width:5.76"/>
	<text x="2935.35" y="2363.59" style="font-family:'Helvetica';font-size:99.99px;fill:#000000" text-anchor="middle">300</text>
	<line x1="3795.66" y1="2233.63" x2="3795.66" y2="2273.73" style="stroke:#000000;stroke-width:5.76"/>
	<text x="3795.66" y="2363.59" style="font-family:'Helvetica';font-size:99.99px;fill:#000000" text-anchor="middle">400</text>
	<text x="2074.92" y="2473.60" style="font-family:'Helvetica';font-size:99.99px;fill:#000000" text-anchor="middle">Days from index date</text>
	<rect x="413.20" y="2558.24" width="3323.43" height="186.37" style="fill:#FFFFFF"/>
	<rect x="416.08" y="2561.12" width="3317.67" height="180.61" style="fill:none;stroke:#000000;stroke-width:5.76"/>
	<line x1="456.39" y1="2651.43" x2="830.86" y2="2651.43" style="stroke:#1A476F;stroke-width:8.64"/>
	<line x1="1363.35" y1="2651.43" x2="1737.70" y2="2651.43" style="stroke:#90353B;stroke-width:8.64"/>
	<text x="890.75" y="2686.46" style="font-family:'Helvetica';font-size:99.99px;fill:#000000">Control</text>
	<text x="1797.72" y="2686.46" style="font-family:'Helvetica';font-size:99.99px;fill:#000000">Exposed (prior COVID-19 hospitalisation)</text>
</svg>
