<?xml version="1.0" encoding="UTF-8" standalone="no"?>
<!-- This is a Stata 16.1 generated SVG file (http://www.stata.com) -->

<svg version="1.1" width="5.50in" height="4.00in" viewBox="0 0 3960 2880" xmlns="http://www.w3.org/2000/svg" xmlns:xlink="http://www.w3.org/1999/xlink">
	<desc>Stata Graph - composite</desc>
	<rect x="0" y="0" width="3960" height="2880" style="fill:#EAF2F3;stroke:none"/>
	<rect x="0.00" y="0.00" width="3959.88" height="2880.00" style="fill:#EAF2F3"/>
	<rect x="2.88" y="2.88" width="3954.12" height="2874.24" style="fill:none;stroke:#EAF2F3;stroke-width:5.76"/>
	<rect x="290.81" y="100.86" width="3568.21" height="1852.84" style="fill:#FFFFFF"/>
	<rect x="293.69" y="103.74" width="3562.45" height="1847.08" style="fill:none;stroke:#FFFFFF;stroke-width:5.76"/>
	<line x1="290.81" y1="1890.34" x2="3859.02" y2="1890.34" style="stroke:#EAF2F3;stroke-width:8.64"/>
	<line x1="290.81" y1="1458.81" x2="3859.02" y2="1458.81" style="stroke:#EAF2F3;stroke-width:8.64"/>
	<line x1="290.81" y1="1027.28" x2="3859.02" y2="1027.28" style="stroke:#EAF2F3;stroke-width:8.64"/>
	<line x1="290.81" y1="595.75" x2="3859.02" y2="595.75" style="stroke:#EAF2F3;stroke-width:8.64"/>
	<path d=" M354.05 1890.34 L354.05 1890.34 L354.05 1890.34 L354.05 1890.34 L354.05 1890.34 L359.87 1890.34 L359.87 1871.53 L365.56 1871.53 L365.56 1855.19 L377.07 1855.19 L377.07 1842.32 L388.45 1842.32 L388.45 1828.83 L399.96 1828.83 L399.96 1818.07 L411.47 1818.07 L411.47 1806.93 L422.85 1806.93 L422.85 1797.52 L434.36 1797.52 L434.36 1786.39 L445.87 1786.39 L445.87 1778.10 L457.38 1778.10 L457.38 1768.57 L468.76 1768.57 L468.76 1759.28 L480.27 1759.28 L480.27 1750.75 L491.78 1750.75 L491.78 1742.95 L503.17 1742.95 L503.17 1735.52 L514.68 1735.52 L514.68 1729.34 L526.18 1729.34 L526.18 1722.90 L537.57 1722.90 L537.57 1715.85 L549.08 1715.85 L549.08 1709.78 L560.59 1709.78 L560.59 1704.83 L572.10 1704.83 L572.10 1698.65 L583.48 1698.65 L583.48 1693.82 L594.99 1693.82 L594.99 1689.61 L606.50 1689.61 L606.50 1685.28 L617.88 1685.28 L617.88 1681.57 L629.39 1681.57 L629.39 1675.01 L640.90 1675.01 L640.90 1668.70 L652.41 1668.70 L652.41 1662.01 L663.79 1662.01 L663.79 1656.45 L675.30 1656.45 L675.30 1651.74 L686.81 1651.74 L686.81 1647.91 L698.20 1647.91 L698.20 1643.08 L709.71 1643.08 L709.71 1639.49 L721.22 1639.49 L721.22 1635.16 L732.60 1635.16 L732.60 1630.58 L744.11 1630.58 L744.11 1624.64 L755.62 1624.64 L755.62 1621.18 L767.13 1621.18 L767.13 1617.46 L778.51 1617.46 L778.51 1614.12 L790.02 1614.12 L790.02 1610.66 L801.53 1610.66 L801.53 1607.56 L812.91 1607.56 L812.91 1604.35 L824.42 1604.35 L824.42 1601.00 L835.93 1601.00 L835.93 1597.66 L847.32 1597.66 L847.32 1594.32 L858.83 1594.32 L858.83 1590.24 L870.33 1590.24 L870.33 1588.13 L881.84 1588.13 L881.84 1585.16 L893.23 1585.16 L893.23 1580.46 L904.74 1580.46 L904.74 1577.37 L916.25 1577.37 L916.25 1573.04 L927.63 1573.04 L927.63 1570.44 L939.14 1570.44 L939.14 1566.48 L950.65 1566.48 L950.65 1563.14 L962.03 1563.14 L962.03 1560.17 L973.54 1560.17 L973.54 1556.45 L985.05 1556.45 L985.05 1553.23 L996.56 1553.23 L996.56 1549.77 L1007.94 1549.77 L1007.94 1546.30 L1019.45 1546.30 L1019.45 1543.33 L1030.96 1543.33 L1030.96 1540.12 L1042.35 1540.12 L1042.35 1536.78 L1053.86 1536.78 L1053.86 1533.43 L1065.36 1533.43 L1065.36 1530.46 L1076.87 1530.46 L1076.87 1527.00 L1088.26 1527.00 L1088.26 1523.91 L1099.77 1523.91 L1099.77 1521.55 L1111.28 1521.55 L1111.28 1520.07 L1122.66 1520.07 L1122.66 1517.72 L1134.17 1517.72 L1134.17 1514.25 L1145.68 1514.25 L1145.68 1511.53 L1157.06 1511.53 L1157.06 1509.05 L1168.57 1509.05 L1168.57 1506.83 L1180.08 1506.83 L1180.08 1503.86 L1191.59 1503.86 L1191.59 1501.75 L1202.97 1501.75 L1202.97 1499.53 L1214.48 1499.53 L1214.48 1496.93 L1225.99 1496.93 L1225.99 1494.95 L1237.38 1494.95 L1237.38 1492.10 L1248.88 1492.10 L1248.88 1488.76 L1260.39 1488.76 L1260.39 1486.04 L1271.78 1486.04 L1271.78 1483.07 L1283.29 1483.07 L1283.29 1479.48 L1294.80 1479.48 L1294.80 1477.25 L1306.31 1477.25 L1306.31 1475.02 L1317.69 1475.02 L1317.69 1471.68 L1329.20 1471.68 L1329.20 1469.45 L1340.71 1469.45 L1340.71 1467.35 L1352.09 1467.35 L1352.09 1464.01 L1363.60 1464.01 L1363.60 1460.79 L1375.11 1460.79 L1375.11 1458.69 L1386.49 1458.69 L1386.49 1456.71 L1398.00 1456.71 L1398.00 1455.10 L1409.51 1455.10 L1409.51 1452.00 L1421.02 1452.00 L1421.02 1450.02 L1432.41 1450.02 L1432.41 1447.80 L1443.91 1447.80 L1443.91 1446.44 L1455.42 1446.44 L1455.42 1444.46 L1466.81 1444.46 L1466.81 1442.60 L1478.32 1442.60 L1478.32 1440.25 L1489.83 1440.25 L1489.83 1438.27 L1501.34 1438.27 L1501.34 1436.53 L1512.72 1436.53 L1512.72 1434.43 L1524.23 1434.43 L1524.23 1432.08 L1535.74 1432.08 L1535.74 1430.35 L1547.12 1430.35 L1547.12 1428.61 L1558.63 1428.61 L1558.63 1426.88 L1570.14 1426.88 L1570.14 1425.52 L1581.53 1425.52 L1581.53 1422.92 L1593.03 1422.92 L1593.03 1420.69 L1604.54 1420.69 L1604.54 1418.71 L1616.05 1418.71 L1616.05 1416.73 L1627.44 1416.73 L1627.44 1414.38 L1638.94 1414.38 L1638.94 1412.65 L1650.45 1412.65 L1650.45 1410.92 L1661.84 1410.92 L1661.84 1408.57 L1673.35 1408.57 L1673.35 1406.09 L1684.86 1406.09 L1684.86 1404.73 L1696.24 1404.73 L1696.24 1401.76 L1707.75 1401.76 L1707.75 1399.53 L1719.26 1399.53 L1719.26 1397.18 L1730.77 1397.18 L1730.77 1396.19 L1742.15 1396.19 L1742.15 1394.21 L1753.66 1394.21 L1753.66 1392.48 L1765.17 1392.48 L1765.17 1389.76 L1776.56 1389.76 L1776.56 1388.52 L1788.06 1388.52 L1788.06 1386.29 L1799.57 1386.29 L1799.57 1384.56 L1810.96 1384.56 L1810.96 1382.33 L1822.47 1382.33 L1822.47 1380.72 L1833.97 1380.72 L1833.97 1379.48 L1845.48 1379.48 L1845.48 1377.26 L1856.87 1377.26 L1856.87 1375.40 L1868.38 1375.40 L1868.38 1373.30 L1879.89 1373.30 L1879.89 1370.70 L1891.27 1370.70 L1891.27 1368.59 L1902.78 1368.59 L1902.78 1366.49 L1914.29 1366.49 L1914.29 1364.26 L1925.67 1364.26 L1925.67 1362.41 L1937.18 1362.41 L1937.18 1360.67 L1948.69 1360.67 L1948.69 1359.56 L1960.20 1359.56 L1960.20 1357.95 L1971.59 1357.95 L1971.59 1356.84 L1983.09 1356.84 L1983.09 1354.36 L1994.60 1354.36 L1994.60 1352.38 L2005.99 1352.38 L2005.99 1350.77 L2017.50 1350.77 L2017.50 1348.67 L2029.01 1348.67 L2029.01 1347.68 L2040.51 1347.68 L2040.51 1345.70 L2051.90 1345.70 L2051.90 1343.84 L2063.41 1343.84 L2063.41 1341.24 L2074.92 1341.24 L2074.92 1339.26 L2086.30 1339.26 L2086.30 1337.16 L2097.81 1337.16 L2097.81 1334.44 L2109.32 1334.44 L2109.32 1333.57 L2120.70 1333.57 L2120.70 1332.58 L2132.21 1332.58 L2132.21 1331.22 L2143.72 1331.22 L2143.72 1329.61 L2155.23 1329.61 L2155.23 1327.88 L2166.61 1327.88 L2166.61 1325.90 L2178.12 1325.90 L2178.12 1324.79 L2189.63 1324.79 L2189.63 1322.31 L2201.02 1322.31 L2201.02 1320.45 L2212.53 1320.45 L2212.53 1319.09 L2224.03 1319.09 L2224.03 1317.85 L2235.42 1317.85 L2235.42 1316.86 L2246.93 1316.86 L2246.93 1314.64 L2258.44 1314.64 L2258.44 1314.14 L2269.95 1314.14 L2269.95 1311.91 L2281.33 1311.91 L2281.33 1310.92 L2292.84 1310.92 L2292.84 1309.69 L2304.35 1309.69 L2304.35 1308.08 L2315.73 1308.08 L2315.73 1307.09 L2327.24 1307.09 L2327.24 1304.49 L2338.75 1304.49 L2338.75 1303.00 L2350.14 1303.00 L2350.14 1302.26 L2361.64 1302.26 L2361.64 1300.53 L2373.15 1300.53 L2373.15 1299.17 L2384.66 1299.17 L2384.66 1297.81 L2396.05 1297.81 L2396.05 1297.06 L2407.56 1297.06 L2407.56 1296.20 L2419.07 1296.20 L2419.07 1294.34 L2430.45 1294.34 L2430.45 1292.98 L2441.96 1292.98 L2441.96 1291.87 L2453.47 1291.87 L2453.47 1290.38 L2464.98 1290.38 L2464.98 1289.89 L2476.36 1289.89 L2476.36 1288.53 L2487.87 1288.53 L2487.87 1287.04 L2499.38 1287.04 L2499.38 1286.05 L2510.76 1286.05 L2510.76 1285.80 L2522.27 1285.80 L2522.27 1283.95 L2533.78 1283.95 L2533.78 1281.72 L2545.17 1281.72 L2545.17 1280.61 L2556.68 1280.61 L2556.68 1279.99 L2568.18 1279.99 L2568.18 1278.62 L2579.69 1278.62 L2579.69 1277.63 L2591.08 1277.63 L2591.08 1276.52 L2602.59 1276.52 L2602.59 1275.41 L2614.09 1275.41 L2614.09 1275.04 L2625.48 1275.04 L2625.48 1273.18 L2636.99 1273.18 L2636.99 1273.18 L2648.50 1273.18 L2648.50 1271.57 L2659.88 1271.57 L2659.88 1270.95 L2671.39 1270.95 L2671.39 1268.72 L2682.90 1268.72 L2682.90 1266.37 L2694.41 1266.37 L2694.41 1265.51 L2705.79 1265.51 L2705.79 1263.53 L2717.30 1263.53 L2717.30 1261.18 L2728.81 1261.18 L2728.81 1259.81 L2740.20 1259.81 L2740.20 1259.81 L2751.70 1259.81 L2751.70 1257.96 L2763.21 1257.96 L2763.21 1257.96 L2774.60 1257.96 L2774.60 1257.96 L2786.11 1257.96 L2786.11 1257.96 L2797.62 1257.96 L2797.62 1257.96 L2809.12 1257.96 L2809.12 1257.96 L2820.51 1257.96 L2820.51 1257.96 L2832.02 1257.96 L2832.02 1257.96 L2843.53 1257.96 L2843.53 1257.96 L2854.91 1257.96 L2854.91 1257.96 L2866.42 1257.96 L2866.42 1257.96 L2877.93 1257.96 L2877.93 1257.96 L2889.44 1257.96 L2889.44 1257.96 L2900.82 1257.96 L2900.82 1234.69 L2912.33 1234.69 L2912.33 1234.69 L2923.84 1234.69 L2923.84 1234.69 L2935.23 1234.69 L2935.23 1234.69 L2946.74 1234.69 L2946.74 1234.69 L2958.24 1234.69 L2958.24 1234.69 L2969.63 1234.69 L2969.63 1234.69 L2981.14 1234.69 L2981.14 1234.69 L2992.65 1234.69 L2992.65 1234.69 L3004.16 1234.69 L3004.16 1234.69 L3015.54 1234.69 L3015.54 1234.69 L3027.05 1234.69 L3027.05 1234.69 L3038.56 1234.69 L3038.56 1234.69 L3072.96 1234.69 L3072.96 1234.69 L3095.85 1234.69 L3095.85 1234.69 L3256.48 1234.69 L3256.48 1234.69 L3290.88 1234.69 L3290.88 1234.69" stroke-linejoin="round" style="fill:none;stroke:#1A476F;stroke-width:8.64"/>
	<path d=" M354.05 1890.34 L354.05 1890.34 L354.05 1890.34 L354.05 1890.34 L354.05 1890.34 L359.87 1890.34 L359.87 1875.98 L365.56 1875.98 L365.56 1862.25 L377.07 1862.25 L377.07 1848.02 L388.45 1848.02 L388.45 1836.75 L399.96 1836.75 L399.96 1824.87 L411.47 1824.87 L411.47 1812.99 L422.85 1812.99 L422.85 1802.10 L434.36 1802.10 L434.36 1793.19 L445.87 1793.19 L445.87 1784.53 L457.38 1784.53 L457.38 1775.74 L468.76 1775.74 L468.76 1766.71 L480.27 1766.71 L480.27 1760.65 L491.78 1760.65 L491.78 1752.60 L503.17 1752.60 L503.17 1744.31 L514.68 1744.31 L514.68 1736.76 L526.18 1736.76 L526.18 1729.34 L537.57 1729.34 L537.57 1722.16 L549.08 1722.16 L549.08 1717.08 L560.59 1717.08 L560.59 1710.53 L572.10 1710.53 L572.10 1703.84 L583.48 1703.84 L583.48 1697.04 L594.99 1697.04 L594.99 1690.85 L606.50 1690.85 L606.50 1685.65 L617.88 1685.65 L617.88 1679.46 L629.39 1679.46 L629.39 1674.14 L640.90 1674.14 L640.90 1669.07 L652.41 1669.07 L652.41 1663.50 L663.79 1663.50 L663.79 1657.56 L675.30 1657.56 L675.30 1650.88 L686.81 1650.88 L686.81 1645.93 L698.20 1645.93 L698.20 1640.61 L709.71 1640.61 L709.71 1634.91 L721.22 1634.91 L721.22 1631.82 L732.60 1631.82 L732.60 1625.14 L744.11 1625.14 L744.11 1620.68 L755.62 1620.68 L755.62 1615.98 L767.13 1615.98 L767.13 1611.28 L778.51 1611.28 L778.51 1606.33 L790.02 1606.33 L790.02 1601.99 L801.53 1601.99 L801.53 1597.79 L812.91 1597.79 L812.91 1593.83 L824.42 1593.83 L824.42 1590.48 L835.93 1590.48 L835.93 1587.02 L847.32 1587.02 L847.32 1584.42 L858.83 1584.42 L858.83 1579.59 L870.33 1579.59 L870.33 1576.13 L881.84 1576.13 L881.84 1573.28 L893.23 1573.28 L893.23 1568.83 L904.74 1568.83 L904.74 1565.24 L916.25 1565.24 L916.25 1560.91 L927.63 1560.91 L927.63 1556.70 L939.14 1556.70 L939.14 1552.99 L950.65 1552.99 L950.65 1550.64 L962.03 1550.64 L962.03 1546.80 L973.54 1546.80 L973.54 1543.71 L985.05 1543.71 L985.05 1540.36 L996.56 1540.36 L996.56 1536.03 L1007.94 1536.03 L1007.94 1532.44 L1019.45 1532.44 L1019.45 1530.09 L1030.96 1530.09 L1030.96 1526.63 L1042.35 1526.63 L1042.35 1523.16 L1053.86 1523.16 L1053.86 1519.57 L1065.36 1519.57 L1065.36 1515.98 L1076.87 1515.98 L1076.87 1512.27 L1088.26 1512.27 L1088.26 1507.45 L1099.77 1507.45 L1099.77 1504.23 L1111.28 1504.23 L1111.28 1500.76 L1122.66 1500.76 L1122.66 1498.04 L1134.17 1498.04 L1134.17 1494.82 L1145.68 1494.82 L1145.68 1491.73 L1157.06 1491.73 L1157.06 1488.88 L1168.57 1488.88 L1168.57 1484.68 L1180.08 1484.68 L1180.08 1481.71 L1191.59 1481.71 L1191.59 1477.99 L1202.97 1477.99 L1202.97 1475.64 L1214.48 1475.64 L1214.48 1473.29 L1225.99 1473.29 L1225.99 1470.32 L1237.38 1470.32 L1237.38 1467.72 L1248.88 1467.72 L1248.88 1464.87 L1260.39 1464.87 L1260.39 1462.28 L1271.78 1462.28 L1271.78 1460.30 L1283.29 1460.30 L1283.29 1457.57 L1294.80 1457.57 L1294.80 1454.97 L1306.31 1454.97 L1306.31 1452.50 L1317.69 1452.50 L1317.69 1449.28 L1329.20 1449.28 L1329.20 1447.55 L1340.71 1447.55 L1340.71 1444.46 L1352.09 1444.46 L1352.09 1442.10 L1363.60 1442.10 L1363.60 1439.38 L1375.11 1439.38 L1375.11 1436.41 L1386.49 1436.41 L1386.49 1433.81 L1398.00 1433.81 L1398.00 1431.09 L1409.51 1431.09 L1409.51 1428.61 L1421.02 1428.61 L1421.02 1426.76 L1432.41 1426.76 L1432.41 1423.54 L1443.91 1423.54 L1443.91 1421.07 L1455.42 1421.07 L1455.42 1417.85 L1466.81 1417.85 L1466.81 1415.00 L1478.32 1415.00 L1478.32 1412.28 L1489.83 1412.28 L1489.83 1409.43 L1501.34 1409.43 L1501.34 1406.71 L1512.72 1406.71 L1512.72 1404.36 L1524.23 1404.36 L1524.23 1402.13 L1535.74 1402.13 L1535.74 1399.78 L1547.12 1399.78 L1547.12 1397.55 L1558.63 1397.55 L1558.63 1395.70 L1570.14 1395.70 L1570.14 1393.59 L1581.53 1393.59 L1581.53 1390.87 L1593.03 1390.87 L1593.03 1388.77 L1604.54 1388.77 L1604.54 1386.04 L1616.05 1386.04 L1616.05 1383.07 L1627.44 1383.07 L1627.44 1380.60 L1638.94 1380.60 L1638.94 1378.49 L1650.45 1378.49 L1650.45 1375.65 L1661.84 1375.65 L1661.84 1373.05 L1673.35 1373.05 L1673.35 1370.45 L1684.86 1370.45 L1684.86 1368.22 L1696.24 1368.22 L1696.24 1364.88 L1707.75 1364.88 L1707.75 1362.04 L1719.26 1362.04 L1719.26 1360.30 L1730.77 1360.30 L1730.77 1358.45 L1742.15 1358.45 L1742.15 1356.22 L1753.66 1356.22 L1753.66 1355.35 L1765.17 1355.35 L1765.17 1353.25 L1776.56 1353.25 L1776.56 1351.39 L1788.06 1351.39 L1788.06 1349.54 L1799.57 1349.54 L1799.57 1347.56 L1810.96 1347.56 L1810.96 1345.45 L1822.47 1345.45 L1822.47 1343.10 L1833.97 1343.10 L1833.97 1340.01 L1845.48 1340.01 L1845.48 1337.16 L1856.87 1337.16 L1856.87 1335.43 L1868.38 1335.43 L1868.38 1332.58 L1879.89 1332.58 L1879.89 1330.23 L1891.27 1330.23 L1891.27 1329.12 L1902.78 1329.12 L1902.78 1327.01 L1914.29 1327.01 L1914.29 1324.91 L1925.67 1324.91 L1925.67 1324.29 L1937.18 1324.29 L1937.18 1322.19 L1948.69 1322.19 L1948.69 1320.45 L1960.20 1320.45 L1960.20 1318.23 L1971.59 1318.23 L1971.59 1316.25 L1983.09 1316.25 L1983.09 1313.65 L1994.60 1313.65 L1994.60 1312.04 L2005.99 1312.04 L2005.99 1310.18 L2017.50 1310.18 L2017.50 1308.20 L2029.01 1308.20 L2029.01 1305.85 L2040.51 1305.85 L2040.51 1304.37 L2051.90 1304.37 L2051.90 1302.63 L2063.41 1302.63 L2063.41 1301.15 L2074.92 1301.15 L2074.92 1298.55 L2086.30 1298.55 L2086.30 1296.94 L2097.81 1296.94 L2097.81 1294.96 L2109.32 1294.96 L2109.32 1293.48 L2120.70 1293.48 L2120.70 1290.88 L2132.21 1290.88 L2132.21 1289.14 L2143.72 1289.14 L2143.72 1287.54 L2155.23 1287.54 L2155.23 1285.31 L2166.61 1285.31 L2166.61 1283.08 L2178.12 1283.08 L2178.12 1281.47 L2189.63 1281.47 L2189.63 1278.87 L2201.02 1278.87 L2201.02 1276.89 L2212.53 1276.89 L2212.53 1275.53 L2224.03 1275.53 L2224.03 1273.43 L2235.42 1273.43 L2235.42 1271.69 L2246.93 1271.69 L2246.93 1269.71 L2258.44 1269.71 L2258.44 1268.23 L2269.95 1268.23 L2269.95 1266.50 L2281.33 1266.50 L2281.33 1264.15 L2292.84 1264.15 L2292.84 1262.17 L2304.35 1262.17 L2304.35 1260.31 L2315.73 1260.31 L2315.73 1259.07 L2327.24 1259.07 L2327.24 1258.08 L2338.75 1258.08 L2338.75 1255.73 L2350.14 1255.73 L2350.14 1253.50 L2361.64 1253.50 L2361.64 1250.90 L2373.15 1250.90 L2373.15 1249.30 L2384.66 1249.30 L2384.66 1247.19 L2396.05 1247.19 L2396.05 1244.84 L2407.56 1244.84 L2407.56 1242.98 L2419.07 1242.98 L2419.07 1241.50 L2430.45 1241.50 L2430.45 1240.26 L2441.96 1240.26 L2441.96 1238.65 L2453.47 1238.65 L2453.47 1237.66 L2464.98 1237.66 L2464.98 1235.68 L2476.36 1235.68 L2476.36 1233.83 L2487.87 1233.83 L2487.87 1232.09 L2499.38 1232.09 L2499.38 1231.10 L2510.76 1231.10 L2510.76 1229.49 L2522.27 1229.49 L2522.27 1228.01 L2533.78 1228.01 L2533.78 1226.77 L2545.17 1226.77 L2545.17 1225.04 L2556.68 1225.04 L2556.68 1223.80 L2568.18 1223.80 L2568.18 1221.95 L2579.69 1221.95 L2579.69 1220.21 L2591.08 1220.21 L2591.08 1219.35 L2602.59 1219.35 L2602.59 1218.60 L2614.09 1218.60 L2614.09 1216.87 L2625.48 1216.87 L2625.48 1215.14 L2636.99 1215.14 L2636.99 1213.53 L2648.50 1213.53 L2648.50 1212.42 L2659.88 1212.42 L2659.88 1211.30 L2671.39 1211.30 L2671.39 1209.32 L2682.90 1209.32 L2682.90 1208.58 L2694.41 1208.58 L2694.41 1207.10 L2705.79 1207.10 L2705.79 1205.86 L2717.30 1205.86 L2717.30 1204.62 L2728.81 1204.62 L2728.81 1203.14 L2740.20 1203.14 L2740.20 1201.65 L2751.70 1201.65 L2751.70 1199.79 L2763.21 1199.79 L2763.21 1197.57 L2774.60 1197.57 L2774.60 1196.20 L2786.11 1196.20 L2786.11 1194.84 L2797.62 1194.84 L2797.62 1193.85 L2809.12 1193.85 L2809.12 1191.63 L2820.51 1191.63 L2820.51 1190.39 L2832.02 1190.39 L2832.02 1189.03 L2843.53 1189.03 L2843.53 1187.42 L2854.91 1187.42 L2854.91 1185.93 L2866.42 1185.93 L2866.42 1184.08 L2877.93 1184.08 L2877.93 1182.84 L2889.44 1182.84 L2889.44 1181.35 L2900.82 1181.35 L2900.82 1179.99 L2912.33 1179.99 L2912.33 1177.89 L2923.84 1177.89 L2923.84 1176.28 L2935.23 1176.28 L2935.23 1174.42 L2946.74 1174.42 L2946.74 1171.95 L2958.24 1171.95 L2958.24 1169.97 L2969.63 1169.97 L2969.63 1168.73 L2981.14 1168.73 L2981.14 1167.25 L2992.65 1167.25 L2992.65 1165.51 L3004.16 1165.51 L3004.16 1164.40 L3015.54 1164.40 L3015.54 1162.54 L3027.05 1162.54 L3027.05 1161.55 L3038.56 1161.55 L3038.56 1160.07 L3049.94 1160.07 L3049.94 1158.46 L3061.45 1158.46 L3061.45 1157.10 L3072.96 1157.10 L3072.96 1155.24 L3084.34 1155.24 L3084.34 1153.39 L3095.85 1153.39 L3095.85 1152.15 L3107.36 1152.15 L3107.36 1149.92 L3118.87 1149.92 L3118.87 1148.44 L3130.26 1148.44 L3130.26 1146.08 L3141.76 1146.08 L3141.76 1144.48 L3153.27 1144.48 L3153.27 1143.36 L3164.66 1143.36 L3164.66 1142.12 L3176.17 1142.12 L3176.17 1141.13 L3187.68 1141.13 L3187.68 1139.53 L3199.06 1139.53 L3199.06 1138.04 L3210.57 1138.04 L3210.57 1137.05 L3222.08 1137.05 L3222.08 1135.69 L3233.59 1135.69 L3233.59 1134.82 L3244.97 1134.82 L3244.97 1132.97 L3256.48 1132.97 L3256.48 1130.74 L3267.99 1130.74 L3267.99 1129.25 L3279.38 1129.25 L3279.38 1127.65 L3290.88 1127.65 L3290.88 1125.67 L3302.39 1125.67 L3302.39 1123.93 L3313.78 1123.93 L3313.78 1121.71 L3325.29 1121.71 L3325.29 1119.60 L3336.80 1119.60 L3336.80 1118.24 L3348.30 1118.24 L3348.30 1117.62 L3359.69 1117.62 L3359.69 1116.01 L3371.20 1116.01 L3371.20 1114.16 L3382.71 1114.16 L3382.71 1113.04 L3394.09 1113.04 L3394.09 1110.57 L3405.60 1110.57 L3405.60 1108.71" stroke-linejoin="round" style="fill:none;stroke:#90353B;stroke-width:8.64"/>
	<path d=" M354.05 1890.34 L354.05 1890.34 L354.05 1890.34 L354.05 1890.34 L354.05 1890.34 L359.87 1890.34 L359.87 1887.74 L365.56 1887.74 L365.56 1884.90 L377.07 1884.90 L377.07 1882.30 L388.45 1882.30 L388.45 1879.94 L399.96 1879.94 L399.96 1877.72 L411.47 1877.72 L411.47 1876.11 L422.85 1876.11 L422.85 1874.13 L434.36 1874.13 L434.36 1871.78 L445.87 1871.78 L445.87 1868.93 L457.38 1868.93 L457.38 1866.70 L468.76 1866.70 L468.76 1864.72 L480.27 1864.72 L480.27 1862.50 L491.78 1862.50 L491.78 1860.76 L503.17 1860.76 L503.17 1859.03 L514.68 1859.03 L514.68 1857.30 L526.18 1857.30 L526.18 1855.07 L537.57 1855.07 L537.57 1852.84 L549.08 1852.84 L549.08 1850.62 L560.59 1850.62 L560.59 1849.38 L572.10 1849.38 L572.10 1847.89 L583.48 1847.89 L583.48 1846.04 L594.99 1846.04 L594.99 1844.30 L606.50 1844.30 L606.50 1842.32 L617.88 1842.32 L617.88 1840.47 L629.39 1840.47 L629.39 1838.61 L640.90 1838.61 L640.90 1836.51 L652.41 1836.51 L652.41 1835.27 L663.79 1835.27 L663.79 1833.78 L675.30 1833.78 L675.30 1831.43 L686.81 1831.43 L686.81 1829.70 L698.20 1829.70 L698.20 1827.84 L709.71 1827.84 L709.71 1826.24 L721.22 1826.24 L721.22 1824.75 L732.60 1824.75 L732.60 1823.27 L744.11 1823.27 L744.11 1821.90 L755.62 1821.90 L755.62 1820.54 L767.13 1820.54 L767.13 1818.32 L778.51 1818.32 L778.51 1816.46 L790.02 1816.46 L790.02 1814.73 L801.53 1814.73 L801.53 1813.37 L812.91 1813.37 L812.91 1811.88 L824.42 1811.88 L824.42 1810.77 L835.93 1810.77 L835.93 1809.16 L847.32 1809.16 L847.32 1807.30 L858.83 1807.30 L858.83 1805.69 L870.33 1805.69 L870.33 1803.71 L881.84 1803.71 L881.84 1801.98 L893.23 1801.98 L893.23 1800.12 L904.74 1800.12 L904.74 1799.13 L916.25 1799.13 L916.25 1797.52 L927.63 1797.52 L927.63 1795.67 L939.14 1795.67 L939.14 1793.94 L950.65 1793.94 L950.65 1792.57 L962.03 1792.57 L962.03 1791.46 L973.54 1791.46 L973.54 1789.98 L985.05 1789.98 L985.05 1788.86 L996.56 1788.86 L996.56 1787.87 L1007.94 1787.87 L1007.94 1786.14 L1019.45 1786.14 L1019.45 1784.28 L1030.96 1784.28 L1030.96 1782.67 L1042.35 1782.67 L1042.35 1781.19 L1053.86 1781.19 L1053.86 1779.83 L1065.36 1779.83 L1065.36 1778.71 L1076.87 1778.71 L1076.87 1776.73 L1088.26 1776.73 L1088.26 1775.25 L1099.77 1775.25 L1099.77 1773.76 L1111.28 1773.76 L1111.28 1772.28 L1122.66 1772.28 L1122.66 1771.04 L1134.17 1771.04 L1134.17 1769.80 L1145.68 1769.80 L1145.68 1768.20 L1157.06 1768.20 L1157.06 1766.22 L1168.57 1766.22 L1168.57 1764.61 L1180.08 1764.61 L1180.08 1762.87 L1191.59 1762.87 L1191.59 1761.27 L1202.97 1761.27 L1202.97 1760.03 L1214.48 1760.03 L1214.48 1758.91 L1225.99 1758.91 L1225.99 1757.68 L1237.38 1757.68 L1237.38 1755.82 L1248.88 1755.82 L1248.88 1753.96 L1260.39 1753.96 L1260.39 1752.11 L1271.78 1752.11 L1271.78 1750.62 L1283.29 1750.62 L1283.29 1749.26 L1294.80 1749.26 L1294.80 1748.02 L1306.31 1748.02 L1306.31 1746.91 L1317.69 1746.91 L1317.69 1745.42 L1329.20 1745.42 L1329.20 1743.94 L1340.71 1743.94 L1340.71 1742.58 L1352.09 1742.58 L1352.09 1741.34 L1363.60 1741.34 L1363.60 1740.10 L1375.11 1740.10 L1375.11 1738.49 L1386.49 1738.49 L1386.49 1737.38 L1398.00 1737.38 L1398.00 1735.52 L1409.51 1735.52 L1409.51 1734.04 L1421.02 1734.04 L1421.02 1732.80 L1432.41 1732.80 L1432.41 1731.19 L1443.91 1731.19 L1443.91 1729.96 L1455.42 1729.96 L1455.42 1728.97 L1466.81 1728.97 L1466.81 1728.10 L1478.32 1728.10 L1478.32 1726.37 L1489.83 1726.37 L1489.83 1725.25 L1501.34 1725.25 L1501.34 1723.89 L1512.72 1723.89 L1512.72 1722.90 L1524.23 1722.90 L1524.23 1721.42 L1535.74 1721.42 L1535.74 1720.18 L1547.12 1720.18 L1547.12 1719.31 L1558.63 1719.31 L1558.63 1718.07 L1570.14 1718.07 L1570.14 1716.71 L1581.53 1716.71 L1581.53 1715.35 L1593.03 1715.35 L1593.03 1713.62 L1604.54 1713.62 L1604.54 1712.01 L1616.05 1712.01 L1616.05 1710.90 L1627.44 1710.90 L1627.44 1709.66 L1638.94 1709.66 L1638.94 1708.42 L1650.45 1708.42 L1650.45 1707.18 L1661.84 1707.18 L1661.84 1705.58 L1673.35 1705.58 L1673.35 1704.09 L1684.86 1704.09 L1684.86 1702.85 L1696.24 1702.85 L1696.24 1702.11 L1707.75 1702.11 L1707.75 1701.12 L1719.26 1701.12 L1719.26 1700.13 L1730.77 1700.13 L1730.77 1698.77 L1742.15 1698.77 L1742.15 1697.04 L1753.66 1697.04 L1753.66 1696.05 L1765.17 1696.05 L1765.17 1694.69 L1776.56 1694.69 L1776.56 1693.70 L1788.06 1693.70 L1788.06 1692.83 L1799.57 1692.83 L1799.57 1691.10 L1810.96 1691.10 L1810.96 1689.98 L1822.47 1689.98 L1822.47 1688.50 L1833.97 1688.50 L1833.97 1687.26 L1845.48 1687.26 L1845.48 1686.27 L1856.87 1686.27 L1856.87 1685.16 L1868.38 1685.16 L1868.38 1684.29 L1879.89 1684.29 L1879.89 1682.81 L1891.27 1682.81 L1891.27 1681.57 L1902.78 1681.57 L1902.78 1680.45 L1914.29 1680.45 L1914.29 1679.09 L1925.67 1679.09 L1925.67 1677.85 L1937.18 1677.85 L1937.18 1676.62 L1948.69 1676.62 L1948.69 1675.75 L1960.20 1675.75 L1960.20 1674.76 L1971.59 1674.76 L1971.59 1673.52 L1983.09 1673.52 L1983.09 1672.04 L1994.60 1672.04 L1994.60 1670.92 L2005.99 1670.92 L2005.99 1669.81 L2017.50 1669.81 L2017.50 1668.45 L2029.01 1668.45 L2029.01 1667.46 L2040.51 1667.46 L2040.51 1666.59 L2051.90 1666.59 L2051.90 1665.11 L2063.41 1665.11 L2063.41 1663.75 L2074.92 1663.75 L2074.92 1662.63 L2086.30 1662.63 L2086.30 1661.15 L2097.81 1661.15 L2097.81 1659.91 L2109.32 1659.91 L2109.32 1659.04 L2120.70 1659.04 L2120.70 1657.68 L2132.21 1657.68 L2132.21 1656.57 L2143.72 1656.57 L2143.72 1655.21 L2155.23 1655.21 L2155.23 1654.22 L2166.61 1654.22 L2166.61 1653.35 L2178.12 1653.35 L2178.12 1652.49 L2189.63 1652.49 L2189.63 1651.62 L2201.02 1651.62 L2201.02 1650.26 L2212.53 1650.26 L2212.53 1649.14 L2224.03 1649.14 L2224.03 1647.78 L2235.42 1647.78 L2235.42 1646.42 L2246.93 1646.42 L2246.93 1645.06 L2258.44 1645.06 L2258.44 1644.19 L2269.95 1644.19 L2269.95 1643.45 L2281.33 1643.45 L2281.33 1641.97 L2292.84 1641.97 L2292.84 1640.61 L2304.35 1640.61 L2304.35 1638.75 L2315.73 1638.75 L2315.73 1637.63 L2327.24 1637.63 L2327.24 1636.77 L2338.75 1636.77 L2338.75 1635.90 L2350.14 1635.90 L2350.14 1634.91 L2361.64 1634.91 L2361.64 1633.18 L2373.15 1633.18 L2373.15 1632.07 L2384.66 1632.07 L2384.66 1630.95 L2396.05 1630.95 L2396.05 1629.96 L2407.56 1629.96 L2407.56 1628.48 L2419.07 1628.48 L2419.07 1627.73 L2430.45 1627.73 L2430.45 1626.74 L2441.96 1626.74 L2441.96 1625.14 L2453.47 1625.14 L2453.47 1623.53 L2464.98 1623.53 L2464.98 1621.92 L2476.36 1621.92 L2476.36 1620.56 L2487.87 1620.56 L2487.87 1619.20 L2499.38 1619.20 L2499.38 1618.33 L2510.76 1618.33 L2510.76 1617.96 L2522.27 1617.96 L2522.27 1616.72 L2533.78 1616.72 L2533.78 1615.48 L2545.17 1615.48 L2545.17 1614.37 L2556.68 1614.37 L2556.68 1613.13 L2568.18 1613.13 L2568.18 1612.02 L2579.69 1612.02 L2579.69 1611.40 L2591.08 1611.40 L2591.08 1611.15 L2602.59 1611.15 L2602.59 1609.67 L2614.09 1609.67 L2614.09 1608.55 L2625.48 1608.55 L2625.48 1607.81 L2636.99 1607.81 L2636.99 1606.57 L2648.50 1606.57 L2648.50 1605.83 L2659.88 1605.83 L2659.88 1604.96 L2671.39 1604.96 L2671.39 1604.47 L2682.90 1604.47 L2682.90 1603.60 L2694.41 1603.60 L2694.41 1602.24 L2705.79 1602.24 L2705.79 1601.13 L2717.30 1601.13 L2717.30 1599.77 L2728.81 1599.77 L2728.81 1598.65 L2740.20 1598.65 L2740.20 1598.28 L2751.70 1598.28 L2751.70 1597.66 L2763.21 1597.66 L2763.21 1597.04 L2774.60 1597.04 L2774.60 1596.05 L2786.11 1596.05 L2786.11 1595.06 L2797.62 1595.06 L2797.62 1593.83 L2809.12 1593.83 L2809.12 1592.84 L2820.51 1592.84 L2820.51 1592.09 L2832.02 1592.09 L2832.02 1590.73 L2843.53 1590.73 L2843.53 1588.63 L2854.91 1588.63 L2854.91 1588.01 L2866.42 1588.01 L2866.42 1587.39 L2877.93 1587.39 L2877.93 1586.52 L2889.44 1586.52 L2889.44 1584.54 L2900.82 1584.54 L2900.82 1583.31 L2912.33 1583.31 L2912.33 1582.69 L2923.84 1582.69 L2923.84 1582.19 L2946.74 1582.19 L2946.74 1581.57 L2958.24 1581.57 L2958.24 1579.47 L2969.63 1579.47 L2969.63 1579.22 L2981.14 1579.22 L2981.14 1578.36 L2992.65 1578.36 L2992.65 1577.74 L3004.16 1577.74 L3004.16 1576.25 L3015.54 1576.25 L3015.54 1575.63 L3038.56 1575.63 L3038.56 1574.52 L3049.94 1574.52 L3049.94 1573.90 L3061.45 1573.90 L3061.45 1573.41 L3072.96 1573.41 L3072.96 1572.42 L3084.34 1572.42 L3084.34 1570.68 L3095.85 1570.68 L3095.85 1570.44 L3107.36 1570.44 L3107.36 1570.07 L3118.87 1570.07 L3118.87 1568.33 L3130.26 1568.33 L3130.26 1567.22 L3141.76 1567.22 L3141.76 1566.60 L3153.27 1566.60 L3153.27 1565.36 L3164.66 1565.36 L3164.66 1564.25 L3176.17 1564.25 L3176.17 1563.01 L3405.60 1563.01 L3405.60 1516.48 L3497.42 1516.48 L3497.42 1516.48" stroke-linejoin="round" style="fill:none;stroke:#55752F;stroke-width:8.64"/>
	<line x1="290.81" y1="1953.70" x2="290.81" y2="100.86" style="stroke:#000000;stroke-width:5.76"/>
	<line x1="290.81" y1="1890.34" x2="250.84" y2="1890.34" style="stroke:#000000;stroke-width:5.76"/>
	<text x="200.73" y="1890.34" style="font-family:'Helvetica';font-size:99.99px;fill:#000000" transform="rotate(-90 200.73,1890.34)" text-anchor="middle">0.00</text>
	<line x1="290.81" y1="1458.81" x2="250.84" y2="1458.81" style="stroke:#000000;stroke-width:5.76"/>
	<text x="200.73" y="1458.81" style="font-family:'Helvetica';font-size:99.99px;fill:#000000" transform="rotate(-90 200.73,1458.81)" text-anchor="middle">0.25</text>
	<line x1="290.81" y1="1027.28" x2="250.84" y2="1027.28" style="stroke:#000000;stroke-width:5.76"/>
	<text x="200.73" y="1027.28" style="font-family:'Helvetica';font-size:99.99px;fill:#000000" transform="rotate(-90 200.73,1027.28)" text-anchor="middle">0.50</text>
	<line x1="290.81" y1="595.75" x2="250.84" y2="595.75" style="stroke:#000000;stroke-width:5.76"/>
	<text x="200.73" y="595.75" style="font-family:'Helvetica';font-size:99.99px;fill:#000000" transform="rotate(-90 200.73,595.75)" text-anchor="middle">0.75</text>
	<line x1="290.81" y1="164.22" x2="250.84" y2="164.22" style="stroke:#000000;stroke-width:5.76"/>
	<text x="200.73" y="164.22" style="font-family:'Helvetica';font-size:99.99px;fill:#000000" transform="rotate(-90 200.73,164.22)" text-anchor="middle">1.00</text>
	<line x1="290.81" y1="1953.70" x2="3859.02" y2="1953.70" style="stroke:#000000;stroke-width:5.76"/>
	<line x1="354.17" y1="1953.70" x2="354.17" y2="1993.67" style="stroke:#000000;stroke-width:5.76"/>
	<text x="354.17" y="2083.66" style="font-family:'Helvetica';font-size:99.99px;fill:#000000" text-anchor="middle">0</text>
	<line x1="1501.34" y1="1953.70" x2="1501.34" y2="1993.67" style="stroke:#000000;stroke-width:5.76"/>
	<text x="1501.34" y="2083.66" style="font-family:'Helvetica';font-size:99.99px;fill:#000000" text-anchor="middle">100</text>
	<line x1="2648.50" y1="1953.70" x2="2648.50" y2="1993.67" style="stroke:#000000;stroke-width:5.76"/>
	<text x="2648.50" y="2083.66" style="font-family:'Helvetica';font-size:99.99px;fill:#000000" text-anchor="middle">200</text>
	<line x1="3795.66" y1="1953.70" x2="3795.66" y2="1993.67" style="stroke:#000000;stroke-width:5.76"/>
	<text x="3795.66" y="2083.66" style="font-family:'Helvetica';font-size:99.99px;fill:#000000" text-anchor="middle">300</text>
	<text x="2074.92" y="2193.67" style="font-family:'Helvetica';font-size:99.99px;fill:#000000" text-anchor="middle">Days from index date</text>
	<rect x="1057.57" y="2278.31" width="2034.82" height="466.30" style="fill:#FFFFFF"/>
	<rect x="1060.45" y="2281.19" width="2029.06" height="460.54" style="fill:none;stroke:#000000;stroke-width:5.76"/>
	<line x1="1100.76" y1="2371.50" x2="1475.10" y2="2371.50" style="stroke:#1A476F;stroke-width:8.64"/>
	<line x1="1100.76" y1="2511.46" x2="1475.10" y2="2511.46" style="stroke:#90353B;stroke-width:8.64"/>
	<line x1="1100.76" y1="2651.43" x2="1475.10" y2="2651.43" style="stroke:#55752F;stroke-width:8.64"/>
	<text x="1535.12" y="2406.52" style="font-family:'Helvetica';font-size:99.99px;fill:#000000">group = Hospitalised COVID-19</text>
	<text x="1535.12" y="2546.49" style="font-family:'Helvetica';font-size:99.99px;fill:#000000">group = Hospitalised flu 2017_19</text>
	<text x="1535.12" y="2686.46" style="font-family:'Helvetica';font-size:99.99px;fill:#000000">group = General pop 2019</text>
</svg>
