<?xml version="1.0" encoding="UTF-8" standalone="no"?>
<!-- This is a Stata 16.1 generated SVG file (http://www.stata.com) -->

<svg version="1.1" width="5.50in" height="4.00in" viewBox="0 0 3960 2880" xmlns="http://www.w3.org/2000/svg" xmlns:xlink="http://www.w3.org/1999/xlink">
	<desc>Stata Graph - composite_agesex</desc>
	<rect x="0" y="0" width="3960" height="2880" style="fill:#EAF2F3;stroke:none"/>
	<rect x="0.00" y="0.00" width="3959.88" height="2880.00" style="fill:#EAF2F3"/>
	<rect x="2.88" y="2.88" width="3954.12" height="2874.24" style="fill:none;stroke:#EAF2F3;stroke-width:5.76"/>
	<rect x="290.81" y="100.86" width="3568.21" height="1852.84" style="fill:#FFFFFF"/>
	<rect x="293.69" y="103.74" width="3562.45" height="1847.08" style="fill:none;stroke:#FFFFFF;stroke-width:5.76"/>
	<line x1="290.81" y1="1890.34" x2="3859.02" y2="1890.34" style="stroke:#EAF2F3;stroke-width:8.64"/>
	<line x1="290.81" y1="1458.81" x2="3859.02" y2="1458.81" style="stroke:#EAF2F3;stroke-width:8.64"/>
	<line x1="290.81" y1="1027.28" x2="3859.02" y2="1027.28" style="stroke:#EAF2F3;stroke-width:8.64"/>
	<line x1="290.81" y1="595.75" x2="3859.02" y2="595.75" style="stroke:#EAF2F3;stroke-width:8.64"/>
	<path d=" M354.05 1890.34 L354.05 1890.34 L354.05 1890.34 L354.05 1890.34 L354.05 1890.34 L359.87 1890.34 L359.87 1873.39 L365.56 1873.39 L365.56 1858.54 L377.07 1858.54 L377.07 1846.90 L388.45 1846.90 L388.45 1834.53 L399.96 1834.53 L399.96 1824.75 L411.47 1824.75 L411.47 1814.60 L422.85 1814.60 L422.85 1805.94 L434.36 1805.94 L434.36 1795.67 L445.87 1795.67 L445.87 1788.12 L457.38 1788.12 L457.38 1779.33 L468.76 1779.33 L468.76 1770.79 L480.27 1770.79 L480.27 1762.87 L491.78 1762.87 L491.78 1755.82 L503.17 1755.82 L503.17 1748.89 L514.68 1748.89 L514.68 1743.07 L526.18 1743.07 L526.18 1737.26 L537.57 1737.26 L537.57 1730.70 L549.08 1730.70 L549.08 1725.01 L560.59 1725.01 L560.59 1720.43 L572.10 1720.43 L572.10 1714.61 L583.48 1714.61 L583.48 1710.15 L594.99 1710.15 L594.99 1706.19 L606.50 1706.19 L606.50 1702.23 L617.88 1702.23 L617.88 1698.77 L629.39 1698.77 L629.39 1692.71 L640.90 1692.71 L640.90 1686.77 L652.41 1686.77 L652.41 1680.58 L663.79 1680.58 L663.79 1675.38 L675.30 1675.38 L675.30 1670.92 L686.81 1670.92 L686.81 1667.34 L698.20 1667.34 L698.20 1662.88 L709.71 1662.88 L709.71 1659.54 L721.22 1659.54 L721.22 1655.46 L732.60 1655.46 L732.60 1651.12 L744.11 1651.12 L744.11 1645.56 L755.62 1645.56 L755.62 1642.34 L767.13 1642.34 L767.13 1638.75 L778.51 1638.75 L778.51 1635.65 L790.02 1635.65 L790.02 1632.44 L801.53 1632.44 L801.53 1629.59 L812.91 1629.59 L812.91 1626.50 L824.42 1626.50 L824.42 1623.40 L835.93 1623.40 L835.93 1620.19 L847.32 1620.19 L847.32 1616.97 L858.83 1616.97 L858.83 1613.26 L870.33 1613.26 L870.33 1611.15 L881.84 1611.15 L881.84 1608.43 L893.23 1608.43 L893.23 1603.97 L904.74 1603.97 L904.74 1601.13 L916.25 1601.13 L916.25 1597.04 L927.63 1597.04 L927.63 1594.57 L939.14 1594.57 L939.14 1590.86 L950.65 1590.86 L950.65 1587.51 L962.03 1587.51 L962.03 1584.79 L973.54 1584.79 L973.54 1581.33 L985.05 1581.33 L985.05 1578.23 L996.56 1578.23 L996.56 1574.89 L1007.94 1574.89 L1007.94 1571.67 L1019.45 1571.67 L1019.45 1568.70 L1030.96 1568.70 L1030.96 1565.73 L1042.35 1565.73 L1042.35 1562.64 L1053.86 1562.64 L1053.86 1559.42 L1065.36 1559.42 L1065.36 1556.58 L1076.87 1556.58 L1076.87 1553.23 L1088.26 1553.23 L1088.26 1550.26 L1099.77 1550.26 L1099.77 1548.16 L1111.28 1548.16 L1111.28 1546.68 L1122.66 1546.68 L1122.66 1544.45 L1134.17 1544.45 L1134.17 1541.11 L1145.68 1541.11 L1145.68 1538.38 L1157.06 1538.38 L1157.06 1536.16 L1168.57 1536.16 L1168.57 1534.05 L1180.08 1534.05 L1180.08 1531.21 L1191.59 1531.21 L1191.59 1529.10 L1202.97 1529.10 L1202.97 1527.00 L1214.48 1527.00 L1214.48 1524.52 L1225.99 1524.52 L1225.99 1522.54 L1237.38 1522.54 L1237.38 1519.82 L1248.88 1519.82 L1248.88 1516.60 L1260.39 1516.60 L1260.39 1514.00 L1271.78 1514.00 L1271.78 1511.16 L1283.29 1511.16 L1283.29 1507.69 L1294.80 1507.69 L1294.80 1505.47 L1306.31 1505.47 L1306.31 1503.36 L1317.69 1503.36 L1317.69 1500.14 L1329.20 1500.14 L1329.20 1498.04 L1340.71 1498.04 L1340.71 1495.94 L1352.09 1495.94 L1352.09 1492.72 L1363.60 1492.72 L1363.60 1489.75 L1375.11 1489.75 L1375.11 1487.52 L1386.49 1487.52 L1386.49 1485.67 L1398.00 1485.67 L1398.00 1484.18 L1409.51 1484.18 L1409.51 1481.09 L1421.02 1481.09 L1421.02 1479.23 L1432.41 1479.23 L1432.41 1477.13 L1443.91 1477.13 L1443.91 1475.76 L1455.42 1475.76 L1455.42 1473.78 L1466.81 1473.78 L1466.81 1472.05 L1478.32 1472.05 L1478.32 1469.70 L1489.83 1469.70 L1489.83 1467.84 L1501.34 1467.84 L1501.34 1466.11 L1512.72 1466.11 L1512.72 1464.13 L1524.23 1464.13 L1524.23 1461.78 L1535.74 1461.78 L1535.74 1460.17 L1547.12 1460.17 L1547.12 1458.44 L1558.63 1458.44 L1558.63 1456.71 L1570.14 1456.71 L1570.14 1455.47 L1581.53 1455.47 L1581.53 1452.87 L1593.03 1452.87 L1593.03 1450.64 L1604.54 1450.64 L1604.54 1448.91 L1616.05 1448.91 L1616.05 1446.93 L1627.44 1446.93 L1627.44 1444.58 L1638.94 1444.58 L1638.94 1442.85 L1650.45 1442.85 L1650.45 1441.11 L1661.84 1441.11 L1661.84 1438.89 L1673.35 1438.89 L1673.35 1436.41 L1684.86 1436.41 L1684.86 1435.05 L1696.24 1435.05 L1696.24 1432.20 L1707.75 1432.20 L1707.75 1430.10 L1719.26 1430.10 L1719.26 1427.75 L1730.77 1427.75 L1730.77 1426.76 L1742.15 1426.76 L1742.15 1424.78 L1753.66 1424.78 L1753.66 1423.05 L1765.17 1423.05 L1765.17 1420.32 L1776.56 1420.32 L1776.56 1419.21 L1788.06 1419.21 L1788.06 1416.98 L1799.57 1416.98 L1799.57 1415.37 L1810.96 1415.37 L1810.96 1413.15 L1822.47 1413.15 L1822.47 1411.54 L1833.97 1411.54 L1833.97 1410.30 L1845.48 1410.30 L1845.48 1408.07 L1856.87 1408.07 L1856.87 1406.34 L1868.38 1406.34 L1868.38 1404.24 L1879.89 1404.24 L1879.89 1401.76 L1891.27 1401.76 L1891.27 1399.66 L1902.78 1399.66 L1902.78 1397.55 L1914.29 1397.55 L1914.29 1395.20 L1925.67 1395.20 L1925.67 1393.47 L1937.18 1393.47 L1937.18 1391.74 L1948.69 1391.74 L1948.69 1390.75 L1960.20 1390.75 L1960.20 1389.01 L1971.59 1389.01 L1971.59 1388.02 L1983.09 1388.02 L1983.09 1385.55 L1994.60 1385.55 L1994.60 1383.57 L2005.99 1383.57 L2005.99 1381.96 L2017.50 1381.96 L2017.50 1379.86 L2029.01 1379.86 L2029.01 1378.87 L2040.51 1378.87 L2040.51 1376.89 L2051.90 1376.89 L2051.90 1375.03 L2063.41 1375.03 L2063.41 1372.43 L2074.92 1372.43 L2074.92 1370.57 L2086.30 1370.57 L2086.30 1368.35 L2097.81 1368.35 L2097.81 1365.62 L2109.32 1365.62 L2109.32 1364.76 L2120.70 1364.76 L2120.70 1363.77 L2132.21 1363.77 L2132.21 1362.41 L2143.72 1362.41 L2143.72 1360.92 L2155.23 1360.92 L2155.23 1359.19 L2166.61 1359.19 L2166.61 1357.08 L2178.12 1357.08 L2178.12 1355.97 L2189.63 1355.97 L2189.63 1353.50 L2201.02 1353.50 L2201.02 1351.52 L2212.53 1351.52 L2212.53 1350.28 L2224.03 1350.28 L2224.03 1348.92 L2235.42 1348.92 L2235.42 1347.93 L2246.93 1347.93 L2246.93 1345.70 L2258.44 1345.70 L2258.44 1345.20 L2269.95 1345.20 L2269.95 1342.98 L2281.33 1342.98 L2281.33 1341.86 L2292.84 1341.86 L2292.84 1340.63 L2304.35 1340.63 L2304.35 1339.02 L2315.73 1339.02 L2315.73 1337.90 L2327.24 1337.90 L2327.24 1335.30 L2338.75 1335.30 L2338.75 1333.82 L2350.14 1333.82 L2350.14 1332.95 L2361.64 1332.95 L2361.64 1331.22 L2373.15 1331.22 L2373.15 1329.86 L2384.66 1329.86 L2384.66 1328.37 L2396.05 1328.37 L2396.05 1327.51 L2407.56 1327.51 L2407.56 1326.64 L2419.07 1326.64 L2419.07 1324.66 L2430.45 1324.66 L2430.45 1323.30 L2441.96 1323.30 L2441.96 1322.19 L2453.47 1322.19 L2453.47 1320.58 L2464.98 1320.58 L2464.98 1320.08 L2476.36 1320.08 L2476.36 1318.60 L2487.87 1318.60 L2487.87 1316.99 L2499.38 1316.99 L2499.38 1316.00 L2510.76 1316.00 L2510.76 1315.75 L2522.27 1315.75 L2522.27 1313.77 L2533.78 1313.77 L2533.78 1311.42 L2545.17 1311.42 L2545.17 1310.18 L2556.68 1310.18 L2556.68 1309.56 L2568.18 1309.56 L2568.18 1308.08 L2579.69 1308.08 L2579.69 1306.96 L2591.08 1306.96 L2591.08 1305.85 L2602.59 1305.85 L2602.59 1304.61 L2614.09 1304.61 L2614.09 1304.12 L2625.48 1304.12 L2625.48 1302.14 L2636.99 1302.14 L2636.99 1302.14 L2648.50 1302.14 L2648.50 1300.28 L2659.88 1300.28 L2659.88 1299.54 L2671.39 1299.54 L2671.39 1297.19 L2682.90 1297.19 L2682.90 1294.59 L2694.41 1294.59 L2694.41 1293.60 L2705.79 1293.60 L2705.79 1291.25 L2717.30 1291.25 L2717.30 1288.65 L2728.81 1288.65 L2728.81 1287.04 L2740.20 1287.04 L2740.20 1287.04 L2751.70 1287.04 L2751.70 1284.81 L2763.21 1284.81 L2763.21 1284.81 L2774.60 1284.81 L2774.60 1284.81 L2786.11 1284.81 L2786.11 1284.81 L2797.62 1284.81 L2797.62 1284.81 L2809.12 1284.81 L2809.12 1284.81 L2820.51 1284.81 L2820.51 1284.81 L2832.02 1284.81 L2832.02 1284.81 L2843.53 1284.81 L2843.53 1284.81 L2854.91 1284.81 L2854.91 1284.81 L2866.42 1284.81 L2866.42 1284.81 L2877.93 1284.81 L2877.93 1284.81 L2889.44 1284.81 L2889.44 1284.81 L2900.82 1284.81 L2900.82 1249.54 L2912.33 1249.54 L2912.33 1249.54 L2923.84 1249.54 L2923.84 1249.54 L2935.23 1249.54 L2935.23 1249.54 L2946.74 1249.54 L2946.74 1249.54 L2958.24 1249.54 L2958.24 1249.54 L2969.63 1249.54 L2969.63 1249.54 L2981.14 1249.54 L2981.14 1249.54 L2992.65 1249.54 L2992.65 1249.54 L3004.16 1249.54 L3004.16 1249.54 L3015.54 1249.54 L3015.54 1249.54 L3027.05 1249.54 L3027.05 1249.54 L3038.56 1249.54 L3038.56 1249.54 L3072.96 1249.54 L3072.96 1249.54 L3095.85 1249.54 L3095.85 1249.54 L3256.48 1249.54 L3256.48 1249.54 L3290.88 1249.54 L3290.88 1249.54" stroke-linejoin="round" style="fill:none;stroke:#1A476F;stroke-width:8.64"/>
	<path d=" M354.05 1890.34 L354.05 1890.34 L354.05 1890.34 L354.05 1890.34 L354.05 1890.34 L359.87 1890.34 L359.87 1876.85 L365.56 1876.85 L365.56 1863.73 L377.07 1863.73 L377.07 1850.24 L388.45 1850.24 L388.45 1839.60 L399.96 1839.60 L399.96 1828.22 L411.47 1828.22 L411.47 1817.08 L422.85 1817.08 L422.85 1806.68 L434.36 1806.68 L434.36 1798.14 L445.87 1798.14 L445.87 1789.98 L457.38 1789.98 L457.38 1781.56 L468.76 1781.56 L468.76 1772.90 L480.27 1772.90 L480.27 1767.21 L491.78 1767.21 L491.78 1759.53 L503.17 1759.53 L503.17 1751.61 L514.68 1751.61 L514.68 1744.43 L526.18 1744.43 L526.18 1737.38 L537.57 1737.38 L537.57 1730.45 L549.08 1730.45 L549.08 1725.62 L560.59 1725.62 L560.59 1719.31 L572.10 1719.31 L572.10 1713.00 L583.48 1713.00 L583.48 1706.44 L594.99 1706.44 L594.99 1700.50 L606.50 1700.50 L606.50 1695.55 L617.88 1695.55 L617.88 1689.61 L629.39 1689.61 L629.39 1684.54 L640.90 1684.54 L640.90 1679.59 L652.41 1679.59 L652.41 1674.27 L663.79 1674.27 L663.79 1668.57 L675.30 1668.57 L675.30 1662.14 L686.81 1662.14 L686.81 1657.44 L698.20 1657.44 L698.20 1652.24 L709.71 1652.24 L709.71 1646.79 L721.22 1646.79 L721.22 1643.82 L732.60 1643.82 L732.60 1637.39 L744.11 1637.39 L744.11 1633.18 L755.62 1633.18 L755.62 1628.48 L767.13 1628.48 L767.13 1624.02 L778.51 1624.02 L778.51 1619.20 L790.02 1619.20 L790.02 1615.11 L801.53 1615.11 L801.53 1611.03 L812.91 1611.03 L812.91 1607.19 L824.42 1607.19 L824.42 1603.97 L835.93 1603.97 L835.93 1600.63 L847.32 1600.63 L847.32 1598.03 L858.83 1598.03 L858.83 1593.45 L870.33 1593.45 L870.33 1590.11 L881.84 1590.11 L881.84 1587.39 L893.23 1587.39 L893.23 1583.06 L904.74 1583.06 L904.74 1579.47 L916.25 1579.47 L916.25 1575.39 L927.63 1575.39 L927.63 1571.30 L939.14 1571.30 L939.14 1567.71 L950.65 1567.71 L950.65 1565.36 L962.03 1565.36 L962.03 1561.65 L973.54 1561.65 L973.54 1558.68 L985.05 1558.68 L985.05 1555.46 L996.56 1555.46 L996.56 1551.25 L1007.94 1551.25 L1007.94 1547.67 L1019.45 1547.67 L1019.45 1545.44 L1030.96 1545.44 L1030.96 1542.10 L1042.35 1542.10 L1042.35 1538.76 L1053.86 1538.76 L1053.86 1535.17 L1065.36 1535.17 L1065.36 1531.70 L1076.87 1531.70 L1076.87 1528.11 L1088.26 1528.11 L1088.26 1523.41 L1099.77 1523.41 L1099.77 1520.32 L1111.28 1520.32 L1111.28 1516.97 L1122.66 1516.97 L1122.66 1514.25 L1134.17 1514.25 L1134.17 1511.16 L1145.68 1511.16 L1145.68 1508.06 L1157.06 1508.06 L1157.06 1505.34 L1168.57 1505.34 L1168.57 1501.13 L1180.08 1501.13 L1180.08 1498.29 L1191.59 1498.29 L1191.59 1494.70 L1202.97 1494.70 L1202.97 1492.35 L1214.48 1492.35 L1214.48 1490.12 L1225.99 1490.12 L1225.99 1487.27 L1237.38 1487.27 L1237.38 1484.68 L1248.88 1484.68 L1248.88 1481.95 L1260.39 1481.95 L1260.39 1479.35 L1271.78 1479.35 L1271.78 1477.37 L1283.29 1477.37 L1283.29 1474.77 L1294.80 1474.77 L1294.80 1472.30 L1306.31 1472.30 L1306.31 1469.70 L1317.69 1469.70 L1317.69 1466.61 L1329.20 1466.61 L1329.20 1464.87 L1340.71 1464.87 L1340.71 1462.03 L1352.09 1462.03 L1352.09 1459.55 L1363.60 1459.55 L1363.60 1456.95 L1375.11 1456.95 L1375.11 1453.98 L1386.49 1453.98 L1386.49 1451.51 L1398.00 1451.51 L1398.00 1448.79 L1409.51 1448.79 L1409.51 1446.44 L1421.02 1446.44 L1421.02 1444.58 L1432.41 1444.58 L1432.41 1441.49 L1443.91 1441.49 L1443.91 1439.01 L1455.42 1439.01 L1455.42 1435.79 L1466.81 1435.79 L1466.81 1433.07 L1478.32 1433.07 L1478.32 1430.47 L1489.83 1430.47 L1489.83 1427.62 L1501.34 1427.62 L1501.34 1424.90 L1512.72 1424.90 L1512.72 1422.67 L1524.23 1422.67 L1524.23 1420.45 L1535.74 1420.45 L1535.74 1418.10 L1547.12 1418.10 L1547.12 1415.99 L1558.63 1415.99 L1558.63 1414.01 L1570.14 1414.01 L1570.14 1412.03 L1581.53 1412.03 L1581.53 1409.31 L1593.03 1409.31 L1593.03 1407.33 L1604.54 1407.33 L1604.54 1404.61 L1616.05 1404.61 L1616.05 1401.76 L1627.44 1401.76 L1627.44 1399.28 L1638.94 1399.28 L1638.94 1397.18 L1650.45 1397.18 L1650.45 1394.46 L1661.84 1394.46 L1661.84 1391.74 L1673.35 1391.74 L1673.35 1389.26 L1684.86 1389.26 L1684.86 1387.03 L1696.24 1387.03 L1696.24 1383.69 L1707.75 1383.69 L1707.75 1380.97 L1719.26 1380.97 L1719.26 1379.24 L1730.77 1379.24 L1730.77 1377.50 L1742.15 1377.50 L1742.15 1375.28 L1753.66 1375.28 L1753.66 1374.41 L1765.17 1374.41 L1765.17 1372.31 L1776.56 1372.31 L1776.56 1370.45 L1788.06 1370.45 L1788.06 1368.72 L1799.57 1368.72 L1799.57 1366.74 L1810.96 1366.74 L1810.96 1364.63 L1822.47 1364.63 L1822.47 1362.28 L1833.97 1362.28 L1833.97 1359.19 L1845.48 1359.19 L1845.48 1356.47 L1856.87 1356.47 L1856.87 1354.73 L1868.38 1354.73 L1868.38 1351.89 L1879.89 1351.89 L1879.89 1349.54 L1891.27 1349.54 L1891.27 1348.55 L1902.78 1348.55 L1902.78 1346.44 L1914.29 1346.44 L1914.29 1344.34 L1925.67 1344.34 L1925.67 1343.72 L1937.18 1343.72 L1937.18 1341.74 L1948.69 1341.74 L1948.69 1340.01 L1960.20 1340.01 L1960.20 1337.78 L1971.59 1337.78 L1971.59 1335.80 L1983.09 1335.80 L1983.09 1333.20 L1994.60 1333.20 L1994.60 1331.72 L2005.99 1331.72 L2005.99 1329.74 L2017.50 1329.74 L2017.50 1327.88 L2029.01 1327.88 L2029.01 1325.53 L2040.51 1325.53 L2040.51 1324.17 L2051.90 1324.17 L2051.90 1322.43 L2063.41 1322.43 L2063.41 1320.95 L2074.92 1320.95 L2074.92 1318.35 L2086.30 1318.35 L2086.30 1316.74 L2097.81 1316.74 L2097.81 1314.76 L2109.32 1314.76 L2109.32 1313.28 L2120.70 1313.28 L2120.70 1310.80 L2132.21 1310.80 L2132.21 1309.07 L2143.72 1309.07 L2143.72 1307.46 L2155.23 1307.46 L2155.23 1305.23 L2166.61 1305.23 L2166.61 1302.88 L2178.12 1302.88 L2178.12 1301.27 L2189.63 1301.27 L2189.63 1298.80 L2201.02 1298.80 L2201.02 1296.82 L2212.53 1296.82 L2212.53 1295.58 L2224.03 1295.58 L2224.03 1293.35 L2235.42 1293.35 L2235.42 1291.62 L2246.93 1291.62 L2246.93 1289.76 L2258.44 1289.76 L2258.44 1288.28 L2269.95 1288.28 L2269.95 1286.55 L2281.33 1286.55 L2281.33 1284.19 L2292.84 1284.19 L2292.84 1282.21 L2304.35 1282.21 L2304.35 1280.36 L2315.73 1280.36 L2315.73 1279.24 L2327.24 1279.24 L2327.24 1278.13 L2338.75 1278.13 L2338.75 1275.78 L2350.14 1275.78 L2350.14 1273.55 L2361.64 1273.55 L2361.64 1270.95 L2373.15 1270.95 L2373.15 1269.34 L2384.66 1269.34 L2384.66 1267.36 L2396.05 1267.36 L2396.05 1264.89 L2407.56 1264.89 L2407.56 1263.03 L2419.07 1263.03 L2419.07 1261.67 L2430.45 1261.67 L2430.45 1260.43 L2441.96 1260.43 L2441.96 1258.70 L2453.47 1258.70 L2453.47 1257.83 L2464.98 1257.83 L2464.98 1255.85 L2476.36 1255.85 L2476.36 1254.00 L2487.87 1254.00 L2487.87 1252.27 L2499.38 1252.27 L2499.38 1251.28 L2510.76 1251.28 L2510.76 1249.67 L2522.27 1249.67 L2522.27 1248.18 L2533.78 1248.18 L2533.78 1246.94 L2545.17 1246.94 L2545.17 1245.21 L2556.68 1245.21 L2556.68 1243.97 L2568.18 1243.97 L2568.18 1242.12 L2579.69 1242.12 L2579.69 1240.39 L2591.08 1240.39 L2591.08 1239.52 L2602.59 1239.52 L2602.59 1238.78 L2614.09 1238.78 L2614.09 1237.04 L2625.48 1237.04 L2625.48 1235.31 L2636.99 1235.31 L2636.99 1233.83 L2648.50 1233.83 L2648.50 1232.59 L2659.88 1232.59 L2659.88 1231.47 L2671.39 1231.47 L2671.39 1229.62 L2682.90 1229.62 L2682.90 1228.75 L2694.41 1228.75 L2694.41 1227.39 L2705.79 1227.39 L2705.79 1226.03 L2717.30 1226.03 L2717.30 1224.92 L2728.81 1224.92 L2728.81 1223.31 L2740.20 1223.31 L2740.20 1221.82 L2751.70 1221.82 L2751.70 1219.97 L2763.21 1219.97 L2763.21 1217.86 L2774.60 1217.86 L2774.60 1216.38 L2786.11 1216.38 L2786.11 1215.02 L2797.62 1215.02 L2797.62 1214.15 L2809.12 1214.15 L2809.12 1211.80 L2820.51 1211.80 L2820.51 1210.56 L2832.02 1210.56 L2832.02 1209.20 L2843.53 1209.20 L2843.53 1207.59 L2854.91 1207.59 L2854.91 1206.11 L2866.42 1206.11 L2866.42 1204.37 L2877.93 1204.37 L2877.93 1203.01 L2889.44 1203.01 L2889.44 1201.53 L2900.82 1201.53 L2900.82 1200.17 L2912.33 1200.17 L2912.33 1198.18 L2923.84 1198.18 L2923.84 1196.45 L2935.23 1196.45 L2935.23 1194.60 L2946.74 1194.60 L2946.74 1192.12 L2958.24 1192.12 L2958.24 1190.14 L2969.63 1190.14 L2969.63 1188.90 L2981.14 1188.90 L2981.14 1187.42 L2992.65 1187.42 L2992.65 1185.69 L3004.16 1185.69 L3004.16 1184.57 L3015.54 1184.57 L3015.54 1182.59 L3027.05 1182.59 L3027.05 1181.73 L3038.56 1181.73 L3038.56 1180.12 L3049.94 1180.12 L3049.94 1178.63 L3061.45 1178.63 L3061.45 1177.15 L3072.96 1177.15 L3072.96 1175.29 L3084.34 1175.29 L3084.34 1173.43 L3095.85 1173.43 L3095.85 1172.20 L3107.36 1172.20 L3107.36 1169.85 L3118.87 1169.85 L3118.87 1168.48 L3130.26 1168.48 L3130.26 1166.13 L3141.76 1166.13 L3141.76 1164.52 L3153.27 1164.52 L3153.27 1163.29 L3164.66 1163.29 L3164.66 1162.05 L3176.17 1162.05 L3176.17 1161.06 L3187.68 1161.06 L3187.68 1159.45 L3199.06 1159.45 L3199.06 1157.96 L3210.57 1157.96 L3210.57 1156.97 L3222.08 1156.97 L3222.08 1155.61 L3233.59 1155.61 L3233.59 1154.75 L3244.97 1154.75 L3244.97 1152.77 L3256.48 1152.77 L3256.48 1150.54 L3267.99 1150.54 L3267.99 1149.05 L3279.38 1149.05 L3279.38 1147.45 L3290.88 1147.45 L3290.88 1145.47 L3302.39 1145.47 L3302.39 1143.73 L3313.78 1143.73 L3313.78 1141.38 L3325.29 1141.38 L3325.29 1139.40 L3336.80 1139.40 L3336.80 1137.92 L3348.30 1137.92 L3348.30 1137.42 L3359.69 1137.42 L3359.69 1135.81 L3371.20 1135.81 L3371.20 1133.96 L3382.71 1133.96 L3382.71 1132.72 L3394.09 1132.72 L3394.09 1130.24 L3405.60 1130.24 L3405.60 1128.39" stroke-linejoin="round" style="fill:none;stroke:#90353B;stroke-width:8.64"/>
	<path d=" M354.05 1890.34 L354.05 1890.34 L354.05 1890.34 L354.05 1890.34 L354.05 1890.34 L359.87 1890.34 L359.87 1888.11 L365.56 1888.11 L365.56 1885.89 L377.07 1885.89 L377.07 1883.66 L388.45 1883.66 L388.45 1881.68 L399.96 1881.68 L399.96 1879.94 L411.47 1879.94 L411.47 1878.58 L422.85 1878.58 L422.85 1876.97 L434.36 1876.97 L434.36 1874.99 L445.87 1874.99 L445.87 1872.64 L457.38 1872.64 L457.38 1870.79 L468.76 1870.79 L468.76 1869.05 L480.27 1869.05 L480.27 1867.32 L491.78 1867.32 L491.78 1865.84 L503.17 1865.84 L503.17 1864.48 L514.68 1864.48 L514.68 1862.99 L526.18 1862.99 L526.18 1861.01 L537.57 1861.01 L537.57 1859.15 L549.08 1859.15 L549.08 1857.30 L560.59 1857.30 L560.59 1856.31 L572.10 1856.31 L572.10 1855.07 L583.48 1855.07 L583.48 1853.59 L594.99 1853.59 L594.99 1852.10 L606.50 1852.10 L606.50 1850.49 L617.88 1850.49 L617.88 1849.01 L629.39 1849.01 L629.39 1847.27 L640.90 1847.27 L640.90 1845.67 L652.41 1845.67 L652.41 1844.55 L663.79 1844.55 L663.79 1843.31 L675.30 1843.31 L675.30 1841.33 L686.81 1841.33 L686.81 1839.85 L698.20 1839.85 L698.20 1838.24 L709.71 1838.24 L709.71 1837.00 L721.22 1837.00 L721.22 1835.64 L732.60 1835.64 L732.60 1834.53 L744.11 1834.53 L744.11 1833.29 L755.62 1833.29 L755.62 1832.30 L767.13 1832.30 L767.13 1830.32 L778.51 1830.32 L778.51 1828.83 L790.02 1828.83 L790.02 1827.35 L801.53 1827.35 L801.53 1826.24 L812.91 1826.24 L812.91 1825.00 L824.42 1825.00 L824.42 1824.13 L835.93 1824.13 L835.93 1822.77 L847.32 1822.77 L847.32 1821.16 L858.83 1821.16 L858.83 1819.92 L870.33 1819.92 L870.33 1818.19 L881.84 1818.19 L881.84 1816.71 L893.23 1816.71 L893.23 1815.22 L904.74 1815.22 L904.74 1814.36 L916.25 1814.36 L916.25 1813.12 L927.63 1813.12 L927.63 1811.51 L939.14 1811.51 L939.14 1810.02 L950.65 1810.02 L950.65 1808.91 L962.03 1808.91 L962.03 1808.04 L973.54 1808.04 L973.54 1806.68 L985.05 1806.68 L985.05 1805.69 L996.56 1805.69 L996.56 1804.95 L1007.94 1804.95 L1007.94 1803.47 L1019.45 1803.47 L1019.45 1801.86 L1030.96 1801.86 L1030.96 1800.50 L1042.35 1800.50 L1042.35 1799.38 L1053.86 1799.38 L1053.86 1798.14 L1065.36 1798.14 L1065.36 1797.15 L1076.87 1797.15 L1076.87 1795.67 L1088.26 1795.67 L1088.26 1794.43 L1099.77 1794.43 L1099.77 1793.07 L1111.28 1793.07 L1111.28 1791.83 L1122.66 1791.83 L1122.66 1790.84 L1134.17 1790.84 L1134.17 1789.73 L1145.68 1789.73 L1145.68 1788.49 L1157.06 1788.49 L1157.06 1786.76 L1168.57 1786.76 L1168.57 1785.40 L1180.08 1785.40 L1180.08 1783.91 L1191.59 1783.91 L1191.59 1782.67 L1202.97 1782.67 L1202.97 1781.56 L1214.48 1781.56 L1214.48 1780.69 L1225.99 1780.69 L1225.99 1779.58 L1237.38 1779.58 L1237.38 1778.10 L1248.88 1778.10 L1248.88 1776.49 L1260.39 1776.49 L1260.39 1775.00 L1271.78 1775.00 L1271.78 1773.76 L1283.29 1773.76 L1283.29 1772.53 L1294.80 1772.53 L1294.80 1771.54 L1306.31 1771.54 L1306.31 1770.55 L1317.69 1770.55 L1317.69 1769.31 L1329.20 1769.31 L1329.20 1768.07 L1340.71 1768.07 L1340.71 1766.96 L1352.09 1766.96 L1352.09 1765.97 L1363.60 1765.97 L1363.60 1764.85 L1375.11 1764.85 L1375.11 1763.49 L1386.49 1763.49 L1386.49 1762.63 L1398.00 1762.63 L1398.00 1761.02 L1409.51 1761.02 L1409.51 1759.78 L1421.02 1759.78 L1421.02 1758.67 L1432.41 1758.67 L1432.41 1757.30 L1443.91 1757.30 L1443.91 1756.31 L1455.42 1756.31 L1455.42 1755.45 L1466.81 1755.45 L1466.81 1754.71 L1478.32 1754.71 L1478.32 1753.22 L1489.83 1753.22 L1489.83 1752.35 L1501.34 1752.35 L1501.34 1751.12 L1512.72 1751.12 L1512.72 1750.25 L1524.23 1750.25 L1524.23 1749.01 L1535.74 1749.01 L1535.74 1748.02 L1547.12 1748.02 L1547.12 1747.28 L1558.63 1747.28 L1558.63 1746.17 L1570.14 1746.17 L1570.14 1745.05 L1581.53 1745.05 L1581.53 1743.94 L1593.03 1743.94 L1593.03 1742.33 L1604.54 1742.33 L1604.54 1741.09 L1616.05 1741.09 L1616.05 1740.10 L1627.44 1740.10 L1627.44 1738.99 L1638.94 1738.99 L1638.94 1738.00 L1650.45 1738.00 L1650.45 1737.01 L1661.84 1737.01 L1661.84 1735.52 L1673.35 1735.52 L1673.35 1734.29 L1684.86 1734.29 L1684.86 1733.30 L1696.24 1733.30 L1696.24 1732.68 L1707.75 1732.68 L1707.75 1731.81 L1719.26 1731.81 L1719.26 1730.95 L1730.77 1730.95 L1730.77 1729.83 L1742.15 1729.83 L1742.15 1728.35 L1753.66 1728.35 L1753.66 1727.48 L1765.17 1727.48 L1765.17 1726.37 L1776.56 1726.37 L1776.56 1725.50 L1788.06 1725.50 L1788.06 1724.63 L1799.57 1724.63 L1799.57 1723.27 L1810.96 1723.27 L1810.96 1722.28 L1822.47 1722.28 L1822.47 1721.05 L1833.97 1721.05 L1833.97 1719.93 L1845.48 1719.93 L1845.48 1719.06 L1856.87 1719.06 L1856.87 1718.20 L1868.38 1718.20 L1868.38 1717.46 L1879.89 1717.46 L1879.89 1716.22 L1891.27 1716.22 L1891.27 1715.10 L1902.78 1715.10 L1902.78 1714.11 L1914.29 1714.11 L1914.29 1712.88 L1925.67 1712.88 L1925.67 1711.89 L1937.18 1711.89 L1937.18 1710.77 L1948.69 1710.77 L1948.69 1710.03 L1960.20 1710.03 L1960.20 1709.16 L1971.59 1709.16 L1971.59 1708.17 L1983.09 1708.17 L1983.09 1706.94 L1994.60 1706.94 L1994.60 1705.95 L2005.99 1705.95 L2005.99 1704.96 L2017.50 1704.96 L2017.50 1703.84 L2029.01 1703.84 L2029.01 1702.98 L2040.51 1702.98 L2040.51 1702.11 L2051.90 1702.11 L2051.90 1700.87 L2063.41 1700.87 L2063.41 1699.76 L2074.92 1699.76 L2074.92 1698.77 L2086.30 1698.77 L2086.30 1697.53 L2097.81 1697.53 L2097.81 1696.42 L2109.32 1696.42 L2109.32 1695.68 L2120.70 1695.68 L2120.70 1694.56 L2132.21 1694.56 L2132.21 1693.57 L2143.72 1693.57 L2143.72 1692.33 L2155.23 1692.33 L2155.23 1691.47 L2166.61 1691.47 L2166.61 1690.73 L2178.12 1690.73 L2178.12 1689.98 L2189.63 1689.98 L2189.63 1689.24 L2201.02 1689.24 L2201.02 1688.00 L2212.53 1688.00 L2212.53 1687.01 L2224.03 1687.01 L2224.03 1685.78 L2235.42 1685.78 L2235.42 1684.66 L2246.93 1684.66 L2246.93 1683.55 L2258.44 1683.55 L2258.44 1682.68 L2269.95 1682.68 L2269.95 1682.06 L2281.33 1682.06 L2281.33 1680.83 L2292.84 1680.83 L2292.84 1679.59 L2304.35 1679.59 L2304.35 1677.98 L2315.73 1677.98 L2315.73 1676.99 L2327.24 1676.99 L2327.24 1676.25 L2338.75 1676.25 L2338.75 1675.38 L2350.14 1675.38 L2350.14 1674.64 L2361.64 1674.64 L2361.64 1673.15 L2373.15 1673.15 L2373.15 1672.04 L2384.66 1672.04 L2384.66 1671.17 L2396.05 1671.17 L2396.05 1670.18 L2407.56 1670.18 L2407.56 1668.94 L2419.07 1668.94 L2419.07 1668.33 L2430.45 1668.33 L2430.45 1667.34 L2441.96 1667.34 L2441.96 1665.97 L2453.47 1665.97 L2453.47 1664.49 L2464.98 1664.49 L2464.98 1663.25 L2476.36 1663.25 L2476.36 1662.01 L2487.87 1662.01 L2487.87 1660.65 L2499.38 1660.65 L2499.38 1659.91 L2510.76 1659.91 L2510.76 1659.54 L2522.27 1659.54 L2522.27 1658.43 L2533.78 1658.43 L2533.78 1657.31 L2545.17 1657.31 L2545.17 1656.32 L2556.68 1656.32 L2556.68 1655.08 L2568.18 1655.08 L2568.18 1654.09 L2579.69 1654.09 L2579.69 1653.48 L2591.08 1653.48 L2591.08 1653.23 L2602.59 1653.23 L2602.59 1651.99 L2614.09 1651.99 L2614.09 1650.88 L2625.48 1650.88 L2625.48 1650.26 L2636.99 1650.26 L2636.99 1649.02 L2648.50 1649.02 L2648.50 1648.28 L2659.88 1648.28 L2659.88 1647.54 L2671.39 1647.54 L2671.39 1647.16 L2682.90 1647.16 L2682.90 1646.30 L2694.41 1646.30 L2694.41 1645.06 L2705.79 1645.06 L2705.79 1644.07 L2717.30 1644.07 L2717.30 1642.71 L2728.81 1642.71 L2728.81 1641.72 L2740.20 1641.72 L2740.20 1641.35 L2751.70 1641.35 L2751.70 1640.73 L2763.21 1640.73 L2763.21 1640.11 L2774.60 1640.11 L2774.60 1639.37 L2786.11 1639.37 L2786.11 1638.38 L2797.62 1638.38 L2797.62 1637.26 L2809.12 1637.26 L2809.12 1636.40 L2820.51 1636.40 L2820.51 1635.65 L2832.02 1635.65 L2832.02 1634.05 L2843.53 1634.05 L2843.53 1631.94 L2854.91 1631.94 L2854.91 1631.32 L2866.42 1631.32 L2866.42 1630.70 L2877.93 1630.70 L2877.93 1629.71 L2889.44 1629.71 L2889.44 1627.61 L2900.82 1627.61 L2900.82 1626.25 L2912.33 1626.25 L2912.33 1625.63 L2923.84 1625.63 L2923.84 1625.01 L2946.74 1625.01 L2946.74 1624.39 L2958.24 1624.39 L2958.24 1622.29 L2969.63 1622.29 L2969.63 1621.92 L2981.14 1621.92 L2981.14 1621.05 L2992.65 1621.05 L2992.65 1620.43 L3004.16 1620.43 L3004.16 1618.82 L3015.54 1618.82 L3015.54 1618.21 L3038.56 1618.21 L3038.56 1616.97 L3049.94 1616.97 L3049.94 1616.35 L3061.45 1616.35 L3061.45 1615.73 L3072.96 1615.73 L3072.96 1614.74 L3084.34 1614.74 L3084.34 1612.88 L3095.85 1612.88 L3095.85 1612.51 L3107.36 1612.51 L3107.36 1612.27 L3118.87 1612.27 L3118.87 1610.41 L3130.26 1610.41 L3130.26 1609.17 L3141.76 1609.17 L3141.76 1608.55 L3153.27 1608.55 L3153.27 1607.19 L3164.66 1607.19 L3164.66 1605.95 L3176.17 1605.95 L3176.17 1604.72 L3405.60 1604.72 L3405.60 1521.68 L3497.42 1521.68 L3497.42 1521.68" stroke-linejoin="round" style="fill:none;stroke:#55752F;stroke-width:8.64"/>
	<line x1="290.81" y1="1953.70" x2="290.81" y2="100.86" style="stroke:#000000;stroke-width:5.76"/>
	<line x1="290.81" y1="1890.34" x2="250.84" y2="1890.34" style="stroke:#000000;stroke-width:5.76"/>
	<text x="200.73" y="1890.34" style="font-family:'Helvetica';font-size:99.99px;fill:#000000" transform="rotate(-90 200.73,1890.34)" text-anchor="middle">0.00</text>
	<line x1="290.81" y1="1458.81" x2="250.84" y2="1458.81" style="stroke:#000000;stroke-width:5.76"/>
	<text x="200.73" y="1458.81" style="font-family:'Helvetica';font-size:99.99px;fill:#000000" transform="rotate(-90 200.73,1458.81)" text-anchor="middle">0.25</text>
	<line x1="290.81" y1="1027.28" x2="250.84" y2="1027.28" style="stroke:#000000;stroke-width:5.76"/>
	<text x="200.73" y="1027.28" style="font-family:'Helvetica';font-size:99.99px;fill:#000000" transform="rotate(-90 200.73,1027.28)" text-anchor="middle">0.50</text>
	<line x1="290.81" y1="595.75" x2="250.84" y2="595.75" style="stroke:#000000;stroke-width:5.76"/>
	<text x="200.73" y="595.75" style="font-family:'Helvetica';font-size:99.99px;fill:#000000" transform="rotate(-90 200.73,595.75)" text-anchor="middle">0.75</text>
	<line x1="290.81" y1="164.22" x2="250.84" y2="164.22" style="stroke:#000000;stroke-width:5.76"/>
	<text x="200.73" y="164.22" style="font-family:'Helvetica';font-size:99.99px;fill:#000000" transform="rotate(-90 200.73,164.22)" text-anchor="middle">1.00</text>
	<line x1="290.81" y1="1953.70" x2="3859.02" y2="1953.70" style="stroke:#000000;stroke-width:5.76"/>
	<line x1="354.17" y1="1953.70" x2="354.17" y2="1993.67" style="stroke:#000000;stroke-width:5.76"/>
	<text x="354.17" y="2083.66" style="font-family:'Helvetica';font-size:99.99px;fill:#000000" text-anchor="middle">0</text>
	<line x1="1501.34" y1="1953.70" x2="1501.34" y2="1993.67" style="stroke:#000000;stroke-width:5.76"/>
	<text x="1501.34" y="2083.66" style="font-family:'Helvetica';font-size:99.99px;fill:#000000" text-anchor="middle">100</text>
	<line x1="2648.50" y1="1953.70" x2="2648.50" y2="1993.67" style="stroke:#000000;stroke-width:5.76"/>
	<text x="2648.50" y="2083.66" style="font-family:'Helvetica';font-size:99.99px;fill:#000000" text-anchor="middle">200</text>
	<line x1="3795.66" y1="1953.70" x2="3795.66" y2="1993.67" style="stroke:#000000;stroke-width:5.76"/>
	<text x="3795.66" y="2083.66" style="font-family:'Helvetica';font-size:99.99px;fill:#000000" text-anchor="middle">300</text>
	<text x="2074.92" y="2193.67" style="font-family:'Helvetica';font-size:99.99px;fill:#000000" text-anchor="middle">Days from index date</text>
	<rect x="1057.57" y="2278.31" width="2034.82" height="466.30" style="fill:#FFFFFF"/>
	<rect x="1060.45" y="2281.19" width="2029.06" height="460.54" style="fill:none;stroke:#000000;stroke-width:5.76"/>
	<line x1="1100.76" y1="2371.50" x2="1475.10" y2="2371.50" style="stroke:#1A476F;stroke-width:8.64"/>
	<line x1="1100.76" y1="2511.46" x2="1475.10" y2="2511.46" style="stroke:#90353B;stroke-width:8.64"/>
	<line x1="1100.76" y1="2651.43" x2="1475.10" y2="2651.43" style="stroke:#55752F;stroke-width:8.64"/>
	<text x="1535.12" y="2406.52" style="font-family:'Helvetica';font-size:99.99px;fill:#000000">group = Hospitalised COVID-19</text>
	<text x="1535.12" y="2546.49" style="font-family:'Helvetica';font-size:99.99px;fill:#000000">group = Hospitalised flu 2017_19</text>
	<text x="1535.12" y="2686.46" style="font-family:'Helvetica';font-size:99.99px;fill:#000000">group = General pop 2019</text>
</svg>
