<?xml version="1.0" encoding="UTF-8" standalone="no"?>
<!-- This is a Stata 16.1 generated SVG file (http://www.stata.com) -->

<svg version="1.1" width="5.50in" height="4.00in" viewBox="0 0 3960 2880" xmlns="http://www.w3.org/2000/svg" xmlns:xlink="http://www.w3.org/1999/xlink">
	<desc>Stata Graph - death_agesex</desc>
	<rect x="0" y="0" width="3960" height="2880" style="fill:#EAF2F3;stroke:none"/>
	<rect x="0.00" y="0.00" width="3959.88" height="2880.00" style="fill:#EAF2F3"/>
	<rect x="2.88" y="2.88" width="3954.12" height="2874.24" style="fill:none;stroke:#EAF2F3;stroke-width:5.76"/>
	<rect x="290.81" y="100.86" width="3568.21" height="1852.84" style="fill:#FFFFFF"/>
	<rect x="293.69" y="103.74" width="3562.45" height="1847.08" style="fill:none;stroke:#FFFFFF;stroke-width:5.76"/>
	<line x1="290.81" y1="1890.34" x2="3859.02" y2="1890.34" style="stroke:#EAF2F3;stroke-width:8.64"/>
	<line x1="290.81" y1="1458.81" x2="3859.02" y2="1458.81" style="stroke:#EAF2F3;stroke-width:8.64"/>
	<line x1="290.81" y1="1027.28" x2="3859.02" y2="1027.28" style="stroke:#EAF2F3;stroke-width:8.64"/>
	<line x1="290.81" y1="595.75" x2="3859.02" y2="595.75" style="stroke:#EAF2F3;stroke-width:8.64"/>
	<path d=" M354.05 1890.34 L354.05 1890.34 L354.05 1890.34 L354.05 1890.34 L354.05 1890.34 L362.71 1890.34 L362.71 1888.11 L371.25 1888.11 L371.25 1886.88 L379.91 1886.88 L379.91 1885.27 L388.45 1885.27 L388.45 1883.78 L397.11 1883.78 L397.11 1882.30 L405.65 1882.30 L405.65 1881.18 L414.31 1881.18 L414.31 1879.57 L422.85 1879.57 L422.85 1878.58 L431.52 1878.58 L431.52 1877.47 L440.18 1877.47 L440.18 1876.36 L448.72 1876.36 L448.72 1875.37 L457.38 1875.37 L457.38 1874.75 L465.92 1874.75 L465.92 1874.00 L474.58 1874.00 L474.58 1872.77 L483.12 1872.77 L483.12 1871.53 L491.78 1871.53 L491.78 1870.91 L500.32 1870.91 L500.32 1869.92 L508.98 1869.92 L508.98 1869.43 L517.52 1869.43 L517.52 1868.56 L526.18 1868.56 L526.18 1867.69 L534.72 1867.69 L534.72 1867.07 L543.39 1867.07 L543.39 1866.70 L551.92 1866.70 L551.92 1865.96 L560.59 1865.96 L560.59 1865.22 L569.13 1865.22 L569.13 1864.60 L577.79 1864.60 L577.79 1864.23 L586.33 1864.23 L586.33 1863.86 L594.99 1863.86 L594.99 1863.24 L603.65 1863.24 L603.65 1862.87 L612.19 1862.87 L612.19 1862.50 L620.85 1862.50 L620.85 1862.00 L629.39 1862.00 L629.39 1861.63 L638.05 1861.63 L638.05 1861.26 L646.59 1861.26 L646.59 1860.64 L655.26 1860.64 L655.26 1860.52 L663.79 1860.52 L663.79 1860.39 L672.46 1860.39 L672.46 1860.14 L681.00 1860.14 L681.00 1859.65 L689.66 1859.65 L689.66 1858.91 L698.20 1858.91 L698.20 1858.41 L706.86 1858.41 L706.86 1857.92 L715.40 1857.92 L715.40 1857.79 L724.06 1857.79 L724.06 1857.17 L732.60 1857.17 L732.60 1856.56 L741.26 1856.56 L741.26 1856.43 L749.80 1856.43 L749.80 1856.06 L758.46 1856.06 L758.46 1855.57 L767.13 1855.57 L767.13 1855.19 L775.66 1855.19 L775.66 1854.70 L784.33 1854.70 L784.33 1854.45 L792.87 1854.45 L792.87 1854.20 L801.53 1854.20 L801.53 1853.96 L810.07 1853.96 L810.07 1853.71 L818.73 1853.71 L818.73 1853.46 L827.27 1853.46 L827.27 1853.09 L835.93 1853.09 L835.93 1852.60 L844.47 1852.60 L844.47 1851.98 L853.13 1851.98 L853.13 1851.61 L861.67 1851.61 L861.67 1851.11 L870.33 1851.11 L870.33 1850.99 L878.87 1850.99 L878.87 1850.37 L887.53 1850.37 L887.53 1850.24 L896.07 1850.24 L896.07 1849.87 L904.74 1849.87 L904.74 1849.50 L913.40 1849.50 L913.40 1849.38 L921.94 1849.38 L921.94 1849.01 L930.60 1849.01 L930.60 1849.01 L939.14 1849.01 L939.14 1848.64 L947.80 1848.64 L947.80 1848.14 L956.34 1848.14 L956.34 1847.65 L965.00 1847.65 L965.00 1847.15 L973.54 1847.15 L973.54 1846.78 L982.20 1846.78 L982.20 1846.53 L990.74 1846.53 L990.74 1846.16 L999.40 1846.16 L999.40 1845.91 L1007.94 1845.91 L1007.94 1845.67 L1016.61 1845.67 L1016.61 1845.17 L1025.14 1845.17 L1025.14 1844.55 L1033.81 1844.55 L1033.81 1844.43 L1042.35 1844.43 L1042.35 1844.18 L1051.01 1844.18 L1051.01 1843.44 L1059.55 1843.44 L1059.55 1843.07 L1068.21 1843.07 L1068.21 1842.82 L1076.87 1842.82 L1076.87 1842.45 L1085.41 1842.45 L1085.41 1842.20 L1094.07 1842.20 L1094.07 1841.95 L1102.61 1841.95 L1102.61 1841.46 L1111.28 1841.46 L1111.28 1840.96 L1119.81 1840.96 L1119.81 1840.72 L1128.48 1840.72 L1128.48 1840.47 L1137.02 1840.47 L1137.02 1840.10 L1145.68 1840.10 L1145.68 1839.85 L1154.22 1839.85 L1154.22 1839.48 L1162.88 1839.48 L1162.88 1839.35 L1171.42 1839.35 L1171.42 1839.23 L1180.08 1839.23 L1180.08 1838.98 L1188.62 1838.98 L1188.62 1838.73 L1197.28 1838.73 L1197.28 1838.49 L1205.82 1838.49 L1205.82 1838.24 L1214.48 1838.24 L1214.48 1838.12 L1223.02 1838.12 L1223.02 1837.62 L1231.68 1837.62 L1231.68 1837.62 L1240.35 1837.62 L1240.35 1837.37 L1248.88 1837.37 L1248.88 1837.00 L1257.55 1837.00 L1257.55 1836.75 L1266.09 1836.75 L1266.09 1836.38 L1274.75 1836.38 L1274.75 1836.14 L1283.29 1836.14 L1283.29 1835.89 L1291.95 1835.89 L1291.95 1835.39 L1300.49 1835.39 L1300.49 1835.02 L1309.15 1835.02 L1309.15 1834.77 L1317.69 1834.77 L1317.69 1834.53 L1326.35 1834.53 L1326.35 1834.40 L1334.89 1834.40 L1334.89 1834.16 L1343.55 1834.16 L1343.55 1833.78 L1352.09 1833.78 L1352.09 1833.66 L1360.76 1833.66 L1360.76 1833.29 L1369.29 1833.29 L1369.29 1832.92 L1377.96 1832.92 L1377.96 1832.67 L1386.49 1832.67 L1386.49 1832.30 L1395.16 1832.30 L1395.16 1832.05 L1403.82 1832.05 L1403.82 1831.80 L1412.36 1831.80 L1412.36 1831.56 L1421.02 1831.56 L1421.02 1831.31 L1429.56 1831.31 L1429.56 1831.31 L1438.22 1831.31 L1438.22 1831.06 L1446.76 1831.06 L1446.76 1830.81 L1455.42 1830.81 L1455.42 1830.44 L1463.96 1830.44 L1463.96 1830.20 L1472.62 1830.20 L1472.62 1829.95 L1481.16 1829.95 L1481.16 1829.70 L1489.83 1829.70 L1489.83 1829.21 L1498.37 1829.21 L1498.37 1828.96 L1507.03 1828.96 L1507.03 1828.83 L1515.57 1828.83 L1515.57 1828.46 L1524.23 1828.46 L1524.23 1828.22 L1532.77 1828.22 L1532.77 1827.97 L1541.43 1827.97 L1541.43 1827.60 L1549.97 1827.60 L1549.97 1827.35 L1558.63 1827.35 L1558.63 1826.98 L1567.29 1826.98 L1567.29 1826.73 L1575.83 1826.73 L1575.83 1826.36 L1584.49 1826.36 L1584.49 1825.99 L1593.03 1825.99 L1593.03 1825.62 L1601.70 1825.62 L1601.70 1825.12 L1610.23 1825.12 L1610.23 1824.87 L1618.90 1824.87 L1618.90 1824.63 L1627.44 1824.63 L1627.44 1824.50 L1636.10 1824.50 L1636.10 1824.13 L1644.64 1824.13 L1644.64 1824.01 L1653.30 1824.01 L1653.30 1823.76 L1661.84 1823.76 L1661.84 1823.64 L1670.50 1823.64 L1670.50 1823.39 L1679.04 1823.39 L1679.04 1822.89 L1687.70 1822.89 L1687.70 1822.65 L1696.24 1822.65 L1696.24 1822.28 L1704.90 1822.28 L1704.90 1822.15 L1713.44 1822.15 L1713.44 1822.03 L1722.11 1822.03 L1722.11 1821.78 L1730.77 1821.78 L1730.77 1821.41 L1739.31 1821.41 L1739.31 1821.29 L1747.97 1821.29 L1747.97 1820.91 L1756.51 1820.91 L1756.51 1820.91 L1765.17 1820.91 L1765.17 1820.42 L1773.71 1820.42 L1773.71 1820.05 L1782.37 1820.05 L1782.37 1819.80 L1790.91 1819.80 L1790.91 1819.43 L1799.57 1819.43 L1799.57 1819.31 L1808.11 1819.31 L1808.11 1819.18 L1816.77 1819.18 L1816.77 1819.06 L1825.31 1819.06 L1825.31 1818.56 L1833.97 1818.56 L1833.97 1818.44 L1842.51 1818.44 L1842.51 1818.07 L1851.18 1818.07 L1851.18 1817.82 L1859.71 1817.82 L1859.71 1817.82 L1868.38 1817.82 L1868.38 1817.57 L1877.04 1817.57 L1877.04 1817.08 L1885.58 1817.08 L1885.58 1816.83 L1894.24 1816.83 L1894.24 1816.71 L1902.78 1816.71 L1902.78 1816.46 L1911.44 1816.46 L1911.44 1816.09 L1919.98 1816.09 L1919.98 1815.96 L1928.64 1815.96 L1928.64 1815.72 L1937.18 1815.72 L1937.18 1815.47 L1945.85 1815.47 L1945.85 1815.10 L1954.38 1815.10 L1954.38 1814.85 L1963.05 1814.85 L1963.05 1814.48 L1971.59 1814.48 L1971.59 1814.36 L1980.25 1814.36 L1980.25 1814.11 L1988.79 1814.11 L1988.79 1813.86 L1997.45 1813.86 L1997.45 1813.74 L2005.99 1813.74 L2005.99 1813.49 L2014.65 1813.49 L2014.65 1812.99 L2023.19 1812.99 L2023.19 1812.99 L2031.85 1812.99 L2031.85 1812.87 L2040.51 1812.87 L2040.51 1812.62 L2049.05 1812.62 L2049.05 1812.50 L2057.72 1812.50 L2057.72 1812.00 L2066.25 1812.00 L2066.25 1811.76 L2074.92 1811.76 L2074.92 1811.76 L2083.45 1811.76 L2083.45 1811.63 L2092.12 1811.63 L2092.12 1811.01 L2100.66 1811.01 L2100.66 1810.77 L2109.32 1810.77 L2109.32 1810.27 L2117.86 1810.27 L2117.86 1809.65 L2126.52 1809.65 L2126.52 1809.41 L2135.06 1809.41 L2135.06 1809.41 L2143.72 1809.41 L2143.72 1809.16 L2152.26 1809.16 L2152.26 1808.91 L2160.92 1808.91 L2160.92 1808.54 L2169.46 1808.54 L2169.46 1808.17 L2178.12 1808.17 L2178.12 1808.04 L2186.66 1808.04 L2186.66 1807.92 L2195.32 1807.92 L2195.32 1807.67 L2203.99 1807.67 L2203.99 1807.43 L2212.53 1807.43 L2212.53 1807.18 L2221.19 1807.18 L2221.19 1807.05 L2229.73 1807.05 L2229.73 1806.81 L2238.39 1806.81 L2238.39 1806.31 L2246.93 1806.31 L2246.93 1806.31 L2255.59 1806.31 L2255.59 1805.94 L2264.13 1805.94 L2264.13 1805.82 L2272.79 1805.82 L2272.79 1805.45 L2281.33 1805.45 L2281.33 1805.32 L2289.99 1805.32 L2289.99 1805.20 L2298.53 1805.20 L2298.53 1804.95 L2307.20 1804.95 L2307.20 1804.83 L2315.73 1804.83 L2315.73 1804.70 L2324.40 1804.70 L2324.40 1804.58 L2332.93 1804.58 L2332.93 1804.33 L2341.60 1804.33 L2341.60 1804.21 L2350.14 1804.21 L2350.14 1804.08 L2358.80 1804.08 L2358.80 1803.96 L2367.46 1803.96 L2367.46 1803.59 L2376.00 1803.59 L2376.00 1803.47 L2384.66 1803.47 L2384.66 1803.09 L2393.20 1803.09 L2393.20 1802.97 L2401.86 1802.97 L2401.86 1802.85 L2410.40 1802.85 L2410.40 1802.72 L2419.07 1802.72 L2419.07 1802.48 L2427.60 1802.48 L2427.60 1802.23 L2436.27 1802.23 L2436.27 1801.73 L2444.80 1801.73 L2444.80 1801.49 L2453.47 1801.49 L2453.47 1801.24 L2462.01 1801.24 L2462.01 1800.74 L2470.67 1800.74 L2470.67 1800.62 L2479.21 1800.62 L2479.21 1800.37 L2487.87 1800.37 L2487.87 1800.25 L2496.41 1800.25 L2496.41 1800.00 L2505.07 1800.00 L2505.07 1799.75 L2513.61 1799.75 L2513.61 1799.13 L2522.27 1799.13 L2522.27 1798.76 L2530.93 1798.76 L2530.93 1798.27 L2539.47 1798.27 L2539.47 1797.90 L2548.14 1797.90 L2548.14 1797.65 L2556.68 1797.65 L2556.68 1797.15 L2565.34 1797.15 L2565.34 1796.91 L2573.88 1796.91 L2573.88 1796.78 L2582.54 1796.78 L2582.54 1796.41 L2591.08 1796.41 L2591.08 1796.16 L2599.74 1796.16 L2599.74 1795.92 L2608.28 1795.92 L2608.28 1795.67 L2616.94 1795.67 L2616.94 1795.54 L2625.48 1795.54 L2625.48 1795.54 L2634.14 1795.54 L2634.14 1795.42 L2642.68 1795.42 L2642.68 1795.05 L2651.34 1795.05 L2651.34 1795.05 L2659.88 1795.05 L2659.88 1794.43 L2668.55 1794.43 L2668.55 1794.18 L2677.21 1794.18 L2677.21 1794.06 L2685.75 1794.06 L2685.75 1793.94 L2694.41 1793.94 L2694.41 1793.81 L2702.95 1793.81 L2702.95 1793.56 L2711.61 1793.56 L2711.61 1793.32 L2720.15 1793.32 L2720.15 1793.32 L2728.81 1793.32 L2728.81 1793.32 L2737.35 1793.32 L2737.35 1793.07 L2746.01 1793.07 L2746.01 1793.07 L2754.55 1793.07 L2754.55 1792.95 L2763.21 1792.95 L2763.21 1792.95 L2771.75 1792.95 L2771.75 1792.82 L2780.41 1792.82 L2780.41 1792.33 L2788.95 1792.33 L2788.95 1792.08 L2797.62 1792.08 L2797.62 1791.58 L2806.16 1791.58 L2806.16 1791.09 L2814.82 1791.09 L2814.82 1791.09 L2823.36 1791.09 L2823.36 1791.09 L2832.02 1791.09 L2832.02 1791.09 L2840.68 1791.09 L2840.68 1791.09 L2849.22 1791.09 L2849.22 1791.09 L2857.88 1791.09 L2857.88 1791.09 L2866.42 1791.09 L2866.42 1791.09 L2875.08 1791.09 L2875.08 1791.09 L2883.62 1791.09 L2883.62 1790.10 L2892.28 1790.10 L2892.28 1790.10 L2900.82 1790.10 L2900.82 1790.10 L2909.49 1790.10 L2909.49 1790.10 L2918.03 1790.10 L2918.03 1789.85 L2926.69 1789.85 L2926.69 1789.85 L2935.23 1789.85 L2935.23 1789.85 L2943.89 1789.85 L2943.89 1789.85 L2952.43 1789.85 L2952.43 1789.85 L2961.09 1789.85 L2961.09 1789.85 L2969.63 1789.85 L2969.63 1789.23 L2978.29 1789.23 L2978.29 1789.23 L2986.83 1789.23 L2986.83 1789.23 L2995.49 1789.23 L2995.49 1789.23 L3004.16 1789.23 L3004.16 1789.23 L3012.69 1789.23 L3012.69 1787.87 L3021.36 1787.87 L3021.36 1786.14 L3029.89 1786.14 L3029.89 1786.14 L3038.56 1786.14 L3038.56 1786.14 L3047.10 1786.14 L3047.10 1786.14 L3055.76 1786.14 L3055.76 1786.14 L3064.30 1786.14 L3064.30 1786.14 L3072.96 1786.14 L3072.96 1786.14 L3081.50 1786.14 L3081.50 1786.14 L3090.16 1786.14 L3090.16 1786.14 L3098.70 1786.14 L3098.70 1786.14 L3107.36 1786.14 L3107.36 1786.14 L3115.90 1786.14 L3115.90 1786.14 L3124.56 1786.14 L3124.56 1786.14 L3133.10 1786.14 L3133.10 1786.14 L3141.76 1786.14 L3141.76 1786.14 L3150.30 1786.14 L3150.30 1786.14 L3158.97 1786.14 L3158.97 1786.14 L3167.63 1786.14 L3167.63 1786.14 L3176.17 1786.14 L3176.17 1786.14 L3184.83 1786.14 L3184.83 1786.14 L3193.37 1786.14 L3193.37 1786.14 L3202.03 1786.14 L3202.03 1786.14 L3210.57 1786.14 L3210.57 1786.14 L3219.23 1786.14 L3219.23 1786.14 L3227.77 1786.14 L3227.77 1786.14 L3236.43 1786.14 L3236.43 1786.14 L3244.97 1786.14 L3244.97 1786.14 L3262.17 1786.14 L3262.17 1786.14 L3279.38 1786.14 L3279.38 1786.14 L3399.91 1786.14 L3399.91 1786.14 L3425.65 1786.14 L3425.65 1786.14" stroke-linejoin="round" style="fill:none;stroke:#1A476F;stroke-width:8.64"/>
	<path d=" M354.05 1890.34 L354.05 1890.34 L354.05 1890.34 L354.05 1890.34 L354.05 1890.34 L362.71 1890.34 L362.71 1890.22 L371.25 1890.22 L371.25 1890.09 L379.91 1890.09 L379.91 1889.72 L388.45 1889.72 L388.45 1889.47 L397.11 1889.47 L397.11 1889.35 L405.65 1889.35 L405.65 1889.10 L414.31 1889.10 L414.31 1888.86 L431.52 1888.86 L431.52 1888.61 L440.18 1888.61 L440.18 1888.61 L448.72 1888.61 L448.72 1888.36 L457.38 1888.36 L457.38 1888.36 L474.58 1888.36 L474.58 1887.99 L491.78 1887.99 L491.78 1887.87 L500.32 1887.87 L500.32 1887.62 L508.98 1887.62 L508.98 1887.37 L517.52 1887.37 L517.52 1887.00 L526.18 1887.00 L526.18 1886.75 L534.72 1886.75 L534.72 1886.50 L543.39 1886.50 L543.39 1886.50 L551.92 1886.50 L551.92 1886.26 L560.59 1886.26 L560.59 1886.01 L569.13 1886.01 L569.13 1885.76 L577.79 1885.76 L577.79 1885.76 L586.33 1885.76 L586.33 1885.27 L594.99 1885.27 L594.99 1885.14 L603.65 1885.14 L603.65 1885.02 L620.85 1885.02 L620.85 1884.77 L629.39 1884.77 L629.39 1884.52 L638.05 1884.52 L638.05 1884.28 L655.26 1884.28 L655.26 1884.15 L672.46 1884.15 L672.46 1883.91 L681.00 1883.91 L681.00 1883.66 L689.66 1883.66 L689.66 1883.53 L698.20 1883.53 L698.20 1883.41 L706.86 1883.41 L706.86 1883.29 L715.40 1883.29 L715.40 1883.04 L724.06 1883.04 L724.06 1882.79 L741.26 1882.79 L741.26 1882.67 L749.80 1882.67 L749.80 1882.67 L758.46 1882.67 L758.46 1882.42 L767.13 1882.42 L767.13 1882.30 L775.66 1882.30 L775.66 1882.30 L784.33 1882.30 L784.33 1882.17 L792.87 1882.17 L792.87 1882.05 L801.53 1882.05 L801.53 1881.93 L810.07 1881.93 L810.07 1881.80 L818.73 1881.80 L818.73 1881.68 L827.27 1881.68 L827.27 1881.55 L835.93 1881.55 L835.93 1881.43 L853.13 1881.43 L853.13 1881.18 L861.67 1881.18 L861.67 1881.06 L870.33 1881.06 L870.33 1880.81 L878.87 1880.81 L878.87 1880.69 L887.53 1880.69 L887.53 1880.44 L896.07 1880.44 L896.07 1880.44 L904.74 1880.44 L904.74 1880.32 L930.60 1880.32 L930.60 1880.19 L939.14 1880.19 L939.14 1879.82 L947.80 1879.82 L947.80 1879.82 L956.34 1879.82 L956.34 1879.70 L990.74 1879.70 L990.74 1879.57 L1007.94 1879.57 L1007.94 1879.45 L1025.14 1879.45 L1025.14 1879.45 L1059.55 1879.45 L1059.55 1879.20 L1068.21 1879.20 L1068.21 1878.95 L1076.87 1878.95 L1076.87 1878.83 L1085.41 1878.83 L1085.41 1878.83 L1094.07 1878.83 L1094.07 1878.58 L1102.61 1878.58 L1102.61 1878.46 L1111.28 1878.46 L1111.28 1878.46 L1119.81 1878.46 L1119.81 1878.34 L1128.48 1878.34 L1128.48 1878.34 L1137.02 1878.34 L1137.02 1877.96 L1145.68 1877.96 L1145.68 1877.84 L1154.22 1877.84 L1154.22 1877.72 L1171.42 1877.72 L1171.42 1877.59 L1180.08 1877.59 L1180.08 1877.47 L1188.62 1877.47 L1188.62 1877.35 L1197.28 1877.35 L1197.28 1877.10 L1205.82 1877.10 L1205.82 1876.97 L1214.48 1876.97 L1214.48 1876.85 L1231.68 1876.85 L1231.68 1876.73 L1240.35 1876.73 L1240.35 1876.60 L1248.88 1876.60 L1248.88 1876.60 L1257.55 1876.60 L1257.55 1876.48 L1266.09 1876.48 L1266.09 1876.23 L1274.75 1876.23 L1274.75 1876.11 L1283.29 1876.11 L1283.29 1875.98 L1291.95 1875.98 L1291.95 1875.86 L1300.49 1875.86 L1300.49 1875.61 L1309.15 1875.61 L1309.15 1875.37 L1317.69 1875.37 L1317.69 1875.37 L1326.35 1875.37 L1326.35 1875.24 L1334.89 1875.24 L1334.89 1874.87 L1343.55 1874.87 L1343.55 1874.87 L1360.76 1874.87 L1360.76 1874.62 L1369.29 1874.62 L1369.29 1874.38 L1377.96 1874.38 L1377.96 1874.25 L1386.49 1874.25 L1386.49 1874.13 L1395.16 1874.13 L1395.16 1874.00 L1403.82 1874.00 L1403.82 1873.88 L1412.36 1873.88 L1412.36 1873.76 L1421.02 1873.76 L1421.02 1873.51 L1429.56 1873.51 L1429.56 1873.39 L1438.22 1873.39 L1438.22 1873.26 L1455.42 1873.26 L1455.42 1873.14 L1463.96 1873.14 L1463.96 1873.01 L1472.62 1873.01 L1472.62 1872.89 L1481.16 1872.89 L1481.16 1872.64 L1489.83 1872.64 L1489.83 1872.64 L1498.37 1872.64 L1498.37 1872.52 L1507.03 1872.52 L1507.03 1872.27 L1515.57 1872.27 L1515.57 1872.27 L1524.23 1872.27 L1524.23 1872.15 L1541.43 1872.15 L1541.43 1872.02 L1549.97 1872.02 L1549.97 1872.02 L1558.63 1872.02 L1558.63 1871.90 L1567.29 1871.90 L1567.29 1871.78 L1575.83 1871.78 L1575.83 1871.65 L1584.49 1871.65 L1584.49 1871.65 L1601.70 1871.65 L1601.70 1871.41 L1610.23 1871.41 L1610.23 1871.41 L1618.90 1871.41 L1618.90 1871.28 L1627.44 1871.28 L1627.44 1871.16 L1636.10 1871.16 L1636.10 1870.91 L1670.50 1870.91 L1670.50 1870.91 L1679.04 1870.91 L1679.04 1870.79 L1687.70 1870.79 L1687.70 1870.66 L1696.24 1870.66 L1696.24 1870.42 L1713.44 1870.42 L1713.44 1870.04 L1739.31 1870.04 L1739.31 1869.92 L1747.97 1869.92 L1747.97 1869.92 L1756.51 1869.92 L1756.51 1869.80 L1765.17 1869.80 L1765.17 1869.67 L1782.37 1869.67 L1782.37 1869.55 L1790.91 1869.55 L1790.91 1869.43 L1799.57 1869.43 L1799.57 1869.30 L1808.11 1869.30 L1808.11 1869.18 L1816.77 1869.18 L1816.77 1869.05 L1825.31 1869.05 L1825.31 1869.05 L1842.51 1869.05 L1842.51 1868.81 L1851.18 1868.81 L1851.18 1868.68 L1859.71 1868.68 L1859.71 1868.56 L1868.38 1868.56 L1868.38 1868.31 L1877.04 1868.31 L1877.04 1868.31 L1885.58 1868.31 L1885.58 1868.19 L1894.24 1868.19 L1894.24 1868.06 L1902.78 1868.06 L1902.78 1867.94 L1911.44 1867.94 L1911.44 1867.82 L1919.98 1867.82 L1919.98 1867.82 L1937.18 1867.82 L1937.18 1867.69 L1945.85 1867.69 L1945.85 1867.69 L1954.38 1867.69 L1954.38 1867.57 L1971.59 1867.57 L1971.59 1867.45 L1980.25 1867.45 L1980.25 1867.32 L1997.45 1867.32 L1997.45 1867.20 L2005.99 1867.20 L2005.99 1867.07 L2014.65 1867.07 L2014.65 1866.83 L2023.19 1866.83 L2023.19 1866.83 L2031.85 1866.83 L2031.85 1866.58 L2040.51 1866.58 L2040.51 1866.58 L2049.05 1866.58 L2049.05 1866.46 L2057.72 1866.46 L2057.72 1866.33 L2074.92 1866.33 L2074.92 1866.08 L2083.45 1866.08 L2083.45 1865.96 L2092.12 1865.96 L2092.12 1865.71 L2100.66 1865.71 L2100.66 1865.59 L2109.32 1865.59 L2109.32 1865.47 L2135.06 1865.47 L2135.06 1865.34 L2143.72 1865.34 L2143.72 1865.22 L2152.26 1865.22 L2152.26 1865.22 L2160.92 1865.22 L2160.92 1865.09 L2169.46 1865.09 L2169.46 1864.97 L2178.12 1864.97 L2178.12 1864.60 L2195.32 1864.60 L2195.32 1864.48 L2203.99 1864.48 L2203.99 1864.35 L2212.53 1864.35 L2212.53 1863.98 L2229.73 1863.98 L2229.73 1863.98 L2246.93 1863.98 L2246.93 1863.73 L2255.59 1863.73 L2255.59 1863.61 L2264.13 1863.61 L2264.13 1863.49 L2281.33 1863.49 L2281.33 1863.49 L2289.99 1863.49 L2289.99 1863.36 L2307.20 1863.36 L2307.20 1863.24 L2315.73 1863.24 L2315.73 1863.11 L2324.40 1863.11 L2324.40 1862.99 L2332.93 1862.99 L2332.93 1862.87 L2341.60 1862.87 L2341.60 1862.87 L2350.14 1862.87 L2350.14 1862.74 L2358.80 1862.74 L2358.80 1862.50 L2367.46 1862.50 L2367.46 1862.37 L2384.66 1862.37 L2384.66 1862.25 L2393.20 1862.25 L2393.20 1862.00 L2410.40 1862.00 L2410.40 1861.88 L2427.60 1861.88 L2427.60 1861.75 L2444.80 1861.75 L2444.80 1861.63 L2453.47 1861.63 L2453.47 1861.63 L2462.01 1861.63 L2462.01 1861.38 L2470.67 1861.38 L2470.67 1861.26 L2487.87 1861.26 L2487.87 1861.01 L2505.07 1861.01 L2505.07 1860.89 L2513.61 1860.89 L2513.61 1860.89 L2522.27 1860.89 L2522.27 1860.76 L2530.93 1860.76 L2530.93 1860.64 L2539.47 1860.64 L2539.47 1860.39 L2556.68 1860.39 L2556.68 1860.27 L2573.88 1860.27 L2573.88 1860.14 L2591.08 1860.14 L2591.08 1860.02 L2599.74 1860.02 L2599.74 1859.77 L2608.28 1859.77 L2608.28 1859.65 L2616.94 1859.65 L2616.94 1859.53 L2625.48 1859.53 L2625.48 1859.53 L2634.14 1859.53 L2634.14 1859.40 L2642.68 1859.40 L2642.68 1859.28 L2651.34 1859.28 L2651.34 1859.15 L2659.88 1859.15 L2659.88 1859.03 L2668.55 1859.03 L2668.55 1859.03 L2677.21 1859.03 L2677.21 1858.78 L2685.75 1858.78 L2685.75 1858.78 L2694.41 1858.78 L2694.41 1858.66 L2702.95 1858.66 L2702.95 1858.54 L2711.61 1858.54 L2711.61 1858.41 L2720.15 1858.41 L2720.15 1858.29 L2737.35 1858.29 L2737.35 1858.04 L2746.01 1858.04 L2746.01 1858.04 L2754.55 1858.04 L2754.55 1857.92 L2771.75 1857.92 L2771.75 1857.79 L2780.41 1857.79 L2780.41 1857.79 L2814.82 1857.79 L2814.82 1857.67 L2823.36 1857.67 L2823.36 1857.55 L2840.68 1857.55 L2840.68 1857.55 L2849.22 1857.55 L2849.22 1857.17 L2857.88 1857.17 L2857.88 1857.05 L2875.08 1857.05 L2875.08 1856.93 L2883.62 1856.93 L2883.62 1856.68 L2892.28 1856.68 L2892.28 1856.56 L2900.82 1856.56 L2900.82 1856.31 L2909.49 1856.31 L2909.49 1856.18 L2918.03 1856.18 L2918.03 1856.06 L2926.69 1856.06 L2926.69 1855.81 L2935.23 1855.81 L2935.23 1855.69 L2943.89 1855.69 L2943.89 1855.69 L2952.43 1855.69 L2952.43 1855.44 L2961.09 1855.44 L2961.09 1855.32 L2978.29 1855.32 L2978.29 1855.32 L2986.83 1855.32 L2986.83 1855.07 L2995.49 1855.07 L2995.49 1854.82 L3004.16 1854.82 L3004.16 1854.58 L3012.69 1854.58 L3012.69 1854.45 L3021.36 1854.45 L3021.36 1854.33 L3029.89 1854.33 L3029.89 1854.20 L3047.10 1854.20 L3047.10 1853.96 L3055.76 1853.96 L3055.76 1853.83 L3064.30 1853.83 L3064.30 1853.71 L3072.96 1853.71 L3072.96 1853.59 L3081.50 1853.59 L3081.50 1853.59 L3090.16 1853.59 L3090.16 1853.46 L3098.70 1853.46 L3098.70 1853.34 L3107.36 1853.34 L3107.36 1853.09 L3115.90 1853.09 L3115.90 1852.97 L3124.56 1852.97 L3124.56 1852.84 L3133.10 1852.84 L3133.10 1852.60 L3141.76 1852.60 L3141.76 1852.60 L3150.30 1852.60 L3150.30 1852.22 L3158.97 1852.22 L3158.97 1852.10 L3167.63 1852.10 L3167.63 1851.98 L3176.17 1851.98 L3176.17 1851.73 L3184.83 1851.73 L3184.83 1851.61 L3202.03 1851.61 L3202.03 1851.36 L3210.57 1851.36 L3210.57 1851.36 L3219.23 1851.36 L3219.23 1851.11 L3227.77 1851.11 L3227.77 1850.86 L3244.97 1850.86 L3244.97 1850.74 L3253.64 1850.74 L3253.64 1850.74 L3262.17 1850.74 L3262.17 1850.62 L3270.84 1850.62 L3270.84 1850.37 L3279.38 1850.37 L3279.38 1850.00 L3288.04 1850.00 L3288.04 1849.87 L3296.58 1849.87 L3296.58 1849.50 L3305.24 1849.50 L3305.24 1848.88 L3313.78 1848.88 L3313.78 1848.76 L3322.44 1848.76 L3322.44 1848.64 L3331.10 1848.64 L3331.10 1848.51 L3339.64 1848.51 L3339.64 1848.39 L3348.30 1848.39 L3348.30 1848.02 L3356.84 1848.02 L3356.84 1847.89 L3365.51 1847.89 L3365.51 1847.77 L3374.04 1847.77 L3374.04 1847.65 L3382.71 1847.65 L3382.71 1847.52 L3391.24 1847.52 L3391.24 1847.27 L3399.91 1847.27 L3399.91 1847.15 L3408.45 1847.15 L3408.45 1847.03 L3417.11 1847.03 L3417.11 1846.66 L3425.65 1846.66 L3425.65 1846.28" stroke-linejoin="round" style="fill:none;stroke:#90353B;stroke-width:8.64"/>
	<path d=" M354.05 1890.34 L354.05 1890.34 L354.05 1890.34 L354.05 1890.34 L354.05 1890.34 L362.71 1890.34 L362.71 1890.34 L371.25 1890.34 L371.25 1890.34 L379.91 1890.34 L379.91 1890.34 L388.45 1890.34 L388.45 1890.34 L397.11 1890.34 L397.11 1890.34 L405.65 1890.34 L405.65 1890.22 L414.31 1890.22 L414.31 1890.22 L422.85 1890.22 L422.85 1890.22 L431.52 1890.22 L431.52 1890.22 L440.18 1890.22 L440.18 1890.22 L448.72 1890.22 L448.72 1890.09 L457.38 1890.09 L457.38 1890.09 L465.92 1890.09 L465.92 1890.09 L474.58 1890.09 L474.58 1890.09 L483.12 1890.09 L483.12 1889.97 L491.78 1889.97 L491.78 1889.97 L500.32 1889.97 L500.32 1889.97 L508.98 1889.97 L508.98 1889.97 L517.52 1889.97 L517.52 1889.97 L526.18 1889.97 L526.18 1889.85 L534.72 1889.85 L534.72 1889.85 L543.39 1889.85 L543.39 1889.85 L551.92 1889.85 L551.92 1889.72 L560.59 1889.72 L560.59 1889.72 L569.13 1889.72 L569.13 1889.72 L577.79 1889.72 L577.79 1889.60 L586.33 1889.60 L586.33 1889.60 L594.99 1889.60 L594.99 1889.60 L603.65 1889.60 L603.65 1889.60 L612.19 1889.60 L612.19 1889.60 L620.85 1889.60 L620.85 1889.47 L629.39 1889.47 L629.39 1889.47 L638.05 1889.47 L638.05 1889.47 L646.59 1889.47 L646.59 1889.47 L655.26 1889.47 L655.26 1889.35 L663.79 1889.35 L663.79 1889.35 L672.46 1889.35 L672.46 1889.35 L681.00 1889.35 L681.00 1889.35 L689.66 1889.35 L689.66 1889.35 L698.20 1889.35 L698.20 1889.23 L706.86 1889.23 L706.86 1889.23 L715.40 1889.23 L715.40 1889.23 L724.06 1889.23 L724.06 1889.23 L732.60 1889.23 L732.60 1889.23 L741.26 1889.23 L741.26 1889.23 L749.80 1889.23 L749.80 1889.10 L758.46 1889.10 L758.46 1889.10 L767.13 1889.10 L767.13 1889.10 L775.66 1889.10 L775.66 1889.10 L784.33 1889.10 L784.33 1888.98 L792.87 1888.98 L792.87 1888.98 L801.53 1888.98 L801.53 1888.98 L810.07 1888.98 L810.07 1888.98 L818.73 1888.98 L818.73 1888.98 L827.27 1888.98 L827.27 1888.98 L835.93 1888.98 L835.93 1888.86 L844.47 1888.86 L844.47 1888.86 L853.13 1888.86 L853.13 1888.86 L861.67 1888.86 L861.67 1888.86 L870.33 1888.86 L870.33 1888.86 L878.87 1888.86 L878.87 1888.73 L887.53 1888.73 L887.53 1888.73 L896.07 1888.73 L896.07 1888.73 L904.74 1888.73 L904.74 1888.73 L913.40 1888.73 L913.40 1888.61 L921.94 1888.61 L921.94 1888.61 L930.60 1888.61 L930.60 1888.61 L939.14 1888.61 L939.14 1888.61 L947.80 1888.61 L947.80 1888.48 L956.34 1888.48 L956.34 1888.48 L965.00 1888.48 L965.00 1888.48 L973.54 1888.48 L973.54 1888.48 L982.20 1888.48 L982.20 1888.36 L990.74 1888.36 L990.74 1888.36 L999.40 1888.36 L999.40 1888.36 L1007.94 1888.36 L1007.94 1888.36 L1016.61 1888.36 L1016.61 1888.36 L1025.14 1888.36 L1025.14 1888.24 L1033.81 1888.24 L1033.81 1888.24 L1042.35 1888.24 L1042.35 1888.24 L1051.01 1888.24 L1051.01 1888.24 L1059.55 1888.24 L1059.55 1888.11 L1068.21 1888.11 L1068.21 1888.11 L1076.87 1888.11 L1076.87 1888.11 L1085.41 1888.11 L1085.41 1888.11 L1094.07 1888.11 L1094.07 1887.99 L1102.61 1887.99 L1102.61 1887.99 L1111.28 1887.99 L1111.28 1887.99 L1119.81 1887.99 L1119.81 1887.99 L1128.48 1887.99 L1128.48 1887.99 L1137.02 1887.99 L1137.02 1887.87 L1145.68 1887.87 L1145.68 1887.87 L1154.22 1887.87 L1154.22 1887.87 L1162.88 1887.87 L1162.88 1887.74 L1171.42 1887.74 L1171.42 1887.74 L1180.08 1887.74 L1180.08 1887.74 L1188.62 1887.74 L1188.62 1887.74 L1197.28 1887.74 L1197.28 1887.74 L1205.82 1887.74 L1205.82 1887.62 L1214.48 1887.62 L1214.48 1887.62 L1223.02 1887.62 L1223.02 1887.62 L1231.68 1887.62 L1231.68 1887.62 L1240.35 1887.62 L1240.35 1887.49 L1248.88 1887.49 L1248.88 1887.49 L1257.55 1887.49 L1257.55 1887.49 L1266.09 1887.49 L1266.09 1887.49 L1274.75 1887.49 L1274.75 1887.37 L1283.29 1887.37 L1283.29 1887.37 L1291.95 1887.37 L1291.95 1887.37 L1300.49 1887.37 L1300.49 1887.37 L1309.15 1887.37 L1309.15 1887.37 L1317.69 1887.37 L1317.69 1887.25 L1326.35 1887.25 L1326.35 1887.25 L1334.89 1887.25 L1334.89 1887.25 L1343.55 1887.25 L1343.55 1887.12 L1352.09 1887.12 L1352.09 1887.12 L1360.76 1887.12 L1360.76 1887.12 L1369.29 1887.12 L1369.29 1887.12 L1377.96 1887.12 L1377.96 1887.00 L1386.49 1887.00 L1386.49 1887.00 L1395.16 1887.00 L1395.16 1887.00 L1403.82 1887.00 L1403.82 1887.00 L1412.36 1887.00 L1412.36 1887.00 L1421.02 1887.00 L1421.02 1887.00 L1429.56 1887.00 L1429.56 1886.88 L1438.22 1886.88 L1438.22 1886.88 L1446.76 1886.88 L1446.76 1886.88 L1455.42 1886.88 L1455.42 1886.88 L1463.96 1886.88 L1463.96 1886.88 L1472.62 1886.88 L1472.62 1886.75 L1481.16 1886.75 L1481.16 1886.75 L1489.83 1886.75 L1489.83 1886.75 L1498.37 1886.75 L1498.37 1886.75 L1507.03 1886.75 L1507.03 1886.75 L1515.57 1886.75 L1515.57 1886.63 L1524.23 1886.63 L1524.23 1886.63 L1532.77 1886.63 L1532.77 1886.63 L1541.43 1886.63 L1541.43 1886.63 L1549.97 1886.63 L1549.97 1886.63 L1558.63 1886.63 L1558.63 1886.50 L1567.29 1886.50 L1567.29 1886.50 L1575.83 1886.50 L1575.83 1886.50 L1584.49 1886.50 L1584.49 1886.38 L1593.03 1886.38 L1593.03 1886.38 L1601.70 1886.38 L1601.70 1886.38 L1610.23 1886.38 L1610.23 1886.38 L1618.90 1886.38 L1618.90 1886.38 L1627.44 1886.38 L1627.44 1886.26 L1636.10 1886.26 L1636.10 1886.26 L1644.64 1886.26 L1644.64 1886.26 L1653.30 1886.26 L1653.30 1886.13 L1661.84 1886.13 L1661.84 1886.13 L1670.50 1886.13 L1670.50 1886.13 L1679.04 1886.13 L1679.04 1886.13 L1687.70 1886.13 L1687.70 1886.13 L1696.24 1886.13 L1696.24 1886.01 L1704.90 1886.01 L1704.90 1886.01 L1713.44 1886.01 L1713.44 1886.01 L1722.11 1886.01 L1722.11 1886.01 L1730.77 1886.01 L1730.77 1885.89 L1739.31 1885.89 L1739.31 1885.89 L1747.97 1885.89 L1747.97 1885.89 L1756.51 1885.89 L1756.51 1885.76 L1765.17 1885.76 L1765.17 1885.76 L1773.71 1885.76 L1773.71 1885.76 L1782.37 1885.76 L1782.37 1885.76 L1790.91 1885.76 L1790.91 1885.76 L1799.57 1885.76 L1799.57 1885.64 L1808.11 1885.64 L1808.11 1885.64 L1816.77 1885.64 L1816.77 1885.64 L1825.31 1885.64 L1825.31 1885.51 L1833.97 1885.51 L1833.97 1885.51 L1842.51 1885.51 L1842.51 1885.51 L1851.18 1885.51 L1851.18 1885.51 L1859.71 1885.51 L1859.71 1885.39 L1868.38 1885.39 L1868.38 1885.39 L1877.04 1885.39 L1877.04 1885.39 L1885.58 1885.39 L1885.58 1885.39 L1894.24 1885.39 L1894.24 1885.27 L1902.78 1885.27 L1902.78 1885.27 L1911.44 1885.27 L1911.44 1885.27 L1919.98 1885.27 L1919.98 1885.14 L1928.64 1885.14 L1928.64 1885.14 L1937.18 1885.14 L1937.18 1885.14 L1945.85 1885.14 L1945.85 1885.02 L1954.38 1885.02 L1954.38 1885.02 L1963.05 1885.02 L1963.05 1885.02 L1971.59 1885.02 L1971.59 1885.02 L1980.25 1885.02 L1980.25 1884.90 L1988.79 1884.90 L1988.79 1884.90 L1997.45 1884.90 L1997.45 1884.90 L2005.99 1884.90 L2005.99 1884.77 L2014.65 1884.77 L2014.65 1884.77 L2023.19 1884.77 L2023.19 1884.77 L2031.85 1884.77 L2031.85 1884.65 L2040.51 1884.65 L2040.51 1884.65 L2049.05 1884.65 L2049.05 1884.65 L2057.72 1884.65 L2057.72 1884.65 L2066.25 1884.65 L2066.25 1884.52 L2074.92 1884.52 L2074.92 1884.52 L2083.45 1884.52 L2083.45 1884.52 L2092.12 1884.52 L2092.12 1884.40 L2100.66 1884.40 L2100.66 1884.40 L2109.32 1884.40 L2109.32 1884.40 L2117.86 1884.40 L2117.86 1884.28 L2126.52 1884.28 L2126.52 1884.28 L2135.06 1884.28 L2135.06 1884.28 L2143.72 1884.28 L2143.72 1884.28 L2152.26 1884.28 L2152.26 1884.15 L2160.92 1884.15 L2160.92 1884.15 L2169.46 1884.15 L2169.46 1884.15 L2178.12 1884.15 L2178.12 1884.15 L2186.66 1884.15 L2186.66 1884.03 L2195.32 1884.03 L2195.32 1884.03 L2203.99 1884.03 L2203.99 1883.91 L2212.53 1883.91 L2212.53 1883.91 L2221.19 1883.91 L2221.19 1883.91 L2229.73 1883.91 L2229.73 1883.78 L2238.39 1883.78 L2238.39 1883.78 L2246.93 1883.78 L2246.93 1883.78 L2255.59 1883.78 L2255.59 1883.78 L2264.13 1883.78 L2264.13 1883.66 L2272.79 1883.66 L2272.79 1883.66 L2281.33 1883.66 L2281.33 1883.53 L2289.99 1883.53 L2289.99 1883.53 L2298.53 1883.53 L2298.53 1883.53 L2307.20 1883.53 L2307.20 1883.41 L2315.73 1883.41 L2315.73 1883.41 L2324.40 1883.41 L2324.40 1883.41 L2332.93 1883.41 L2332.93 1883.41 L2341.60 1883.41 L2341.60 1883.29 L2350.14 1883.29 L2350.14 1883.29 L2358.80 1883.29 L2358.80 1883.29 L2367.46 1883.29 L2367.46 1883.29 L2376.00 1883.29 L2376.00 1883.16 L2384.66 1883.16 L2384.66 1883.16 L2393.20 1883.16 L2393.20 1883.16 L2401.86 1883.16 L2401.86 1883.04 L2410.40 1883.04 L2410.40 1883.04 L2419.07 1883.04 L2419.07 1883.04 L2427.60 1883.04 L2427.60 1882.92 L2436.27 1882.92 L2436.27 1882.92 L2444.80 1882.92 L2444.80 1882.92 L2453.47 1882.92 L2453.47 1882.79 L2462.01 1882.79 L2462.01 1882.79 L2470.67 1882.79 L2470.67 1882.67 L2479.21 1882.67 L2479.21 1882.67 L2487.87 1882.67 L2487.87 1882.67 L2496.41 1882.67 L2496.41 1882.67 L2505.07 1882.67 L2505.07 1882.54 L2513.61 1882.54 L2513.61 1882.54 L2522.27 1882.54 L2522.27 1882.42 L2530.93 1882.42 L2530.93 1882.42 L2539.47 1882.42 L2539.47 1882.42 L2548.14 1882.42 L2548.14 1882.42 L2556.68 1882.42 L2556.68 1882.30 L2565.34 1882.30 L2565.34 1882.30 L2573.88 1882.30 L2573.88 1882.30 L2582.54 1882.30 L2582.54 1882.30 L2591.08 1882.30 L2591.08 1882.17 L2599.74 1882.17 L2599.74 1882.17 L2608.28 1882.17 L2608.28 1882.17 L2616.94 1882.17 L2616.94 1882.05 L2625.48 1882.05 L2625.48 1882.05 L2634.14 1882.05 L2634.14 1882.05 L2642.68 1882.05 L2642.68 1882.05 L2651.34 1882.05 L2651.34 1881.93 L2659.88 1881.93 L2659.88 1881.93 L2668.55 1881.93 L2668.55 1881.93 L2677.21 1881.93 L2677.21 1881.80 L2685.75 1881.80 L2685.75 1881.80 L2694.41 1881.80 L2694.41 1881.68 L2702.95 1881.68 L2702.95 1881.68 L2711.61 1881.68 L2711.61 1881.68 L2720.15 1881.68 L2720.15 1881.55 L2728.81 1881.55 L2728.81 1881.55 L2737.35 1881.55 L2737.35 1881.43 L2746.01 1881.43 L2746.01 1881.43 L2754.55 1881.43 L2754.55 1881.43 L2763.21 1881.43 L2763.21 1881.31 L2771.75 1881.31 L2771.75 1881.31 L2780.41 1881.31 L2780.41 1881.31 L2788.95 1881.31 L2788.95 1881.18 L2797.62 1881.18 L2797.62 1881.18 L2806.16 1881.18 L2806.16 1881.18 L2814.82 1881.18 L2814.82 1881.18 L2823.36 1881.18 L2823.36 1881.06 L2832.02 1881.06 L2832.02 1881.06 L2840.68 1881.06 L2840.68 1880.94 L2849.22 1880.94 L2849.22 1880.94 L2857.88 1880.94 L2857.88 1880.94 L2866.42 1880.94 L2866.42 1880.81 L2875.08 1880.81 L2875.08 1880.81 L2883.62 1880.81 L2883.62 1880.81 L2892.28 1880.81 L2892.28 1880.81 L2900.82 1880.81 L2900.82 1880.69 L2909.49 1880.69 L2909.49 1880.69 L2918.03 1880.69 L2918.03 1880.69 L2926.69 1880.69 L2926.69 1880.69 L2935.23 1880.69 L2935.23 1880.56 L2943.89 1880.56 L2943.89 1880.56 L2952.43 1880.56 L2952.43 1880.56 L2961.09 1880.56 L2961.09 1880.44 L2969.63 1880.44 L2969.63 1880.44 L2978.29 1880.44 L2978.29 1880.44 L2986.83 1880.44 L2986.83 1880.32 L2995.49 1880.32 L2995.49 1880.32 L3004.16 1880.32 L3004.16 1880.32 L3012.69 1880.32 L3012.69 1880.19 L3021.36 1880.19 L3021.36 1880.19 L3029.89 1880.19 L3029.89 1880.19 L3038.56 1880.19 L3038.56 1880.07 L3047.10 1880.07 L3047.10 1880.07 L3055.76 1880.07 L3055.76 1880.07 L3064.30 1880.07 L3064.30 1879.94 L3072.96 1879.94 L3072.96 1879.94 L3081.50 1879.94 L3081.50 1879.82 L3090.16 1879.82 L3090.16 1879.82 L3098.70 1879.82 L3098.70 1879.82 L3107.36 1879.82 L3107.36 1879.70 L3115.90 1879.70 L3115.90 1879.70 L3124.56 1879.70 L3124.56 1879.70 L3133.10 1879.70 L3133.10 1879.57 L3141.76 1879.57 L3141.76 1879.57 L3150.30 1879.57 L3150.30 1879.57 L3158.97 1879.57 L3158.97 1879.45 L3167.63 1879.45 L3167.63 1879.45 L3176.17 1879.45 L3176.17 1879.33 L3184.83 1879.33 L3184.83 1879.33 L3193.37 1879.33 L3193.37 1879.33 L3202.03 1879.33 L3202.03 1879.20 L3210.57 1879.20 L3210.57 1879.20 L3219.23 1879.20 L3219.23 1879.08 L3227.77 1879.08 L3227.77 1879.08 L3236.43 1879.08 L3236.43 1879.08 L3244.97 1879.08 L3244.97 1878.95 L3253.64 1878.95 L3253.64 1878.95 L3262.17 1878.95 L3262.17 1878.95 L3270.84 1878.95 L3270.84 1878.83 L3279.38 1878.83 L3279.38 1878.83 L3288.04 1878.83 L3288.04 1878.71 L3296.58 1878.71 L3296.58 1878.71 L3305.24 1878.71 L3305.24 1878.58 L3313.78 1878.58 L3313.78 1878.58 L3322.44 1878.58 L3322.44 1878.58 L3331.10 1878.58 L3331.10 1878.46 L3339.64 1878.46 L3339.64 1878.46 L3348.30 1878.46 L3348.30 1878.34 L3356.84 1878.34 L3356.84 1878.34 L3365.51 1878.34 L3365.51 1878.34 L3374.04 1878.34 L3374.04 1878.21 L3382.71 1878.21 L3382.71 1878.21 L3391.24 1878.21 L3391.24 1878.21 L3399.91 1878.21 L3399.91 1878.09 L3408.45 1878.09 L3408.45 1878.09 L3417.11 1878.09 L3417.11 1877.96 L3425.65 1877.96 L3425.65 1877.96" stroke-linejoin="round" style="fill:none;stroke:#55752F;stroke-width:8.64"/>
	<line x1="290.81" y1="1953.70" x2="290.81" y2="100.86" style="stroke:#000000;stroke-width:5.76"/>
	<line x1="290.81" y1="1890.34" x2="250.84" y2="1890.34" style="stroke:#000000;stroke-width:5.76"/>
	<text x="200.73" y="1890.34" style="font-family:'Helvetica';font-size:99.99px;fill:#000000" transform="rotate(-90 200.73,1890.34)" text-anchor="middle">0.00</text>
	<line x1="290.81" y1="1458.81" x2="250.84" y2="1458.81" style="stroke:#000000;stroke-width:5.76"/>
	<text x="200.73" y="1458.81" style="font-family:'Helvetica';font-size:99.99px;fill:#000000" transform="rotate(-90 200.73,1458.81)" text-anchor="middle">0.25</text>
	<line x1="290.81" y1="1027.28" x2="250.84" y2="1027.28" style="stroke:#000000;stroke-width:5.76"/>
	<text x="200.73" y="1027.28" style="font-family:'Helvetica';font-size:99.99px;fill:#000000" transform="rotate(-90 200.73,1027.28)" text-anchor="middle">0.50</text>
	<line x1="290.81" y1="595.75" x2="250.84" y2="595.75" style="stroke:#000000;stroke-width:5.76"/>
	<text x="200.73" y="595.75" style="font-family:'Helvetica';font-size:99.99px;fill:#000000" transform="rotate(-90 200.73,595.75)" text-anchor="middle">0.75</text>
	<line x1="290.81" y1="164.22" x2="250.84" y2="164.22" style="stroke:#000000;stroke-width:5.76"/>
	<text x="200.73" y="164.22" style="font-family:'Helvetica';font-size:99.99px;fill:#000000" transform="rotate(-90 200.73,164.22)" text-anchor="middle">1.00</text>
	<line x1="290.81" y1="1953.70" x2="3859.02" y2="1953.70" style="stroke:#000000;stroke-width:5.76"/>
	<line x1="354.17" y1="1953.70" x2="354.17" y2="1993.67" style="stroke:#000000;stroke-width:5.76"/>
	<text x="354.17" y="2083.66" style="font-family:'Helvetica';font-size:99.99px;fill:#000000" text-anchor="middle">0</text>
	<line x1="1214.48" y1="1953.70" x2="1214.48" y2="1993.67" style="stroke:#000000;stroke-width:5.76"/>
	<text x="1214.48" y="2083.66" style="font-family:'Helvetica';font-size:99.99px;fill:#000000" text-anchor="middle">100</text>
	<line x1="2074.92" y1="1953.70" x2="2074.92" y2="1993.67" style="stroke:#000000;stroke-width:5.76"/>
	<text x="2074.92" y="2083.66" style="font-family:'Helvetica';font-size:99.99px;fill:#000000" text-anchor="middle">200</text>
	<line x1="2935.35" y1="1953.70" x2="2935.35" y2="1993.67" style="stroke:#000000;stroke-width:5.76"/>
	<text x="2935.35" y="2083.66" style="font-family:'Helvetica';font-size:99.99px;fill:#000000" text-anchor="middle">300</text>
	<line x1="3795.66" y1="1953.70" x2="3795.66" y2="1993.67" style="stroke:#000000;stroke-width:5.76"/>
	<text x="3795.66" y="2083.66" style="font-family:'Helvetica';font-size:99.99px;fill:#000000" text-anchor="middle">400</text>
	<text x="2074.92" y="2193.67" style="font-family:'Helvetica';font-size:99.99px;fill:#000000" text-anchor="middle">Days from index date</text>
	<rect x="1057.57" y="2278.31" width="2034.82" height="466.30" style="fill:#FFFFFF"/>
	<rect x="1060.45" y="2281.19" width="2029.06" height="460.54" style="fill:none;stroke:#000000;stroke-width:5.76"/>
	<line x1="1100.76" y1="2371.50" x2="1475.10" y2="2371.50" style="stroke:#1A476F;stroke-width:8.64"/>
	<line x1="1100.76" y1="2511.46" x2="1475.10" y2="2511.46" style="stroke:#90353B;stroke-width:8.64"/>
	<line x1="1100.76" y1="2651.43" x2="1475.10" y2="2651.43" style="stroke:#55752F;stroke-width:8.64"/>
	<text x="1535.12" y="2406.52" style="font-family:'Helvetica';font-size:99.99px;fill:#000000">group = Hospitalised COVID-19</text>
	<text x="1535.12" y="2546.49" style="font-family:'Helvetica';font-size:99.99px;fill:#000000">group = Hospitalised flu 2017_19</text>
	<text x="1535.12" y="2686.46" style="font-family:'Helvetica';font-size:99.99px;fill:#000000">group = General pop 2019</text>
</svg>
