<?xml version="1.0" encoding="UTF-8" standalone="no"?>
<!-- This is a Stata 16.1 generated SVG file (http://www.stata.com) -->

<svg version="1.1" width="5.50in" height="4.00in" viewBox="0 0 3960 2880" xmlns="http://www.w3.org/2000/svg" xmlns:xlink="http://www.w3.org/1999/xlink">
	<desc>Stata Graph - composite</desc>
	<rect x="0" y="0" width="3960" height="2880" style="fill:#EAF2F3;stroke:none"/>
	<rect x="0.00" y="0.00" width="3959.88" height="2880.00" style="fill:#EAF2F3"/>
	<rect x="2.88" y="2.88" width="3954.12" height="2874.24" style="fill:none;stroke:#EAF2F3;stroke-width:5.76"/>
	<rect x="290.81" y="100.86" width="3568.21" height="1852.84" style="fill:#FFFFFF"/>
	<rect x="293.69" y="103.74" width="3562.45" height="1847.08" style="fill:none;stroke:#FFFFFF;stroke-width:5.76"/>
	<line x1="290.81" y1="1890.34" x2="3859.02" y2="1890.34" style="stroke:#EAF2F3;stroke-width:8.64"/>
	<line x1="290.81" y1="1458.81" x2="3859.02" y2="1458.81" style="stroke:#EAF2F3;stroke-width:8.64"/>
	<line x1="290.81" y1="1027.28" x2="3859.02" y2="1027.28" style="stroke:#EAF2F3;stroke-width:8.64"/>
	<line x1="290.81" y1="595.75" x2="3859.02" y2="595.75" style="stroke:#EAF2F3;stroke-width:8.64"/>
	<path d=" M354.05 1890.34 L354.05 1890.34 L354.05 1890.34 L354.05 1890.34 L354.05 1890.34 L359.87 1890.34 L359.87 1876.11 L365.56 1876.11 L365.56 1859.77 L377.07 1859.77 L377.07 1846.78 L388.45 1846.78 L388.45 1833.17 L399.96 1833.17 L399.96 1822.40 L411.47 1822.40 L411.47 1811.26 L422.85 1811.26 L422.85 1801.86 L434.36 1801.86 L434.36 1790.59 L445.87 1790.59 L445.87 1782.43 L457.38 1782.43 L457.38 1772.77 L468.76 1772.77 L468.76 1763.49 L480.27 1763.49 L480.27 1754.95 L491.78 1754.95 L491.78 1747.16 L503.17 1747.16 L503.17 1739.73 L514.68 1739.73 L514.68 1733.42 L526.18 1733.42 L526.18 1726.99 L537.57 1726.99 L537.57 1720.06 L549.08 1720.06 L549.08 1713.87 L560.59 1713.87 L560.59 1708.92 L572.10 1708.92 L572.10 1702.73 L583.48 1702.73 L583.48 1697.90 L594.99 1697.90 L594.99 1693.57 L606.50 1693.57 L606.50 1689.24 L617.88 1689.24 L617.88 1685.53 L629.39 1685.53 L629.39 1679.09 L640.90 1679.09 L640.90 1672.78 L652.41 1672.78 L652.41 1665.97 L663.79 1665.97 L663.79 1660.41 L675.30 1660.41 L675.30 1655.70 L686.81 1655.70 L686.81 1651.87 L698.20 1651.87 L698.20 1647.04 L709.71 1647.04 L709.71 1643.45 L721.22 1643.45 L721.22 1639.12 L732.60 1639.12 L732.60 1634.54 L744.11 1634.54 L744.11 1628.60 L755.62 1628.60 L755.62 1625.01 L767.13 1625.01 L767.13 1621.30 L778.51 1621.30 L778.51 1617.96 L790.02 1617.96 L790.02 1614.62 L801.53 1614.62 L801.53 1611.40 L812.91 1611.40 L812.91 1608.18 L824.42 1608.18 L824.42 1604.84 L835.93 1604.84 L835.93 1601.50 L847.32 1601.50 L847.32 1598.16 L858.83 1598.16 L858.83 1594.07 L870.33 1594.07 L870.33 1591.97 L881.84 1591.97 L881.84 1589.00 L893.23 1589.00 L893.23 1584.17 L904.74 1584.17 L904.74 1581.20 L916.25 1581.20 L916.25 1576.87 L927.63 1576.87 L927.63 1574.15 L939.14 1574.15 L939.14 1570.31 L950.65 1570.31 L950.65 1566.85 L962.03 1566.85 L962.03 1563.88 L973.54 1563.88 L973.54 1560.17 L985.05 1560.17 L985.05 1556.95 L996.56 1556.95 L996.56 1553.48 L1007.94 1553.48 L1007.94 1550.02 L1019.45 1550.02 L1019.45 1546.92 L1030.96 1546.92 L1030.96 1543.83 L1042.35 1543.83 L1042.35 1540.49 L1053.86 1540.49 L1053.86 1537.15 L1065.36 1537.15 L1065.36 1534.05 L1076.87 1534.05 L1076.87 1530.59 L1088.26 1530.59 L1088.26 1527.49 L1099.77 1527.49 L1099.77 1525.27 L1111.28 1525.27 L1111.28 1523.66 L1122.66 1523.66 L1122.66 1521.43 L1134.17 1521.43 L1134.17 1517.96 L1145.68 1517.96 L1145.68 1515.12 L1157.06 1515.12 L1157.06 1512.64 L1168.57 1512.64 L1168.57 1510.42 L1180.08 1510.42 L1180.08 1507.45 L1191.59 1507.45 L1191.59 1505.34 L1202.97 1505.34 L1202.97 1503.11 L1214.48 1503.11 L1214.48 1500.52 L1225.99 1500.52 L1225.99 1498.41 L1237.38 1498.41 L1237.38 1495.57 L1248.88 1495.57 L1248.88 1492.22 L1260.39 1492.22 L1260.39 1489.50 L1271.78 1489.50 L1271.78 1486.53 L1283.29 1486.53 L1283.29 1483.07 L1294.80 1483.07 L1294.80 1480.72 L1306.31 1480.72 L1306.31 1478.49 L1317.69 1478.49 L1317.69 1475.15 L1329.20 1475.15 L1329.20 1472.92 L1340.71 1472.92 L1340.71 1470.81 L1352.09 1470.81 L1352.09 1467.47 L1363.60 1467.47 L1363.60 1464.38 L1375.11 1464.38 L1375.11 1462.15 L1386.49 1462.15 L1386.49 1460.17 L1398.00 1460.17 L1398.00 1458.56 L1409.51 1458.56 L1409.51 1455.47 L1421.02 1455.47 L1421.02 1453.49 L1432.41 1453.49 L1432.41 1451.26 L1443.91 1451.26 L1443.91 1449.90 L1455.42 1449.90 L1455.42 1447.80 L1466.81 1447.80 L1466.81 1446.06 L1478.32 1446.06 L1478.32 1443.59 L1489.83 1443.59 L1489.83 1441.61 L1501.34 1441.61 L1501.34 1440.00 L1512.72 1440.00 L1512.72 1437.90 L1524.23 1437.90 L1524.23 1435.42 L1535.74 1435.42 L1535.74 1433.69 L1547.12 1433.69 L1547.12 1432.08 L1558.63 1432.08 L1558.63 1430.35 L1570.14 1430.35 L1570.14 1428.99 L1581.53 1428.99 L1581.53 1426.26 L1593.03 1426.26 L1593.03 1424.04 L1604.54 1424.04 L1604.54 1422.18 L1616.05 1422.18 L1616.05 1420.20 L1627.44 1420.20 L1627.44 1417.72 L1638.94 1417.72 L1638.94 1415.99 L1650.45 1415.99 L1650.45 1414.26 L1661.84 1414.26 L1661.84 1411.91 L1673.35 1411.91 L1673.35 1409.43 L1684.86 1409.43 L1684.86 1408.07 L1696.24 1408.07 L1696.24 1405.10 L1707.75 1405.10 L1707.75 1402.87 L1719.26 1402.87 L1719.26 1400.52 L1730.77 1400.52 L1730.77 1399.41 L1742.15 1399.41 L1742.15 1397.55 L1753.66 1397.55 L1753.66 1395.82 L1765.17 1395.82 L1765.17 1392.97 L1776.56 1392.97 L1776.56 1391.74 L1788.06 1391.74 L1788.06 1389.51 L1799.57 1389.51 L1799.57 1387.90 L1810.96 1387.90 L1810.96 1385.67 L1822.47 1385.67 L1822.47 1384.06 L1833.97 1384.06 L1833.97 1382.70 L1845.48 1382.70 L1845.48 1380.47 L1856.87 1380.47 L1856.87 1378.62 L1868.38 1378.62 L1868.38 1376.51 L1879.89 1376.51 L1879.89 1374.04 L1891.27 1374.04 L1891.27 1371.94 L1902.78 1371.94 L1902.78 1369.71 L1914.29 1369.71 L1914.29 1367.48 L1925.67 1367.48 L1925.67 1365.62 L1937.18 1365.62 L1937.18 1363.89 L1948.69 1363.89 L1948.69 1362.90 L1960.20 1362.90 L1960.20 1361.17 L1971.59 1361.17 L1971.59 1360.06 L1983.09 1360.06 L1983.09 1357.58 L1994.60 1357.58 L1994.60 1355.60 L2005.99 1355.60 L2005.99 1353.99 L2017.50 1353.99 L2017.50 1351.89 L2029.01 1351.89 L2029.01 1350.90 L2040.51 1350.90 L2040.51 1348.92 L2051.90 1348.92 L2051.90 1347.06 L2063.41 1347.06 L2063.41 1344.46 L2074.92 1344.46 L2074.92 1342.48 L2086.30 1342.48 L2086.30 1340.38 L2097.81 1340.38 L2097.81 1337.66 L2109.32 1337.66 L2109.32 1336.67 L2120.70 1336.67 L2120.70 1335.80 L2132.21 1335.80 L2132.21 1334.44 L2143.72 1334.44 L2143.72 1332.83 L2155.23 1332.83 L2155.23 1331.10 L2166.61 1331.10 L2166.61 1328.99 L2178.12 1328.99 L2178.12 1327.88 L2189.63 1327.88 L2189.63 1325.53 L2201.02 1325.53 L2201.02 1323.55 L2212.53 1323.55 L2212.53 1322.31 L2224.03 1322.31 L2224.03 1320.95 L2235.42 1320.95 L2235.42 1319.96 L2246.93 1319.96 L2246.93 1317.85 L2258.44 1317.85 L2258.44 1317.24 L2269.95 1317.24 L2269.95 1315.01 L2281.33 1315.01 L2281.33 1314.02 L2292.84 1314.02 L2292.84 1312.78 L2304.35 1312.78 L2304.35 1311.17 L2315.73 1311.17 L2315.73 1310.18 L2327.24 1310.18 L2327.24 1307.58 L2338.75 1307.58 L2338.75 1306.10 L2350.14 1306.10 L2350.14 1305.36 L2361.64 1305.36 L2361.64 1303.62 L2373.15 1303.62 L2373.15 1302.26 L2384.66 1302.26 L2384.66 1300.90 L2396.05 1300.90 L2396.05 1300.03 L2407.56 1300.03 L2407.56 1299.29 L2419.07 1299.29 L2419.07 1297.44 L2430.45 1297.44 L2430.45 1296.07 L2441.96 1296.07 L2441.96 1294.96 L2453.47 1294.96 L2453.47 1293.48 L2464.98 1293.48 L2464.98 1292.98 L2476.36 1292.98 L2476.36 1291.50 L2487.87 1291.50 L2487.87 1290.13 L2499.38 1290.13 L2499.38 1289.02 L2510.76 1289.02 L2510.76 1288.77 L2522.27 1288.77 L2522.27 1286.92 L2533.78 1286.92 L2533.78 1284.69 L2545.17 1284.69 L2545.17 1283.58 L2556.68 1283.58 L2556.68 1282.96 L2568.18 1282.96 L2568.18 1281.72 L2579.69 1281.72 L2579.69 1280.73 L2591.08 1280.73 L2591.08 1279.61 L2602.59 1279.61 L2602.59 1278.50 L2614.09 1278.50 L2614.09 1278.01 L2625.48 1278.01 L2625.48 1276.27 L2636.99 1276.27 L2636.99 1276.27 L2648.50 1276.27 L2648.50 1274.54 L2659.88 1274.54 L2659.88 1273.92 L2671.39 1273.92 L2671.39 1271.82 L2682.90 1271.82 L2682.90 1269.47 L2694.41 1269.47 L2694.41 1268.60 L2705.79 1268.60 L2705.79 1266.62 L2717.30 1266.62 L2717.30 1264.15 L2728.81 1264.15 L2728.81 1262.78 L2740.20 1262.78 L2740.20 1262.78 L2751.70 1262.78 L2751.70 1260.93 L2763.21 1260.93 L2763.21 1260.93 L2774.60 1260.93 L2774.60 1260.93 L2786.11 1260.93 L2786.11 1260.93 L2797.62 1260.93 L2797.62 1260.93 L2809.13 1260.93 L2809.13 1260.93 L2820.51 1260.93 L2820.51 1260.93 L2832.02 1260.93 L2832.02 1260.93 L2843.53 1260.93 L2843.53 1260.93 L2854.91 1260.93 L2854.91 1260.93 L2866.42 1260.93 L2866.42 1260.93 L2877.93 1260.93 L2877.93 1260.93 L2889.44 1260.93 L2889.44 1260.93 L2900.82 1260.93 L2900.82 1237.54 L2912.33 1237.54 L2912.33 1237.54 L2923.84 1237.54 L2923.84 1237.54 L2935.23 1237.54 L2935.23 1237.54 L2946.74 1237.54 L2946.74 1237.54 L2958.24 1237.54 L2958.24 1237.54 L2969.63 1237.54 L2969.63 1237.54 L2981.14 1237.54 L2981.14 1237.54 L2992.65 1237.54 L2992.65 1237.54 L3004.16 1237.54 L3004.16 1237.54 L3015.54 1237.54 L3015.54 1237.54 L3027.05 1237.54 L3027.05 1237.54 L3038.56 1237.54 L3038.56 1237.54 L3072.96 1237.54 L3072.96 1237.54 L3095.85 1237.54 L3095.85 1237.54 L3256.48 1237.54 L3256.48 1237.54 L3290.88 1237.54 L3290.88 1237.54" stroke-linejoin="round" style="fill:none;stroke:#1A476F;stroke-width:8.64"/>
	<path d=" M354.05 1890.34 L354.05 1890.34 L354.05 1890.34 L354.05 1890.34 L354.05 1890.34 L359.87 1890.34 L359.87 1877.10 L365.56 1877.10 L365.56 1863.24 L377.07 1863.24 L377.07 1849.13 L388.45 1849.13 L388.45 1837.74 L399.96 1837.74 L399.96 1825.74 L411.47 1825.74 L411.47 1813.98 L422.85 1813.98 L422.85 1803.09 L434.36 1803.09 L434.36 1794.18 L445.87 1794.18 L445.87 1785.52 L457.38 1785.52 L457.38 1776.61 L468.76 1776.61 L468.76 1767.58 L480.27 1767.58 L480.27 1761.64 L491.78 1761.64 L491.78 1753.47 L503.17 1753.47 L503.17 1745.18 L514.68 1745.18 L514.68 1737.75 L526.18 1737.75 L526.18 1730.20 L537.57 1730.20 L537.57 1723.03 L549.08 1723.03 L549.08 1717.95 L560.59 1717.95 L560.59 1711.39 L572.10 1711.39 L572.10 1704.71 L583.48 1704.71 L583.48 1697.90 L594.99 1697.90 L594.99 1691.72 L606.50 1691.72 L606.50 1686.52 L617.88 1686.52 L617.88 1680.33 L629.39 1680.33 L629.39 1675.01 L640.90 1675.01 L640.90 1669.93 L652.41 1669.93 L652.41 1664.37 L663.79 1664.37 L663.79 1658.43 L675.30 1658.43 L675.30 1651.74 L686.81 1651.74 L686.81 1646.79 L698.20 1646.79 L698.20 1641.47 L709.71 1641.47 L709.71 1635.78 L721.22 1635.78 L721.22 1632.68 L732.60 1632.68 L732.60 1626.00 L744.11 1626.00 L744.11 1621.55 L755.62 1621.55 L755.62 1616.72 L767.13 1616.72 L767.13 1612.02 L778.51 1612.02 L778.51 1607.19 L790.02 1607.19 L790.02 1602.86 L801.53 1602.86 L801.53 1598.65 L812.91 1598.65 L812.91 1594.69 L824.42 1594.69 L824.42 1591.35 L835.93 1591.35 L835.93 1587.89 L847.32 1587.89 L847.32 1585.16 L858.83 1585.16 L858.83 1580.46 L870.33 1580.46 L870.33 1577.00 L881.84 1577.00 L881.84 1574.15 L893.23 1574.15 L893.23 1569.69 L904.74 1569.69 L904.74 1565.98 L916.25 1565.98 L916.25 1561.77 L927.63 1561.77 L927.63 1557.57 L939.14 1557.57 L939.14 1553.85 L950.65 1553.85 L950.65 1551.50 L962.03 1551.50 L962.03 1547.54 L973.54 1547.54 L973.54 1544.45 L985.05 1544.45 L985.05 1541.23 L996.56 1541.23 L996.56 1536.90 L1007.94 1536.90 L1007.94 1533.19 L1019.45 1533.19 L1019.45 1530.84 L1030.96 1530.84 L1030.96 1527.49 L1042.35 1527.49 L1042.35 1524.03 L1053.86 1524.03 L1053.86 1520.32 L1065.36 1520.32 L1065.36 1516.60 L1076.87 1516.60 L1076.87 1513.01 L1088.26 1513.01 L1088.26 1508.19 L1099.77 1508.19 L1099.77 1504.97 L1111.28 1504.97 L1111.28 1501.51 L1122.66 1501.51 L1122.66 1498.66 L1134.17 1498.66 L1134.17 1495.44 L1145.68 1495.44 L1145.68 1492.35 L1157.06 1492.35 L1157.06 1489.63 L1168.57 1489.63 L1168.57 1485.29 L1180.08 1485.29 L1180.08 1482.45 L1191.59 1482.45 L1191.59 1478.61 L1202.97 1478.61 L1202.97 1476.26 L1214.48 1476.26 L1214.48 1473.91 L1225.99 1473.91 L1225.99 1471.06 L1237.38 1471.06 L1237.38 1468.34 L1248.88 1468.34 L1248.88 1465.62 L1260.39 1465.62 L1260.39 1463.02 L1271.78 1463.02 L1271.78 1460.91 L1283.29 1460.91 L1283.29 1458.32 L1294.80 1458.32 L1294.80 1455.72 L1306.31 1455.72 L1306.31 1453.12 L1317.69 1453.12 L1317.69 1449.90 L1329.20 1449.90 L1329.20 1448.17 L1340.71 1448.17 L1340.71 1445.20 L1352.09 1445.20 L1352.09 1442.72 L1363.60 1442.72 L1363.60 1440.00 L1375.11 1440.00 L1375.11 1437.03 L1386.49 1437.03 L1386.49 1434.43 L1398.00 1434.43 L1398.00 1431.71 L1409.51 1431.71 L1409.51 1429.23 L1421.02 1429.23 L1421.02 1427.38 L1432.41 1427.38 L1432.41 1424.28 L1443.91 1424.28 L1443.91 1421.68 L1455.42 1421.68 L1455.42 1418.47 L1466.81 1418.47 L1466.81 1415.62 L1478.32 1415.62 L1478.32 1413.02 L1489.83 1413.02 L1489.83 1410.05 L1501.34 1410.05 L1501.34 1407.33 L1512.72 1407.33 L1512.72 1404.98 L1524.23 1404.98 L1524.23 1402.75 L1535.74 1402.75 L1535.74 1400.40 L1547.12 1400.40 L1547.12 1398.29 L1558.63 1398.29 L1558.63 1396.31 L1570.14 1396.31 L1570.14 1394.21 L1581.53 1394.21 L1581.53 1391.49 L1593.03 1391.49 L1593.03 1389.38 L1604.54 1389.38 L1604.54 1386.66 L1616.05 1386.66 L1616.05 1383.69 L1627.44 1383.69 L1627.44 1381.22 L1638.94 1381.22 L1638.94 1379.11 L1650.45 1379.11 L1650.45 1376.27 L1661.84 1376.27 L1661.84 1373.67 L1673.35 1373.67 L1673.35 1371.07 L1684.86 1371.07 L1684.86 1368.84 L1696.24 1368.84 L1696.24 1365.50 L1707.75 1365.50 L1707.75 1362.65 L1719.26 1362.65 L1719.26 1360.92 L1730.77 1360.92 L1730.77 1359.06 L1742.15 1359.06 L1742.15 1356.84 L1753.66 1356.84 L1753.66 1355.97 L1765.17 1355.97 L1765.17 1353.87 L1776.56 1353.87 L1776.56 1352.01 L1788.06 1352.01 L1788.06 1350.15 L1799.57 1350.15 L1799.57 1348.17 L1810.96 1348.17 L1810.96 1346.07 L1822.47 1346.07 L1822.47 1343.72 L1833.97 1343.72 L1833.97 1340.63 L1845.48 1340.63 L1845.48 1337.78 L1856.87 1337.78 L1856.87 1336.05 L1868.38 1336.05 L1868.38 1333.20 L1879.89 1333.20 L1879.89 1330.85 L1891.27 1330.85 L1891.27 1329.74 L1902.78 1329.74 L1902.78 1327.63 L1914.29 1327.63 L1914.29 1325.53 L1925.67 1325.53 L1925.67 1324.91 L1937.18 1324.91 L1937.18 1322.81 L1948.69 1322.81 L1948.69 1321.07 L1960.20 1321.07 L1960.20 1318.84 L1971.59 1318.84 L1971.59 1316.86 L1983.09 1316.86 L1983.09 1314.14 L1994.60 1314.14 L1994.60 1312.66 L2005.99 1312.66 L2005.99 1310.68 L2017.50 1310.68 L2017.50 1308.82 L2029.01 1308.82 L2029.01 1306.47 L2040.51 1306.47 L2040.51 1304.98 L2051.90 1304.98 L2051.90 1303.25 L2063.41 1303.25 L2063.41 1301.77 L2074.92 1301.77 L2074.92 1299.17 L2086.30 1299.17 L2086.30 1297.56 L2097.81 1297.56 L2097.81 1295.46 L2109.32 1295.46 L2109.32 1294.09 L2120.70 1294.09 L2120.70 1291.50 L2132.21 1291.50 L2132.21 1289.76 L2143.72 1289.76 L2143.72 1288.15 L2155.23 1288.15 L2155.23 1285.93 L2166.61 1285.93 L2166.61 1283.58 L2178.12 1283.58 L2178.12 1281.97 L2189.63 1281.97 L2189.63 1279.37 L2201.02 1279.37 L2201.02 1277.51 L2212.53 1277.51 L2212.53 1276.15 L2224.03 1276.15 L2224.03 1274.05 L2235.42 1274.05 L2235.42 1272.31 L2246.93 1272.31 L2246.93 1270.33 L2258.44 1270.33 L2258.44 1268.85 L2269.95 1268.85 L2269.95 1267.12 L2281.33 1267.12 L2281.33 1264.64 L2292.84 1264.64 L2292.84 1262.78 L2304.35 1262.78 L2304.35 1260.93 L2315.73 1260.93 L2315.73 1259.69 L2327.24 1259.69 L2327.24 1258.58 L2338.75 1258.58 L2338.75 1256.35 L2350.14 1256.35 L2350.14 1254.12 L2361.64 1254.12 L2361.64 1251.40 L2373.15 1251.40 L2373.15 1249.79 L2384.66 1249.79 L2384.66 1247.81 L2396.05 1247.81 L2396.05 1245.34 L2407.56 1245.34 L2407.56 1243.48 L2419.07 1243.48 L2419.07 1242.12 L2430.45 1242.12 L2430.45 1240.76 L2441.96 1240.76 L2441.96 1239.15 L2453.47 1239.15 L2453.47 1238.16 L2464.98 1238.16 L2464.98 1236.18 L2476.36 1236.18 L2476.36 1234.32 L2487.87 1234.32 L2487.87 1232.59 L2499.38 1232.59 L2499.38 1231.60 L2510.76 1231.60 L2510.76 1230.11 L2522.27 1230.11 L2522.27 1228.63 L2533.78 1228.63 L2533.78 1227.39 L2545.17 1227.39 L2545.17 1225.66 L2556.68 1225.66 L2556.68 1224.42 L2568.18 1224.42 L2568.18 1222.56 L2579.69 1222.56 L2579.69 1220.83 L2591.08 1220.83 L2591.08 1219.84 L2602.59 1219.84 L2602.59 1219.10 L2614.09 1219.10 L2614.09 1217.49 L2625.48 1217.49 L2625.48 1215.63 L2636.99 1215.63 L2636.99 1214.15 L2648.50 1214.15 L2648.50 1212.91 L2659.88 1212.91 L2659.88 1211.80 L2671.39 1211.80 L2671.39 1209.94 L2682.90 1209.94 L2682.90 1209.20 L2694.41 1209.20 L2694.41 1207.71 L2705.79 1207.71 L2705.79 1206.35 L2717.30 1206.35 L2717.30 1205.24 L2728.81 1205.24 L2728.81 1203.63 L2740.20 1203.63 L2740.20 1202.27 L2751.70 1202.27 L2751.70 1200.29 L2763.21 1200.29 L2763.21 1198.18 L2774.60 1198.18 L2774.60 1196.70 L2786.11 1196.70 L2786.11 1195.34 L2797.62 1195.34 L2797.62 1194.47 L2809.13 1194.47 L2809.13 1192.12 L2820.51 1192.12 L2820.51 1190.88 L2832.02 1190.88 L2832.02 1189.52 L2843.53 1189.52 L2843.53 1188.04 L2854.91 1188.04 L2854.91 1186.55 L2866.42 1186.55 L2866.42 1184.70 L2877.93 1184.70 L2877.93 1183.46 L2889.44 1183.46 L2889.44 1181.97 L2900.82 1181.97 L2900.82 1180.61 L2912.33 1180.61 L2912.33 1178.51 L2923.84 1178.51 L2923.84 1176.90 L2935.23 1176.90 L2935.23 1174.92 L2946.74 1174.92 L2946.74 1172.44 L2958.24 1172.44 L2958.24 1170.46 L2969.63 1170.46 L2969.63 1169.23 L2981.14 1169.23 L2981.14 1167.87 L2992.65 1167.87 L2992.65 1166.13 L3004.16 1166.13 L3004.16 1164.90 L3015.54 1164.90 L3015.54 1163.04 L3027.05 1163.04 L3027.05 1162.05 L3038.56 1162.05 L3038.56 1160.56 L3049.94 1160.56 L3049.94 1159.08 L3061.45 1159.08 L3061.45 1157.59 L3072.96 1157.59 L3072.96 1155.86 L3084.34 1155.86 L3084.34 1153.88 L3095.85 1153.88 L3095.85 1152.64 L3107.36 1152.64 L3107.36 1150.42 L3118.87 1150.42 L3118.87 1148.93 L3130.26 1148.93 L3130.26 1146.58 L3141.76 1146.58 L3141.76 1144.97 L3153.27 1144.97 L3153.27 1143.86 L3164.66 1143.86 L3164.66 1142.62 L3176.17 1142.62 L3176.17 1141.63 L3187.68 1141.63 L3187.68 1140.02 L3199.06 1140.02 L3199.06 1138.66 L3210.57 1138.66 L3210.57 1137.55 L3222.08 1137.55 L3222.08 1136.18 L3233.59 1136.18 L3233.59 1135.44 L3244.97 1135.44 L3244.97 1133.46 L3256.48 1133.46 L3256.48 1131.23 L3267.99 1131.23 L3267.99 1129.75 L3279.38 1129.75 L3279.38 1128.14 L3290.88 1128.14 L3290.88 1126.16 L3302.39 1126.16 L3302.39 1124.55 L3313.78 1124.55 L3313.78 1122.20 L3325.29 1122.20 L3325.29 1120.10 L3336.80 1120.10 L3336.80 1118.73 L3348.30 1118.73 L3348.30 1118.12 L3359.69 1118.12 L3359.69 1116.63 L3371.20 1116.63 L3371.20 1114.77 L3382.71 1114.77 L3382.71 1113.54 L3394.09 1113.54 L3394.09 1111.06 L3405.60 1111.06 L3405.60 1109.21" stroke-linejoin="round" style="fill:none;stroke:#90353B;stroke-width:8.64"/>
	<path d=" M354.05 1890.34 L354.05 1890.34 L354.05 1890.34 L354.05 1890.34 L354.05 1890.34 L359.87 1890.34 L359.87 1887.62 L365.56 1887.62 L365.56 1884.90 L377.07 1884.90 L377.07 1882.17 L388.45 1882.17 L388.45 1879.45 L399.96 1879.45 L399.96 1877.22 L411.47 1877.22 L411.47 1875.74 L422.85 1875.74 L422.85 1874.13 L434.36 1874.13 L434.36 1872.15 L445.87 1872.15 L445.87 1869.55 L457.38 1869.55 L457.38 1866.83 L468.76 1866.83 L468.76 1864.35 L480.27 1864.35 L480.27 1862.50 L491.78 1862.50 L491.78 1860.64 L503.17 1860.64 L503.17 1858.91 L514.68 1858.91 L514.68 1857.17 L526.18 1857.17 L526.18 1854.82 L537.57 1854.82 L537.57 1853.09 L549.08 1853.09 L549.08 1850.99 L560.59 1850.99 L560.59 1850.00 L572.10 1850.00 L572.10 1848.64 L583.48 1848.64 L583.48 1847.15 L594.99 1847.15 L594.99 1845.67 L606.50 1845.67 L606.50 1844.06 L617.88 1844.06 L617.88 1842.08 L629.39 1842.08 L629.39 1840.22 L640.90 1840.22 L640.90 1838.24 L652.41 1838.24 L652.41 1836.75 L663.79 1836.75 L663.79 1835.52 L675.30 1835.52 L675.30 1833.78 L686.81 1833.78 L686.81 1832.05 L698.20 1832.05 L698.20 1829.95 L709.71 1829.95 L709.71 1827.97 L721.22 1827.97 L721.22 1826.24 L732.60 1826.24 L732.60 1825.00 L744.11 1825.00 L744.11 1823.64 L755.62 1823.64 L755.62 1822.15 L767.13 1822.15 L767.13 1820.05 L778.51 1820.05 L778.51 1818.19 L790.02 1818.19 L790.02 1816.21 L801.53 1816.21 L801.53 1814.36 L812.91 1814.36 L812.91 1812.99 L824.42 1812.99 L824.42 1811.88 L835.93 1811.88 L835.93 1810.15 L847.32 1810.15 L847.32 1808.17 L858.83 1808.17 L858.83 1806.44 L870.33 1806.44 L870.33 1804.58 L881.84 1804.58 L881.84 1803.22 L893.23 1803.22 L893.23 1801.73 L904.74 1801.73 L904.74 1800.50 L916.25 1800.50 L916.25 1798.76 L927.63 1798.76 L927.63 1796.91 L939.14 1796.91 L939.14 1795.17 L950.65 1795.17 L950.65 1793.44 L962.03 1793.44 L962.03 1791.83 L973.54 1791.83 L973.54 1790.35 L985.05 1790.35 L985.05 1789.11 L996.56 1789.11 L996.56 1788.12 L1007.94 1788.12 L1007.94 1786.39 L1019.45 1786.39 L1019.45 1784.90 L1030.96 1784.90 L1030.96 1783.54 L1042.35 1783.54 L1042.35 1781.93 L1053.86 1781.93 L1053.86 1780.69 L1065.36 1780.69 L1065.36 1779.46 L1076.87 1779.46 L1076.87 1777.85 L1088.26 1777.85 L1088.26 1776.36 L1099.77 1776.36 L1099.77 1775.00 L1111.28 1775.00 L1111.28 1773.27 L1122.66 1773.27 L1122.66 1771.29 L1134.17 1771.29 L1134.17 1770.18 L1145.68 1770.18 L1145.68 1768.81 L1157.06 1768.81 L1157.06 1766.71 L1168.57 1766.71 L1168.57 1765.10 L1180.08 1765.10 L1180.08 1763.49 L1191.59 1763.49 L1191.59 1761.76 L1202.97 1761.76 L1202.97 1760.40 L1214.48 1760.40 L1214.48 1759.28 L1225.99 1759.28 L1225.99 1758.17 L1237.38 1758.17 L1237.38 1756.69 L1248.88 1756.69 L1248.88 1754.95 L1260.39 1754.95 L1260.39 1753.34 L1271.78 1753.34 L1271.78 1751.86 L1283.29 1751.86 L1283.29 1750.62 L1294.80 1750.62 L1294.80 1749.51 L1306.31 1749.51 L1306.31 1748.27 L1317.69 1748.27 L1317.69 1746.54 L1329.20 1746.54 L1329.20 1744.81 L1340.71 1744.81 L1340.71 1743.44 L1352.09 1743.44 L1352.09 1741.96 L1363.60 1741.96 L1363.60 1740.47 L1375.11 1740.47 L1375.11 1739.11 L1386.49 1739.11 L1386.49 1738.37 L1398.00 1738.37 L1398.00 1736.51 L1409.51 1736.51 L1409.51 1734.78 L1421.02 1734.78 L1421.02 1733.30 L1432.41 1733.30 L1432.41 1732.18 L1443.91 1732.18 L1443.91 1730.57 L1455.42 1730.57 L1455.42 1729.58 L1466.81 1729.58 L1466.81 1728.35 L1478.32 1728.35 L1478.32 1726.61 L1489.83 1726.61 L1489.83 1725.38 L1501.34 1725.38 L1501.34 1723.64 L1512.72 1723.64 L1512.72 1722.28 L1524.23 1722.28 L1524.23 1721.05 L1535.74 1721.05 L1535.74 1719.93 L1547.12 1719.93 L1547.12 1718.69 L1558.63 1718.69 L1558.63 1717.58 L1570.14 1717.58 L1570.14 1715.85 L1581.53 1715.85 L1581.53 1714.24 L1593.03 1714.24 L1593.03 1712.75 L1604.54 1712.75 L1604.54 1711.27 L1616.05 1711.27 L1616.05 1710.28 L1627.44 1710.28 L1627.44 1709.41 L1638.94 1709.41 L1638.94 1707.93 L1650.45 1707.93 L1650.45 1706.57 L1661.84 1706.57 L1661.84 1704.96 L1673.35 1704.96 L1673.35 1703.72 L1684.86 1703.72 L1684.86 1702.61 L1696.24 1702.61 L1696.24 1701.86 L1707.75 1701.86 L1707.75 1700.75 L1719.26 1700.75 L1719.26 1699.14 L1730.77 1699.14 L1730.77 1697.66 L1742.15 1697.66 L1742.15 1696.42 L1753.66 1696.42 L1753.66 1695.30 L1765.17 1695.30 L1765.17 1693.94 L1776.56 1693.94 L1776.56 1692.95 L1788.06 1692.95 L1788.06 1691.84 L1799.57 1691.84 L1799.57 1690.60 L1810.96 1690.60 L1810.96 1689.36 L1822.47 1689.36 L1822.47 1688.00 L1833.97 1688.00 L1833.97 1686.64 L1845.48 1686.64 L1845.48 1685.28 L1856.87 1685.28 L1856.87 1684.29 L1868.38 1684.29 L1868.38 1683.30 L1879.89 1683.30 L1879.89 1681.94 L1891.27 1681.94 L1891.27 1680.08 L1902.78 1680.08 L1902.78 1678.23 L1914.29 1678.23 L1914.29 1676.74 L1925.67 1676.74 L1925.67 1675.50 L1937.18 1675.50 L1937.18 1674.39 L1948.69 1674.39 L1948.69 1673.40 L1960.20 1673.40 L1960.20 1672.29 L1971.59 1672.29 L1971.59 1671.17 L1983.09 1671.17 L1983.09 1669.44 L1994.60 1669.44 L1994.60 1668.08 L2005.99 1668.08 L2005.99 1666.72 L2017.50 1666.72 L2017.50 1665.60 L2029.01 1665.60 L2029.01 1664.61 L2040.51 1664.61 L2040.51 1663.75 L2051.90 1663.75 L2051.90 1662.88 L2063.41 1662.88 L2063.41 1661.15 L2074.92 1661.15 L2074.92 1660.16 L2086.30 1660.16 L2086.30 1658.92 L2097.81 1658.92 L2097.81 1657.81 L2109.32 1657.81 L2109.32 1656.82 L2120.70 1656.82 L2120.70 1655.83 L2132.21 1655.83 L2132.21 1654.84 L2143.72 1654.84 L2143.72 1653.60 L2155.23 1653.60 L2155.23 1652.49 L2166.61 1652.49 L2166.61 1651.25 L2178.12 1651.25 L2178.12 1650.26 L2189.63 1650.26 L2189.63 1649.64 L2201.02 1649.64 L2201.02 1648.15 L2212.53 1648.15 L2212.53 1647.16 L2224.03 1647.16 L2224.03 1645.80 L2235.42 1645.80 L2235.42 1644.57 L2246.93 1644.57 L2246.93 1643.58 L2258.44 1643.58 L2258.44 1642.59 L2269.95 1642.59 L2269.95 1641.84 L2281.33 1641.84 L2281.33 1640.36 L2292.84 1640.36 L2292.84 1639.00 L2304.35 1639.00 L2304.35 1638.13 L2315.73 1638.13 L2315.73 1637.14 L2327.24 1637.14 L2327.24 1636.52 L2338.75 1636.52 L2338.75 1635.41 L2350.14 1635.41 L2350.14 1634.54 L2361.64 1634.54 L2361.64 1633.43 L2373.15 1633.43 L2373.15 1632.31 L2384.66 1632.31 L2384.66 1631.08 L2396.05 1631.08 L2396.05 1630.33 L2407.56 1630.33 L2407.56 1629.34 L2419.07 1629.34 L2419.07 1628.60 L2430.45 1628.60 L2430.45 1627.86 L2441.96 1627.86 L2441.96 1626.99 L2453.47 1626.99 L2453.47 1625.63 L2464.98 1625.63 L2464.98 1624.39 L2476.36 1624.39 L2476.36 1623.65 L2487.87 1623.65 L2487.87 1622.54 L2499.38 1622.54 L2499.38 1622.17 L2510.76 1622.17 L2510.76 1621.42 L2522.27 1621.42 L2522.27 1619.69 L2533.78 1619.69 L2533.78 1618.58 L2545.17 1618.58 L2545.17 1617.59 L2556.68 1617.59 L2556.68 1616.35 L2568.18 1616.35 L2568.18 1614.86 L2579.69 1614.86 L2579.69 1614.12 L2591.08 1614.12 L2591.08 1613.50 L2602.59 1613.50 L2602.59 1612.14 L2614.09 1612.14 L2614.09 1610.78 L2625.48 1610.78 L2625.48 1609.17 L2636.99 1609.17 L2636.99 1608.06 L2648.50 1608.06 L2648.50 1607.07 L2659.88 1607.07 L2659.88 1606.57 L2671.39 1606.57 L2671.39 1606.08 L2682.90 1606.08 L2682.90 1605.09 L2694.41 1605.09 L2694.41 1603.60 L2705.79 1603.60 L2705.79 1602.74 L2717.30 1602.74 L2717.30 1601.38 L2728.81 1601.38 L2728.81 1600.26 L2740.20 1600.26 L2740.20 1599.77 L2751.70 1599.77 L2751.70 1599.27 L2763.21 1599.27 L2763.21 1598.28 L2774.60 1598.28 L2774.60 1596.92 L2786.11 1596.92 L2786.11 1595.93 L2797.62 1595.93 L2797.62 1594.57 L2809.13 1594.57 L2809.13 1593.33 L2820.51 1593.33 L2820.51 1592.71 L2832.02 1592.71 L2832.02 1590.98 L2843.53 1590.98 L2843.53 1589.74 L2854.91 1589.74 L2854.91 1588.88 L2866.42 1588.88 L2866.42 1588.63 L2877.93 1588.63 L2877.93 1587.14 L2889.44 1587.14 L2889.44 1586.28 L2900.82 1586.28 L2900.82 1585.66 L2912.33 1585.66 L2912.33 1583.93 L2923.84 1583.93 L2923.84 1582.44 L2958.24 1582.44 L2958.24 1581.20 L2969.63 1581.20 L2969.63 1579.22 L2981.14 1579.22 L2981.14 1577.74 L2992.65 1577.74 L2992.65 1575.39 L3004.16 1575.39 L3004.16 1573.90 L3015.54 1573.90 L3015.54 1573.04 L3038.56 1573.04 L3038.56 1571.80 L3049.94 1571.80 L3049.94 1571.18 L3061.45 1571.18 L3061.45 1570.56 L3072.96 1570.56 L3072.96 1568.83 L3084.34 1568.83 L3084.34 1568.21 L3107.36 1568.21 L3107.36 1567.96 L3118.87 1567.96 L3118.87 1565.61 L3130.26 1565.61 L3130.26 1564.13 L3141.76 1564.13 L3141.76 1563.51 L3153.27 1563.51 L3153.27 1563.01 L3164.66 1563.01 L3164.66 1561.53 L3176.17 1561.53 L3176.17 1561.16 L3497.42 1561.16 L3497.42 1561.16" stroke-linejoin="round" style="fill:none;stroke:#55752F;stroke-width:8.64"/>
	<line x1="290.81" y1="1953.70" x2="290.81" y2="100.86" style="stroke:#000000;stroke-width:5.76"/>
	<line x1="290.81" y1="1890.34" x2="250.84" y2="1890.34" style="stroke:#000000;stroke-width:5.76"/>
	<text x="200.73" y="1890.34" style="font-family:'Helvetica';font-size:99.99px;fill:#000000" transform="rotate(-90 200.73,1890.34)" text-anchor="middle">0.00</text>
	<line x1="290.81" y1="1458.81" x2="250.84" y2="1458.81" style="stroke:#000000;stroke-width:5.76"/>
	<text x="200.73" y="1458.81" style="font-family:'Helvetica';font-size:99.99px;fill:#000000" transform="rotate(-90 200.73,1458.81)" text-anchor="middle">0.25</text>
	<line x1="290.81" y1="1027.28" x2="250.84" y2="1027.28" style="stroke:#000000;stroke-width:5.76"/>
	<text x="200.73" y="1027.28" style="font-family:'Helvetica';font-size:99.99px;fill:#000000" transform="rotate(-90 200.73,1027.28)" text-anchor="middle">0.50</text>
	<line x1="290.81" y1="595.75" x2="250.84" y2="595.75" style="stroke:#000000;stroke-width:5.76"/>
	<text x="200.73" y="595.75" style="font-family:'Helvetica';font-size:99.99px;fill:#000000" transform="rotate(-90 200.73,595.75)" text-anchor="middle">0.75</text>
	<line x1="290.81" y1="164.22" x2="250.84" y2="164.22" style="stroke:#000000;stroke-width:5.76"/>
	<text x="200.73" y="164.22" style="font-family:'Helvetica';font-size:99.99px;fill:#000000" transform="rotate(-90 200.73,164.22)" text-anchor="middle">1.00</text>
	<line x1="290.81" y1="1953.70" x2="3859.02" y2="1953.70" style="stroke:#000000;stroke-width:5.76"/>
	<line x1="354.17" y1="1953.70" x2="354.17" y2="1993.67" style="stroke:#000000;stroke-width:5.76"/>
	<text x="354.17" y="2083.66" style="font-family:'Helvetica';font-size:99.99px;fill:#000000" text-anchor="middle">0</text>
	<line x1="1501.34" y1="1953.70" x2="1501.34" y2="1993.67" style="stroke:#000000;stroke-width:5.76"/>
	<text x="1501.34" y="2083.66" style="font-family:'Helvetica';font-size:99.99px;fill:#000000" text-anchor="middle">100</text>
	<line x1="2648.50" y1="1953.70" x2="2648.50" y2="1993.67" style="stroke:#000000;stroke-width:5.76"/>
	<text x="2648.50" y="2083.66" style="font-family:'Helvetica';font-size:99.99px;fill:#000000" text-anchor="middle">200</text>
	<line x1="3795.66" y1="1953.70" x2="3795.66" y2="1993.67" style="stroke:#000000;stroke-width:5.76"/>
	<text x="3795.66" y="2083.66" style="font-family:'Helvetica';font-size:99.99px;fill:#000000" text-anchor="middle">300</text>
	<text x="2074.92" y="2193.67" style="font-family:'Helvetica';font-size:99.99px;fill:#000000" text-anchor="middle">Days from index date</text>
	<rect x="1054.72" y="2278.31" width="2040.39" height="466.30" style="fill:#FFFFFF"/>
	<rect x="1057.60" y="2281.19" width="2034.63" height="460.54" style="fill:none;stroke:#000000;stroke-width:5.76"/>
	<line x1="1098.03" y1="2371.50" x2="1472.38" y2="2371.50" style="stroke:#1A476F;stroke-width:8.64"/>
	<line x1="1098.03" y1="2511.46" x2="1472.38" y2="2511.46" style="stroke:#90353B;stroke-width:8.64"/>
	<line x1="1098.03" y1="2651.43" x2="1472.38" y2="2651.43" style="stroke:#55752F;stroke-width:8.64"/>
	<text x="1532.40" y="2406.52" style="font-family:'Helvetica';font-size:99.99px;fill:#000000">group = Hospitalised COVID-19</text>
	<text x="1532.40" y="2546.49" style="font-family:'Helvetica';font-size:99.99px;fill:#000000">group = Hospitalised flu 2017_19</text>
	<text x="1532.40" y="2686.46" style="font-family:'Helvetica';font-size:99.99px;fill:#000000">group = General pop 2019</text>
</svg>
