<?xml version="1.0" encoding="UTF-8" standalone="no"?>
<!-- This is a Stata 16.1 generated SVG file (http://www.stata.com) -->

<svg version="1.1" width="5.50in" height="4.00in" viewBox="0 0 3960 2880" xmlns="http://www.w3.org/2000/svg" xmlns:xlink="http://www.w3.org/1999/xlink">
	<desc>Stata Graph - Graph</desc>
	<rect x="0" y="0" width="3960" height="2880" style="fill:#EAF2F3;stroke:none"/>
	<rect x="0.00" y="0.00" width="3959.88" height="2880.00" style="fill:#EAF2F3"/>
	<rect x="2.88" y="2.88" width="3954.12" height="2874.24" style="fill:none;stroke:#EAF2F3;stroke-width:5.76"/>
	<rect x="290.81" y="100.86" width="3568.21" height="2132.77" style="fill:#FFFFFF"/>
	<rect x="293.69" y="103.74" width="3562.45" height="2127.01" style="fill:none;stroke:#FFFFFF;stroke-width:5.76"/>
	<line x1="290.81" y1="2170.27" x2="3859.02" y2="2170.27" style="stroke:#EAF2F3;stroke-width:8.64"/>
	<line x1="290.81" y1="1668.82" x2="3859.02" y2="1668.82" style="stroke:#EAF2F3;stroke-width:8.64"/>
	<line x1="290.81" y1="1167.25" x2="3859.02" y2="1167.25" style="stroke:#EAF2F3;stroke-width:8.64"/>
	<line x1="290.81" y1="665.67" x2="3859.02" y2="665.67" style="stroke:#EAF2F3;stroke-width:8.64"/>
	<path d=" M354.05 2170.40 L354.05 2170.40 L354.05 2170.40 L359.87 2170.40 L359.87 2168.79 L365.56 2168.79 L365.56 2166.81 L377.07 2166.81 L377.07 2165.32 L388.45 2165.32 L388.45 2164.08 L399.96 2164.08 L399.96 2162.60 L411.47 2162.60 L411.47 2161.24 L422.85 2161.24 L422.85 2159.88 L434.36 2159.88 L434.36 2158.51 L445.87 2158.51 L445.87 2156.91 L457.38 2156.91 L457.38 2155.54 L468.76 2155.54 L468.76 2154.31 L480.27 2154.31 L480.27 2152.70 L491.78 2152.70 L491.78 2151.21 L503.17 2151.21 L503.17 2149.60 L514.68 2149.60 L514.68 2148.00 L526.18 2148.00 L526.18 2146.88 L537.57 2146.88 L537.57 2145.52 L549.08 2145.52 L549.08 2144.16 L560.59 2144.16 L560.59 2142.92 L572.10 2142.92 L572.10 2141.07 L583.48 2141.07 L583.48 2139.70 L594.99 2139.70 L594.99 2138.59 L606.50 2138.59 L606.50 2137.23 L617.88 2137.23 L617.88 2135.87 L629.39 2135.87 L629.39 2134.75 L640.90 2134.75 L640.90 2133.39 L652.41 2133.39 L652.41 2132.28 L663.79 2132.28 L663.79 2130.79 L675.30 2130.79 L675.30 2129.31 L686.81 2129.31 L686.81 2128.07 L698.20 2128.07 L698.20 2126.83 L709.71 2126.83 L709.71 2125.60 L721.22 2125.60 L721.22 2124.61 L732.60 2124.61 L732.60 2123.62 L744.11 2123.62 L744.11 2122.50 L755.62 2122.50 L755.62 2120.89 L767.13 2120.89 L767.13 2119.53 L778.51 2119.53 L778.51 2117.92 L790.02 2117.92 L790.02 2116.81 L801.53 2116.81 L801.53 2115.70 L812.91 2115.70 L812.91 2114.46 L824.42 2114.46 L824.42 2113.10 L835.93 2113.10 L835.93 2112.11 L847.32 2112.11 L847.32 2110.75 L858.83 2110.75 L858.83 2109.63 L870.33 2109.63 L870.33 2108.15 L881.84 2108.15 L881.84 2107.03 L893.23 2107.03 L893.23 2105.92 L904.74 2105.92 L904.74 2104.81 L916.25 2104.81 L916.25 2103.44 L927.63 2103.44 L927.63 2102.33 L939.14 2102.33 L939.14 2101.22 L950.65 2101.22 L950.65 2099.98 L962.03 2099.98 L962.03 2099.24 L973.54 2099.24 L973.54 2098.12 L985.05 2098.12 L985.05 2096.89 L996.56 2096.89 L996.56 2095.52 L1007.94 2095.52 L1007.94 2094.16 L1019.45 2094.16 L1019.45 2093.05 L1030.96 2093.05 L1030.96 2092.06 L1042.35 2092.06 L1042.35 2090.95 L1053.86 2090.95 L1053.86 2089.71 L1065.36 2089.71 L1065.36 2088.47 L1076.87 2088.47 L1076.87 2087.23 L1088.26 2087.23 L1088.26 2086.37 L1099.77 2086.37 L1099.77 2085.25 L1111.28 2085.25 L1111.28 2084.02 L1122.66 2084.02 L1122.66 2082.90 L1134.17 2082.90 L1134.17 2081.54 L1145.68 2081.54 L1145.68 2080.30 L1157.06 2080.30 L1157.06 2078.82 L1168.57 2078.82 L1168.57 2077.58 L1180.08 2077.58 L1180.08 2076.47 L1191.59 2076.47 L1191.59 2075.35 L1202.97 2075.35 L1202.97 2074.36 L1214.48 2074.36 L1214.48 2073.25 L1225.99 2073.25 L1225.99 2072.13 L1237.38 2072.13 L1237.38 2070.77 L1248.88 2070.77 L1248.88 2069.54 L1260.39 2069.54 L1260.39 2068.30 L1271.78 2068.30 L1271.78 2067.18 L1283.29 2067.18 L1283.29 2065.95 L1294.80 2065.95 L1294.80 2064.59 L1306.31 2064.59 L1306.31 2063.10 L1317.69 2063.10 L1317.69 2062.23 L1329.20 2062.23 L1329.20 2061.12 L1340.71 2061.12 L1340.71 2060.01 L1352.09 2060.01 L1352.09 2058.77 L1363.60 2058.77 L1363.60 2057.90 L1375.11 2057.90 L1375.11 2056.29 L1386.49 2056.29 L1386.49 2054.81 L1398.00 2054.81 L1398.00 2053.57 L1409.51 2053.57 L1409.51 2052.33 L1421.02 2052.33 L1421.02 2050.85 L1432.41 2050.85 L1432.41 2049.86 L1443.91 2049.86 L1443.91 2048.62 L1455.42 2048.62 L1455.42 2047.26 L1466.81 2047.26 L1466.81 2046.15 L1478.32 2046.15 L1478.32 2044.79 L1489.83 2044.79 L1489.83 2043.92 L1501.34 2043.92 L1501.34 2042.68 L1512.72 2042.68 L1512.72 2041.44 L1524.23 2041.44 L1524.23 2039.83 L1535.74 2039.83 L1535.74 2038.47 L1547.12 2038.47 L1547.12 2036.99 L1558.63 2036.99 L1558.63 2035.75 L1570.14 2035.75 L1570.14 2034.76 L1581.53 2034.76 L1581.53 2033.89 L1593.03 2033.89 L1593.03 2032.78 L1604.54 2032.78 L1604.54 2031.79 L1616.05 2031.79 L1616.05 2030.92 L1627.44 2030.92 L1627.44 2029.81 L1638.94 2029.81 L1638.94 2028.57 L1650.45 2028.57 L1650.45 2027.21 L1661.84 2027.21 L1661.84 2025.73 L1673.35 2025.73 L1673.35 2024.61 L1684.86 2024.61 L1684.86 2023.75 L1696.24 2023.75 L1696.24 2022.26 L1707.75 2022.26 L1707.75 2020.90 L1719.26 2020.90 L1719.26 2019.54 L1730.77 2019.54 L1730.77 2018.18 L1742.15 2018.18 L1742.15 2017.06 L1753.66 2017.06 L1753.66 2016.20 L1765.17 2016.20 L1765.17 2015.33 L1776.56 2015.33 L1776.56 2013.97 L1788.06 2013.97 L1788.06 2012.61 L1799.57 2012.61 L1799.57 2011.62 L1810.96 2011.62 L1810.96 2010.51 L1822.47 2010.51 L1822.47 2009.14 L1833.97 2009.14 L1833.97 2008.28 L1845.48 2008.28 L1845.48 2007.04 L1856.87 2007.04 L1856.87 2005.80 L1868.38 2005.80 L1868.38 2004.57 L1879.89 2004.57 L1879.89 2003.33 L1891.27 2003.33 L1891.27 2001.84 L1902.78 2001.84 L1902.78 2000.73 L1914.29 2000.73 L1914.29 1999.86 L1925.67 1999.86 L1925.67 1999.00 L1937.18 1999.00 L1937.18 1997.51 L1948.69 1997.51 L1948.69 1996.15 L1960.20 1996.15 L1960.20 1994.42 L1971.59 1994.42 L1971.59 1993.30 L1983.09 1993.30 L1983.09 1991.94 L1994.60 1991.94 L1994.60 1990.83 L2005.99 1990.83 L2005.99 1989.84 L2017.50 1989.84 L2017.50 1988.23 L2029.01 1988.23 L2029.01 1986.87 L2040.51 1986.87 L2040.51 1985.14 L2051.90 1985.14 L2051.90 1984.02 L2063.41 1984.02 L2063.41 1983.16 L2074.92 1983.16 L2074.92 1981.92 L2086.30 1981.92 L2086.30 1980.93 L2097.81 1980.93 L2097.81 1979.69 L2109.32 1979.69 L2109.32 1978.70 L2120.70 1978.70 L2120.70 1977.46 L2132.21 1977.46 L2132.21 1976.35 L2143.72 1976.35 L2143.72 1975.11 L2155.23 1975.11 L2155.23 1974.00 L2166.61 1974.00 L2166.61 1972.88 L2178.12 1972.88 L2178.12 1971.52 L2189.63 1971.52 L2189.63 1970.16 L2201.02 1970.16 L2201.02 1968.55 L2212.53 1968.55 L2212.53 1967.19 L2224.03 1967.19 L2224.03 1965.58 L2235.42 1965.58 L2235.42 1964.10 L2246.93 1964.10 L2246.93 1963.23 L2258.44 1963.23 L2258.44 1961.75 L2269.95 1961.75 L2269.95 1960.63 L2281.33 1960.63 L2281.33 1959.39 L2292.84 1959.39 L2292.84 1958.03 L2304.35 1958.03 L2304.35 1957.04 L2315.73 1957.04 L2315.73 1955.93 L2327.24 1955.93 L2327.24 1954.82 L2338.75 1954.82 L2338.75 1953.58 L2350.14 1953.58 L2350.14 1952.59 L2361.64 1952.59 L2361.64 1951.35 L2373.15 1951.35 L2373.15 1950.11 L2384.66 1950.11 L2384.66 1949.12 L2396.05 1949.12 L2396.05 1947.89 L2407.56 1947.89 L2407.56 1947.02 L2419.07 1947.02 L2419.07 1945.41 L2430.45 1945.41 L2430.45 1943.93 L2441.96 1943.93 L2441.96 1942.69 L2453.47 1942.69 L2453.47 1941.57 L2464.98 1941.57 L2464.98 1940.21 L2476.36 1940.21 L2476.36 1939.35 L2487.87 1939.35 L2487.87 1938.73 L2499.38 1938.73 L2499.38 1937.24 L2510.76 1937.24 L2510.76 1936.13 L2522.27 1936.13 L2522.27 1934.52 L2533.78 1934.52 L2533.78 1933.16 L2545.17 1933.16 L2545.17 1931.55 L2556.68 1931.55 L2556.68 1930.81 L2568.18 1930.81 L2568.18 1930.19 L2579.69 1930.19 L2579.69 1929.20 L2591.08 1929.20 L2591.08 1927.71 L2602.59 1927.71 L2602.59 1926.72 L2614.09 1926.72 L2614.09 1925.61 L2625.48 1925.61 L2625.48 1924.50 L2636.99 1924.50 L2636.99 1923.51 L2648.50 1923.51 L2648.50 1922.64 L2659.88 1922.64 L2659.88 1921.16 L2671.39 1921.16 L2671.39 1920.04 L2682.90 1920.04 L2682.90 1918.43 L2694.41 1918.43 L2694.41 1917.19 L2705.79 1917.19 L2705.79 1915.71 L2717.30 1915.71 L2717.30 1914.72 L2728.81 1914.72 L2728.81 1913.85 L2740.20 1913.85 L2740.20 1912.74 L2751.70 1912.74 L2751.70 1911.63 L2763.21 1911.63 L2763.21 1910.02 L2774.60 1910.02 L2774.60 1908.53 L2786.11 1908.53 L2786.11 1907.42 L2797.62 1907.42 L2797.62 1906.92 L2809.13 1906.92 L2809.13 1906.18 L2820.51 1906.18 L2820.51 1905.31 L2832.02 1905.31 L2832.02 1904.32 L2843.53 1904.32 L2843.53 1904.08 L2854.91 1904.08 L2854.91 1902.59 L2866.42 1902.59 L2866.42 1901.60 L2889.44 1901.60 L2889.44 1898.38 L2900.82 1898.38 L2900.82 1897.39 L2912.33 1897.39 L2912.33 1896.53 L2923.84 1896.53 L2923.84 1895.91 L2935.23 1895.91 L2935.23 1894.05 L2946.74 1894.05 L2946.74 1893.19 L2958.24 1893.19 L2958.24 1892.32 L2969.63 1892.32 L2969.63 1891.33 L2981.14 1891.33 L2981.14 1889.85 L2992.65 1889.85 L2992.65 1888.98 L3004.16 1888.98 L3004.16 1888.36 L3015.54 1888.36 L3015.54 1887.12 L3027.05 1887.12 L3027.05 1886.01 L3038.56 1886.01 L3038.56 1885.64 L3049.94 1885.64 L3049.94 1885.02 L3061.45 1885.02 L3061.45 1884.40 L3095.85 1884.40 L3095.85 1883.78 L3107.36 1883.78 L3107.36 1883.53 L3118.87 1883.53 L3118.87 1882.30 L3130.26 1882.30 L3130.26 1881.43 L3141.76 1881.43 L3141.76 1879.57 L3153.27 1879.57 L3153.27 1878.09 L3164.66 1878.09 L3164.66 1877.47 L3497.42 1877.47 L3497.42 1877.47" stroke-linejoin="round" style="fill:none;stroke:#1A476F;stroke-width:8.64"/>
	<path d=" M354.05 2170.40 L354.05 2170.40 L354.05 2170.40 L365.56 2170.40 L365.56 2125.35 L377.07 2125.35 L377.07 2086.49 L388.45 2086.49 L388.45 2054.93 L399.96 2054.93 L399.96 2027.95 L411.47 2027.95 L411.47 2004.81 L422.85 2004.81 L422.85 1983.77 L434.36 1983.77 L434.36 1964.96 L445.87 1964.96 L445.87 1946.40 L457.38 1946.40 L457.38 1929.08 L468.76 1929.08 L468.76 1914.97 L480.27 1914.97 L480.27 1902.10 L491.78 1902.10 L491.78 1890.71 L503.17 1890.71 L503.17 1879.20 L514.68 1879.20 L514.68 1869.67 L526.18 1869.67 L526.18 1857.79 L537.57 1857.79 L537.57 1849.25 L549.08 1849.25 L549.08 1840.47 L560.59 1840.47 L560.59 1830.44 L572.10 1830.44 L572.10 1822.15 L583.48 1822.15 L583.48 1814.97 L594.99 1814.97 L594.99 1807.30 L606.50 1807.30 L606.50 1801.36 L617.88 1801.36 L617.88 1794.43 L629.39 1794.43 L629.39 1787.13 L640.90 1787.13 L640.90 1780.82 L652.41 1780.82 L652.41 1775.37 L663.79 1775.37 L663.79 1769.06 L675.30 1769.06 L675.30 1764.11 L686.81 1764.11 L686.81 1759.78 L698.20 1759.78 L698.20 1755.82 L709.71 1755.82 L709.71 1752.23 L721.22 1752.23 L721.22 1746.04 L732.60 1746.04 L732.60 1739.73 L744.11 1739.73 L744.11 1732.80 L755.62 1732.80 L755.62 1726.86 L767.13 1726.86 L767.13 1722.41 L778.51 1722.41 L778.51 1718.57 L790.02 1718.57 L790.02 1714.11 L801.53 1714.11 L801.53 1710.40 L812.91 1710.40 L812.91 1705.82 L824.42 1705.82 L824.42 1700.75 L835.93 1700.75 L835.93 1695.43 L847.32 1695.43 L847.32 1692.46 L858.83 1692.46 L858.83 1689.12 L870.33 1689.12 L870.33 1685.40 L881.84 1685.40 L881.84 1682.06 L893.23 1682.06 L893.23 1678.72 L904.74 1678.72 L904.74 1675.63 L916.25 1675.63 L916.25 1672.16 L927.63 1672.16 L927.63 1668.70 L939.14 1668.70 L939.14 1665.23 L950.65 1665.23 L950.65 1661.02 L962.03 1661.02 L962.03 1658.43 L973.54 1658.43 L973.54 1655.83 L985.05 1655.83 L985.05 1650.88 L996.56 1650.88 L996.56 1647.78 L1007.94 1647.78 L1007.94 1643.70 L1019.45 1643.70 L1019.45 1641.60 L1030.96 1641.60 L1030.96 1637.39 L1042.35 1637.39 L1042.35 1633.92 L1053.86 1633.92 L1053.86 1630.95 L1065.36 1630.95 L1065.36 1627.36 L1076.87 1627.36 L1076.87 1623.90 L1088.26 1623.90 L1088.26 1620.31 L1099.77 1620.31 L1099.77 1616.47 L1111.28 1616.47 L1111.28 1613.26 L1122.66 1613.26 L1122.66 1610.41 L1134.17 1610.41 L1134.17 1606.94 L1145.68 1606.94 L1145.68 1603.36 L1157.06 1603.36 L1157.06 1600.01 L1168.57 1600.01 L1168.57 1596.80 L1180.08 1596.80 L1180.08 1593.45 L1191.59 1593.45 L1191.59 1590.86 L1202.97 1590.86 L1202.97 1589.25 L1214.48 1589.25 L1214.48 1587.02 L1225.99 1587.02 L1225.99 1583.80 L1237.38 1583.80 L1237.38 1580.83 L1248.88 1580.83 L1248.88 1578.23 L1260.39 1578.23 L1260.39 1576.38 L1271.78 1576.38 L1271.78 1573.53 L1283.29 1573.53 L1283.29 1571.18 L1294.80 1571.18 L1294.80 1568.95 L1306.31 1568.95 L1306.31 1566.23 L1317.69 1566.23 L1317.69 1564.00 L1329.20 1564.00 L1329.20 1561.28 L1340.71 1561.28 L1340.71 1557.57 L1352.09 1557.57 L1352.09 1554.60 L1363.60 1554.60 L1363.60 1551.75 L1375.11 1551.75 L1375.11 1548.28 L1386.49 1548.28 L1386.49 1545.69 L1398.00 1545.69 L1398.00 1542.96 L1409.51 1542.96 L1409.51 1539.50 L1421.02 1539.50 L1421.02 1537.39 L1432.41 1537.39 L1432.41 1535.17 L1443.91 1535.17 L1443.91 1531.70 L1455.42 1531.70 L1455.42 1528.11 L1466.81 1528.11 L1466.81 1525.39 L1478.32 1525.39 L1478.32 1523.53 L1489.83 1523.53 L1489.83 1522.05 L1501.34 1522.05 L1501.34 1519.45 L1512.72 1519.45 L1512.72 1517.59 L1524.23 1517.59 L1524.23 1515.24 L1535.74 1515.24 L1535.74 1513.51 L1547.12 1513.51 L1547.12 1511.41 L1558.63 1511.41 L1558.63 1509.43 L1570.14 1509.43 L1570.14 1506.83 L1581.53 1506.83 L1581.53 1504.60 L1593.03 1504.60 L1593.03 1502.87 L1604.54 1502.87 L1604.54 1500.76 L1616.05 1500.76 L1616.05 1498.29 L1627.44 1498.29 L1627.44 1496.43 L1638.94 1496.43 L1638.94 1494.70 L1650.45 1494.70 L1650.45 1492.97 L1661.84 1492.97 L1661.84 1491.48 L1673.35 1491.48 L1673.35 1488.88 L1684.86 1488.88 L1684.86 1486.41 L1696.24 1486.41 L1696.24 1484.80 L1707.75 1484.80 L1707.75 1482.57 L1719.26 1482.57 L1719.26 1479.97 L1730.77 1479.97 L1730.77 1478.12 L1742.15 1478.12 L1742.15 1476.38 L1753.66 1476.38 L1753.66 1473.78 L1765.17 1473.78 L1765.17 1471.06 L1776.56 1471.06 L1776.56 1469.70 L1788.06 1469.70 L1788.06 1467.10 L1799.57 1467.10 L1799.57 1465.12 L1810.96 1465.12 L1810.96 1463.02 L1822.47 1463.02 L1822.47 1461.90 L1833.97 1461.90 L1833.97 1459.92 L1845.48 1459.92 L1845.48 1458.07 L1856.87 1458.07 L1856.87 1455.47 L1868.38 1455.47 L1868.38 1453.98 L1879.89 1453.98 L1879.89 1451.63 L1891.27 1451.63 L1891.27 1449.90 L1902.78 1449.90 L1902.78 1447.43 L1914.29 1447.43 L1914.29 1445.82 L1925.67 1445.82 L1925.67 1444.58 L1937.18 1444.58 L1937.18 1442.10 L1948.69 1442.10 L1948.69 1440.37 L1960.20 1440.37 L1960.20 1438.27 L1971.59 1438.27 L1971.59 1435.67 L1983.09 1435.67 L1983.09 1433.32 L1994.60 1433.32 L1994.60 1430.97 L2005.99 1430.97 L2005.99 1428.74 L2017.50 1428.74 L2017.50 1426.76 L2029.01 1426.76 L2029.01 1424.90 L2040.51 1424.90 L2040.51 1423.66 L2051.90 1423.66 L2051.90 1421.81 L2063.41 1421.81 L2063.41 1420.82 L2074.92 1420.82 L2074.92 1418.10 L2086.30 1418.10 L2086.30 1415.74 L2097.81 1415.74 L2097.81 1414.63 L2109.32 1414.63 L2109.32 1412.40 L2120.70 1412.40 L2120.70 1411.29 L2132.21 1411.29 L2132.21 1409.19 L2143.72 1409.19 L2143.72 1407.21 L2155.23 1407.21 L2155.23 1404.61 L2166.61 1404.61 L2166.61 1403.00 L2178.12 1403.00 L2178.12 1400.65 L2189.63 1400.65 L2189.63 1397.80 L2201.02 1397.80 L2201.02 1396.81 L2212.53 1396.81 L2212.53 1396.19 L2224.03 1396.19 L2224.03 1394.83 L2235.42 1394.83 L2235.42 1393.22 L2246.93 1393.22 L2246.93 1391.36 L2258.44 1391.36 L2258.44 1389.38 L2269.95 1389.38 L2269.95 1388.27 L2281.33 1388.27 L2281.33 1385.67 L2292.84 1385.67 L2292.84 1383.57 L2304.35 1383.57 L2304.35 1382.21 L2315.73 1382.21 L2315.73 1380.85 L2327.24 1380.85 L2327.24 1379.98 L2338.75 1379.98 L2338.75 1377.63 L2350.14 1377.63 L2350.14 1377.13 L2361.64 1377.13 L2361.64 1374.66 L2373.15 1374.66 L2373.15 1373.67 L2384.66 1373.67 L2384.66 1372.55 L2396.05 1372.55 L2396.05 1370.70 L2407.56 1370.70 L2407.56 1369.46 L2419.07 1369.46 L2419.07 1366.49 L2430.45 1366.49 L2430.45 1364.88 L2441.96 1364.88 L2441.96 1364.39 L2453.47 1364.39 L2453.47 1362.41 L2464.98 1362.41 L2464.98 1361.05 L2476.36 1361.05 L2476.36 1359.44 L2487.87 1359.44 L2487.87 1358.57 L2499.38 1358.57 L2499.38 1357.70 L2510.76 1357.70 L2510.76 1355.72 L2522.27 1355.72 L2522.27 1354.24 L2533.78 1354.24 L2533.78 1353.37 L2545.17 1353.37 L2545.17 1351.89 L2556.68 1351.89 L2556.68 1351.39 L2568.18 1351.39 L2568.18 1349.91 L2579.69 1349.91 L2579.69 1348.55 L2591.08 1348.55 L2591.08 1347.43 L2602.59 1347.43 L2602.59 1347.18 L2614.09 1347.18 L2614.09 1345.20 L2625.48 1345.20 L2625.48 1342.73 L2636.99 1342.73 L2636.99 1341.49 L2648.50 1341.49 L2648.50 1340.87 L2659.88 1340.87 L2659.88 1339.51 L2671.39 1339.51 L2671.39 1338.40 L2682.90 1338.40 L2682.90 1337.28 L2694.41 1337.28 L2694.41 1336.05 L2705.79 1336.05 L2705.79 1335.55 L2717.30 1335.55 L2717.30 1333.70 L2728.81 1333.70 L2728.81 1333.70 L2740.20 1333.70 L2740.20 1331.84 L2751.70 1331.84 L2751.70 1331.22 L2763.21 1331.22 L2763.21 1328.87 L2774.60 1328.87 L2774.60 1326.39 L2786.11 1326.39 L2786.11 1325.40 L2797.62 1325.40 L2797.62 1323.30 L2809.13 1323.30 L2809.13 1320.83 L2820.51 1320.83 L2820.51 1320.83 L2832.02 1320.83 L2832.02 1320.83 L2843.53 1320.83 L2843.53 1318.72 L2854.91 1318.72 L2854.91 1318.72 L2866.42 1318.72 L2866.42 1318.72 L2877.93 1318.72 L2877.93 1318.72 L2889.44 1318.72 L2889.44 1318.72 L2900.82 1318.72 L2900.82 1318.72 L2912.33 1318.72 L2912.33 1318.72 L2923.84 1318.72 L2923.84 1318.72 L2935.23 1318.72 L2935.23 1318.72 L2946.74 1318.72 L2946.74 1318.72 L2958.24 1318.72 L2958.24 1318.72 L2969.63 1318.72 L2969.63 1318.72 L2981.14 1318.72 L2981.14 1318.72 L2992.65 1318.72 L2992.65 1294.09 L3004.16 1294.09 L3004.16 1294.09 L3015.54 1294.09 L3015.54 1294.09 L3027.05 1294.09 L3027.05 1294.09 L3038.56 1294.09 L3038.56 1294.09 L3049.94 1294.09 L3049.94 1294.09 L3061.45 1294.09 L3061.45 1294.09 L3072.96 1294.09 L3072.96 1294.09 L3084.34 1294.09 L3084.34 1294.09 L3095.85 1294.09 L3095.85 1294.09 L3107.36 1294.09 L3107.36 1294.09 L3118.87 1294.09 L3118.87 1294.09 L3130.26 1294.09 L3130.26 1294.09 L3164.66 1294.09 L3164.66 1294.09 L3187.68 1294.09 L3187.68 1294.09 L3348.30 1294.09 L3348.30 1294.09 L3382.71 1294.09 L3382.71 1294.09" stroke-linejoin="round" style="fill:none;stroke:#90353B;stroke-width:8.64"/>
	<line x1="290.81" y1="2233.63" x2="290.81" y2="100.86" style="stroke:#000000;stroke-width:5.76"/>
	<line x1="290.81" y1="2170.27" x2="250.84" y2="2170.27" style="stroke:#000000;stroke-width:5.76"/>
	<text x="200.73" y="2170.27" style="font-family:'Helvetica';font-size:99.99px;fill:#000000" transform="rotate(-90 200.73,2170.27)" text-anchor="middle">0.00</text>
	<line x1="290.81" y1="1668.82" x2="250.84" y2="1668.82" style="stroke:#000000;stroke-width:5.76"/>
	<text x="200.73" y="1668.82" style="font-family:'Helvetica';font-size:99.99px;fill:#000000" transform="rotate(-90 200.73,1668.82)" text-anchor="middle">0.25</text>
	<line x1="290.81" y1="1167.25" x2="250.84" y2="1167.25" style="stroke:#000000;stroke-width:5.76"/>
	<text x="200.73" y="1167.25" style="font-family:'Helvetica';font-size:99.99px;fill:#000000" transform="rotate(-90 200.73,1167.25)" text-anchor="middle">0.50</text>
	<line x1="290.81" y1="665.67" x2="250.84" y2="665.67" style="stroke:#000000;stroke-width:5.76"/>
	<text x="200.73" y="665.67" style="font-family:'Helvetica';font-size:99.99px;fill:#000000" transform="rotate(-90 200.73,665.67)" text-anchor="middle">0.75</text>
	<line x1="290.81" y1="164.22" x2="250.84" y2="164.22" style="stroke:#000000;stroke-width:5.76"/>
	<text x="200.73" y="164.22" style="font-family:'Helvetica';font-size:99.99px;fill:#000000" transform="rotate(-90 200.73,164.22)" text-anchor="middle">1.00</text>
	<line x1="290.81" y1="2233.63" x2="3859.02" y2="2233.63" style="stroke:#000000;stroke-width:5.76"/>
	<line x1="354.17" y1="2233.63" x2="354.17" y2="2273.73" style="stroke:#000000;stroke-width:5.76"/>
	<text x="354.17" y="2363.59" style="font-family:'Helvetica';font-size:99.99px;fill:#000000" text-anchor="middle">0</text>
	<line x1="1501.34" y1="2233.63" x2="1501.34" y2="2273.73" style="stroke:#000000;stroke-width:5.76"/>
	<text x="1501.34" y="2363.59" style="font-family:'Helvetica';font-size:99.99px;fill:#000000" text-anchor="middle">100</text>
	<line x1="2648.50" y1="2233.63" x2="2648.50" y2="2273.73" style="stroke:#000000;stroke-width:5.76"/>
	<text x="2648.50" y="2363.59" style="font-family:'Helvetica';font-size:99.99px;fill:#000000" text-anchor="middle">200</text>
	<line x1="3795.66" y1="2233.63" x2="3795.66" y2="2273.73" style="stroke:#000000;stroke-width:5.76"/>
	<text x="3795.66" y="2363.59" style="font-family:'Helvetica';font-size:99.99px;fill:#000000" text-anchor="middle">300</text>
	<text x="2074.92" y="2473.60" style="font-family:'Helvetica';font-size:99.99px;fill:#000000" text-anchor="middle">Days from index date</text>
	<rect x="413.20" y="2558.24" width="3323.43" height="186.37" style="fill:#FFFFFF"/>
	<rect x="416.08" y="2561.12" width="3317.67" height="180.61" style="fill:none;stroke:#000000;stroke-width:5.76"/>
	<line x1="456.39" y1="2651.43" x2="830.86" y2="2651.43" style="stroke:#1A476F;stroke-width:8.64"/>
	<line x1="1363.35" y1="2651.43" x2="1737.70" y2="2651.43" style="stroke:#90353B;stroke-width:8.64"/>
	<text x="890.75" y="2686.46" style="font-family:'Helvetica';font-size:99.99px;fill:#000000">Control</text>
	<text x="1797.72" y="2686.46" style="font-family:'Helvetica';font-size:99.99px;fill:#000000">Exposed (prior COVID-19 hospitalisation)</text>
</svg>
