<?xml version="1.0" encoding="UTF-8" standalone="no"?>
<!-- This is a Stata 16.1 generated SVG file (http://www.stata.com) -->

<svg version="1.1" width="5.50in" height="4.00in" viewBox="0 0 3960 2880" xmlns="http://www.w3.org/2000/svg" xmlns:xlink="http://www.w3.org/1999/xlink">
	<desc>Stata Graph - Graph</desc>
	<rect x="0" y="0" width="3960" height="2880" style="fill:#EAF2F3;stroke:none"/>
	<rect x="0.00" y="0.00" width="3959.88" height="2880.00" style="fill:#EAF2F3"/>
	<rect x="2.88" y="2.88" width="3954.12" height="2874.24" style="fill:none;stroke:#EAF2F3;stroke-width:5.76"/>
	<rect x="388.33" y="258.27" width="3436.17" height="578.30" style="fill:#FFFFFF"/>
	<rect x="390.78" y="260.72" width="3431.27" height="573.41" style="fill:none;stroke:#FFFFFF;stroke-width:4.90"/>
	<line x1="388.33" y1="836.58" x2="3824.49" y2="836.58" style="stroke:#EAF2F3;stroke-width:7.34"/>
	<line x1="388.33" y1="577.06" x2="3824.49" y2="577.06" style="stroke:#EAF2F3;stroke-width:7.34"/>
	<line x1="388.33" y1="317.55" x2="3824.49" y2="317.55" style="stroke:#EAF2F3;stroke-width:7.34"/>
	<rect x="388.33" y="1028.52" width="3436.17" height="578.30" style="fill:#FFFFFF"/>
	<rect x="390.78" y="1030.97" width="3431.27" height="573.41" style="fill:none;stroke:#FFFFFF;stroke-width:4.90"/>
	<line x1="388.33" y1="1606.82" x2="3824.49" y2="1606.82" style="stroke:#EAF2F3;stroke-width:7.34"/>
	<line x1="388.33" y1="1347.31" x2="3824.49" y2="1347.31" style="stroke:#EAF2F3;stroke-width:7.34"/>
	<line x1="388.33" y1="1087.92" x2="3824.49" y2="1087.92" style="stroke:#EAF2F3;stroke-width:7.34"/>
	<rect x="388.33" y="1798.76" width="3436.17" height="578.30" style="fill:#FFFFFF"/>
	<rect x="390.78" y="1801.21" width="3431.27" height="573.41" style="fill:none;stroke:#FFFFFF;stroke-width:4.90"/>
	<line x1="388.33" y1="2377.06" x2="3824.49" y2="2377.06" style="stroke:#EAF2F3;stroke-width:7.34"/>
	<line x1="388.33" y1="2117.68" x2="3824.49" y2="2117.68" style="stroke:#EAF2F3;stroke-width:7.34"/>
	<line x1="388.33" y1="1858.16" x2="3824.49" y2="1858.16" style="stroke:#EAF2F3;stroke-width:7.34"/>
	<rect x="2961.83" y="836.20" width="62.25" height="0.37" style="fill:#CAC27E"/>
	<rect x="2965.50" y="832.90" width="54.90" height="6.97" style="fill:none;stroke:#D7D29E;stroke-width:7.34"/>
	<rect x="3024.08" y="831.50" width="62.25" height="5.07" style="fill:#CAC27E"/>
	<rect x="3027.75" y="832.90" width="54.90" height="2.27" style="fill:none;stroke:#D7D29E;stroke-width:7.34"/>
	<rect x="3086.32" y="482.76" width="62.25" height="353.81" style="fill:#CAC27E"/>
	<rect x="3090.00" y="486.44" width="54.90" height="346.47" style="fill:none;stroke:#D7D29E;stroke-width:7.34"/>
	<rect x="3148.57" y="461.11" width="62.12" height="375.47" style="fill:#CAC27E"/>
	<rect x="3152.24" y="464.78" width="54.78" height="368.13" style="fill:none;stroke:#D7D29E;stroke-width:7.34"/>
	<rect x="3210.69" y="688.69" width="62.25" height="147.89" style="fill:#CAC27E"/>
	<rect x="3214.37" y="692.36" width="54.90" height="140.54" style="fill:none;stroke:#D7D29E;stroke-width:7.34"/>
	<rect x="3272.94" y="759.72" width="62.25" height="76.85" style="fill:#CAC27E"/>
	<rect x="3276.61" y="763.40" width="54.90" height="69.51" style="fill:none;stroke:#D7D29E;stroke-width:7.34"/>
	<rect x="3335.19" y="802.92" width="62.25" height="33.66" style="fill:#CAC27E"/>
	<rect x="3338.86" y="806.59" width="54.90" height="26.32" style="fill:none;stroke:#D7D29E;stroke-width:7.34"/>
	<rect x="3397.43" y="815.54" width="62.12" height="21.04" style="fill:#CAC27E"/>
	<rect x="3401.10" y="819.21" width="54.78" height="13.69" style="fill:none;stroke:#D7D29E;stroke-width:7.34"/>
	<rect x="3459.55" y="793.63" width="62.25" height="42.94" style="fill:#CAC27E"/>
	<rect x="3463.23" y="797.31" width="54.90" height="35.60" style="fill:none;stroke:#D7D29E;stroke-width:7.34"/>
	<rect x="3521.80" y="694.01" width="62.25" height="142.56" style="fill:#CAC27E"/>
	<rect x="3525.47" y="697.68" width="54.90" height="135.22" style="fill:none;stroke:#D7D29E;stroke-width:7.34"/>
	<rect x="3584.05" y="479.17" width="62.25" height="357.40" style="fill:#CAC27E"/>
	<rect x="3587.72" y="482.85" width="54.90" height="350.06" style="fill:none;stroke:#D7D29E;stroke-width:7.34"/>
	<rect x="3646.29" y="543.65" width="62.12" height="292.93" style="fill:#CAC27E"/>
	<rect x="3649.97" y="547.32" width="54.78" height="285.58" style="fill:none;stroke:#D7D29E;stroke-width:7.34"/>
	<rect x="3708.42" y="823.71" width="62.25" height="12.87" style="fill:#CAC27E"/>
	<rect x="3712.09" y="827.38" width="54.90" height="5.53" style="fill:none;stroke:#D7D29E;stroke-width:7.34"/>
	<rect x="473.34" y="1549.27" width="62.12" height="57.55" style="fill:#CAC27E"/>
	<rect x="477.02" y="1552.95" width="54.78" height="50.20" style="fill:none;stroke:#D7D29E;stroke-width:7.34"/>
	<rect x="535.47" y="1541.35" width="62.25" height="65.47" style="fill:#CAC27E"/>
	<rect x="539.14" y="1545.03" width="54.90" height="58.12" style="fill:none;stroke:#D7D29E;stroke-width:7.34"/>
	<rect x="597.71" y="1583.18" width="62.25" height="23.64" style="fill:#CAC27E"/>
	<rect x="601.38" y="1586.86" width="54.90" height="16.29" style="fill:none;stroke:#D7D29E;stroke-width:7.34"/>
	<rect x="659.96" y="1598.65" width="62.25" height="8.17" style="fill:#CAC27E"/>
	<rect x="663.63" y="1602.32" width="54.90" height="0.82" style="fill:none;stroke:#D7D29E;stroke-width:7.34"/>
	<rect x="722.21" y="1599.77" width="62.12" height="7.05" style="fill:#CAC27E"/>
	<rect x="725.88" y="1603.15" width="54.78" height="0.29" style="fill:none;stroke:#D7D29E;stroke-width:7.34"/>
	<rect x="784.33" y="1604.22" width="62.25" height="2.60" style="fill:#CAC27E"/>
	<rect x="788.00" y="1603.15" width="54.90" height="4.74" style="fill:none;stroke:#D7D29E;stroke-width:7.34"/>
	<rect x="846.57" y="1604.96" width="62.25" height="1.86" style="fill:#CAC27E"/>
	<rect x="850.25" y="1603.15" width="54.90" height="5.49" style="fill:none;stroke:#D7D29E;stroke-width:7.34"/>
	<rect x="908.82" y="1606.45" width="62.25" height="0.37" style="fill:#CAC27E"/>
	<rect x="912.49" y="1603.15" width="54.90" height="6.97" style="fill:none;stroke:#D7D29E;stroke-width:7.34"/>
	<rect x="971.07" y="1605.58" width="62.12" height="1.24" style="fill:#CAC27E"/>
	<rect x="974.74" y="1603.15" width="54.78" height="6.11" style="fill:none;stroke:#D7D29E;stroke-width:7.34"/>
	<rect x="1033.19" y="1604.22" width="62.25" height="2.60" style="fill:#CAC27E"/>
	<rect x="1036.86" y="1603.15" width="54.90" height="4.74" style="fill:none;stroke:#D7D29E;stroke-width:7.34"/>
	<rect x="1095.43" y="1603.23" width="62.25" height="3.59" style="fill:#CAC27E"/>
	<rect x="1099.11" y="1603.15" width="54.90" height="3.75" style="fill:none;stroke:#D7D29E;stroke-width:7.34"/>
	<rect x="1157.68" y="1601.87" width="62.25" height="4.95" style="fill:#CAC27E"/>
	<rect x="1161.35" y="1603.15" width="54.90" height="2.39" style="fill:none;stroke:#D7D29E;stroke-width:7.34"/>
	<rect x="1219.93" y="1553.36" width="62.12" height="53.46" style="fill:#CAC27E"/>
	<rect x="1223.60" y="1557.03" width="54.78" height="46.12" style="fill:none;stroke:#D7D29E;stroke-width:7.34"/>
	<rect x="1282.05" y="1361.91" width="62.25" height="244.91" style="fill:#CAC27E"/>
	<rect x="1285.72" y="1365.58" width="54.90" height="237.57" style="fill:none;stroke:#D7D29E;stroke-width:7.34"/>
	<rect x="1344.30" y="1368.35" width="62.25" height="238.47" style="fill:#CAC27E"/>
	<rect x="1347.97" y="1372.02" width="54.90" height="231.13" style="fill:none;stroke:#D7D29E;stroke-width:7.34"/>
	<rect x="1406.54" y="1414.26" width="62.25" height="192.56" style="fill:#CAC27E"/>
	<rect x="1410.21" y="1417.93" width="54.90" height="185.22" style="fill:none;stroke:#D7D29E;stroke-width:7.34"/>
	<rect x="1468.79" y="1497.30" width="62.12" height="109.52" style="fill:#CAC27E"/>
	<rect x="1472.46" y="1500.97" width="54.78" height="102.18" style="fill:none;stroke:#D7D29E;stroke-width:7.34"/>
	<rect x="1530.91" y="1586.65" width="62.25" height="20.17" style="fill:#CAC27E"/>
	<rect x="1534.58" y="1590.32" width="54.90" height="12.83" style="fill:none;stroke:#D7D29E;stroke-width:7.34"/>
	<rect x="1593.16" y="1601.00" width="62.25" height="5.82" style="fill:#CAC27E"/>
	<rect x="1596.83" y="1603.15" width="54.90" height="1.53" style="fill:none;stroke:#D7D29E;stroke-width:7.34"/>
	<rect x="1655.40" y="1604.72" width="62.25" height="2.10" style="fill:#CAC27E"/>
	<rect x="1659.08" y="1603.15" width="54.90" height="5.24" style="fill:none;stroke:#D7D29E;stroke-width:7.34"/>
	<rect x="1717.65" y="1604.96" width="62.12" height="1.86" style="fill:#CAC27E"/>
	<rect x="1721.32" y="1603.15" width="54.78" height="5.49" style="fill:none;stroke:#D7D29E;stroke-width:7.34"/>
	<rect x="1779.77" y="1605.95" width="62.25" height="0.87" style="fill:#CAC27E"/>
	<rect x="1783.44" y="1603.15" width="54.90" height="6.48" style="fill:none;stroke:#D7D29E;stroke-width:7.34"/>
	<rect x="1842.02" y="1604.47" width="62.25" height="2.35" style="fill:#CAC27E"/>
	<rect x="1845.69" y="1603.15" width="54.90" height="4.99" style="fill:none;stroke:#D7D29E;stroke-width:7.34"/>
	<rect x="1904.27" y="1603.36" width="62.12" height="3.47" style="fill:#CAC27E"/>
	<rect x="1907.94" y="1603.15" width="54.78" height="3.88" style="fill:none;stroke:#D7D29E;stroke-width:7.34"/>
	<rect x="1966.39" y="1598.40" width="62.25" height="8.42" style="fill:#CAC27E"/>
	<rect x="1970.06" y="1602.08" width="54.90" height="1.07" style="fill:none;stroke:#D7D29E;stroke-width:7.34"/>
	<rect x="2028.63" y="1572.05" width="62.25" height="34.77" style="fill:#CAC27E"/>
	<rect x="2032.31" y="1575.72" width="54.90" height="27.43" style="fill:none;stroke:#D7D29E;stroke-width:7.34"/>
	<rect x="2090.88" y="1417.72" width="62.25" height="189.10" style="fill:#CAC27E"/>
	<rect x="2094.55" y="1421.40" width="54.90" height="181.75" style="fill:none;stroke:#D7D29E;stroke-width:7.34"/>
	<rect x="2153.13" y="1310.68" width="62.12" height="296.14" style="fill:#CAC27E"/>
	<rect x="2156.80" y="1314.35" width="54.78" height="288.80" style="fill:none;stroke:#D7D29E;stroke-width:7.34"/>
	<rect x="2215.25" y="1453.12" width="62.25" height="153.70" style="fill:#CAC27E"/>
	<rect x="2218.92" y="1456.79" width="54.90" height="146.36" style="fill:none;stroke:#D7D29E;stroke-width:7.34"/>
	<rect x="2277.49" y="1540.74" width="62.25" height="66.08" style="fill:#CAC27E"/>
	<rect x="2281.17" y="1544.41" width="54.90" height="58.74" style="fill:none;stroke:#D7D29E;stroke-width:7.34"/>
	<rect x="2339.74" y="1578.98" width="62.25" height="27.84" style="fill:#CAC27E"/>
	<rect x="2343.41" y="1582.65" width="54.90" height="20.50" style="fill:none;stroke:#D7D29E;stroke-width:7.34"/>
	<rect x="2401.99" y="1597.04" width="62.12" height="9.78" style="fill:#CAC27E"/>
	<rect x="2405.66" y="1600.72" width="54.78" height="2.43" style="fill:none;stroke:#D7D29E;stroke-width:7.34"/>
	<rect x="2464.11" y="1602.12" width="62.25" height="4.70" style="fill:#CAC27E"/>
	<rect x="2467.78" y="1603.15" width="54.90" height="2.64" style="fill:none;stroke:#D7D29E;stroke-width:7.34"/>
	<rect x="2526.36" y="1604.84" width="62.25" height="1.98" style="fill:#CAC27E"/>
	<rect x="2530.03" y="1603.15" width="54.90" height="5.36" style="fill:none;stroke:#D7D29E;stroke-width:7.34"/>
	<rect x="2588.60" y="1603.11" width="62.25" height="3.71" style="fill:#CAC27E"/>
	<rect x="2592.27" y="1603.15" width="54.90" height="3.63" style="fill:none;stroke:#D7D29E;stroke-width:7.34"/>
	<rect x="2650.85" y="1602.24" width="62.12" height="4.58" style="fill:#CAC27E"/>
	<rect x="2654.52" y="1603.15" width="54.78" height="2.76" style="fill:none;stroke:#D7D29E;stroke-width:7.34"/>
	<rect x="2712.97" y="1600.01" width="62.25" height="6.81" style="fill:#CAC27E"/>
	<rect x="2716.64" y="1603.15" width="54.90" height="0.54" style="fill:none;stroke:#D7D29E;stroke-width:7.34"/>
	<rect x="2090.88" y="2376.69" width="62.25" height="0.37" style="fill:#CAC27E"/>
	<rect x="2094.55" y="2373.39" width="54.90" height="6.97" style="fill:none;stroke:#D7D29E;stroke-width:7.34"/>
	<rect x="2153.13" y="2292.66" width="62.12" height="84.40" style="fill:#CAC27E"/>
	<rect x="2156.80" y="2296.34" width="54.78" height="77.06" style="fill:none;stroke:#D7D29E;stroke-width:7.34"/>
	<rect x="2277.49" y="1852.72" width="62.25" height="524.35" style="fill:#CAC27E"/>
	<rect x="2281.17" y="1856.39" width="54.90" height="517.00" style="fill:none;stroke:#D7D29E;stroke-width:7.34"/>
	<rect x="2339.74" y="2135.37" width="62.25" height="241.69" style="fill:#CAC27E"/>
	<rect x="2343.41" y="2139.04" width="54.90" height="234.35" style="fill:none;stroke:#D7D29E;stroke-width:7.34"/>
	<rect x="2401.99" y="2280.91" width="62.12" height="96.16" style="fill:#CAC27E"/>
	<rect x="2405.66" y="2284.58" width="54.78" height="88.81" style="fill:none;stroke:#D7D29E;stroke-width:7.34"/>
	<rect x="2464.11" y="2333.26" width="62.25" height="43.81" style="fill:#CAC27E"/>
	<rect x="2467.78" y="2336.93" width="54.90" height="36.47" style="fill:none;stroke:#D7D29E;stroke-width:7.34"/>
	<rect x="2526.36" y="2354.54" width="62.25" height="22.52" style="fill:#CAC27E"/>
	<rect x="2530.03" y="2358.21" width="54.90" height="15.18" style="fill:none;stroke:#D7D29E;stroke-width:7.34"/>
	<rect x="2588.60" y="2325.95" width="62.25" height="51.11" style="fill:#CAC27E"/>
	<rect x="2592.27" y="2329.63" width="54.90" height="43.77" style="fill:none;stroke:#D7D29E;stroke-width:7.34"/>
	<rect x="2650.85" y="2190.32" width="62.12" height="186.74" style="fill:#CAC27E"/>
	<rect x="2654.52" y="2193.99" width="54.78" height="179.40" style="fill:none;stroke:#D7D29E;stroke-width:7.34"/>
	<rect x="2712.97" y="1978.70" width="62.25" height="398.36" style="fill:#CAC27E"/>
	<rect x="2716.64" y="1982.37" width="54.90" height="391.02" style="fill:none;stroke:#D7D29E;stroke-width:7.34"/>
	<rect x="2775.22" y="2164.95" width="62.25" height="212.11" style="fill:#CAC27E"/>
	<rect x="2778.89" y="2168.62" width="54.90" height="204.77" style="fill:none;stroke:#D7D29E;stroke-width:7.34"/>
	<line x1="388.33" y1="836.58" x2="388.33" y2="258.27" style="stroke:#000000;stroke-width:4.90"/>
	<line x1="388.33" y1="836.58" x2="354.30" y2="836.58" style="stroke:#000000;stroke-width:4.90"/>
	<text x="311.78" y="836.58" style="font-family:'Helvetica';font-size:85.02px;fill:#000000" transform="rotate(-90 311.78,836.58)" text-anchor="middle">0</text>
	<line x1="388.33" y1="577.06" x2="354.30" y2="577.06" style="stroke:#000000;stroke-width:4.90"/>
	<text x="311.78" y="577.06" style="font-family:'Helvetica';font-size:85.02px;fill:#000000" transform="rotate(-90 311.78,577.06)" text-anchor="middle">.005</text>
	<line x1="388.33" y1="317.55" x2="354.30" y2="317.55" style="stroke:#000000;stroke-width:4.90"/>
	<text x="311.78" y="317.55" style="font-family:'Helvetica';font-size:85.02px;fill:#000000" transform="rotate(-90 311.78,317.55)" text-anchor="middle">.01</text>
	<line x1="388.33" y1="1606.82" x2="388.33" y2="1028.52" style="stroke:#000000;stroke-width:4.90"/>
	<line x1="388.33" y1="1606.82" x2="354.30" y2="1606.82" style="stroke:#000000;stroke-width:4.90"/>
	<text x="311.78" y="1606.82" style="font-family:'Helvetica';font-size:85.02px;fill:#000000" transform="rotate(-90 311.78,1606.82)" text-anchor="middle">0</text>
	<line x1="388.33" y1="1347.31" x2="354.30" y2="1347.31" style="stroke:#000000;stroke-width:4.90"/>
	<text x="311.78" y="1347.31" style="font-family:'Helvetica';font-size:85.02px;fill:#000000" transform="rotate(-90 311.78,1347.31)" text-anchor="middle">.005</text>
	<line x1="388.33" y1="1087.92" x2="354.30" y2="1087.92" style="stroke:#000000;stroke-width:4.90"/>
	<text x="311.78" y="1087.92" style="font-family:'Helvetica';font-size:85.02px;fill:#000000" transform="rotate(-90 311.78,1087.92)" text-anchor="middle">.01</text>
	<line x1="388.33" y1="2377.06" x2="388.33" y2="1798.76" style="stroke:#000000;stroke-width:4.90"/>
	<line x1="388.33" y1="2377.06" x2="354.30" y2="2377.06" style="stroke:#000000;stroke-width:4.90"/>
	<text x="311.78" y="2377.06" style="font-family:'Helvetica';font-size:85.02px;fill:#000000" transform="rotate(-90 311.78,2377.06)" text-anchor="middle">0</text>
	<line x1="388.33" y1="2117.68" x2="354.30" y2="2117.68" style="stroke:#000000;stroke-width:4.90"/>
	<text x="311.78" y="2117.68" style="font-family:'Helvetica';font-size:85.02px;fill:#000000" transform="rotate(-90 311.78,2117.68)" text-anchor="middle">.005</text>
	<line x1="388.33" y1="1858.16" x2="354.30" y2="1858.16" style="stroke:#000000;stroke-width:4.90"/>
	<text x="311.78" y="1858.16" style="font-family:'Helvetica';font-size:85.02px;fill:#000000" transform="rotate(-90 311.78,1858.16)" text-anchor="middle">.01</text>
	<line x1="388.33" y1="2377.06" x2="3824.49" y2="2377.06" style="stroke:#000000;stroke-width:4.90"/>
	<line x1="453.17" y1="2377.06" x2="453.17" y2="2411.10" style="stroke:#000000;stroke-width:4.90"/>
	<text x="453.17" y="2487.50" style="font-family:'Helvetica';font-size:85.02px;fill:#000000" text-anchor="middle">01jan2017</text>
	<line x1="1268.19" y1="2377.06" x2="1268.19" y2="2411.10" style="stroke:#000000;stroke-width:4.90"/>
	<text x="1268.19" y="2487.50" style="font-family:'Helvetica';font-size:85.02px;fill:#000000" text-anchor="middle">01jan2018</text>
	<line x1="2083.08" y1="2377.06" x2="2083.08" y2="2411.10" style="stroke:#000000;stroke-width:4.90"/>
	<text x="2083.08" y="2487.50" style="font-family:'Helvetica';font-size:85.02px;fill:#000000" text-anchor="middle">01jan2019</text>
	<line x1="2897.98" y1="2377.06" x2="2897.98" y2="2411.10" style="stroke:#000000;stroke-width:4.90"/>
	<text x="2897.98" y="2487.50" style="font-family:'Helvetica';font-size:85.02px;fill:#000000" text-anchor="middle">01jan2020</text>
	<line x1="3715.10" y1="2377.06" x2="3715.10" y2="2411.10" style="stroke:#000000;stroke-width:4.90"/>
	<text x="3715.10" y="2487.50" style="font-family:'Helvetica';font-size:85.02px;fill:#000000" text-anchor="middle">01jan2021</text>
	<rect x="388.33" y="135.39" width="3436.17" height="122.89" style="fill:#D9E6EB"/>
	<rect x="390.78" y="137.83" width="3431.27" height="117.99" style="fill:none;stroke:#D9E6EB;stroke-width:4.90"/>
	<text x="2106.47" y="215.42" style="font-family:'Helvetica';font-size:93.56px;fill:#000000" text-anchor="middle">Hospitalised COVID-19</text>
	<rect x="388.33" y="905.63" width="3436.17" height="122.89" style="fill:#D9E6EB"/>
	<rect x="390.78" y="908.08" width="3431.27" height="117.99" style="fill:none;stroke:#D9E6EB;stroke-width:4.90"/>
	<text x="2106.47" y="985.66" style="font-family:'Helvetica';font-size:93.56px;fill:#000000" text-anchor="middle">Hospitalised flu 2017_19</text>
	<rect x="388.33" y="1676.00" width="3436.17" height="122.76" style="fill:#D9E6EB"/>
	<rect x="390.78" y="1678.45" width="3431.27" height="117.87" style="fill:none;stroke:#D9E6EB;stroke-width:4.90"/>
	<text x="2106.47" y="1756.03" style="font-family:'Helvetica';font-size:93.56px;fill:#000000" text-anchor="middle">General pop 2019</text>
	<text x="170.79" y="1332.71" style="font-family:'Helvetica';font-size:99.99px;fill:#000000" transform="rotate(-90 170.79,1332.71)" text-anchor="middle">Density</text>
	<text x="2029.99" y="2634.61" style="font-family:'Helvetica';font-size:99.99px;fill:#000000" text-anchor="middle">entrydate</text>
	<text x="218.05" y="2737.89" style="font-family:'Helvetica';font-size:79.94px;fill:#000000">Graphs by group</text>
</svg>
