<?xml version="1.0" encoding="UTF-8" standalone="no"?>
<!-- This is a Stata 16.1 generated SVG file (http://www.stata.com) -->

<svg version="1.1" width="5.50in" height="4.00in" viewBox="0 0 3960 2880" xmlns="http://www.w3.org/2000/svg" xmlns:xlink="http://www.w3.org/1999/xlink">
	<desc>Stata Graph - Graph</desc>
	<rect x="0" y="0" width="3960" height="2880" style="fill:#EAF2F3;stroke:none"/>
	<rect x="0.00" y="0.00" width="3959.88" height="2880.00" style="fill:#EAF2F3"/>
	<rect x="2.88" y="2.88" width="3954.12" height="2874.24" style="fill:none;stroke:#EAF2F3;stroke-width:5.76"/>
	<rect x="388.33" y="258.27" width="3436.17" height="578.30" style="fill:#FFFFFF"/>
	<rect x="390.78" y="260.72" width="3431.27" height="573.41" style="fill:none;stroke:#FFFFFF;stroke-width:4.90"/>
	<line x1="388.33" y1="836.58" x2="3824.49" y2="836.58" style="stroke:#EAF2F3;stroke-width:7.34"/>
	<line x1="388.33" y1="672.73" x2="3824.49" y2="672.73" style="stroke:#EAF2F3;stroke-width:7.34"/>
	<line x1="388.33" y1="508.88" x2="3824.49" y2="508.88" style="stroke:#EAF2F3;stroke-width:7.34"/>
	<line x1="388.33" y1="344.90" x2="3824.49" y2="344.90" style="stroke:#EAF2F3;stroke-width:7.34"/>
	<rect x="388.33" y="1028.52" width="3436.17" height="578.30" style="fill:#FFFFFF"/>
	<rect x="390.78" y="1030.97" width="3431.27" height="573.41" style="fill:none;stroke:#FFFFFF;stroke-width:4.90"/>
	<line x1="388.33" y1="1606.82" x2="3824.49" y2="1606.82" style="stroke:#EAF2F3;stroke-width:7.34"/>
	<line x1="388.33" y1="1442.97" x2="3824.49" y2="1442.97" style="stroke:#EAF2F3;stroke-width:7.34"/>
	<line x1="388.33" y1="1279.12" x2="3824.49" y2="1279.12" style="stroke:#EAF2F3;stroke-width:7.34"/>
	<line x1="388.33" y1="1115.27" x2="3824.49" y2="1115.27" style="stroke:#EAF2F3;stroke-width:7.34"/>
	<rect x="388.33" y="1798.76" width="3436.17" height="578.30" style="fill:#FFFFFF"/>
	<rect x="390.78" y="1801.21" width="3431.27" height="573.41" style="fill:none;stroke:#FFFFFF;stroke-width:4.90"/>
	<line x1="388.33" y1="2377.06" x2="3824.49" y2="2377.06" style="stroke:#EAF2F3;stroke-width:7.34"/>
	<line x1="388.33" y1="2213.21" x2="3824.49" y2="2213.21" style="stroke:#EAF2F3;stroke-width:7.34"/>
	<line x1="388.33" y1="2049.36" x2="3824.49" y2="2049.36" style="stroke:#EAF2F3;stroke-width:7.34"/>
	<line x1="388.33" y1="1885.51" x2="3824.49" y2="1885.51" style="stroke:#EAF2F3;stroke-width:7.34"/>
	<rect x="2998.71" y="836.20" width="63.11" height="0.37" style="fill:#CAC27E"/>
	<rect x="3002.38" y="832.90" width="55.77" height="6.97" style="fill:none;stroke:#D7D29E;stroke-width:7.34"/>
	<rect x="3061.82" y="833.73" width="63.11" height="2.85" style="fill:#CAC27E"/>
	<rect x="3065.49" y="832.90" width="55.77" height="4.50" style="fill:none;stroke:#D7D29E;stroke-width:7.34"/>
	<rect x="3124.93" y="545.51" width="63.11" height="291.07" style="fill:#CAC27E"/>
	<rect x="3128.61" y="549.18" width="55.77" height="283.73" style="fill:none;stroke:#D7D29E;stroke-width:7.34"/>
	<rect x="3188.05" y="421.88" width="63.11" height="414.70" style="fill:#CAC27E"/>
	<rect x="3191.72" y="425.55" width="55.77" height="407.36" style="fill:none;stroke:#D7D29E;stroke-width:7.34"/>
	<rect x="3251.16" y="671.49" width="63.11" height="165.09" style="fill:#CAC27E"/>
	<rect x="3254.83" y="675.16" width="55.77" height="157.74" style="fill:none;stroke:#D7D29E;stroke-width:7.34"/>
	<rect x="3314.27" y="756.01" width="63.11" height="80.56" style="fill:#CAC27E"/>
	<rect x="3317.94" y="759.68" width="55.77" height="73.22" style="fill:none;stroke:#D7D29E;stroke-width:7.34"/>
	<rect x="3377.39" y="799.45" width="63.11" height="37.13" style="fill:#CAC27E"/>
	<rect x="3381.06" y="803.12" width="55.77" height="29.78" style="fill:none;stroke:#D7D29E;stroke-width:7.34"/>
	<rect x="3440.50" y="815.29" width="63.11" height="21.29" style="fill:#CAC27E"/>
	<rect x="3444.17" y="818.96" width="55.77" height="13.94" style="fill:none;stroke:#D7D29E;stroke-width:7.34"/>
	<rect x="3503.61" y="800.94" width="63.11" height="35.64" style="fill:#CAC27E"/>
	<rect x="3507.28" y="804.61" width="55.77" height="28.30" style="fill:none;stroke:#D7D29E;stroke-width:7.34"/>
	<rect x="3566.72" y="706.02" width="63.11" height="130.56" style="fill:#CAC27E"/>
	<rect x="3570.39" y="709.69" width="55.77" height="123.22" style="fill:none;stroke:#D7D29E;stroke-width:7.34"/>
	<rect x="473.71" y="1570.44" width="63.11" height="36.38" style="fill:#CAC27E"/>
	<rect x="477.39" y="1574.11" width="55.77" height="29.04" style="fill:none;stroke:#D7D29E;stroke-width:7.34"/>
	<rect x="536.83" y="1565.24" width="63.11" height="41.58" style="fill:#CAC27E"/>
	<rect x="540.50" y="1568.91" width="55.77" height="34.24" style="fill:none;stroke:#D7D29E;stroke-width:7.34"/>
	<rect x="600.06" y="1591.60" width="63.11" height="15.22" style="fill:#CAC27E"/>
	<rect x="603.74" y="1595.27" width="55.77" height="7.88" style="fill:none;stroke:#D7D29E;stroke-width:7.34"/>
	<rect x="663.18" y="1601.62" width="63.11" height="5.20" style="fill:#CAC27E"/>
	<rect x="666.85" y="1603.15" width="55.77" height="2.15" style="fill:none;stroke:#D7D29E;stroke-width:7.34"/>
	<rect x="726.29" y="1602.37" width="63.11" height="4.46" style="fill:#CAC27E"/>
	<rect x="729.96" y="1603.15" width="55.77" height="2.89" style="fill:none;stroke:#D7D29E;stroke-width:7.34"/>
	<rect x="789.40" y="1605.09" width="63.11" height="1.73" style="fill:#CAC27E"/>
	<rect x="793.07" y="1603.15" width="55.77" height="5.61" style="fill:none;stroke:#D7D29E;stroke-width:7.34"/>
	<rect x="852.51" y="1605.71" width="63.11" height="1.11" style="fill:#CAC27E"/>
	<rect x="856.19" y="1603.15" width="55.77" height="6.23" style="fill:none;stroke:#D7D29E;stroke-width:7.34"/>
	<rect x="915.63" y="1606.57" width="63.11" height="0.25" style="fill:#CAC27E"/>
	<rect x="919.30" y="1603.15" width="55.77" height="7.10" style="fill:none;stroke:#D7D29E;stroke-width:7.34"/>
	<rect x="978.74" y="1606.08" width="63.11" height="0.74" style="fill:#CAC27E"/>
	<rect x="982.41" y="1603.15" width="55.77" height="6.60" style="fill:none;stroke:#D7D29E;stroke-width:7.34"/>
	<rect x="1041.85" y="1605.21" width="63.11" height="1.61" style="fill:#CAC27E"/>
	<rect x="1045.52" y="1603.15" width="55.77" height="5.73" style="fill:none;stroke:#D7D29E;stroke-width:7.34"/>
	<rect x="1104.96" y="1604.59" width="63.11" height="2.23" style="fill:#CAC27E"/>
	<rect x="1108.64" y="1603.15" width="55.77" height="5.12" style="fill:none;stroke:#D7D29E;stroke-width:7.34"/>
	<rect x="1168.08" y="1603.85" width="63.11" height="2.97" style="fill:#CAC27E"/>
	<rect x="1171.75" y="1603.15" width="55.77" height="4.37" style="fill:none;stroke:#D7D29E;stroke-width:7.34"/>
	<rect x="1231.19" y="1575.76" width="63.11" height="31.06" style="fill:#CAC27E"/>
	<rect x="1234.86" y="1579.43" width="55.77" height="23.72" style="fill:none;stroke:#D7D29E;stroke-width:7.34"/>
	<rect x="1294.30" y="1451.39" width="63.24" height="155.43" style="fill:#CAC27E"/>
	<rect x="1297.97" y="1455.06" width="55.89" height="148.09" style="fill:none;stroke:#D7D29E;stroke-width:7.34"/>
	<rect x="1357.41" y="1458.81" width="63.24" height="148.01" style="fill:#CAC27E"/>
	<rect x="1361.09" y="1462.48" width="55.89" height="140.67" style="fill:none;stroke:#D7D29E;stroke-width:7.34"/>
	<rect x="1420.65" y="1484.43" width="63.11" height="122.39" style="fill:#CAC27E"/>
	<rect x="1424.32" y="1488.10" width="55.77" height="115.05" style="fill:none;stroke:#D7D29E;stroke-width:7.34"/>
	<rect x="1483.76" y="1533.43" width="63.11" height="73.39" style="fill:#CAC27E"/>
	<rect x="1487.43" y="1537.11" width="55.77" height="66.04" style="fill:none;stroke:#D7D29E;stroke-width:7.34"/>
	<rect x="1546.88" y="1592.84" width="63.11" height="13.98" style="fill:#CAC27E"/>
	<rect x="1550.55" y="1596.51" width="55.77" height="6.64" style="fill:none;stroke:#D7D29E;stroke-width:7.34"/>
	<rect x="1609.99" y="1602.86" width="63.11" height="3.96" style="fill:#CAC27E"/>
	<rect x="1613.66" y="1603.15" width="55.77" height="3.38" style="fill:none;stroke:#D7D29E;stroke-width:7.34"/>
	<rect x="1673.10" y="1605.58" width="63.11" height="1.24" style="fill:#CAC27E"/>
	<rect x="1676.77" y="1603.15" width="55.77" height="6.11" style="fill:none;stroke:#D7D29E;stroke-width:7.34"/>
	<rect x="1736.21" y="1605.46" width="63.11" height="1.36" style="fill:#CAC27E"/>
	<rect x="1739.88" y="1603.15" width="55.77" height="5.98" style="fill:none;stroke:#D7D29E;stroke-width:7.34"/>
	<rect x="1799.33" y="1606.45" width="63.11" height="0.37" style="fill:#CAC27E"/>
	<rect x="1803.00" y="1603.15" width="55.77" height="6.97" style="fill:none;stroke:#D7D29E;stroke-width:7.34"/>
	<rect x="1862.44" y="1605.34" width="63.11" height="1.49" style="fill:#CAC27E"/>
	<rect x="1866.11" y="1603.15" width="55.77" height="5.86" style="fill:none;stroke:#D7D29E;stroke-width:7.34"/>
	<rect x="1925.55" y="1604.72" width="63.11" height="2.10" style="fill:#CAC27E"/>
	<rect x="1929.22" y="1603.15" width="55.77" height="5.24" style="fill:none;stroke:#D7D29E;stroke-width:7.34"/>
	<rect x="1988.66" y="1602.24" width="63.11" height="4.58" style="fill:#CAC27E"/>
	<rect x="1992.33" y="1603.15" width="55.77" height="2.76" style="fill:none;stroke:#D7D29E;stroke-width:7.34"/>
	<rect x="2051.78" y="1587.89" width="63.11" height="18.93" style="fill:#CAC27E"/>
	<rect x="2055.45" y="1591.56" width="55.77" height="11.59" style="fill:none;stroke:#D7D29E;stroke-width:7.34"/>
	<rect x="2114.89" y="1495.32" width="63.24" height="111.50" style="fill:#CAC27E"/>
	<rect x="2118.56" y="1498.99" width="55.89" height="104.16" style="fill:none;stroke:#D7D29E;stroke-width:7.34"/>
	<rect x="2178.12" y="1424.16" width="63.11" height="182.66" style="fill:#CAC27E"/>
	<rect x="2181.80" y="1427.83" width="55.77" height="175.32" style="fill:none;stroke:#D7D29E;stroke-width:7.34"/>
	<rect x="2241.24" y="1497.55" width="63.11" height="109.27" style="fill:#CAC27E"/>
	<rect x="2244.91" y="1501.22" width="55.77" height="101.93" style="fill:none;stroke:#D7D29E;stroke-width:7.34"/>
	<rect x="2304.35" y="1563.51" width="63.11" height="43.31" style="fill:#CAC27E"/>
	<rect x="2308.02" y="1567.18" width="55.77" height="35.97" style="fill:none;stroke:#D7D29E;stroke-width:7.34"/>
	<rect x="2367.46" y="1587.14" width="63.11" height="19.68" style="fill:#CAC27E"/>
	<rect x="2371.13" y="1590.82" width="55.77" height="12.33" style="fill:none;stroke:#D7D29E;stroke-width:7.34"/>
	<rect x="2430.57" y="1600.26" width="63.11" height="6.56" style="fill:#CAC27E"/>
	<rect x="2434.25" y="1603.15" width="55.77" height="0.78" style="fill:none;stroke:#D7D29E;stroke-width:7.34"/>
	<rect x="2493.69" y="1603.73" width="63.11" height="3.09" style="fill:#CAC27E"/>
	<rect x="2497.36" y="1603.15" width="55.77" height="4.25" style="fill:none;stroke:#D7D29E;stroke-width:7.34"/>
	<rect x="2556.80" y="1605.34" width="63.11" height="1.49" style="fill:#CAC27E"/>
	<rect x="2560.47" y="1603.15" width="55.77" height="5.86" style="fill:none;stroke:#D7D29E;stroke-width:7.34"/>
	<rect x="2619.91" y="1604.72" width="63.11" height="2.10" style="fill:#CAC27E"/>
	<rect x="2623.58" y="1603.15" width="55.77" height="5.24" style="fill:none;stroke:#D7D29E;stroke-width:7.34"/>
	<rect x="2683.02" y="1604.22" width="63.11" height="2.60" style="fill:#CAC27E"/>
	<rect x="2686.70" y="1603.15" width="55.77" height="4.74" style="fill:none;stroke:#D7D29E;stroke-width:7.34"/>
	<rect x="2746.14" y="1601.87" width="63.11" height="4.95" style="fill:#CAC27E"/>
	<rect x="2749.81" y="1603.15" width="55.77" height="2.39" style="fill:none;stroke:#D7D29E;stroke-width:7.34"/>
	<rect x="2178.12" y="2376.57" width="63.11" height="0.50" style="fill:#CAC27E"/>
	<rect x="2181.80" y="2373.39" width="55.77" height="6.85" style="fill:none;stroke:#D7D29E;stroke-width:7.34"/>
	<rect x="2241.24" y="2293.28" width="63.11" height="83.78" style="fill:#CAC27E"/>
	<rect x="2244.91" y="2296.95" width="55.77" height="76.44" style="fill:none;stroke:#D7D29E;stroke-width:7.34"/>
	<rect x="2304.35" y="1852.72" width="63.11" height="524.35" style="fill:#CAC27E"/>
	<rect x="2308.02" y="1856.39" width="55.77" height="517.00" style="fill:none;stroke:#D7D29E;stroke-width:7.34"/>
	<rect x="2367.46" y="2135.37" width="63.11" height="241.69" style="fill:#CAC27E"/>
	<rect x="2371.13" y="2139.04" width="55.77" height="234.35" style="fill:none;stroke:#D7D29E;stroke-width:7.34"/>
	<rect x="2430.57" y="2281.03" width="63.11" height="96.03" style="fill:#CAC27E"/>
	<rect x="2434.25" y="2284.70" width="55.77" height="88.69" style="fill:none;stroke:#D7D29E;stroke-width:7.34"/>
	<rect x="2493.69" y="2332.51" width="63.11" height="44.55" style="fill:#CAC27E"/>
	<rect x="2497.36" y="2336.18" width="55.77" height="37.21" style="fill:none;stroke:#D7D29E;stroke-width:7.34"/>
	<rect x="2556.80" y="2354.79" width="63.11" height="22.28" style="fill:#CAC27E"/>
	<rect x="2560.47" y="2358.46" width="55.77" height="14.93" style="fill:none;stroke:#D7D29E;stroke-width:7.34"/>
	<rect x="2619.91" y="2326.45" width="63.11" height="50.62" style="fill:#CAC27E"/>
	<rect x="2623.58" y="2330.12" width="55.77" height="43.27" style="fill:none;stroke:#D7D29E;stroke-width:7.34"/>
	<rect x="2683.02" y="2262.47" width="63.11" height="114.60" style="fill:#CAC27E"/>
	<rect x="2686.70" y="2266.14" width="55.77" height="107.25" style="fill:none;stroke:#D7D29E;stroke-width:7.34"/>
	<line x1="388.33" y1="836.58" x2="388.33" y2="258.27" style="stroke:#000000;stroke-width:4.90"/>
	<line x1="388.33" y1="836.58" x2="354.30" y2="836.58" style="stroke:#000000;stroke-width:4.90"/>
	<text x="311.78" y="836.58" style="font-family:'Helvetica';font-size:85.02px;fill:#000000" transform="rotate(-90 311.78,836.58)" text-anchor="middle">0</text>
	<line x1="388.33" y1="672.73" x2="354.30" y2="672.73" style="stroke:#000000;stroke-width:4.90"/>
	<text x="311.78" y="672.73" style="font-family:'Helvetica';font-size:85.02px;fill:#000000" transform="rotate(-90 311.78,672.73)" text-anchor="middle">.005</text>
	<line x1="388.33" y1="508.88" x2="354.30" y2="508.88" style="stroke:#000000;stroke-width:4.90"/>
	<text x="311.78" y="508.88" style="font-family:'Helvetica';font-size:85.02px;fill:#000000" transform="rotate(-90 311.78,508.88)" text-anchor="middle">.01</text>
	<line x1="388.33" y1="344.90" x2="354.30" y2="344.90" style="stroke:#000000;stroke-width:4.90"/>
	<text x="311.78" y="344.90" style="font-family:'Helvetica';font-size:85.02px;fill:#000000" transform="rotate(-90 311.78,344.90)" text-anchor="middle">.015</text>
	<line x1="388.33" y1="1606.82" x2="388.33" y2="1028.52" style="stroke:#000000;stroke-width:4.90"/>
	<line x1="388.33" y1="1606.82" x2="354.30" y2="1606.82" style="stroke:#000000;stroke-width:4.90"/>
	<text x="311.78" y="1606.82" style="font-family:'Helvetica';font-size:85.02px;fill:#000000" transform="rotate(-90 311.78,1606.82)" text-anchor="middle">0</text>
	<line x1="388.33" y1="1442.97" x2="354.30" y2="1442.97" style="stroke:#000000;stroke-width:4.90"/>
	<text x="311.78" y="1442.97" style="font-family:'Helvetica';font-size:85.02px;fill:#000000" transform="rotate(-90 311.78,1442.97)" text-anchor="middle">.005</text>
	<line x1="388.33" y1="1279.12" x2="354.30" y2="1279.12" style="stroke:#000000;stroke-width:4.90"/>
	<text x="311.78" y="1279.12" style="font-family:'Helvetica';font-size:85.02px;fill:#000000" transform="rotate(-90 311.78,1279.12)" text-anchor="middle">.01</text>
	<line x1="388.33" y1="1115.27" x2="354.30" y2="1115.27" style="stroke:#000000;stroke-width:4.90"/>
	<text x="311.78" y="1115.27" style="font-family:'Helvetica';font-size:85.02px;fill:#000000" transform="rotate(-90 311.78,1115.27)" text-anchor="middle">.015</text>
	<line x1="388.33" y1="2377.06" x2="388.33" y2="1798.76" style="stroke:#000000;stroke-width:4.90"/>
	<line x1="388.33" y1="2377.06" x2="354.30" y2="2377.06" style="stroke:#000000;stroke-width:4.90"/>
	<text x="311.78" y="2377.06" style="font-family:'Helvetica';font-size:85.02px;fill:#000000" transform="rotate(-90 311.78,2377.06)" text-anchor="middle">0</text>
	<line x1="388.33" y1="2213.21" x2="354.30" y2="2213.21" style="stroke:#000000;stroke-width:4.90"/>
	<text x="311.78" y="2213.21" style="font-family:'Helvetica';font-size:85.02px;fill:#000000" transform="rotate(-90 311.78,2213.21)" text-anchor="middle">.005</text>
	<line x1="388.33" y1="2049.36" x2="354.30" y2="2049.36" style="stroke:#000000;stroke-width:4.90"/>
	<text x="311.78" y="2049.36" style="font-family:'Helvetica';font-size:85.02px;fill:#000000" transform="rotate(-90 311.78,2049.36)" text-anchor="middle">.01</text>
	<line x1="388.33" y1="1885.51" x2="354.30" y2="1885.51" style="stroke:#000000;stroke-width:4.90"/>
	<text x="311.78" y="1885.51" style="font-family:'Helvetica';font-size:85.02px;fill:#000000" transform="rotate(-90 311.78,1885.51)" text-anchor="middle">.015</text>
	<line x1="388.33" y1="2377.06" x2="3824.49" y2="2377.06" style="stroke:#000000;stroke-width:4.90"/>
	<line x1="453.30" y1="2377.06" x2="453.30" y2="2411.10" style="stroke:#000000;stroke-width:4.90"/>
	<text x="453.30" y="2487.50" style="font-family:'Helvetica';font-size:85.02px;fill:#000000" text-anchor="middle">01jan2017</text>
	<line x1="1282.05" y1="2377.06" x2="1282.05" y2="2411.10" style="stroke:#000000;stroke-width:4.90"/>
	<text x="1282.05" y="2487.50" style="font-family:'Helvetica';font-size:85.02px;fill:#000000" text-anchor="middle">01jan2018</text>
	<line x1="2110.80" y1="2377.06" x2="2110.80" y2="2411.10" style="stroke:#000000;stroke-width:4.90"/>
	<text x="2110.80" y="2487.50" style="font-family:'Helvetica';font-size:85.02px;fill:#000000" text-anchor="middle">01jan2019</text>
	<line x1="2939.68" y1="2377.06" x2="2939.68" y2="2411.10" style="stroke:#000000;stroke-width:4.90"/>
	<text x="2939.68" y="2487.50" style="font-family:'Helvetica';font-size:85.02px;fill:#000000" text-anchor="middle">01jan2020</text>
	<line x1="3770.66" y1="2377.06" x2="3770.66" y2="2411.10" style="stroke:#000000;stroke-width:4.90"/>
	<text x="3770.66" y="2487.50" style="font-family:'Helvetica';font-size:85.02px;fill:#000000" text-anchor="middle">01jan2021</text>
	<rect x="388.33" y="135.39" width="3436.17" height="122.89" style="fill:#D9E6EB"/>
	<rect x="390.78" y="137.83" width="3431.27" height="117.99" style="fill:none;stroke:#D9E6EB;stroke-width:4.90"/>
	<text x="2106.47" y="215.42" style="font-family:'Helvetica';font-size:93.56px;fill:#000000" text-anchor="middle">Hospitalised COVID-19</text>
	<rect x="388.33" y="905.63" width="3436.17" height="122.89" style="fill:#D9E6EB"/>
	<rect x="390.78" y="908.08" width="3431.27" height="117.99" style="fill:none;stroke:#D9E6EB;stroke-width:4.90"/>
	<text x="2106.47" y="985.66" style="font-family:'Helvetica';font-size:93.56px;fill:#000000" text-anchor="middle">Hospitalised flu 2017_19</text>
	<rect x="388.33" y="1676.00" width="3436.17" height="122.76" style="fill:#D9E6EB"/>
	<rect x="390.78" y="1678.45" width="3431.27" height="117.87" style="fill:none;stroke:#D9E6EB;stroke-width:4.90"/>
	<text x="2106.47" y="1756.03" style="font-family:'Helvetica';font-size:93.56px;fill:#000000" text-anchor="middle">General pop 2019</text>
	<text x="170.79" y="1332.71" style="font-family:'Helvetica';font-size:99.99px;fill:#000000" transform="rotate(-90 170.79,1332.71)" text-anchor="middle">Density</text>
	<text x="2029.99" y="2634.61" style="font-family:'Helvetica';font-size:99.99px;fill:#000000" text-anchor="middle">entrydate</text>
	<text x="218.05" y="2737.89" style="font-family:'Helvetica';font-size:79.94px;fill:#000000">Graphs by group</text>
</svg>
