<?xml version="1.0" encoding="UTF-8" standalone="no"?>
<!-- This is a Stata 16.1 generated SVG file (http://www.stata.com) -->

<svg version="1.1" width="5.50in" height="8.00in" viewBox="0 0 3960 5760" xmlns="http://www.w3.org/2000/svg" xmlns:xlink="http://www.w3.org/1999/xlink">
	<desc>Stata Graph - Graph</desc>
	<rect x="0" y="0" width="3960" height="5760" style="fill:#EAF2F3;stroke:none"/>
	<rect x="0.00" y="0.00" width="3960.00" height="5760.00" style="fill:#EAF2F3"/>
	<rect x="3.96" y="3.96" width="3952.08" height="5752.08" style="fill:none;stroke:#EAF2F3;stroke-width:7.92"/>
	<rect x="138.60" y="138.60" width="3682.80" height="5084.10" style="fill:#FFFFFF"/>
	<rect x="142.56" y="142.56" width="3674.88" height="5076.18" style="fill:none;stroke:#FFFFFF;stroke-width:7.92"/>
	<line x1="1703.88" y1="5222.70" x2="1703.88" y2="5143.50" style="stroke:#C10534;stroke-width:11.88"/>
	<line x1="1703.88" y1="5103.90" x2="1703.88" y2="5024.70" style="stroke:#C10534;stroke-width:11.88"/>
	<line x1="1703.88" y1="4985.10" x2="1703.88" y2="4905.90" style="stroke:#C10534;stroke-width:11.88"/>
	<line x1="1703.88" y1="4866.30" x2="1703.88" y2="4786.92" style="stroke:#C10534;stroke-width:11.88"/>
	<line x1="1703.88" y1="4747.32" x2="1703.88" y2="4668.12" style="stroke:#C10534;stroke-width:11.88"/>
	<line x1="1703.88" y1="4628.52" x2="1703.88" y2="4549.32" style="stroke:#C10534;stroke-width:11.88"/>
	<line x1="1703.88" y1="4509.72" x2="1703.88" y2="4430.52" style="stroke:#C10534;stroke-width:11.88"/>
	<line x1="1703.88" y1="4390.92" x2="1703.88" y2="4311.72" style="stroke:#C10534;stroke-width:11.88"/>
	<line x1="1703.88" y1="4272.12" x2="1703.88" y2="4192.92" style="stroke:#C10534;stroke-width:11.88"/>
	<line x1="1703.88" y1="4153.14" x2="1703.88" y2="4073.94" style="stroke:#C10534;stroke-width:11.88"/>
	<line x1="1703.88" y1="4034.34" x2="1703.88" y2="3955.14" style="stroke:#C10534;stroke-width:11.88"/>
	<line x1="1703.88" y1="3915.54" x2="1703.88" y2="3836.34" style="stroke:#C10534;stroke-width:11.88"/>
	<line x1="1703.88" y1="3796.74" x2="1703.88" y2="3717.54" style="stroke:#C10534;stroke-width:11.88"/>
	<line x1="1703.88" y1="3677.94" x2="1703.88" y2="3598.74" style="stroke:#C10534;stroke-width:11.88"/>
	<line x1="1703.88" y1="3559.14" x2="1703.88" y2="3479.76" style="stroke:#C10534;stroke-width:11.88"/>
	<line x1="1703.88" y1="3440.16" x2="1703.88" y2="3360.96" style="stroke:#C10534;stroke-width:11.88"/>
	<line x1="1703.88" y1="3321.36" x2="1703.88" y2="3242.16" style="stroke:#C10534;stroke-width:11.88"/>
	<line x1="1703.88" y1="3202.56" x2="1703.88" y2="3123.36" style="stroke:#C10534;stroke-width:11.88"/>
	<line x1="1703.88" y1="3083.76" x2="1703.88" y2="3004.56" style="stroke:#C10534;stroke-width:11.88"/>
	<line x1="1703.88" y1="2964.96" x2="1703.88" y2="2885.76" style="stroke:#C10534;stroke-width:11.88"/>
	<line x1="1703.88" y1="2845.98" x2="1703.88" y2="2766.78" style="stroke:#C10534;stroke-width:11.88"/>
	<line x1="1703.88" y1="2727.18" x2="1703.88" y2="2647.98" style="stroke:#C10534;stroke-width:11.88"/>
	<line x1="1703.88" y1="2608.38" x2="1703.88" y2="2529.18" style="stroke:#C10534;stroke-width:11.88"/>
	<line x1="1703.88" y1="2489.58" x2="1703.88" y2="2410.38" style="stroke:#C10534;stroke-width:11.88"/>
	<line x1="1703.88" y1="2370.78" x2="1703.88" y2="2291.58" style="stroke:#C10534;stroke-width:11.88"/>
	<line x1="1703.88" y1="2251.98" x2="1703.88" y2="2172.60" style="stroke:#C10534;stroke-width:11.88"/>
	<line x1="1703.88" y1="2133.00" x2="1703.88" y2="2053.80" style="stroke:#C10534;stroke-width:11.88"/>
	<line x1="1703.88" y1="2014.20" x2="1703.88" y2="1935.00" style="stroke:#C10534;stroke-width:11.88"/>
	<line x1="1703.88" y1="1895.40" x2="1703.88" y2="1816.20" style="stroke:#C10534;stroke-width:11.88"/>
	<line x1="1703.88" y1="1776.60" x2="1703.88" y2="1697.40" style="stroke:#C10534;stroke-width:11.88"/>
	<line x1="1703.88" y1="1657.80" x2="1703.88" y2="1578.42" style="stroke:#C10534;stroke-width:11.88"/>
	<line x1="1703.88" y1="1538.82" x2="1703.88" y2="1459.62" style="stroke:#C10534;stroke-width:11.88"/>
	<line x1="1703.88" y1="1420.02" x2="1703.88" y2="1340.82" style="stroke:#C10534;stroke-width:11.88"/>
	<line x1="1703.88" y1="1301.22" x2="1703.88" y2="1222.02" style="stroke:#C10534;stroke-width:11.88"/>
	<line x1="1703.88" y1="1182.42" x2="1703.88" y2="1103.22" style="stroke:#C10534;stroke-width:11.88"/>
	<line x1="1703.88" y1="1063.62" x2="1703.88" y2="984.42" style="stroke:#C10534;stroke-width:11.88"/>
	<line x1="1703.88" y1="944.64" x2="1703.88" y2="865.44" style="stroke:#C10534;stroke-width:11.88"/>
	<line x1="1703.88" y1="825.84" x2="1703.88" y2="746.64" style="stroke:#C10534;stroke-width:11.88"/>
	<line x1="1703.88" y1="707.04" x2="1703.88" y2="627.84" style="stroke:#C10534;stroke-width:11.88"/>
	<line x1="1703.88" y1="588.24" x2="1703.88" y2="509.04" style="stroke:#C10534;stroke-width:11.88"/>
	<line x1="1703.88" y1="469.44" x2="1703.88" y2="390.24" style="stroke:#C10534;stroke-width:11.88"/>
	<line x1="1703.88" y1="350.64" x2="1703.88" y2="271.26" style="stroke:#C10534;stroke-width:11.88"/>
	<line x1="1703.88" y1="231.66" x2="1703.88" y2="152.46" style="stroke:#C10534;stroke-width:11.88"/>
	<circle cx="1657.98" cy="618.66" r="26.64" style="fill:#000000"/>
	<circle cx="1657.98" cy="618.66" r="20.70" style="fill:none;stroke:#000000;stroke-width:11.88"/>
	<circle cx="1672.56" cy="815.04" r="26.64" style="fill:#000000"/>
	<circle cx="1672.56" cy="815.04" r="20.70" style="fill:none;stroke:#000000;stroke-width:11.88"/>
	<circle cx="1681.74" cy="1011.42" r="26.64" style="fill:#000000"/>
	<circle cx="1681.74" cy="1011.42" r="20.70" style="fill:none;stroke:#000000;stroke-width:11.88"/>
	<circle cx="1683.18" cy="1207.80" r="26.64" style="fill:#000000"/>
	<circle cx="1683.18" cy="1207.80" r="20.70" style="fill:none;stroke:#000000;stroke-width:11.88"/>
	<circle cx="2056.14" cy="1796.94" r="26.64" style="fill:#000000"/>
	<circle cx="2056.14" cy="1796.94" r="20.70" style="fill:none;stroke:#000000;stroke-width:11.88"/>
	<circle cx="1989.18" cy="1993.32" r="26.64" style="fill:#000000"/>
	<circle cx="1989.18" cy="1993.32" r="20.70" style="fill:none;stroke:#000000;stroke-width:11.88"/>
	<circle cx="1982.16" cy="2189.70" r="26.64" style="fill:#000000"/>
	<circle cx="1982.16" cy="2189.70" r="20.70" style="fill:none;stroke:#000000;stroke-width:11.88"/>
	<circle cx="1985.58" cy="2386.08" r="26.64" style="fill:#000000"/>
	<circle cx="1985.58" cy="2386.08" r="20.70" style="fill:none;stroke:#000000;stroke-width:11.88"/>
	<circle cx="1876.32" cy="3171.78" r="26.64" style="fill:#000000"/>
	<circle cx="1876.32" cy="3171.78" r="20.70" style="fill:none;stroke:#000000;stroke-width:11.88"/>
	<circle cx="1880.10" cy="3368.16" r="26.64" style="fill:#000000"/>
	<circle cx="1880.10" cy="3368.16" r="20.70" style="fill:none;stroke:#000000;stroke-width:11.88"/>
	<circle cx="1897.20" cy="3564.54" r="26.64" style="fill:#000000"/>
	<circle cx="1897.20" cy="3564.54" r="20.70" style="fill:none;stroke:#000000;stroke-width:11.88"/>
	<circle cx="1896.48" cy="3760.92" r="26.64" style="fill:#000000"/>
	<circle cx="1896.48" cy="3760.92" r="20.70" style="fill:none;stroke:#000000;stroke-width:11.88"/>
	<circle cx="2326.50" cy="4350.06" r="26.64" style="fill:#000000"/>
	<circle cx="2326.50" cy="4350.06" r="20.70" style="fill:none;stroke:#000000;stroke-width:11.88"/>
	<circle cx="2254.14" cy="4546.44" r="26.64" style="fill:#000000"/>
	<circle cx="2254.14" cy="4546.44" r="20.70" style="fill:none;stroke:#000000;stroke-width:11.88"/>
	<circle cx="2255.22" cy="4742.82" r="26.64" style="fill:#000000"/>
	<circle cx="2255.22" cy="4742.82" r="20.70" style="fill:none;stroke:#000000;stroke-width:11.88"/>
	<circle cx="2268.36" cy="4939.20" r="26.64" style="fill:#000000"/>
	<circle cx="2268.36" cy="4939.20" r="20.70" style="fill:none;stroke:#000000;stroke-width:11.88"/>
	<line x1="1645.38" y1="618.48" x2="1670.76" y2="618.48" style="stroke:#000000;stroke-width:7.92"/>
	<line x1="1670.76" y1="648.72" x2="1670.76" y2="588.24" stroke-linecap="round" style="stroke:#000000;stroke-width:7.92"/>
	<line x1="1645.38" y1="648.72" x2="1645.38" y2="588.24" stroke-linecap="round" style="stroke:#000000;stroke-width:7.92"/>
	<line x1="1659.96" y1="814.86" x2="1685.52" y2="814.86" style="stroke:#000000;stroke-width:7.92"/>
	<line x1="1685.52" y1="845.10" x2="1685.52" y2="784.62" stroke-linecap="round" style="stroke:#000000;stroke-width:7.92"/>
	<line x1="1659.96" y1="845.10" x2="1659.96" y2="784.62" stroke-linecap="round" style="stroke:#000000;stroke-width:7.92"/>
	<line x1="1668.42" y1="1011.24" x2="1695.06" y2="1011.24" style="stroke:#000000;stroke-width:7.92"/>
	<line x1="1695.06" y1="1041.48" x2="1695.06" y2="981.00" stroke-linecap="round" style="stroke:#000000;stroke-width:7.92"/>
	<line x1="1668.42" y1="1041.48" x2="1668.42" y2="981.00" stroke-linecap="round" style="stroke:#000000;stroke-width:7.92"/>
	<line x1="1669.86" y1="1207.62" x2="1696.68" y2="1207.62" style="stroke:#000000;stroke-width:7.92"/>
	<line x1="1696.68" y1="1237.86" x2="1696.68" y2="1177.38" stroke-linecap="round" style="stroke:#000000;stroke-width:7.92"/>
	<line x1="1669.86" y1="1237.86" x2="1669.86" y2="1177.38" stroke-linecap="round" style="stroke:#000000;stroke-width:7.92"/>
	<line x1="2045.52" y1="1796.94" x2="2067.12" y2="1796.94" style="stroke:#000000;stroke-width:7.92"/>
	<line x1="2067.12" y1="1827.18" x2="2067.12" y2="1766.70" stroke-linecap="round" style="stroke:#000000;stroke-width:7.92"/>
	<line x1="2045.52" y1="1827.18" x2="2045.52" y2="1766.70" stroke-linecap="round" style="stroke:#000000;stroke-width:7.92"/>
	<line x1="1977.84" y1="1993.32" x2="2000.88" y2="1993.32" style="stroke:#000000;stroke-width:7.92"/>
	<line x1="2000.88" y1="2023.56" x2="2000.88" y2="1963.08" stroke-linecap="round" style="stroke:#000000;stroke-width:7.92"/>
	<line x1="1977.84" y1="2023.56" x2="1977.84" y2="1963.08" stroke-linecap="round" style="stroke:#000000;stroke-width:7.92"/>
	<line x1="1970.28" y1="2189.70" x2="1994.22" y2="2189.70" style="stroke:#000000;stroke-width:7.92"/>
	<line x1="1994.22" y1="2219.94" x2="1994.22" y2="2159.46" stroke-linecap="round" style="stroke:#000000;stroke-width:7.92"/>
	<line x1="1970.28" y1="2219.94" x2="1970.28" y2="2159.46" stroke-linecap="round" style="stroke:#000000;stroke-width:7.92"/>
	<line x1="1972.44" y1="2386.08" x2="1998.72" y2="2386.08" style="stroke:#000000;stroke-width:7.92"/>
	<line x1="1998.72" y1="2416.32" x2="1998.72" y2="2355.84" stroke-linecap="round" style="stroke:#000000;stroke-width:7.92"/>
	<line x1="1972.44" y1="2416.32" x2="1972.44" y2="2355.84" stroke-linecap="round" style="stroke:#000000;stroke-width:7.92"/>
	<line x1="1850.04" y1="3171.60" x2="1902.78" y2="3171.60" style="stroke:#000000;stroke-width:7.92"/>
	<line x1="1902.78" y1="3201.84" x2="1902.78" y2="3141.36" stroke-linecap="round" style="stroke:#000000;stroke-width:7.92"/>
	<line x1="1850.04" y1="3201.84" x2="1850.04" y2="3141.36" stroke-linecap="round" style="stroke:#000000;stroke-width:7.92"/>
	<line x1="1853.64" y1="3367.98" x2="1906.74" y2="3367.98" style="stroke:#000000;stroke-width:7.92"/>
	<line x1="1906.74" y1="3398.22" x2="1906.74" y2="3337.74" stroke-linecap="round" style="stroke:#000000;stroke-width:7.92"/>
	<line x1="1853.64" y1="3398.22" x2="1853.64" y2="3337.74" stroke-linecap="round" style="stroke:#000000;stroke-width:7.92"/>
	<line x1="1869.66" y1="3564.36" x2="1924.92" y2="3564.36" style="stroke:#000000;stroke-width:7.92"/>
	<line x1="1924.92" y1="3594.60" x2="1924.92" y2="3534.12" stroke-linecap="round" style="stroke:#000000;stroke-width:7.92"/>
	<line x1="1869.66" y1="3594.60" x2="1869.66" y2="3534.12" stroke-linecap="round" style="stroke:#000000;stroke-width:7.92"/>
	<line x1="1868.94" y1="3760.74" x2="1924.20" y2="3760.74" style="stroke:#000000;stroke-width:7.92"/>
	<line x1="1924.20" y1="3790.98" x2="1924.20" y2="3730.50" stroke-linecap="round" style="stroke:#000000;stroke-width:7.92"/>
	<line x1="1868.94" y1="3790.98" x2="1868.94" y2="3730.50" stroke-linecap="round" style="stroke:#000000;stroke-width:7.92"/>
	<line x1="2303.82" y1="4349.88" x2="2349.36" y2="4349.88" style="stroke:#000000;stroke-width:7.92"/>
	<line x1="2349.36" y1="4380.12" x2="2349.36" y2="4319.64" stroke-linecap="round" style="stroke:#000000;stroke-width:7.92"/>
	<line x1="2303.82" y1="4380.12" x2="2303.82" y2="4319.64" stroke-linecap="round" style="stroke:#000000;stroke-width:7.92"/>
	<line x1="2229.66" y1="4546.44" x2="2278.98" y2="4546.44" style="stroke:#000000;stroke-width:7.92"/>
	<line x1="2278.98" y1="4576.68" x2="2278.98" y2="4516.20" stroke-linecap="round" style="stroke:#000000;stroke-width:7.92"/>
	<line x1="2229.66" y1="4576.68" x2="2229.66" y2="4516.20" stroke-linecap="round" style="stroke:#000000;stroke-width:7.92"/>
	<line x1="2229.48" y1="4742.82" x2="2280.96" y2="4742.82" style="stroke:#000000;stroke-width:7.92"/>
	<line x1="2280.96" y1="4773.06" x2="2280.96" y2="4712.58" stroke-linecap="round" style="stroke:#000000;stroke-width:7.92"/>
	<line x1="2229.48" y1="4773.06" x2="2229.48" y2="4712.58" stroke-linecap="round" style="stroke:#000000;stroke-width:7.92"/>
	<line x1="2239.38" y1="4939.20" x2="2297.52" y2="4939.20" style="stroke:#000000;stroke-width:7.92"/>
	<line x1="2297.52" y1="4969.44" x2="2297.52" y2="4908.96" stroke-linecap="round" style="stroke:#000000;stroke-width:7.92"/>
	<line x1="2239.38" y1="4969.44" x2="2239.38" y2="4908.96" stroke-linecap="round" style="stroke:#000000;stroke-width:7.92"/>
	<text x="2958.84" y="647.38" style="font-family:'Helvetica';font-size:82.44px;fill:#000000">0.88 (0.85-0.91)</text>
	<text x="2958.84" y="843.76" style="font-family:'Helvetica';font-size:82.44px;fill:#000000">0.92 (0.88-0.95)</text>
	<text x="2958.84" y="1040.14" style="font-family:'Helvetica';font-size:82.44px;fill:#000000">0.94 (0.90-0.98)</text>
	<text x="2958.84" y="1236.52" style="font-family:'Helvetica';font-size:82.44px;fill:#000000">0.94 (0.91-0.98)</text>
	<text x="2958.84" y="1825.84" style="font-family:'Helvetica';font-size:82.44px;fill:#000000">2.72 (2.64-2.81)</text>
	<text x="2958.84" y="2022.22" style="font-family:'Helvetica';font-size:82.44px;fill:#000000">2.25 (2.18-2.32)</text>
	<text x="2958.84" y="2218.60" style="font-family:'Helvetica';font-size:82.44px;fill:#000000">2.21 (2.13-2.28)</text>
	<text x="2958.84" y="2414.98" style="font-family:'Helvetica';font-size:82.44px;fill:#000000">2.23 (2.14-2.31)</text>
	<text x="2958.84" y="3200.50" style="font-family:'Helvetica';font-size:82.44px;fill:#000000">1.63 (1.51-1.76)</text>
	<text x="2958.84" y="3396.88" style="font-family:'Helvetica';font-size:82.44px;fill:#000000">1.65 (1.53-1.78)</text>
	<text x="2958.84" y="3593.26" style="font-family:'Helvetica';font-size:82.44px;fill:#000000">1.73 (1.60-1.87)</text>
	<text x="2958.84" y="3789.64" style="font-family:'Helvetica';font-size:82.44px;fill:#000000">1.73 (1.60-1.87)</text>
	<text x="2958.84" y="4378.78" style="font-family:'Helvetica';font-size:82.44px;fill:#000000">5.86 (5.50-6.26)</text>
	<text x="2958.84" y="4575.34" style="font-family:'Helvetica';font-size:82.44px;fill:#000000">4.78 (4.45-5.12)</text>
	<text x="2958.84" y="4771.72" style="font-family:'Helvetica';font-size:82.44px;fill:#000000">4.79 (4.45-5.15)</text>
	<text x="2958.84" y="4968.10" style="font-family:'Helvetica';font-size:82.44px;fill:#000000">4.97 (4.58-5.40)</text>
	<text x="384.84" y="647.38" style="font-family:'Helvetica';font-size:82.44px;fill:#707070">Adj for age, sex, geography</text>
	<text x="384.84" y="843.76" style="font-family:'Helvetica';font-size:82.44px;fill:#707070">+ comorbidities</text>
	<text x="384.84" y="1040.14" style="font-family:'Helvetica';font-size:82.44px;fill:#707070">+ obesity/smoking*</text>
	<text x="384.84" y="1236.52" style="font-family:'Helvetica';font-size:82.44px;fill:#707070">+ IMD/ethnicity*</text>
	<text x="384.84" y="1825.84" style="font-family:'Helvetica';font-size:82.44px;fill:#707070">Adj for matching factors</text>
	<text x="384.84" y="2022.22" style="font-family:'Helvetica';font-size:82.44px;fill:#707070">+ comorbidities</text>
	<text x="384.84" y="2218.60" style="font-family:'Helvetica';font-size:82.44px;fill:#707070">+ obesity/smoking*</text>
	<text x="384.84" y="2414.98" style="font-family:'Helvetica';font-size:82.44px;fill:#707070">+ IMD/ethnicity*</text>
	<text x="384.84" y="3200.50" style="font-family:'Helvetica';font-size:82.44px;fill:#707070">Adj for age, sex, geography</text>
	<text x="384.84" y="3396.88" style="font-family:'Helvetica';font-size:82.44px;fill:#707070">+ comorbidities</text>
	<text x="384.84" y="3593.26" style="font-family:'Helvetica';font-size:82.44px;fill:#707070">+ obesity/smoking*</text>
	<text x="384.84" y="3789.64" style="font-family:'Helvetica';font-size:82.44px;fill:#707070">+ IMD/ethnicity*</text>
	<text x="384.84" y="4378.78" style="font-family:'Helvetica';font-size:82.44px;fill:#707070">Adj for matching factors</text>
	<text x="384.84" y="4575.34" style="font-family:'Helvetica';font-size:82.44px;fill:#707070">+ comorbidities</text>
	<text x="384.84" y="4771.72" style="font-family:'Helvetica';font-size:82.44px;fill:#707070">+ obesity/smoking*</text>
	<text x="384.84" y="4968.10" style="font-family:'Helvetica';font-size:82.44px;fill:#707070">+ IMD/ethnicity*</text>
	<text x="1158.12" y="254.62" style="font-family:'Helvetica';font-size:82.44px;fill:#000000" text-anchor="middle">a) Composite outcome of hospitalisation or death</text>
	<text x="528.48" y="451.00" style="font-family:'Helvetica';font-size:82.44px;fill:#000000" text-anchor="middle">vs flu controls</text>
	<text x="942.30" y="1629.46" style="font-family:'Helvetica';font-size:82.44px;fill:#000000" text-anchor="middle">vs 2019 general population controls</text>
	<text x="622.80" y="2807.74" style="font-family:'Helvetica';font-size:82.44px;fill:#000000" text-anchor="middle">b) All-cause mortality</text>
	<text x="528.48" y="3004.12" style="font-family:'Helvetica';font-size:82.44px;fill:#000000" text-anchor="middle">vs flu controls</text>
	<text x="942.30" y="4182.40" style="font-family:'Helvetica';font-size:82.44px;fill:#000000" text-anchor="middle">vs 2019 general population controls</text>
	<text x="3253.86" y="451.00" style="font-family:'Helvetica';font-size:82.44px;fill:#000000" text-anchor="middle">HR and 95% CI</text>
	<line x1="138.60" y1="5222.70" x2="3821.40" y2="5222.70" style="stroke:#000000;stroke-width:7.92"/>
	<line x1="1459.98" y1="5222.70" x2="1459.98" y2="5277.60" style="stroke:#000000;stroke-width:7.92"/>
	<text x="1459.98" y="5401.31" style="font-family:'Helvetica';font-size:137.52px;fill:#000000" text-anchor="middle">.5</text>
	<line x1="1703.88" y1="5222.70" x2="1703.88" y2="5277.60" style="stroke:#000000;stroke-width:7.92"/>
	<text x="1703.88" y="5401.31" style="font-family:'Helvetica';font-size:137.52px;fill:#000000" text-anchor="middle">1</text>
	<line x1="1947.96" y1="5222.70" x2="1947.96" y2="5277.60" style="stroke:#000000;stroke-width:7.92"/>
	<text x="1947.96" y="5401.31" style="font-family:'Helvetica';font-size:137.52px;fill:#000000" text-anchor="middle">2</text>
	<line x1="2270.52" y1="5222.70" x2="2270.52" y2="5277.60" style="stroke:#000000;stroke-width:7.92"/>
	<text x="2270.52" y="5401.31" style="font-family:'Helvetica';font-size:137.52px;fill:#000000" text-anchor="middle">5</text>
	<line x1="2514.42" y1="5222.70" x2="2514.42" y2="5277.60" style="stroke:#000000;stroke-width:7.92"/>
	<text x="2514.42" y="5401.31" style="font-family:'Helvetica';font-size:137.52px;fill:#000000" text-anchor="middle">10</text>
	<line x1="2758.32" y1="5222.70" x2="2758.32" y2="5277.60" style="stroke:#000000;stroke-width:7.92"/>
	<text x="2758.32" y="5401.31" style="font-family:'Helvetica';font-size:137.52px;fill:#000000" text-anchor="middle">20</text>
	<text x="1980.00" y="5552.51" style="font-family:'Helvetica';font-size:137.52px;fill:#000000" text-anchor="middle">HR and 95% CI</text>
</svg>
