<?xml version="1.0" encoding="UTF-8" standalone="no"?>
<!-- This is a Stata 16.1 generated SVG file (http://www.stata.com) -->

<svg version="1.1" width="5.50in" height="10.00in" viewBox="0 0 3960 7200" xmlns="http://www.w3.org/2000/svg" xmlns:xlink="http://www.w3.org/1999/xlink">
	<desc>Stata Graph - Graph</desc>
	<rect x="0" y="0" width="3960" height="7200" style="fill:#EAF2F3;stroke:none"/>
	<rect x="0.00" y="0.00" width="3960.00" height="7200.00" style="fill:#EAF2F3"/>
	<rect x="3.96" y="3.96" width="3952.08" height="7192.08" style="fill:none;stroke:#EAF2F3;stroke-width:7.92"/>
	<rect x="138.60" y="138.60" width="3682.80" height="6524.10" style="fill:#FFFFFF"/>
	<rect x="142.56" y="142.56" width="3674.88" height="6516.18" style="fill:none;stroke:#FFFFFF;stroke-width:7.92"/>
	<line x1="1941.75" y1="6662.70" x2="1941.75" y2="6583.50" style="stroke:#C10534;stroke-width:11.88"/>
	<line x1="1941.75" y1="6543.90" x2="1941.75" y2="6464.70" style="stroke:#C10534;stroke-width:11.88"/>
	<line x1="1941.75" y1="6424.88" x2="1941.75" y2="6345.68" style="stroke:#C10534;stroke-width:11.88"/>
	<line x1="1941.75" y1="6306.07" x2="1941.75" y2="6226.88" style="stroke:#C10534;stroke-width:11.88"/>
	<line x1="1941.75" y1="6187.27" x2="1941.75" y2="6108.07" style="stroke:#C10534;stroke-width:11.88"/>
	<line x1="1941.75" y1="6068.48" x2="1941.75" y2="5989.27" style="stroke:#C10534;stroke-width:11.88"/>
	<line x1="1941.75" y1="5949.45" x2="1941.75" y2="5870.25" style="stroke:#C10534;stroke-width:11.88"/>
	<line x1="1941.75" y1="5830.65" x2="1941.75" y2="5751.45" style="stroke:#C10534;stroke-width:11.88"/>
	<line x1="1941.75" y1="5711.85" x2="1941.75" y2="5632.65" style="stroke:#C10534;stroke-width:11.88"/>
	<line x1="1941.75" y1="5593.05" x2="1941.75" y2="5513.85" style="stroke:#C10534;stroke-width:11.88"/>
	<line x1="1941.75" y1="5474.02" x2="1941.75" y2="5394.82" style="stroke:#C10534;stroke-width:11.88"/>
	<line x1="1941.75" y1="5355.23" x2="1941.75" y2="5276.02" style="stroke:#C10534;stroke-width:11.88"/>
	<line x1="1941.75" y1="5236.43" x2="1941.75" y2="5157.23" style="stroke:#C10534;stroke-width:11.88"/>
	<line x1="1941.75" y1="5117.62" x2="1941.75" y2="5038.43" style="stroke:#C10534;stroke-width:11.88"/>
	<line x1="1941.75" y1="4998.60" x2="1941.75" y2="4919.40" style="stroke:#C10534;stroke-width:11.88"/>
	<line x1="1941.75" y1="4879.80" x2="1941.75" y2="4800.60" style="stroke:#C10534;stroke-width:11.88"/>
	<line x1="1941.75" y1="4761.00" x2="1941.75" y2="4681.80" style="stroke:#C10534;stroke-width:11.88"/>
	<line x1="1941.75" y1="4642.20" x2="1941.75" y2="4563.00" style="stroke:#C10534;stroke-width:11.88"/>
	<line x1="1941.75" y1="4523.18" x2="1941.75" y2="4443.98" style="stroke:#C10534;stroke-width:11.88"/>
	<line x1="1941.75" y1="4404.38" x2="1941.75" y2="4325.18" style="stroke:#C10534;stroke-width:11.88"/>
	<line x1="1941.75" y1="4285.57" x2="1941.75" y2="4206.38" style="stroke:#C10534;stroke-width:11.88"/>
	<line x1="1941.75" y1="4166.77" x2="1941.75" y2="4087.57" style="stroke:#C10534;stroke-width:11.88"/>
	<line x1="1941.75" y1="4047.75" x2="1941.75" y2="3968.55" style="stroke:#C10534;stroke-width:11.88"/>
	<line x1="1941.75" y1="3928.95" x2="1941.75" y2="3849.75" style="stroke:#C10534;stroke-width:11.88"/>
	<line x1="1941.75" y1="3810.15" x2="1941.75" y2="3730.95" style="stroke:#C10534;stroke-width:11.88"/>
	<line x1="1941.75" y1="3691.35" x2="1941.75" y2="3612.15" style="stroke:#C10534;stroke-width:11.88"/>
	<line x1="1941.75" y1="3572.32" x2="1941.75" y2="3493.12" style="stroke:#C10534;stroke-width:11.88"/>
	<line x1="1941.75" y1="3453.53" x2="1941.75" y2="3374.32" style="stroke:#C10534;stroke-width:11.88"/>
	<line x1="1941.75" y1="3334.72" x2="1941.75" y2="3255.53" style="stroke:#C10534;stroke-width:11.88"/>
	<line x1="1941.75" y1="3215.93" x2="1941.75" y2="3136.72" style="stroke:#C10534;stroke-width:11.88"/>
	<line x1="1941.75" y1="3096.90" x2="1941.75" y2="3017.70" style="stroke:#C10534;stroke-width:11.88"/>
	<line x1="1941.75" y1="2978.10" x2="1941.75" y2="2898.90" style="stroke:#C10534;stroke-width:11.88"/>
	<line x1="1941.75" y1="2859.30" x2="1941.75" y2="2780.10" style="stroke:#C10534;stroke-width:11.88"/>
	<line x1="1941.75" y1="2740.50" x2="1941.75" y2="2661.30" style="stroke:#C10534;stroke-width:11.88"/>
	<line x1="1941.75" y1="2621.48" x2="1941.75" y2="2542.27" style="stroke:#C10534;stroke-width:11.88"/>
	<line x1="1941.75" y1="2502.68" x2="1941.75" y2="2423.48" style="stroke:#C10534;stroke-width:11.88"/>
	<line x1="1941.75" y1="2383.88" x2="1941.75" y2="2304.68" style="stroke:#C10534;stroke-width:11.88"/>
	<line x1="1941.75" y1="2265.07" x2="1941.75" y2="2185.88" style="stroke:#C10534;stroke-width:11.88"/>
	<line x1="1941.75" y1="2146.05" x2="1941.75" y2="2066.85" style="stroke:#C10534;stroke-width:11.88"/>
	<line x1="1941.75" y1="2027.25" x2="1941.75" y2="1948.05" style="stroke:#C10534;stroke-width:11.88"/>
	<line x1="1941.75" y1="1908.45" x2="1941.75" y2="1829.25" style="stroke:#C10534;stroke-width:11.88"/>
	<line x1="1941.75" y1="1789.65" x2="1941.75" y2="1710.45" style="stroke:#C10534;stroke-width:11.88"/>
	<line x1="1941.75" y1="1670.62" x2="1941.75" y2="1591.43" style="stroke:#C10534;stroke-width:11.88"/>
	<line x1="1941.75" y1="1551.82" x2="1941.75" y2="1472.62" style="stroke:#C10534;stroke-width:11.88"/>
	<line x1="1941.75" y1="1433.02" x2="1941.75" y2="1353.82" style="stroke:#C10534;stroke-width:11.88"/>
	<line x1="1941.75" y1="1314.23" x2="1941.75" y2="1235.02" style="stroke:#C10534;stroke-width:11.88"/>
	<line x1="1941.75" y1="1195.20" x2="1941.75" y2="1116.00" style="stroke:#C10534;stroke-width:11.88"/>
	<line x1="1941.75" y1="1076.40" x2="1941.75" y2="997.20" style="stroke:#C10534;stroke-width:11.88"/>
	<line x1="1941.75" y1="957.60" x2="1941.75" y2="878.40" style="stroke:#C10534;stroke-width:11.88"/>
	<line x1="1941.75" y1="838.80" x2="1941.75" y2="759.60" style="stroke:#C10534;stroke-width:11.88"/>
	<line x1="1941.75" y1="720.00" x2="1941.75" y2="640.80" style="stroke:#C10534;stroke-width:11.88"/>
	<line x1="1941.75" y1="600.98" x2="1941.75" y2="521.77" style="stroke:#C10534;stroke-width:11.88"/>
	<line x1="1941.75" y1="482.18" x2="1941.75" y2="402.98" style="stroke:#C10534;stroke-width:11.88"/>
	<line x1="1941.75" y1="363.38" x2="1941.75" y2="284.18" style="stroke:#C10534;stroke-width:11.88"/>
	<line x1="1941.75" y1="244.57" x2="1941.75" y2="165.38" style="stroke:#C10534;stroke-width:11.88"/>
	<circle cx="1834.20" cy="860.85" r="20.70" style="fill:none;stroke:#000000;stroke-width:11.88"/>
	<circle cx="1793.25" cy="1072.57" r="20.70" style="fill:none;stroke:#000000;stroke-width:11.88"/>
	<circle cx="1964.03" cy="1284.07" r="20.70" style="fill:none;stroke:#000000;stroke-width:11.88"/>
	<circle cx="2079.00" cy="1495.80" r="20.70" style="fill:none;stroke:#000000;stroke-width:11.88"/>
	<circle cx="1962.45" cy="1707.52" r="20.70" style="fill:none;stroke:#000000;stroke-width:11.88"/>
	<circle cx="1917.45" cy="1919.02" r="20.70" style="fill:none;stroke:#000000;stroke-width:11.88"/>
	<circle cx="1999.12" cy="2130.75" r="20.70" style="fill:none;stroke:#000000;stroke-width:11.88"/>
	<circle cx="1770.30" cy="2342.48" r="20.70" style="fill:none;stroke:#000000;stroke-width:11.88"/>
	<circle cx="1906.42" cy="2554.20" r="20.70" style="fill:none;stroke:#000000;stroke-width:11.88"/>
	<circle cx="1841.40" cy="2765.70" r="20.70" style="fill:none;stroke:#000000;stroke-width:11.88"/>
	<circle cx="1935.22" cy="2977.43" r="20.70" style="fill:none;stroke:#000000;stroke-width:11.88"/>
	<circle cx="1951.20" cy="3189.15" r="20.70" style="fill:none;stroke:#000000;stroke-width:11.88"/>
	<circle cx="2410.20" cy="4035.82" r="20.70" style="fill:none;stroke:#000000;stroke-width:11.88"/>
	<circle cx="2206.35" cy="4247.32" r="20.70" style="fill:none;stroke:#000000;stroke-width:11.88"/>
	<circle cx="2366.78" cy="4459.05" r="20.70" style="fill:none;stroke:#000000;stroke-width:11.88"/>
	<circle cx="2432.03" cy="4670.77" r="20.70" style="fill:none;stroke:#000000;stroke-width:11.88"/>
	<circle cx="2310.75" cy="4882.27" r="20.70" style="fill:none;stroke:#000000;stroke-width:11.88"/>
	<circle cx="2288.03" cy="5094.00" r="20.70" style="fill:none;stroke:#000000;stroke-width:11.88"/>
	<circle cx="2668.72" cy="5305.73" r="20.70" style="fill:none;stroke:#000000;stroke-width:11.88"/>
	<circle cx="2484.45" cy="5517.45" r="20.70" style="fill:none;stroke:#000000;stroke-width:11.88"/>
	<circle cx="2101.28" cy="5728.95" r="20.70" style="fill:none;stroke:#000000;stroke-width:11.88"/>
	<circle cx="2068.65" cy="5940.68" r="20.70" style="fill:none;stroke:#000000;stroke-width:11.88"/>
	<circle cx="2267.10" cy="6152.40" r="20.70" style="fill:none;stroke:#000000;stroke-width:11.88"/>
	<circle cx="2229.97" cy="6363.90" r="20.70" style="fill:none;stroke:#000000;stroke-width:11.88"/>
	<line x1="1782.00" y1="860.62" x2="1886.40" y2="860.62" style="stroke:#000000;stroke-width:7.92"/>
	<line x1="1886.40" y1="890.77" x2="1886.40" y2="830.25" stroke-linecap="round" style="stroke:#000000;stroke-width:7.92"/>
	<line x1="1782.00" y1="890.77" x2="1782.00" y2="830.25" stroke-linecap="round" style="stroke:#000000;stroke-width:7.92"/>
	<line x1="1749.83" y1="1072.35" x2="1836.90" y2="1072.35" style="stroke:#000000;stroke-width:7.92"/>
	<line x1="1836.90" y1="1102.50" x2="1836.90" y2="1041.98" stroke-linecap="round" style="stroke:#000000;stroke-width:7.92"/>
	<line x1="1749.83" y1="1102.50" x2="1749.83" y2="1041.98" stroke-linecap="round" style="stroke:#000000;stroke-width:7.92"/>
	<line x1="1884.38" y1="1284.07" x2="2043.90" y2="1284.07" style="stroke:#000000;stroke-width:7.92"/>
	<line x1="2043.90" y1="1314.23" x2="2043.90" y2="1253.70" stroke-linecap="round" style="stroke:#000000;stroke-width:7.92"/>
	<line x1="1884.38" y1="1314.23" x2="1884.38" y2="1253.70" stroke-linecap="round" style="stroke:#000000;stroke-width:7.92"/>
	<line x1="1991.03" y1="1495.57" x2="2167.20" y2="1495.57" style="stroke:#000000;stroke-width:7.92"/>
	<line x1="2167.20" y1="1525.73" x2="2167.20" y2="1465.20" stroke-linecap="round" style="stroke:#000000;stroke-width:7.92"/>
	<line x1="1991.03" y1="1525.73" x2="1991.03" y2="1465.20" stroke-linecap="round" style="stroke:#000000;stroke-width:7.92"/>
	<line x1="1888.88" y1="1707.30" x2="2036.47" y2="1707.30" style="stroke:#000000;stroke-width:7.92"/>
	<line x1="2036.47" y1="1737.45" x2="2036.47" y2="1676.93" stroke-linecap="round" style="stroke:#000000;stroke-width:7.92"/>
	<line x1="1888.88" y1="1737.45" x2="1888.88" y2="1676.93" stroke-linecap="round" style="stroke:#000000;stroke-width:7.92"/>
	<line x1="1882.12" y1="1919.02" x2="1952.78" y2="1919.02" style="stroke:#000000;stroke-width:7.92"/>
	<line x1="1952.78" y1="1949.18" x2="1952.78" y2="1888.65" stroke-linecap="round" style="stroke:#000000;stroke-width:7.92"/>
	<line x1="1882.12" y1="1949.18" x2="1882.12" y2="1888.65" stroke-linecap="round" style="stroke:#000000;stroke-width:7.92"/>
	<line x1="1965.15" y1="2130.75" x2="2033.10" y2="2130.75" style="stroke:#000000;stroke-width:7.92"/>
	<line x1="2033.10" y1="2160.90" x2="2033.10" y2="2100.38" stroke-linecap="round" style="stroke:#000000;stroke-width:7.92"/>
	<line x1="1965.15" y1="2160.90" x2="1965.15" y2="2100.38" stroke-linecap="round" style="stroke:#000000;stroke-width:7.92"/>
	<line x1="1732.28" y1="2342.25" x2="1808.33" y2="2342.25" style="stroke:#000000;stroke-width:7.92"/>
	<line x1="1808.33" y1="2372.40" x2="1808.33" y2="2311.88" stroke-linecap="round" style="stroke:#000000;stroke-width:7.92"/>
	<line x1="1732.28" y1="2372.40" x2="1732.28" y2="2311.88" stroke-linecap="round" style="stroke:#000000;stroke-width:7.92"/>
	<line x1="1867.28" y1="2553.98" x2="1945.80" y2="2553.98" style="stroke:#000000;stroke-width:7.92"/>
	<line x1="1945.80" y1="2584.12" x2="1945.80" y2="2523.60" stroke-linecap="round" style="stroke:#000000;stroke-width:7.92"/>
	<line x1="1867.28" y1="2584.12" x2="1867.28" y2="2523.60" stroke-linecap="round" style="stroke:#000000;stroke-width:7.92"/>
	<line x1="1791.90" y1="2765.70" x2="1891.12" y2="2765.70" style="stroke:#000000;stroke-width:7.92"/>
	<line x1="1891.12" y1="2795.85" x2="1891.12" y2="2735.32" stroke-linecap="round" style="stroke:#000000;stroke-width:7.92"/>
	<line x1="1791.90" y1="2795.85" x2="1791.90" y2="2735.32" stroke-linecap="round" style="stroke:#000000;stroke-width:7.92"/>
	<line x1="1887.97" y1="2977.20" x2="1982.92" y2="2977.20" style="stroke:#000000;stroke-width:7.92"/>
	<line x1="1982.92" y1="3007.35" x2="1982.92" y2="2946.82" stroke-linecap="round" style="stroke:#000000;stroke-width:7.92"/>
	<line x1="1887.97" y1="3007.35" x2="1887.97" y2="2946.82" stroke-linecap="round" style="stroke:#000000;stroke-width:7.92"/>
	<line x1="1903.72" y1="3188.93" x2="1998.67" y2="3188.93" style="stroke:#000000;stroke-width:7.92"/>
	<line x1="1998.67" y1="3219.07" x2="1998.67" y2="3158.55" stroke-linecap="round" style="stroke:#000000;stroke-width:7.92"/>
	<line x1="1903.72" y1="3219.07" x2="1903.72" y2="3158.55" stroke-linecap="round" style="stroke:#000000;stroke-width:7.92"/>
	<line x1="2367.45" y1="4035.60" x2="2452.95" y2="4035.60" style="stroke:#000000;stroke-width:7.92"/>
	<line x1="2452.95" y1="4065.75" x2="2452.95" y2="4005.22" stroke-linecap="round" style="stroke:#000000;stroke-width:7.92"/>
	<line x1="2367.45" y1="4065.75" x2="2367.45" y2="4005.22" stroke-linecap="round" style="stroke:#000000;stroke-width:7.92"/>
	<line x1="2175.30" y1="4247.32" x2="2237.40" y2="4247.32" style="stroke:#000000;stroke-width:7.92"/>
	<line x1="2237.40" y1="4277.48" x2="2237.40" y2="4216.95" stroke-linecap="round" style="stroke:#000000;stroke-width:7.92"/>
	<line x1="2175.30" y1="4277.48" x2="2175.30" y2="4216.95" stroke-linecap="round" style="stroke:#000000;stroke-width:7.92"/>
	<line x1="2311.43" y1="4458.82" x2="2422.12" y2="4458.82" style="stroke:#000000;stroke-width:7.92"/>
	<line x1="2422.12" y1="4488.98" x2="2422.12" y2="4428.45" stroke-linecap="round" style="stroke:#000000;stroke-width:7.92"/>
	<line x1="2311.43" y1="4488.98" x2="2311.43" y2="4428.45" stroke-linecap="round" style="stroke:#000000;stroke-width:7.92"/>
	<line x1="2377.35" y1="4670.55" x2="2486.70" y2="4670.55" style="stroke:#000000;stroke-width:7.92"/>
	<line x1="2486.70" y1="4700.70" x2="2486.70" y2="4640.18" stroke-linecap="round" style="stroke:#000000;stroke-width:7.92"/>
	<line x1="2377.35" y1="4700.70" x2="2377.35" y2="4640.18" stroke-linecap="round" style="stroke:#000000;stroke-width:7.92"/>
	<line x1="2260.12" y1="4882.27" x2="2361.60" y2="4882.27" style="stroke:#000000;stroke-width:7.92"/>
	<line x1="2361.60" y1="4912.43" x2="2361.60" y2="4851.90" stroke-linecap="round" style="stroke:#000000;stroke-width:7.92"/>
	<line x1="2260.12" y1="4912.43" x2="2260.12" y2="4851.90" stroke-linecap="round" style="stroke:#000000;stroke-width:7.92"/>
	<line x1="2263.95" y1="5094.00" x2="2312.32" y2="5094.00" style="stroke:#000000;stroke-width:7.92"/>
	<line x1="2312.32" y1="5124.15" x2="2312.32" y2="5063.62" stroke-linecap="round" style="stroke:#000000;stroke-width:7.92"/>
	<line x1="2263.95" y1="5124.15" x2="2263.95" y2="5063.62" stroke-linecap="round" style="stroke:#000000;stroke-width:7.92"/>
	<line x1="2640.82" y1="5305.50" x2="2696.62" y2="5305.50" style="stroke:#000000;stroke-width:7.92"/>
	<line x1="2696.62" y1="5335.65" x2="2696.62" y2="5275.12" stroke-linecap="round" style="stroke:#000000;stroke-width:7.92"/>
	<line x1="2640.82" y1="5335.65" x2="2640.82" y2="5275.12" stroke-linecap="round" style="stroke:#000000;stroke-width:7.92"/>
	<line x1="2449.80" y1="5517.23" x2="2519.10" y2="5517.23" style="stroke:#000000;stroke-width:7.92"/>
	<line x1="2519.10" y1="5547.38" x2="2519.10" y2="5486.85" stroke-linecap="round" style="stroke:#000000;stroke-width:7.92"/>
	<line x1="2449.80" y1="5547.38" x2="2449.80" y2="5486.85" stroke-linecap="round" style="stroke:#000000;stroke-width:7.92"/>
	<line x1="2075.62" y1="5728.95" x2="2127.15" y2="5728.95" style="stroke:#000000;stroke-width:7.92"/>
	<line x1="2127.15" y1="5759.10" x2="2127.15" y2="5698.57" stroke-linecap="round" style="stroke:#000000;stroke-width:7.92"/>
	<line x1="2075.62" y1="5759.10" x2="2075.62" y2="5698.57" stroke-linecap="round" style="stroke:#000000;stroke-width:7.92"/>
	<line x1="2034.22" y1="5940.45" x2="2103.07" y2="5940.45" style="stroke:#000000;stroke-width:7.92"/>
	<line x1="2103.07" y1="5970.60" x2="2103.07" y2="5910.07" stroke-linecap="round" style="stroke:#000000;stroke-width:7.92"/>
	<line x1="2034.22" y1="5970.60" x2="2034.22" y2="5910.07" stroke-linecap="round" style="stroke:#000000;stroke-width:7.92"/>
	<line x1="2235.15" y1="6152.18" x2="2299.28" y2="6152.18" style="stroke:#000000;stroke-width:7.92"/>
	<line x1="2299.28" y1="6182.32" x2="2299.28" y2="6121.80" stroke-linecap="round" style="stroke:#000000;stroke-width:7.92"/>
	<line x1="2235.15" y1="6182.32" x2="2235.15" y2="6121.80" stroke-linecap="round" style="stroke:#000000;stroke-width:7.92"/>
	<line x1="2198.47" y1="6363.90" x2="2261.70" y2="6363.90" style="stroke:#000000;stroke-width:7.92"/>
	<line x1="2261.70" y1="6394.05" x2="2261.70" y2="6333.52" stroke-linecap="round" style="stroke:#000000;stroke-width:7.92"/>
	<line x1="2198.47" y1="6394.05" x2="2198.47" y2="6333.52" stroke-linecap="round" style="stroke:#000000;stroke-width:7.92"/>
	<text x="3056.40" y="889.58" style="font-family:'Helvetica';font-size:82.58px;fill:#000000">0.71 (0.60-0.84)</text>
	<text x="3056.40" y="1101.31" style="font-family:'Helvetica';font-size:82.58px;fill:#000000">0.62 (0.54-0.71)</text>
	<text x="3056.40" y="1313.03" style="font-family:'Helvetica';font-size:82.58px;fill:#000000">1.08 (0.83-1.39)</text>
	<text x="3056.40" y="1524.53" style="font-family:'Helvetica';font-size:82.58px;fill:#000000">1.56 (1.17-2.07)</text>
	<text x="3056.40" y="1736.26" style="font-family:'Helvetica';font-size:82.58px;fill:#000000">1.07 (0.84-1.36)</text>
	<text x="3056.40" y="1947.98" style="font-family:'Helvetica';font-size:82.58px;fill:#000000">0.93 (0.83-1.04)</text>
	<text x="3056.40" y="2159.71" style="font-family:'Helvetica';font-size:82.58px;fill:#000000">1.20 (1.08-1.34)</text>
	<text x="3056.40" y="2371.21" style="font-family:'Helvetica';font-size:82.58px;fill:#000000">0.58 (0.51-0.65)</text>
	<text x="3056.40" y="2582.93" style="font-family:'Helvetica';font-size:82.58px;fill:#000000">0.89 (0.79-1.01)</text>
	<text x="3056.40" y="2794.66" style="font-family:'Helvetica';font-size:82.58px;fill:#000000">0.72 (0.62-0.85)</text>
	<text x="3056.40" y="3006.16" style="font-family:'Helvetica';font-size:82.58px;fill:#000000">0.98 (0.84-1.14)</text>
	<text x="3056.40" y="3217.88" style="font-family:'Helvetica';font-size:82.58px;fill:#000000">1.03 (0.88-1.20)</text>
	<text x="3056.40" y="4064.56" style="font-family:'Helvetica';font-size:82.58px;fill:#000000">4.52 (3.94-5.18)</text>
	<text x="3056.40" y="4276.28" style="font-family:'Helvetica';font-size:82.58px;fill:#000000">2.34 (2.12-2.59)</text>
	<text x="3056.40" y="4487.78" style="font-family:'Helvetica';font-size:82.58px;fill:#000000">3.93 (3.29-4.69)</text>
	<text x="3056.40" y="4699.51" style="font-family:'Helvetica';font-size:82.58px;fill:#000000">4.85 (4.06-5.78)</text>
	<text x="3056.40" y="4911.23" style="font-family:'Helvetica';font-size:82.58px;fill:#000000">3.28 (2.79-3.86)</text>
	<text x="3056.40" y="5122.96" style="font-family:'Helvetica';font-size:82.58px;fill:#000000">3.05 (2.82-3.30)</text>
	<text x="3056.40" y="5334.46" style="font-family:'Helvetica';font-size:82.58px;fill:#000000">10.38 (9.49-11.35)</text>
	<text x="3056.40" y="5546.18" style="font-family:'Helvetica';font-size:82.58px;fill:#000000">5.74 (5.13-6.41)</text>
	<text x="3056.40" y="5757.91" style="font-family:'Helvetica';font-size:82.58px;fill:#000000">1.67 (1.54-1.82)</text>
	<text x="3056.40" y="5969.41" style="font-family:'Helvetica';font-size:82.58px;fill:#000000">1.50 (1.35-1.68)</text>
	<text x="3056.40" y="6181.13" style="font-family:'Helvetica';font-size:82.58px;fill:#000000">2.85 (2.57-3.16)</text>
	<text x="3056.40" y="6392.86" style="font-family:'Helvetica';font-size:82.58px;fill:#000000">2.53 (2.28-2.80)</text>
	<text x="352.80" y="889.58" style="font-family:'Helvetica';font-size:82.58px;fill:#707070">Other infections (A)</text>
	<text x="352.80" y="1101.31" style="font-family:'Helvetica';font-size:82.58px;fill:#707070">Cancers (C ex C44)</text>
	<text x="352.80" y="1313.03" style="font-family:'Helvetica';font-size:82.58px;fill:#707070">Endocrine, nutritional and metabolic (E)</text>
	<text x="352.80" y="1524.53" style="font-family:'Helvetica';font-size:82.58px;fill:#707070">Mental and behavioural (F/X60-84)</text>
	<text x="352.80" y="1736.26" style="font-family:'Helvetica';font-size:82.58px;fill:#707070">Nervous system (G)</text>
	<text x="352.80" y="1947.98" style="font-family:'Helvetica';font-size:82.58px;fill:#707070">Circulatory (I)</text>
	<text x="352.80" y="2159.71" style="font-family:'Helvetica';font-size:82.58px;fill:#707070">COVID/Flu/LRTI (J09-22, U071-072)</text>
	<text x="352.80" y="2371.21" style="font-family:'Helvetica';font-size:82.58px;fill:#707070">Other respiratory (J23-99)</text>
	<text x="352.80" y="2582.93" style="font-family:'Helvetica';font-size:82.58px;fill:#707070">Digestive (K)</text>
	<text x="352.80" y="2794.66" style="font-family:'Helvetica';font-size:82.58px;fill:#707070">Musculoskeletal (M)</text>
	<text x="352.80" y="3006.16" style="font-family:'Helvetica';font-size:82.58px;fill:#707070">Genitourinary (N)</text>
	<text x="352.80" y="3217.88" style="font-family:'Helvetica';font-size:82.58px;fill:#707070">External causes (S-Y except U/X60-84)</text>
	<text x="352.80" y="4064.56" style="font-family:'Helvetica';font-size:82.58px;fill:#707070">Other infections (A)</text>
	<text x="352.80" y="4276.28" style="font-family:'Helvetica';font-size:82.58px;fill:#707070">Cancers (C ex C44)</text>
	<text x="352.80" y="4487.78" style="font-family:'Helvetica';font-size:82.58px;fill:#707070">Endocrine, nutritional and metabolic (E)</text>
	<text x="352.80" y="4699.51" style="font-family:'Helvetica';font-size:82.58px;fill:#707070">Mental and behavioural (F/X60-84)</text>
	<text x="352.80" y="4911.23" style="font-family:'Helvetica';font-size:82.58px;fill:#707070">Nervous system (G)</text>
	<text x="352.80" y="5122.96" style="font-family:'Helvetica';font-size:82.58px;fill:#707070">Circulatory (I)</text>
	<text x="352.80" y="5334.46" style="font-family:'Helvetica';font-size:82.58px;fill:#707070">COVID/Flu/LRTI (J09-22, U071-072)</text>
	<text x="352.80" y="5546.18" style="font-family:'Helvetica';font-size:82.58px;fill:#707070">Other respiratory (J23-99)</text>
	<text x="352.80" y="5757.91" style="font-family:'Helvetica';font-size:82.58px;fill:#707070">Digestive (K)</text>
	<text x="352.80" y="5969.41" style="font-family:'Helvetica';font-size:82.58px;fill:#707070">Musculoskeletal (M)</text>
	<text x="352.80" y="6181.13" style="font-family:'Helvetica';font-size:82.58px;fill:#707070">Genitourinary (N)</text>
	<text x="352.80" y="6392.86" style="font-family:'Helvetica';font-size:82.58px;fill:#707070">External causes (S-Y except U/X60-84)</text>
	<text x="577.35" y="687.69" style="font-family:'Helvetica';font-size:110.03px;fill:#000000" text-anchor="middle">vs flu controls</text>
	<text x="1120.05" y="3862.44" style="font-family:'Helvetica';font-size:110.03px;fill:#000000" text-anchor="middle">vs 2019 general population controls</text>
	<text x="3338.78" y="678.08" style="font-family:'Helvetica';font-size:82.58px;fill:#000000" text-anchor="middle">HR and 95% CI</text>
	<line x1="138.60" y1="6662.70" x2="3821.40" y2="6662.70" style="stroke:#000000;stroke-width:7.92"/>
	<line x1="1726.20" y1="6662.70" x2="1726.20" y2="6717.60" style="stroke:#000000;stroke-width:7.92"/>
	<text x="1726.20" y="6841.17" style="font-family:'Helvetica';font-size:137.47px;fill:#000000" text-anchor="middle">.5</text>
	<line x1="1941.75" y1="6662.70" x2="1941.75" y2="6717.60" style="stroke:#000000;stroke-width:7.92"/>
	<text x="1941.75" y="6841.17" style="font-family:'Helvetica';font-size:137.47px;fill:#000000" text-anchor="middle">1</text>
	<line x1="2157.07" y1="6662.70" x2="2157.07" y2="6717.60" style="stroke:#000000;stroke-width:7.92"/>
	<text x="2157.07" y="6841.17" style="font-family:'Helvetica';font-size:137.47px;fill:#000000" text-anchor="middle">2</text>
	<line x1="2441.70" y1="6662.70" x2="2441.70" y2="6717.60" style="stroke:#000000;stroke-width:7.92"/>
	<text x="2441.70" y="6841.17" style="font-family:'Helvetica';font-size:137.47px;fill:#000000" text-anchor="middle">5</text>
	<line x1="2657.25" y1="6662.70" x2="2657.25" y2="6717.60" style="stroke:#000000;stroke-width:7.92"/>
	<text x="2657.25" y="6841.17" style="font-family:'Helvetica';font-size:137.47px;fill:#000000" text-anchor="middle">10</text>
	<line x1="2872.57" y1="6662.70" x2="2872.57" y2="6717.60" style="stroke:#000000;stroke-width:7.92"/>
	<text x="2872.57" y="6841.17" style="font-family:'Helvetica';font-size:137.47px;fill:#000000" text-anchor="middle">20</text>
	<text x="1980.00" y="6992.60" style="font-family:'Helvetica';font-size:137.47px;fill:#000000" text-anchor="middle">HR and 95% CI</text>
</svg>
