<?xml version="1.0" encoding="UTF-8" standalone="no"?>
<!-- This is a Stata 16.1 generated SVG file (http://www.stata.com) -->

<svg version="1.1" width="5.50in" height="8.00in" viewBox="0 0 3960 5760" xmlns="http://www.w3.org/2000/svg" xmlns:xlink="http://www.w3.org/1999/xlink">
	<desc>Stata Graph - Graph</desc>
	<rect x="0" y="0" width="3960" height="5760" style="fill:#EAF2F3;stroke:none"/>
	<rect x="0.00" y="0.00" width="3960.00" height="5760.00" style="fill:#EAF2F3"/>
	<rect x="3.96" y="3.96" width="3952.08" height="5752.08" style="fill:none;stroke:#EAF2F3;stroke-width:7.92"/>
	<rect x="179.82" y="138.60" width="3641.58" height="4732.74" style="fill:#FFFFFF"/>
	<rect x="183.78" y="142.56" width="3633.66" height="4724.82" style="fill:none;stroke:#FFFFFF;stroke-width:7.92"/>
	<line x1="2066.94" y1="4871.34" x2="2066.94" y2="4792.14" style="stroke:#C10534;stroke-width:11.88"/>
	<line x1="2066.94" y1="4752.54" x2="2066.94" y2="4673.34" style="stroke:#C10534;stroke-width:11.88"/>
	<line x1="2066.94" y1="4633.74" x2="2066.94" y2="4554.54" style="stroke:#C10534;stroke-width:11.88"/>
	<line x1="2066.94" y1="4514.94" x2="2066.94" y2="4435.56" style="stroke:#C10534;stroke-width:11.88"/>
	<line x1="2066.94" y1="4395.96" x2="2066.94" y2="4316.76" style="stroke:#C10534;stroke-width:11.88"/>
	<line x1="2066.94" y1="4277.16" x2="2066.94" y2="4197.96" style="stroke:#C10534;stroke-width:11.88"/>
	<line x1="2066.94" y1="4158.36" x2="2066.94" y2="4079.16" style="stroke:#C10534;stroke-width:11.88"/>
	<line x1="2066.94" y1="4039.56" x2="2066.94" y2="3960.36" style="stroke:#C10534;stroke-width:11.88"/>
	<line x1="2066.94" y1="3920.76" x2="2066.94" y2="3841.56" style="stroke:#C10534;stroke-width:11.88"/>
	<line x1="2066.94" y1="3801.78" x2="2066.94" y2="3722.58" style="stroke:#C10534;stroke-width:11.88"/>
	<line x1="2066.94" y1="3682.98" x2="2066.94" y2="3603.78" style="stroke:#C10534;stroke-width:11.88"/>
	<line x1="2066.94" y1="3564.18" x2="2066.94" y2="3484.98" style="stroke:#C10534;stroke-width:11.88"/>
	<line x1="2066.94" y1="3445.38" x2="2066.94" y2="3366.18" style="stroke:#C10534;stroke-width:11.88"/>
	<line x1="2066.94" y1="3326.58" x2="2066.94" y2="3247.38" style="stroke:#C10534;stroke-width:11.88"/>
	<line x1="2066.94" y1="3207.78" x2="2066.94" y2="3128.40" style="stroke:#C10534;stroke-width:11.88"/>
	<line x1="2066.94" y1="3088.80" x2="2066.94" y2="3009.60" style="stroke:#C10534;stroke-width:11.88"/>
	<line x1="2066.94" y1="2970.00" x2="2066.94" y2="2890.80" style="stroke:#C10534;stroke-width:11.88"/>
	<line x1="2066.94" y1="2851.20" x2="2066.94" y2="2772.00" style="stroke:#C10534;stroke-width:11.88"/>
	<line x1="2066.94" y1="2732.40" x2="2066.94" y2="2653.20" style="stroke:#C10534;stroke-width:11.88"/>
	<line x1="2066.94" y1="2613.60" x2="2066.94" y2="2534.40" style="stroke:#C10534;stroke-width:11.88"/>
	<line x1="2066.94" y1="2494.62" x2="2066.94" y2="2415.42" style="stroke:#C10534;stroke-width:11.88"/>
	<line x1="2066.94" y1="2375.82" x2="2066.94" y2="2296.62" style="stroke:#C10534;stroke-width:11.88"/>
	<line x1="2066.94" y1="2257.02" x2="2066.94" y2="2177.82" style="stroke:#C10534;stroke-width:11.88"/>
	<line x1="2066.94" y1="2138.22" x2="2066.94" y2="2059.02" style="stroke:#C10534;stroke-width:11.88"/>
	<line x1="2066.94" y1="2019.42" x2="2066.94" y2="1940.22" style="stroke:#C10534;stroke-width:11.88"/>
	<line x1="2066.94" y1="1900.62" x2="2066.94" y2="1821.24" style="stroke:#C10534;stroke-width:11.88"/>
	<line x1="2066.94" y1="1781.64" x2="2066.94" y2="1702.44" style="stroke:#C10534;stroke-width:11.88"/>
	<line x1="2066.94" y1="1662.84" x2="2066.94" y2="1583.64" style="stroke:#C10534;stroke-width:11.88"/>
	<line x1="2066.94" y1="1544.04" x2="2066.94" y2="1464.84" style="stroke:#C10534;stroke-width:11.88"/>
	<line x1="2066.94" y1="1425.24" x2="2066.94" y2="1346.04" style="stroke:#C10534;stroke-width:11.88"/>
	<line x1="2066.94" y1="1306.44" x2="2066.94" y2="1227.06" style="stroke:#C10534;stroke-width:11.88"/>
	<line x1="2066.94" y1="1187.46" x2="2066.94" y2="1108.26" style="stroke:#C10534;stroke-width:11.88"/>
	<line x1="2066.94" y1="1068.66" x2="2066.94" y2="989.46" style="stroke:#C10534;stroke-width:11.88"/>
	<line x1="2066.94" y1="949.86" x2="2066.94" y2="870.66" style="stroke:#C10534;stroke-width:11.88"/>
	<line x1="2066.94" y1="831.06" x2="2066.94" y2="751.86" style="stroke:#C10534;stroke-width:11.88"/>
	<line x1="2066.94" y1="712.26" x2="2066.94" y2="633.06" style="stroke:#C10534;stroke-width:11.88"/>
	<line x1="2066.94" y1="593.28" x2="2066.94" y2="514.08" style="stroke:#C10534;stroke-width:11.88"/>
	<line x1="2066.94" y1="474.48" x2="2066.94" y2="395.28" style="stroke:#C10534;stroke-width:11.88"/>
	<line x1="2066.94" y1="355.68" x2="2066.94" y2="276.48" style="stroke:#C10534;stroke-width:11.88"/>
	<line x1="2066.94" y1="236.88" x2="2066.94" y2="157.68" style="stroke:#C10534;stroke-width:11.88"/>
	<line x1="2337.84" y1="4871.34" x2="2337.84" y2="4867.38" style="stroke:#C10534;stroke-width:11.88"/>
	<line x1="2337.84" y1="4839.66" x2="2337.84" y2="4835.70" style="stroke:#C10534;stroke-width:11.88"/>
	<line x1="2337.84" y1="4807.98" x2="2337.84" y2="4803.84" style="stroke:#C10534;stroke-width:11.88"/>
	<line x1="2337.84" y1="4776.12" x2="2337.84" y2="4772.16" style="stroke:#C10534;stroke-width:11.88"/>
	<line x1="2337.84" y1="4744.44" x2="2337.84" y2="4740.48" style="stroke:#C10534;stroke-width:11.88"/>
	<line x1="2337.84" y1="4712.76" x2="2337.84" y2="4708.80" style="stroke:#C10534;stroke-width:11.88"/>
	<line x1="2337.84" y1="4681.08" x2="2337.84" y2="4677.12" style="stroke:#C10534;stroke-width:11.88"/>
	<line x1="2337.84" y1="4649.22" x2="2337.84" y2="4645.26" style="stroke:#C10534;stroke-width:11.88"/>
	<line x1="2337.84" y1="4617.54" x2="2337.84" y2="4613.58" style="stroke:#C10534;stroke-width:11.88"/>
	<line x1="2337.84" y1="4585.86" x2="2337.84" y2="4581.90" style="stroke:#C10534;stroke-width:11.88"/>
	<line x1="2337.84" y1="4554.18" x2="2337.84" y2="4550.22" style="stroke:#C10534;stroke-width:11.88"/>
	<line x1="2337.84" y1="4522.32" x2="2337.84" y2="4518.36" style="stroke:#C10534;stroke-width:11.88"/>
	<line x1="2337.84" y1="4490.64" x2="2337.84" y2="4486.68" style="stroke:#C10534;stroke-width:11.88"/>
	<line x1="2337.84" y1="4458.96" x2="2337.84" y2="4455.00" style="stroke:#C10534;stroke-width:11.88"/>
	<line x1="2337.84" y1="4427.28" x2="2337.84" y2="4423.32" style="stroke:#C10534;stroke-width:11.88"/>
	<line x1="2337.84" y1="4395.42" x2="2337.84" y2="4391.46" style="stroke:#C10534;stroke-width:11.88"/>
	<line x1="2337.84" y1="4363.74" x2="2337.84" y2="4359.78" style="stroke:#C10534;stroke-width:11.88"/>
	<line x1="2337.84" y1="4332.06" x2="2337.84" y2="4328.10" style="stroke:#C10534;stroke-width:11.88"/>
	<line x1="2337.84" y1="4300.38" x2="2337.84" y2="4296.42" style="stroke:#C10534;stroke-width:11.88"/>
	<line x1="2337.84" y1="4268.52" x2="2337.84" y2="4264.56" style="stroke:#C10534;stroke-width:11.88"/>
	<line x1="2337.84" y1="4236.84" x2="2337.84" y2="4232.88" style="stroke:#C10534;stroke-width:11.88"/>
	<line x1="2337.84" y1="4205.16" x2="2337.84" y2="4201.20" style="stroke:#C10534;stroke-width:11.88"/>
	<line x1="2337.84" y1="4173.48" x2="2337.84" y2="4169.52" style="stroke:#C10534;stroke-width:11.88"/>
	<line x1="2337.84" y1="4141.62" x2="2337.84" y2="4137.66" style="stroke:#C10534;stroke-width:11.88"/>
	<line x1="2337.84" y1="4109.94" x2="2337.84" y2="4105.98" style="stroke:#C10534;stroke-width:11.88"/>
	<line x1="2337.84" y1="4078.26" x2="2337.84" y2="4074.30" style="stroke:#C10534;stroke-width:11.88"/>
	<line x1="2337.84" y1="4046.58" x2="2337.84" y2="4042.62" style="stroke:#C10534;stroke-width:11.88"/>
	<line x1="2337.84" y1="4014.72" x2="2337.84" y2="4010.76" style="stroke:#C10534;stroke-width:11.88"/>
	<line x1="2337.84" y1="3983.04" x2="2337.84" y2="3979.08" style="stroke:#C10534;stroke-width:11.88"/>
	<line x1="2337.84" y1="3951.36" x2="2337.84" y2="3947.40" style="stroke:#C10534;stroke-width:11.88"/>
	<line x1="2337.84" y1="3919.68" x2="2337.84" y2="3915.72" style="stroke:#C10534;stroke-width:11.88"/>
	<line x1="2337.84" y1="3888.00" x2="2337.84" y2="3883.86" style="stroke:#C10534;stroke-width:11.88"/>
	<line x1="2337.84" y1="3856.14" x2="2337.84" y2="3852.18" style="stroke:#C10534;stroke-width:11.88"/>
	<line x1="2337.84" y1="3824.46" x2="2337.84" y2="3820.50" style="stroke:#C10534;stroke-width:11.88"/>
	<line x1="2337.84" y1="3792.78" x2="2337.84" y2="3788.82" style="stroke:#C10534;stroke-width:11.88"/>
	<line x1="2337.84" y1="3761.10" x2="2337.84" y2="3756.96" style="stroke:#C10534;stroke-width:11.88"/>
	<line x1="2337.84" y1="3729.24" x2="2337.84" y2="3725.28" style="stroke:#C10534;stroke-width:11.88"/>
	<line x1="2337.84" y1="3697.56" x2="2337.84" y2="3693.60" style="stroke:#C10534;stroke-width:11.88"/>
	<line x1="2337.84" y1="3665.88" x2="2337.84" y2="3661.92" style="stroke:#C10534;stroke-width:11.88"/>
	<line x1="2337.84" y1="3634.20" x2="2337.84" y2="3630.06" style="stroke:#C10534;stroke-width:11.88"/>
	<line x1="2337.84" y1="3602.34" x2="2337.84" y2="3598.38" style="stroke:#C10534;stroke-width:11.88"/>
	<line x1="2337.84" y1="3570.66" x2="2337.84" y2="3566.70" style="stroke:#C10534;stroke-width:11.88"/>
	<line x1="2337.84" y1="3538.98" x2="2337.84" y2="3535.02" style="stroke:#C10534;stroke-width:11.88"/>
	<line x1="2337.84" y1="3507.30" x2="2337.84" y2="3503.16" style="stroke:#C10534;stroke-width:11.88"/>
	<line x1="2337.84" y1="3475.44" x2="2337.84" y2="3471.48" style="stroke:#C10534;stroke-width:11.88"/>
	<line x1="2337.84" y1="3443.76" x2="2337.84" y2="3439.80" style="stroke:#C10534;stroke-width:11.88"/>
	<line x1="2337.84" y1="3412.08" x2="2337.84" y2="3408.12" style="stroke:#C10534;stroke-width:11.88"/>
	<line x1="2337.84" y1="3380.40" x2="2337.84" y2="3376.26" style="stroke:#C10534;stroke-width:11.88"/>
	<line x1="2337.84" y1="3348.54" x2="2337.84" y2="3344.58" style="stroke:#C10534;stroke-width:11.88"/>
	<line x1="2337.84" y1="3316.86" x2="2337.84" y2="3312.90" style="stroke:#C10534;stroke-width:11.88"/>
	<line x1="2337.84" y1="3285.18" x2="2337.84" y2="3281.22" style="stroke:#C10534;stroke-width:11.88"/>
	<line x1="2337.84" y1="3253.50" x2="2337.84" y2="3249.36" style="stroke:#C10534;stroke-width:11.88"/>
	<line x1="2337.84" y1="3221.64" x2="2337.84" y2="3217.68" style="stroke:#C10534;stroke-width:11.88"/>
	<line x1="2337.84" y1="3189.96" x2="2337.84" y2="3186.00" style="stroke:#C10534;stroke-width:11.88"/>
	<line x1="2337.84" y1="3158.28" x2="2337.84" y2="3154.32" style="stroke:#C10534;stroke-width:11.88"/>
	<line x1="2337.84" y1="3126.60" x2="2337.84" y2="3122.46" style="stroke:#C10534;stroke-width:11.88"/>
	<line x1="2337.84" y1="3094.74" x2="2337.84" y2="3090.78" style="stroke:#C10534;stroke-width:11.88"/>
	<line x1="2337.84" y1="3063.06" x2="2337.84" y2="3059.10" style="stroke:#C10534;stroke-width:11.88"/>
	<line x1="2337.84" y1="3031.38" x2="2337.84" y2="3027.42" style="stroke:#C10534;stroke-width:11.88"/>
	<line x1="2337.84" y1="2999.70" x2="2337.84" y2="2995.56" style="stroke:#C10534;stroke-width:11.88"/>
	<line x1="2337.84" y1="2967.84" x2="2337.84" y2="2963.88" style="stroke:#C10534;stroke-width:11.88"/>
	<line x1="2337.84" y1="2936.16" x2="2337.84" y2="2932.20" style="stroke:#C10534;stroke-width:11.88"/>
	<line x1="2337.84" y1="2904.48" x2="2337.84" y2="2900.52" style="stroke:#C10534;stroke-width:11.88"/>
	<line x1="2337.84" y1="2872.80" x2="2337.84" y2="2868.66" style="stroke:#C10534;stroke-width:11.88"/>
	<line x1="2337.84" y1="2840.94" x2="2337.84" y2="2836.98" style="stroke:#C10534;stroke-width:11.88"/>
	<line x1="2337.84" y1="2809.26" x2="2337.84" y2="2805.30" style="stroke:#C10534;stroke-width:11.88"/>
	<line x1="2337.84" y1="2777.58" x2="2337.84" y2="2773.62" style="stroke:#C10534;stroke-width:11.88"/>
	<line x1="2337.84" y1="2745.90" x2="2337.84" y2="2741.76" style="stroke:#C10534;stroke-width:11.88"/>
	<line x1="2337.84" y1="2714.04" x2="2337.84" y2="2710.08" style="stroke:#C10534;stroke-width:11.88"/>
	<line x1="2337.84" y1="2682.36" x2="2337.84" y2="2678.40" style="stroke:#C10534;stroke-width:11.88"/>
	<line x1="2337.84" y1="2650.68" x2="2337.84" y2="2646.72" style="stroke:#C10534;stroke-width:11.88"/>
	<line x1="2337.84" y1="2619.00" x2="2337.84" y2="2615.04" style="stroke:#C10534;stroke-width:11.88"/>
	<line x1="2337.84" y1="2587.14" x2="2337.84" y2="2583.18" style="stroke:#C10534;stroke-width:11.88"/>
	<line x1="2337.84" y1="2555.46" x2="2337.84" y2="2551.50" style="stroke:#C10534;stroke-width:11.88"/>
	<line x1="2337.84" y1="2523.78" x2="2337.84" y2="2519.82" style="stroke:#C10534;stroke-width:11.88"/>
	<line x1="2337.84" y1="2492.10" x2="2337.84" y2="2488.14" style="stroke:#C10534;stroke-width:11.88"/>
	<line x1="2337.84" y1="2460.24" x2="2337.84" y2="2456.28" style="stroke:#C10534;stroke-width:11.88"/>
	<line x1="2337.84" y1="2428.56" x2="2337.84" y2="2424.60" style="stroke:#C10534;stroke-width:11.88"/>
	<line x1="2337.84" y1="2396.88" x2="2337.84" y2="2392.92" style="stroke:#C10534;stroke-width:11.88"/>
	<line x1="2337.84" y1="2365.20" x2="2337.84" y2="2361.24" style="stroke:#C10534;stroke-width:11.88"/>
	<line x1="2337.84" y1="2333.34" x2="2337.84" y2="2329.38" style="stroke:#C10534;stroke-width:11.88"/>
	<line x1="2337.84" y1="2301.66" x2="2337.84" y2="2297.70" style="stroke:#C10534;stroke-width:11.88"/>
	<line x1="2337.84" y1="2269.98" x2="2337.84" y2="2266.02" style="stroke:#C10534;stroke-width:11.88"/>
	<line x1="2337.84" y1="2238.30" x2="2337.84" y2="2234.34" style="stroke:#C10534;stroke-width:11.88"/>
	<line x1="2337.84" y1="2206.44" x2="2337.84" y2="2202.48" style="stroke:#C10534;stroke-width:11.88"/>
	<line x1="2337.84" y1="2174.76" x2="2337.84" y2="2170.80" style="stroke:#C10534;stroke-width:11.88"/>
	<line x1="2337.84" y1="2143.08" x2="2337.84" y2="2139.12" style="stroke:#C10534;stroke-width:11.88"/>
	<line x1="2337.84" y1="2111.40" x2="2337.84" y2="2107.44" style="stroke:#C10534;stroke-width:11.88"/>
	<line x1="2337.84" y1="2079.54" x2="2337.84" y2="2075.58" style="stroke:#C10534;stroke-width:11.88"/>
	<line x1="2337.84" y1="2047.86" x2="2337.84" y2="2043.90" style="stroke:#C10534;stroke-width:11.88"/>
	<line x1="2337.84" y1="2016.18" x2="2337.84" y2="2012.22" style="stroke:#C10534;stroke-width:11.88"/>
	<line x1="2337.84" y1="1984.50" x2="2337.84" y2="1980.54" style="stroke:#C10534;stroke-width:11.88"/>
	<line x1="2337.84" y1="1952.64" x2="2337.84" y2="1948.68" style="stroke:#C10534;stroke-width:11.88"/>
	<line x1="2337.84" y1="1920.96" x2="2337.84" y2="1917.00" style="stroke:#C10534;stroke-width:11.88"/>
	<line x1="2337.84" y1="1889.28" x2="2337.84" y2="1885.32" style="stroke:#C10534;stroke-width:11.88"/>
	<line x1="2337.84" y1="1857.60" x2="2337.84" y2="1853.64" style="stroke:#C10534;stroke-width:11.88"/>
	<line x1="2337.84" y1="1825.92" x2="2337.84" y2="1821.78" style="stroke:#C10534;stroke-width:11.88"/>
	<line x1="2337.84" y1="1794.06" x2="2337.84" y2="1790.10" style="stroke:#C10534;stroke-width:11.88"/>
	<line x1="2337.84" y1="1762.38" x2="2337.84" y2="1758.42" style="stroke:#C10534;stroke-width:11.88"/>
	<line x1="2337.84" y1="1730.70" x2="2337.84" y2="1726.74" style="stroke:#C10534;stroke-width:11.88"/>
	<line x1="2337.84" y1="1699.02" x2="2337.84" y2="1694.88" style="stroke:#C10534;stroke-width:11.88"/>
	<line x1="2337.84" y1="1667.16" x2="2337.84" y2="1663.20" style="stroke:#C10534;stroke-width:11.88"/>
	<line x1="2337.84" y1="1635.48" x2="2337.84" y2="1631.52" style="stroke:#C10534;stroke-width:11.88"/>
	<line x1="2337.84" y1="1603.80" x2="2337.84" y2="1599.84" style="stroke:#C10534;stroke-width:11.88"/>
	<line x1="2337.84" y1="1572.12" x2="2337.84" y2="1567.98" style="stroke:#C10534;stroke-width:11.88"/>
	<line x1="2337.84" y1="1540.26" x2="2337.84" y2="1536.30" style="stroke:#C10534;stroke-width:11.88"/>
	<line x1="2337.84" y1="1508.58" x2="2337.84" y2="1504.62" style="stroke:#C10534;stroke-width:11.88"/>
	<line x1="2337.84" y1="1476.90" x2="2337.84" y2="1472.94" style="stroke:#C10534;stroke-width:11.88"/>
	<line x1="2337.84" y1="1445.22" x2="2337.84" y2="1441.08" style="stroke:#C10534;stroke-width:11.88"/>
	<line x1="2337.84" y1="1413.36" x2="2337.84" y2="1409.40" style="stroke:#C10534;stroke-width:11.88"/>
	<line x1="2337.84" y1="1381.68" x2="2337.84" y2="1377.72" style="stroke:#C10534;stroke-width:11.88"/>
	<line x1="2337.84" y1="1350.00" x2="2337.84" y2="1346.04" style="stroke:#C10534;stroke-width:11.88"/>
	<line x1="2337.84" y1="1318.32" x2="2337.84" y2="1314.18" style="stroke:#C10534;stroke-width:11.88"/>
	<line x1="2337.84" y1="1286.46" x2="2337.84" y2="1282.50" style="stroke:#C10534;stroke-width:11.88"/>
	<line x1="2337.84" y1="1254.78" x2="2337.84" y2="1250.82" style="stroke:#C10534;stroke-width:11.88"/>
	<line x1="2337.84" y1="1223.10" x2="2337.84" y2="1219.14" style="stroke:#C10534;stroke-width:11.88"/>
	<line x1="2337.84" y1="1191.42" x2="2337.84" y2="1187.28" style="stroke:#C10534;stroke-width:11.88"/>
	<line x1="2337.84" y1="1159.56" x2="2337.84" y2="1155.60" style="stroke:#C10534;stroke-width:11.88"/>
	<line x1="2337.84" y1="1127.88" x2="2337.84" y2="1123.92" style="stroke:#C10534;stroke-width:11.88"/>
	<line x1="2337.84" y1="1096.20" x2="2337.84" y2="1092.24" style="stroke:#C10534;stroke-width:11.88"/>
	<line x1="2337.84" y1="1064.52" x2="2337.84" y2="1060.38" style="stroke:#C10534;stroke-width:11.88"/>
	<line x1="2337.84" y1="1032.66" x2="2337.84" y2="1028.70" style="stroke:#C10534;stroke-width:11.88"/>
	<line x1="2337.84" y1="1000.98" x2="2337.84" y2="997.02" style="stroke:#C10534;stroke-width:11.88"/>
	<line x1="2337.84" y1="969.30" x2="2337.84" y2="965.34" style="stroke:#C10534;stroke-width:11.88"/>
	<line x1="2337.84" y1="937.62" x2="2337.84" y2="933.48" style="stroke:#C10534;stroke-width:11.88"/>
	<line x1="2337.84" y1="905.76" x2="2337.84" y2="901.80" style="stroke:#C10534;stroke-width:11.88"/>
	<line x1="2337.84" y1="874.08" x2="2337.84" y2="870.12" style="stroke:#C10534;stroke-width:11.88"/>
	<line x1="2337.84" y1="842.40" x2="2337.84" y2="838.44" style="stroke:#C10534;stroke-width:11.88"/>
	<line x1="2337.84" y1="810.72" x2="2337.84" y2="806.58" style="stroke:#C10534;stroke-width:11.88"/>
	<line x1="2337.84" y1="778.86" x2="2337.84" y2="774.90" style="stroke:#C10534;stroke-width:11.88"/>
	<line x1="2337.84" y1="747.18" x2="2337.84" y2="743.22" style="stroke:#C10534;stroke-width:11.88"/>
	<line x1="2337.84" y1="715.50" x2="2337.84" y2="711.54" style="stroke:#C10534;stroke-width:11.88"/>
	<line x1="2337.84" y1="683.82" x2="2337.84" y2="679.68" style="stroke:#C10534;stroke-width:11.88"/>
	<line x1="2337.84" y1="651.96" x2="2337.84" y2="648.00" style="stroke:#C10534;stroke-width:11.88"/>
	<line x1="2337.84" y1="620.28" x2="2337.84" y2="616.32" style="stroke:#C10534;stroke-width:11.88"/>
	<line x1="2337.84" y1="588.60" x2="2337.84" y2="584.64" style="stroke:#C10534;stroke-width:11.88"/>
	<line x1="2337.84" y1="556.92" x2="2337.84" y2="552.96" style="stroke:#C10534;stroke-width:11.88"/>
	<line x1="2337.84" y1="525.06" x2="2337.84" y2="521.10" style="stroke:#C10534;stroke-width:11.88"/>
	<line x1="2337.84" y1="493.38" x2="2337.84" y2="489.42" style="stroke:#C10534;stroke-width:11.88"/>
	<line x1="2337.84" y1="461.70" x2="2337.84" y2="457.74" style="stroke:#C10534;stroke-width:11.88"/>
	<line x1="2337.84" y1="430.02" x2="2337.84" y2="426.06" style="stroke:#C10534;stroke-width:11.88"/>
	<line x1="2337.84" y1="398.16" x2="2337.84" y2="394.20" style="stroke:#C10534;stroke-width:11.88"/>
	<line x1="2337.84" y1="366.48" x2="2337.84" y2="362.52" style="stroke:#C10534;stroke-width:11.88"/>
	<line x1="2337.84" y1="334.80" x2="2337.84" y2="330.84" style="stroke:#C10534;stroke-width:11.88"/>
	<line x1="2337.84" y1="303.12" x2="2337.84" y2="299.16" style="stroke:#C10534;stroke-width:11.88"/>
	<line x1="2337.84" y1="271.26" x2="2337.84" y2="267.30" style="stroke:#C10534;stroke-width:11.88"/>
	<line x1="2337.84" y1="239.58" x2="2337.84" y2="235.62" style="stroke:#C10534;stroke-width:11.88"/>
	<line x1="2337.84" y1="207.90" x2="2337.84" y2="203.94" style="stroke:#C10534;stroke-width:11.88"/>
	<line x1="2337.84" y1="176.22" x2="2337.84" y2="172.26" style="stroke:#C10534;stroke-width:11.88"/>
	<line x1="2337.84" y1="144.36" x2="2337.84" y2="140.40" style="stroke:#C10534;stroke-width:11.88"/>
	<circle cx="3670.92" cy="225.90" r="30.24" style="fill:none;stroke:#000000;stroke-width:11.88"/>
	<circle cx="2422.44" cy="585.72" r="30.24" style="fill:none;stroke:#000000;stroke-width:11.88"/>
	<circle cx="2372.04" cy="945.54" r="30.24" style="fill:none;stroke:#000000;stroke-width:11.88"/>
	<circle cx="2841.66" cy="1305.54" r="30.24" style="fill:none;stroke:#000000;stroke-width:11.88"/>
	<circle cx="2304.72" cy="1665.36" r="30.24" style="fill:none;stroke:#000000;stroke-width:11.88"/>
	<circle cx="2627.64" cy="2025.18" r="30.24" style="fill:none;stroke:#000000;stroke-width:11.88"/>
	<circle cx="2542.32" cy="2385.18" r="30.24" style="fill:none;stroke:#000000;stroke-width:11.88"/>
	<circle cx="2540.70" cy="2745.00" r="30.24" style="fill:none;stroke:#000000;stroke-width:11.88"/>
	<circle cx="2642.04" cy="3104.82" r="30.24" style="fill:none;stroke:#000000;stroke-width:11.88"/>
	<circle cx="2309.04" cy="3464.82" r="30.24" style="fill:none;stroke:#000000;stroke-width:11.88"/>
	<circle cx="2670.84" cy="3824.64" r="30.24" style="fill:none;stroke:#000000;stroke-width:11.88"/>
	<circle cx="2331.36" cy="4184.46" r="30.24" style="fill:none;stroke:#000000;stroke-width:11.88"/>
	<circle cx="2424.78" cy="4544.46" r="30.24" style="fill:none;stroke:#000000;stroke-width:11.88"/>
	<line x1="3734.28" y1="225.72" x2="3607.92" y2="225.72" style="stroke:#000000;stroke-width:11.88"/>
	<line x1="3607.92" y1="255.96" x2="3607.92" y2="195.48" stroke-linecap="round" style="stroke:#000000;stroke-width:11.88"/>
	<line x1="3734.28" y1="255.96" x2="3734.28" y2="195.48" stroke-linecap="round" style="stroke:#000000;stroke-width:11.88"/>
	<line x1="2461.32" y1="585.54" x2="2383.92" y2="585.54" style="stroke:#000000;stroke-width:11.88"/>
	<line x1="2383.92" y1="615.78" x2="2383.92" y2="555.30" stroke-linecap="round" style="stroke:#000000;stroke-width:11.88"/>
	<line x1="2461.32" y1="615.78" x2="2461.32" y2="555.30" stroke-linecap="round" style="stroke:#000000;stroke-width:11.88"/>
	<line x1="2423.16" y1="945.54" x2="2321.10" y2="945.54" style="stroke:#000000;stroke-width:11.88"/>
	<line x1="2321.10" y1="975.78" x2="2321.10" y2="915.30" stroke-linecap="round" style="stroke:#000000;stroke-width:11.88"/>
	<line x1="2423.16" y1="975.78" x2="2423.16" y2="915.30" stroke-linecap="round" style="stroke:#000000;stroke-width:11.88"/>
	<line x1="2884.50" y1="1305.36" x2="2799.00" y2="1305.36" style="stroke:#000000;stroke-width:11.88"/>
	<line x1="2799.00" y1="1335.60" x2="2799.00" y2="1275.12" stroke-linecap="round" style="stroke:#000000;stroke-width:11.88"/>
	<line x1="2884.50" y1="1335.60" x2="2884.50" y2="1275.12" stroke-linecap="round" style="stroke:#000000;stroke-width:11.88"/>
	<line x1="2351.52" y1="1665.18" x2="2258.10" y2="1665.18" style="stroke:#000000;stroke-width:11.88"/>
	<line x1="2258.10" y1="1695.42" x2="2258.10" y2="1634.94" stroke-linecap="round" style="stroke:#000000;stroke-width:11.88"/>
	<line x1="2351.52" y1="1695.42" x2="2351.52" y2="1634.94" stroke-linecap="round" style="stroke:#000000;stroke-width:11.88"/>
	<line x1="2717.28" y1="2025.18" x2="2538.18" y2="2025.18" style="stroke:#000000;stroke-width:11.88"/>
	<line x1="2538.18" y1="2055.42" x2="2538.18" y2="1994.94" stroke-linecap="round" style="stroke:#000000;stroke-width:11.88"/>
	<line x1="2717.28" y1="2055.42" x2="2717.28" y2="1994.94" stroke-linecap="round" style="stroke:#000000;stroke-width:11.88"/>
	<line x1="2624.94" y1="2385.00" x2="2459.70" y2="2385.00" style="stroke:#000000;stroke-width:11.88"/>
	<line x1="2459.70" y1="2415.24" x2="2459.70" y2="2354.76" stroke-linecap="round" style="stroke:#000000;stroke-width:11.88"/>
	<line x1="2624.94" y1="2415.24" x2="2624.94" y2="2354.76" stroke-linecap="round" style="stroke:#000000;stroke-width:11.88"/>
	<line x1="2595.24" y1="2744.82" x2="2486.34" y2="2744.82" style="stroke:#000000;stroke-width:11.88"/>
	<line x1="2486.34" y1="2775.06" x2="2486.34" y2="2714.58" stroke-linecap="round" style="stroke:#000000;stroke-width:11.88"/>
	<line x1="2595.24" y1="2775.06" x2="2595.24" y2="2714.58" stroke-linecap="round" style="stroke:#000000;stroke-width:11.88"/>
	<line x1="2727.72" y1="3104.82" x2="2556.72" y2="3104.82" style="stroke:#000000;stroke-width:11.88"/>
	<line x1="2556.72" y1="3135.06" x2="2556.72" y2="3074.58" stroke-linecap="round" style="stroke:#000000;stroke-width:11.88"/>
	<line x1="2727.72" y1="3135.06" x2="2727.72" y2="3074.58" stroke-linecap="round" style="stroke:#000000;stroke-width:11.88"/>
	<line x1="2362.14" y1="3464.64" x2="2255.94" y2="3464.64" style="stroke:#000000;stroke-width:11.88"/>
	<line x1="2255.94" y1="3494.88" x2="2255.94" y2="3434.40" stroke-linecap="round" style="stroke:#000000;stroke-width:11.88"/>
	<line x1="2362.14" y1="3494.88" x2="2362.14" y2="3434.40" stroke-linecap="round" style="stroke:#000000;stroke-width:11.88"/>
	<line x1="2749.86" y1="3824.46" x2="2592.00" y2="3824.46" style="stroke:#000000;stroke-width:11.88"/>
	<line x1="2592.00" y1="3854.70" x2="2592.00" y2="3794.22" stroke-linecap="round" style="stroke:#000000;stroke-width:11.88"/>
	<line x1="2749.86" y1="3854.70" x2="2749.86" y2="3794.22" stroke-linecap="round" style="stroke:#000000;stroke-width:11.88"/>
	<line x1="2392.92" y1="4184.46" x2="2269.98" y2="4184.46" style="stroke:#000000;stroke-width:11.88"/>
	<line x1="2269.98" y1="4214.70" x2="2269.98" y2="4154.22" stroke-linecap="round" style="stroke:#000000;stroke-width:11.88"/>
	<line x1="2392.92" y1="4214.70" x2="2392.92" y2="4154.22" stroke-linecap="round" style="stroke:#000000;stroke-width:11.88"/>
	<line x1="2452.86" y1="4544.28" x2="2396.88" y2="4544.28" style="stroke:#000000;stroke-width:11.88"/>
	<line x1="2396.88" y1="4574.52" x2="2396.88" y2="4514.04" stroke-linecap="round" style="stroke:#000000;stroke-width:11.88"/>
	<line x1="2452.86" y1="4574.52" x2="2452.86" y2="4514.04" stroke-linecap="round" style="stroke:#000000;stroke-width:11.88"/>
	<circle cx="3580.92" cy="345.78" r="36.18" style="fill:#000000"/>
	<circle cx="3580.92" cy="345.78" r="30.24" style="fill:none;stroke:#000000;stroke-width:11.88"/>
	<circle cx="2355.84" cy="705.60" r="36.18" style="fill:#000000"/>
	<circle cx="2355.84" cy="705.60" r="30.24" style="fill:none;stroke:#000000;stroke-width:11.88"/>
	<circle cx="2334.24" cy="1065.60" r="36.18" style="fill:#000000"/>
	<circle cx="2334.24" cy="1065.60" r="30.24" style="fill:none;stroke:#000000;stroke-width:11.88"/>
	<circle cx="2778.48" cy="1425.42" r="36.18" style="fill:#000000"/>
	<circle cx="2778.48" cy="1425.42" r="30.24" style="fill:none;stroke:#000000;stroke-width:11.88"/>
	<circle cx="2242.98" cy="1785.24" r="36.18" style="fill:#000000"/>
	<circle cx="2242.98" cy="1785.24" r="30.24" style="fill:none;stroke:#000000;stroke-width:11.88"/>
	<circle cx="2544.12" cy="2145.24" r="36.18" style="fill:#000000"/>
	<circle cx="2544.12" cy="2145.24" r="30.24" style="fill:none;stroke:#000000;stroke-width:11.88"/>
	<circle cx="2508.84" cy="2505.06" r="36.18" style="fill:#000000"/>
	<circle cx="2508.84" cy="2505.06" r="30.24" style="fill:none;stroke:#000000;stroke-width:11.88"/>
	<circle cx="2403.90" cy="2864.88" r="36.18" style="fill:#000000"/>
	<circle cx="2403.90" cy="2864.88" r="30.24" style="fill:none;stroke:#000000;stroke-width:11.88"/>
	<circle cx="2476.08" cy="3224.88" r="36.18" style="fill:#000000"/>
	<circle cx="2476.08" cy="3224.88" r="30.24" style="fill:none;stroke:#000000;stroke-width:11.88"/>
	<circle cx="2276.46" cy="3584.70" r="36.18" style="fill:#000000"/>
	<circle cx="2276.46" cy="3584.70" r="30.24" style="fill:none;stroke:#000000;stroke-width:11.88"/>
	<circle cx="2587.50" cy="3944.52" r="36.18" style="fill:#000000"/>
	<circle cx="2587.50" cy="3944.52" r="30.24" style="fill:none;stroke:#000000;stroke-width:11.88"/>
	<circle cx="2274.12" cy="4304.52" r="36.18" style="fill:#000000"/>
	<circle cx="2274.12" cy="4304.52" r="30.24" style="fill:none;stroke:#000000;stroke-width:11.88"/>
	<circle cx="2376.72" cy="4664.34" r="36.18" style="fill:#000000"/>
	<circle cx="2376.72" cy="4664.34" r="30.24" style="fill:none;stroke:#000000;stroke-width:11.88"/>
	<line x1="3652.56" y1="345.60" x2="3509.46" y2="345.60" style="stroke:#000000;stroke-width:11.88"/>
	<line x1="3509.46" y1="375.84" x2="3509.46" y2="315.36" stroke-linecap="round" style="stroke:#000000;stroke-width:11.88"/>
	<line x1="3652.56" y1="375.84" x2="3652.56" y2="315.36" stroke-linecap="round" style="stroke:#000000;stroke-width:11.88"/>
	<line x1="2403.90" y1="705.60" x2="2307.96" y2="705.60" style="stroke:#000000;stroke-width:11.88"/>
	<line x1="2307.96" y1="735.84" x2="2307.96" y2="675.36" stroke-linecap="round" style="stroke:#000000;stroke-width:11.88"/>
	<line x1="2403.90" y1="735.84" x2="2403.90" y2="675.36" stroke-linecap="round" style="stroke:#000000;stroke-width:11.88"/>
	<line x1="2399.58" y1="1065.42" x2="2268.90" y2="1065.42" style="stroke:#000000;stroke-width:11.88"/>
	<line x1="2268.90" y1="1095.66" x2="2268.90" y2="1035.18" stroke-linecap="round" style="stroke:#000000;stroke-width:11.88"/>
	<line x1="2399.58" y1="1095.66" x2="2399.58" y2="1035.18" stroke-linecap="round" style="stroke:#000000;stroke-width:11.88"/>
	<line x1="2832.84" y1="1425.24" x2="2724.12" y2="1425.24" style="stroke:#000000;stroke-width:11.88"/>
	<line x1="2724.12" y1="1455.48" x2="2724.12" y2="1395.00" stroke-linecap="round" style="stroke:#000000;stroke-width:11.88"/>
	<line x1="2832.84" y1="1455.48" x2="2832.84" y2="1395.00" stroke-linecap="round" style="stroke:#000000;stroke-width:11.88"/>
	<line x1="2300.22" y1="1785.24" x2="2185.74" y2="1785.24" style="stroke:#000000;stroke-width:11.88"/>
	<line x1="2185.74" y1="1815.48" x2="2185.74" y2="1755.00" stroke-linecap="round" style="stroke:#000000;stroke-width:11.88"/>
	<line x1="2300.22" y1="1815.48" x2="2300.22" y2="1755.00" stroke-linecap="round" style="stroke:#000000;stroke-width:11.88"/>
	<line x1="2658.78" y1="2145.06" x2="2429.82" y2="2145.06" style="stroke:#000000;stroke-width:11.88"/>
	<line x1="2429.82" y1="2175.30" x2="2429.82" y2="2114.82" stroke-linecap="round" style="stroke:#000000;stroke-width:11.88"/>
	<line x1="2658.78" y1="2175.30" x2="2658.78" y2="2114.82" stroke-linecap="round" style="stroke:#000000;stroke-width:11.88"/>
	<line x1="2613.42" y1="2504.88" x2="2404.44" y2="2504.88" style="stroke:#000000;stroke-width:11.88"/>
	<line x1="2404.44" y1="2535.12" x2="2404.44" y2="2474.64" stroke-linecap="round" style="stroke:#000000;stroke-width:11.88"/>
	<line x1="2613.42" y1="2535.12" x2="2613.42" y2="2474.64" stroke-linecap="round" style="stroke:#000000;stroke-width:11.88"/>
	<line x1="2473.74" y1="2864.88" x2="2334.24" y2="2864.88" style="stroke:#000000;stroke-width:11.88"/>
	<line x1="2334.24" y1="2895.12" x2="2334.24" y2="2834.64" stroke-linecap="round" style="stroke:#000000;stroke-width:11.88"/>
	<line x1="2473.74" y1="2895.12" x2="2473.74" y2="2834.64" stroke-linecap="round" style="stroke:#000000;stroke-width:11.88"/>
	<line x1="2587.68" y1="3224.70" x2="2364.66" y2="3224.70" style="stroke:#000000;stroke-width:11.88"/>
	<line x1="2364.66" y1="3254.94" x2="2364.66" y2="3194.46" stroke-linecap="round" style="stroke:#000000;stroke-width:11.88"/>
	<line x1="2587.68" y1="3254.94" x2="2587.68" y2="3194.46" stroke-linecap="round" style="stroke:#000000;stroke-width:11.88"/>
	<line x1="2340.72" y1="3584.52" x2="2212.38" y2="3584.52" style="stroke:#000000;stroke-width:11.88"/>
	<line x1="2212.38" y1="3614.76" x2="2212.38" y2="3554.28" stroke-linecap="round" style="stroke:#000000;stroke-width:11.88"/>
	<line x1="2340.72" y1="3614.76" x2="2340.72" y2="3554.28" stroke-linecap="round" style="stroke:#000000;stroke-width:11.88"/>
	<line x1="2685.06" y1="3944.52" x2="2490.12" y2="3944.52" style="stroke:#000000;stroke-width:11.88"/>
	<line x1="2490.12" y1="3974.76" x2="2490.12" y2="3914.28" stroke-linecap="round" style="stroke:#000000;stroke-width:11.88"/>
	<line x1="2685.06" y1="3974.76" x2="2685.06" y2="3914.28" stroke-linecap="round" style="stroke:#000000;stroke-width:11.88"/>
	<line x1="2349.18" y1="4304.34" x2="2199.06" y2="4304.34" style="stroke:#000000;stroke-width:11.88"/>
	<line x1="2199.06" y1="4334.58" x2="2199.06" y2="4274.10" stroke-linecap="round" style="stroke:#000000;stroke-width:11.88"/>
	<line x1="2349.18" y1="4334.58" x2="2349.18" y2="4274.10" stroke-linecap="round" style="stroke:#000000;stroke-width:11.88"/>
	<line x1="2410.92" y1="4664.16" x2="2342.70" y2="4664.16" style="stroke:#000000;stroke-width:11.88"/>
	<line x1="2342.70" y1="4694.40" x2="2342.70" y2="4633.92" stroke-linecap="round" style="stroke:#000000;stroke-width:11.88"/>
	<line x1="2410.92" y1="4694.40" x2="2410.92" y2="4633.92" stroke-linecap="round" style="stroke:#000000;stroke-width:11.88"/>
	<text x="324.72" y="254.62" style="font-family:'Helvetica';font-size:82.44px;fill:#6E8E84">COVID-19</text>
	<text x="324.72" y="614.44" style="font-family:'Helvetica';font-size:82.44px;fill:#6E8E84">Circulatory</text>
	<text x="324.72" y="974.44" style="font-family:'Helvetica';font-size:82.44px;fill:#6E8E84">Cancers</text>
	<text x="324.72" y="1334.26" style="font-family:'Helvetica';font-size:82.44px;fill:#6E8E84">Respiratory</text>
	<text x="324.72" y="1694.08" style="font-family:'Helvetica';font-size:82.44px;fill:#6E8E84">Digestive</text>
	<text x="324.72" y="2054.08" style="font-family:'Helvetica';font-size:82.44px;fill:#6E8E84">Mental health</text>
	<text x="324.72" y="2413.90" style="font-family:'Helvetica';font-size:82.44px;fill:#6E8E84">Nervous system</text>
	<text x="324.72" y="2773.72" style="font-family:'Helvetica';font-size:82.44px;fill:#6E8E84">Genitourinary</text>
	<text x="324.72" y="3133.72" style="font-family:'Helvetica';font-size:82.44px;fill:#6E8E84">Endocrine, nutritional and metabolic</text>
	<text x="324.72" y="3493.54" style="font-family:'Helvetica';font-size:82.44px;fill:#6E8E84">External causes</text>
	<text x="324.72" y="3853.36" style="font-family:'Helvetica';font-size:82.44px;fill:#6E8E84">Other infections</text>
	<text x="324.72" y="4213.36" style="font-family:'Helvetica';font-size:82.44px;fill:#6E8E84">Musculoskeletal</text>
	<text x="324.72" y="4573.18" style="font-family:'Helvetica';font-size:82.44px;fill:#6E8E84">Other</text>
	<line x1="179.82" y1="4871.34" x2="179.82" y2="138.60" style="stroke:#000000;stroke-width:7.92"/>
	<line x1="179.82" y1="4871.34" x2="3821.40" y2="4871.34" style="stroke:#000000;stroke-width:7.92"/>
	<line x1="2066.94" y1="4871.34" x2="2066.94" y2="4926.24" style="stroke:#000000;stroke-width:7.92"/>
	<text x="2066.94" y="5049.95" style="font-family:'Helvetica';font-size:137.52px;fill:#000000" text-anchor="middle">1</text>
	<line x1="2337.84" y1="4871.34" x2="2337.84" y2="4926.24" style="stroke:#000000;stroke-width:7.92"/>
	<text x="2337.84" y="5049.95" style="font-family:'Helvetica';font-size:137.52px;fill:#000000" text-anchor="middle">2</text>
	<line x1="2695.86" y1="4871.34" x2="2695.86" y2="4926.24" style="stroke:#000000;stroke-width:7.92"/>
	<text x="2695.86" y="5049.95" style="font-family:'Helvetica';font-size:137.52px;fill:#000000" text-anchor="middle">5</text>
	<line x1="2966.76" y1="4871.34" x2="2966.76" y2="4926.24" style="stroke:#000000;stroke-width:7.92"/>
	<text x="2966.76" y="5049.95" style="font-family:'Helvetica';font-size:137.52px;fill:#000000" text-anchor="middle">10</text>
	<line x1="3237.66" y1="4871.34" x2="3237.66" y2="4926.24" style="stroke:#000000;stroke-width:7.92"/>
	<text x="3237.66" y="5049.95" style="font-family:'Helvetica';font-size:137.52px;fill:#000000" text-anchor="middle">20</text>
	<line x1="3508.74" y1="4871.34" x2="3508.74" y2="4926.24" style="stroke:#000000;stroke-width:7.92"/>
	<text x="3508.74" y="5049.95" style="font-family:'Helvetica';font-size:137.52px;fill:#000000" text-anchor="middle">40</text>
	<text x="2000.70" y="5201.15" style="font-family:'Helvetica';font-size:137.52px;fill:#000000" text-anchor="middle">sHR and 95% CI</text>
	<rect x="707.40" y="5317.56" width="2586.42" height="256.32" style="fill:#FFFFFF"/>
	<rect x="711.36" y="5321.52" width="2578.50" height="248.40" style="fill:none;stroke:#000000;stroke-width:7.92"/>
	<circle cx="797.04" cy="5445.72" r="30.24" style="fill:none;stroke:#000000;stroke-width:11.88"/>
	<circle cx="2247.48" cy="5445.72" r="36.18" style="fill:#000000"/>
	<circle cx="2247.48" cy="5445.72" r="30.24" style="fill:none;stroke:#000000;stroke-width:11.88"/>
	<text x="909.72" y="5493.90" style="font-family:'Helvetica';font-size:137.52px;fill:#000000">Adj match factors</text>
	<text x="2360.16" y="5493.90" style="font-family:'Helvetica';font-size:137.52px;fill:#000000">Fully adjusted</text>
</svg>
