<?xml version="1.0" encoding="UTF-8" standalone="no"?>
<!-- This is a Stata 16.1 generated SVG file (http://www.stata.com) -->

<svg version="1.1" width="5.50in" height="10.00in" viewBox="0 0 3960 7200" xmlns="http://www.w3.org/2000/svg" xmlns:xlink="http://www.w3.org/1999/xlink">
	<desc>Stata Graph - Graph</desc>
	<rect x="0" y="0" width="3960" height="7200" style="fill:#EAF2F3;stroke:none"/>
	<rect x="0.00" y="0.00" width="3960.00" height="7200.00" style="fill:#EAF2F3"/>
	<rect x="3.96" y="3.96" width="3952.08" height="7192.08" style="fill:none;stroke:#EAF2F3;stroke-width:7.92"/>
	<rect x="138.60" y="138.60" width="3682.80" height="5980.27" style="fill:#FFFFFF"/>
	<rect x="142.56" y="142.56" width="3674.88" height="5972.35" style="fill:none;stroke:#FFFFFF;stroke-width:7.92"/>
	<line x1="1941.75" y1="6118.88" x2="1941.75" y2="6039.68" style="stroke:#C10534;stroke-width:11.88"/>
	<line x1="1941.75" y1="6000.07" x2="1941.75" y2="5920.88" style="stroke:#C10534;stroke-width:11.88"/>
	<line x1="1941.75" y1="5881.27" x2="1941.75" y2="5802.07" style="stroke:#C10534;stroke-width:11.88"/>
	<line x1="1941.75" y1="5762.25" x2="1941.75" y2="5683.05" style="stroke:#C10534;stroke-width:11.88"/>
	<line x1="1941.75" y1="5643.45" x2="1941.75" y2="5564.25" style="stroke:#C10534;stroke-width:11.88"/>
	<line x1="1941.75" y1="5524.65" x2="1941.75" y2="5445.45" style="stroke:#C10534;stroke-width:11.88"/>
	<line x1="1941.75" y1="5405.85" x2="1941.75" y2="5326.65" style="stroke:#C10534;stroke-width:11.88"/>
	<line x1="1941.75" y1="5286.82" x2="1941.75" y2="5207.63" style="stroke:#C10534;stroke-width:11.88"/>
	<line x1="1941.75" y1="5168.02" x2="1941.75" y2="5088.82" style="stroke:#C10534;stroke-width:11.88"/>
	<line x1="1941.75" y1="5049.23" x2="1941.75" y2="4970.02" style="stroke:#C10534;stroke-width:11.88"/>
	<line x1="1941.75" y1="4930.43" x2="1941.75" y2="4851.23" style="stroke:#C10534;stroke-width:11.88"/>
	<line x1="1941.75" y1="4811.40" x2="1941.75" y2="4732.20" style="stroke:#C10534;stroke-width:11.88"/>
	<line x1="1941.75" y1="4692.60" x2="1941.75" y2="4613.40" style="stroke:#C10534;stroke-width:11.88"/>
	<line x1="1941.75" y1="4573.80" x2="1941.75" y2="4494.60" style="stroke:#C10534;stroke-width:11.88"/>
	<line x1="1941.75" y1="4455.00" x2="1941.75" y2="4375.80" style="stroke:#C10534;stroke-width:11.88"/>
	<line x1="1941.75" y1="4335.98" x2="1941.75" y2="4256.77" style="stroke:#C10534;stroke-width:11.88"/>
	<line x1="1941.75" y1="4217.18" x2="1941.75" y2="4137.98" style="stroke:#C10534;stroke-width:11.88"/>
	<line x1="1941.75" y1="4098.38" x2="1941.75" y2="4019.18" style="stroke:#C10534;stroke-width:11.88"/>
	<line x1="1941.75" y1="3979.57" x2="1941.75" y2="3900.38" style="stroke:#C10534;stroke-width:11.88"/>
	<line x1="1941.75" y1="3860.55" x2="1941.75" y2="3781.35" style="stroke:#C10534;stroke-width:11.88"/>
	<line x1="1941.75" y1="3741.75" x2="1941.75" y2="3662.55" style="stroke:#C10534;stroke-width:11.88"/>
	<line x1="1941.75" y1="3622.95" x2="1941.75" y2="3543.75" style="stroke:#C10534;stroke-width:11.88"/>
	<line x1="1941.75" y1="3504.15" x2="1941.75" y2="3424.95" style="stroke:#C10534;stroke-width:11.88"/>
	<line x1="1941.75" y1="3385.13" x2="1941.75" y2="3305.93" style="stroke:#C10534;stroke-width:11.88"/>
	<line x1="1941.75" y1="3266.32" x2="1941.75" y2="3187.13" style="stroke:#C10534;stroke-width:11.88"/>
	<line x1="1941.75" y1="3147.53" x2="1941.75" y2="3068.32" style="stroke:#C10534;stroke-width:11.88"/>
	<line x1="1941.75" y1="3028.73" x2="1941.75" y2="2949.52" style="stroke:#C10534;stroke-width:11.88"/>
	<line x1="1941.75" y1="2909.70" x2="1941.75" y2="2830.50" style="stroke:#C10534;stroke-width:11.88"/>
	<line x1="1941.75" y1="2790.90" x2="1941.75" y2="2711.70" style="stroke:#C10534;stroke-width:11.88"/>
	<line x1="1941.75" y1="2672.10" x2="1941.75" y2="2592.90" style="stroke:#C10534;stroke-width:11.88"/>
	<line x1="1941.75" y1="2553.30" x2="1941.75" y2="2474.10" style="stroke:#C10534;stroke-width:11.88"/>
	<line x1="1941.75" y1="2434.27" x2="1941.75" y2="2355.07" style="stroke:#C10534;stroke-width:11.88"/>
	<line x1="1941.75" y1="2315.48" x2="1941.75" y2="2236.27" style="stroke:#C10534;stroke-width:11.88"/>
	<line x1="1941.75" y1="2196.68" x2="1941.75" y2="2117.48" style="stroke:#C10534;stroke-width:11.88"/>
	<line x1="1941.75" y1="2077.88" x2="1941.75" y2="1998.68" style="stroke:#C10534;stroke-width:11.88"/>
	<line x1="1941.75" y1="1958.85" x2="1941.75" y2="1879.65" style="stroke:#C10534;stroke-width:11.88"/>
	<line x1="1941.75" y1="1840.05" x2="1941.75" y2="1760.85" style="stroke:#C10534;stroke-width:11.88"/>
	<line x1="1941.75" y1="1721.25" x2="1941.75" y2="1642.05" style="stroke:#C10534;stroke-width:11.88"/>
	<line x1="1941.75" y1="1602.45" x2="1941.75" y2="1523.25" style="stroke:#C10534;stroke-width:11.88"/>
	<line x1="1941.75" y1="1483.43" x2="1941.75" y2="1404.23" style="stroke:#C10534;stroke-width:11.88"/>
	<line x1="1941.75" y1="1364.63" x2="1941.75" y2="1285.43" style="stroke:#C10534;stroke-width:11.88"/>
	<line x1="1941.75" y1="1245.82" x2="1941.75" y2="1166.63" style="stroke:#C10534;stroke-width:11.88"/>
	<line x1="1941.75" y1="1127.02" x2="1941.75" y2="1047.82" style="stroke:#C10534;stroke-width:11.88"/>
	<line x1="1941.75" y1="1008.00" x2="1941.75" y2="928.80" style="stroke:#C10534;stroke-width:11.88"/>
	<line x1="1941.75" y1="889.20" x2="1941.75" y2="810.00" style="stroke:#C10534;stroke-width:11.88"/>
	<line x1="1941.75" y1="770.40" x2="1941.75" y2="691.20" style="stroke:#C10534;stroke-width:11.88"/>
	<line x1="1941.75" y1="651.60" x2="1941.75" y2="572.40" style="stroke:#C10534;stroke-width:11.88"/>
	<line x1="1941.75" y1="532.80" x2="1941.75" y2="453.60" style="stroke:#C10534;stroke-width:11.88"/>
	<line x1="1941.75" y1="413.77" x2="1941.75" y2="334.57" style="stroke:#C10534;stroke-width:11.88"/>
	<line x1="1941.75" y1="294.98" x2="1941.75" y2="215.77" style="stroke:#C10534;stroke-width:11.88"/>
	<line x1="1941.75" y1="176.18" x2="1941.75" y2="138.60" style="stroke:#C10534;stroke-width:11.88"/>
	<circle cx="1871.78" cy="380.70" r="20.70" style="fill:none;stroke:#000000;stroke-width:11.88"/>
	<circle cx="1807.88" cy="612.90" r="20.70" style="fill:none;stroke:#000000;stroke-width:11.88"/>
	<circle cx="1968.30" cy="845.10" r="20.70" style="fill:none;stroke:#000000;stroke-width:11.88"/>
	<circle cx="2125.57" cy="1077.30" r="20.70" style="fill:none;stroke:#000000;stroke-width:11.88"/>
	<circle cx="1981.80" cy="1309.73" r="20.70" style="fill:none;stroke:#000000;stroke-width:11.88"/>
	<circle cx="1913.85" cy="1541.93" r="20.70" style="fill:none;stroke:#000000;stroke-width:11.88"/>
	<circle cx="1957.72" cy="1774.13" r="20.70" style="fill:none;stroke:#000000;stroke-width:11.88"/>
	<circle cx="1787.63" cy="2006.32" r="20.70" style="fill:none;stroke:#000000;stroke-width:11.88"/>
	<circle cx="1915.20" cy="2238.52" r="20.70" style="fill:none;stroke:#000000;stroke-width:11.88"/>
	<circle cx="1797.97" cy="2470.73" r="20.70" style="fill:none;stroke:#000000;stroke-width:11.88"/>
	<circle cx="1950.53" cy="2703.15" r="20.70" style="fill:none;stroke:#000000;stroke-width:11.88"/>
	<circle cx="1987.88" cy="2935.35" r="20.70" style="fill:none;stroke:#000000;stroke-width:11.88"/>
	<circle cx="2475.68" cy="3322.35" r="20.70" style="fill:none;stroke:#000000;stroke-width:11.88"/>
	<circle cx="2219.85" cy="3554.55" r="20.70" style="fill:none;stroke:#000000;stroke-width:11.88"/>
	<circle cx="2395.80" cy="3786.75" r="20.70" style="fill:none;stroke:#000000;stroke-width:11.88"/>
	<circle cx="2450.70" cy="4019.18" r="20.70" style="fill:none;stroke:#000000;stroke-width:11.88"/>
	<circle cx="2335.95" cy="4251.38" r="20.70" style="fill:none;stroke:#000000;stroke-width:11.88"/>
	<circle cx="2296.80" cy="4483.57" r="20.70" style="fill:none;stroke:#000000;stroke-width:11.88"/>
	<circle cx="2658.38" cy="4715.77" r="20.70" style="fill:none;stroke:#000000;stroke-width:11.88"/>
	<circle cx="2497.50" cy="4947.98" r="20.70" style="fill:none;stroke:#000000;stroke-width:11.88"/>
	<circle cx="2121.07" cy="5180.18" r="20.70" style="fill:none;stroke:#000000;stroke-width:11.88"/>
	<circle cx="1938.15" cy="5412.60" r="20.70" style="fill:none;stroke:#000000;stroke-width:11.88"/>
	<circle cx="2296.35" cy="5644.80" r="20.70" style="fill:none;stroke:#000000;stroke-width:11.88"/>
	<circle cx="2336.18" cy="5877.00" r="20.70" style="fill:none;stroke:#000000;stroke-width:11.88"/>
	<line x1="1813.72" y1="380.48" x2="1929.83" y2="380.48" style="stroke:#000000;stroke-width:7.92"/>
	<line x1="1929.83" y1="410.63" x2="1929.83" y2="350.10" stroke-linecap="round" style="stroke:#000000;stroke-width:7.92"/>
	<line x1="1813.72" y1="410.63" x2="1813.72" y2="350.10" stroke-linecap="round" style="stroke:#000000;stroke-width:7.92"/>
	<line x1="1760.17" y1="612.68" x2="1855.80" y2="612.68" style="stroke:#000000;stroke-width:7.92"/>
	<line x1="1855.80" y1="642.82" x2="1855.80" y2="582.30" stroke-linecap="round" style="stroke:#000000;stroke-width:7.92"/>
	<line x1="1760.17" y1="642.82" x2="1760.17" y2="582.30" stroke-linecap="round" style="stroke:#000000;stroke-width:7.92"/>
	<line x1="1881.22" y1="845.10" x2="2055.82" y2="845.10" style="stroke:#000000;stroke-width:7.92"/>
	<line x1="2055.82" y1="875.25" x2="2055.82" y2="814.73" stroke-linecap="round" style="stroke:#000000;stroke-width:7.92"/>
	<line x1="1881.22" y1="875.25" x2="1881.22" y2="814.73" stroke-linecap="round" style="stroke:#000000;stroke-width:7.92"/>
	<line x1="2025.67" y1="1077.30" x2="2225.70" y2="1077.30" style="stroke:#000000;stroke-width:7.92"/>
	<line x1="2225.70" y1="1107.45" x2="2225.70" y2="1046.93" stroke-linecap="round" style="stroke:#000000;stroke-width:7.92"/>
	<line x1="2025.67" y1="1107.45" x2="2025.67" y2="1046.93" stroke-linecap="round" style="stroke:#000000;stroke-width:7.92"/>
	<line x1="1900.58" y1="1309.50" x2="2063.47" y2="1309.50" style="stroke:#000000;stroke-width:7.92"/>
	<line x1="2063.47" y1="1339.65" x2="2063.47" y2="1279.13" stroke-linecap="round" style="stroke:#000000;stroke-width:7.92"/>
	<line x1="1900.58" y1="1339.65" x2="1900.58" y2="1279.13" stroke-linecap="round" style="stroke:#000000;stroke-width:7.92"/>
	<line x1="1874.25" y1="1541.70" x2="1953.45" y2="1541.70" style="stroke:#000000;stroke-width:7.92"/>
	<line x1="1953.45" y1="1571.85" x2="1953.45" y2="1511.32" stroke-linecap="round" style="stroke:#000000;stroke-width:7.92"/>
	<line x1="1874.25" y1="1571.85" x2="1874.25" y2="1511.32" stroke-linecap="round" style="stroke:#000000;stroke-width:7.92"/>
	<line x1="1918.35" y1="1773.90" x2="1997.33" y2="1773.90" style="stroke:#000000;stroke-width:7.92"/>
	<line x1="1997.33" y1="1804.05" x2="1997.33" y2="1743.52" stroke-linecap="round" style="stroke:#000000;stroke-width:7.92"/>
	<line x1="1918.35" y1="1804.05" x2="1918.35" y2="1743.52" stroke-linecap="round" style="stroke:#000000;stroke-width:7.92"/>
	<line x1="1745.10" y1="2006.32" x2="1830.38" y2="2006.32" style="stroke:#000000;stroke-width:7.92"/>
	<line x1="1830.38" y1="2036.48" x2="1830.38" y2="1975.95" stroke-linecap="round" style="stroke:#000000;stroke-width:7.92"/>
	<line x1="1745.10" y1="2036.48" x2="1745.10" y2="1975.95" stroke-linecap="round" style="stroke:#000000;stroke-width:7.92"/>
	<line x1="1870.88" y1="2238.52" x2="1959.75" y2="2238.52" style="stroke:#000000;stroke-width:7.92"/>
	<line x1="1959.75" y1="2268.68" x2="1959.75" y2="2208.15" stroke-linecap="round" style="stroke:#000000;stroke-width:7.92"/>
	<line x1="1870.88" y1="2268.68" x2="1870.88" y2="2208.15" stroke-linecap="round" style="stroke:#000000;stroke-width:7.92"/>
	<line x1="1712.70" y1="2470.73" x2="1883.47" y2="2470.73" style="stroke:#000000;stroke-width:7.92"/>
	<line x1="1883.47" y1="2500.88" x2="1883.47" y2="2440.35" stroke-linecap="round" style="stroke:#000000;stroke-width:7.92"/>
	<line x1="1712.70" y1="2500.88" x2="1712.70" y2="2440.35" stroke-linecap="round" style="stroke:#000000;stroke-width:7.92"/>
	<line x1="1897.88" y1="2702.93" x2="2003.63" y2="2702.93" style="stroke:#000000;stroke-width:7.92"/>
	<line x1="2003.63" y1="2733.07" x2="2003.63" y2="2672.55" stroke-linecap="round" style="stroke:#000000;stroke-width:7.92"/>
	<line x1="1897.88" y1="2733.07" x2="1897.88" y2="2672.55" stroke-linecap="round" style="stroke:#000000;stroke-width:7.92"/>
	<line x1="1924.20" y1="2935.13" x2="2051.78" y2="2935.13" style="stroke:#000000;stroke-width:7.92"/>
	<line x1="2051.78" y1="2965.27" x2="2051.78" y2="2904.75" stroke-linecap="round" style="stroke:#000000;stroke-width:7.92"/>
	<line x1="1924.20" y1="2965.27" x2="1924.20" y2="2904.75" stroke-linecap="round" style="stroke:#000000;stroke-width:7.92"/>
	<line x1="2424.82" y1="3322.35" x2="2526.97" y2="3322.35" style="stroke:#000000;stroke-width:7.92"/>
	<line x1="2526.97" y1="3352.50" x2="2526.97" y2="3291.97" stroke-linecap="round" style="stroke:#000000;stroke-width:7.92"/>
	<line x1="2424.82" y1="3352.50" x2="2424.82" y2="3291.97" stroke-linecap="round" style="stroke:#000000;stroke-width:7.92"/>
	<line x1="2183.18" y1="3554.55" x2="2256.75" y2="3554.55" style="stroke:#000000;stroke-width:7.92"/>
	<line x1="2256.75" y1="3584.70" x2="2256.75" y2="3524.18" stroke-linecap="round" style="stroke:#000000;stroke-width:7.92"/>
	<line x1="2183.18" y1="3584.70" x2="2183.18" y2="3524.18" stroke-linecap="round" style="stroke:#000000;stroke-width:7.92"/>
	<line x1="2329.65" y1="3786.75" x2="2462.18" y2="3786.75" style="stroke:#000000;stroke-width:7.92"/>
	<line x1="2462.18" y1="3816.90" x2="2462.18" y2="3756.38" stroke-linecap="round" style="stroke:#000000;stroke-width:7.92"/>
	<line x1="2329.65" y1="3816.90" x2="2329.65" y2="3756.38" stroke-linecap="round" style="stroke:#000000;stroke-width:7.92"/>
	<line x1="2386.57" y1="4018.95" x2="2514.82" y2="4018.95" style="stroke:#000000;stroke-width:7.92"/>
	<line x1="2514.82" y1="4049.10" x2="2514.82" y2="3988.57" stroke-linecap="round" style="stroke:#000000;stroke-width:7.92"/>
	<line x1="2386.57" y1="4049.10" x2="2386.57" y2="3988.57" stroke-linecap="round" style="stroke:#000000;stroke-width:7.92"/>
	<line x1="2276.32" y1="4251.15" x2="2395.57" y2="4251.15" style="stroke:#000000;stroke-width:7.92"/>
	<line x1="2395.57" y1="4281.30" x2="2395.57" y2="4220.77" stroke-linecap="round" style="stroke:#000000;stroke-width:7.92"/>
	<line x1="2276.32" y1="4281.30" x2="2276.32" y2="4220.77" stroke-linecap="round" style="stroke:#000000;stroke-width:7.92"/>
	<line x1="2267.78" y1="4483.35" x2="2326.05" y2="4483.35" style="stroke:#000000;stroke-width:7.92"/>
	<line x1="2326.05" y1="4513.50" x2="2326.05" y2="4452.98" stroke-linecap="round" style="stroke:#000000;stroke-width:7.92"/>
	<line x1="2267.78" y1="4513.50" x2="2267.78" y2="4452.98" stroke-linecap="round" style="stroke:#000000;stroke-width:7.92"/>
	<line x1="2621.03" y1="4715.77" x2="2695.95" y2="4715.77" style="stroke:#000000;stroke-width:7.92"/>
	<line x1="2695.95" y1="4745.93" x2="2695.95" y2="4685.40" stroke-linecap="round" style="stroke:#000000;stroke-width:7.92"/>
	<line x1="2621.03" y1="4745.93" x2="2621.03" y2="4685.40" stroke-linecap="round" style="stroke:#000000;stroke-width:7.92"/>
	<line x1="2456.55" y1="4947.98" x2="2538.90" y2="4947.98" style="stroke:#000000;stroke-width:7.92"/>
	<line x1="2538.90" y1="4978.13" x2="2538.90" y2="4917.60" stroke-linecap="round" style="stroke:#000000;stroke-width:7.92"/>
	<line x1="2456.55" y1="4978.13" x2="2456.55" y2="4917.60" stroke-linecap="round" style="stroke:#000000;stroke-width:7.92"/>
	<line x1="2090.25" y1="5180.18" x2="2152.13" y2="5180.18" style="stroke:#000000;stroke-width:7.92"/>
	<line x1="2152.13" y1="5210.32" x2="2152.13" y2="5149.80" stroke-linecap="round" style="stroke:#000000;stroke-width:7.92"/>
	<line x1="2090.25" y1="5210.32" x2="2090.25" y2="5149.80" stroke-linecap="round" style="stroke:#000000;stroke-width:7.92"/>
	<line x1="1875.83" y1="5412.38" x2="2000.70" y2="5412.38" style="stroke:#000000;stroke-width:7.92"/>
	<line x1="2000.70" y1="5442.52" x2="2000.70" y2="5382.00" stroke-linecap="round" style="stroke:#000000;stroke-width:7.92"/>
	<line x1="1875.83" y1="5442.52" x2="1875.83" y2="5382.00" stroke-linecap="round" style="stroke:#000000;stroke-width:7.92"/>
	<line x1="2258.55" y1="5644.57" x2="2334.15" y2="5644.57" style="stroke:#000000;stroke-width:7.92"/>
	<line x1="2334.15" y1="5674.73" x2="2334.15" y2="5614.20" stroke-linecap="round" style="stroke:#000000;stroke-width:7.92"/>
	<line x1="2258.55" y1="5674.73" x2="2258.55" y2="5614.20" stroke-linecap="round" style="stroke:#000000;stroke-width:7.92"/>
	<line x1="2290.72" y1="5876.77" x2="2381.63" y2="5876.77" style="stroke:#000000;stroke-width:7.92"/>
	<line x1="2381.63" y1="5906.93" x2="2381.63" y2="5846.40" stroke-linecap="round" style="stroke:#000000;stroke-width:7.92"/>
	<line x1="2290.72" y1="5906.93" x2="2290.72" y2="5846.40" stroke-linecap="round" style="stroke:#000000;stroke-width:7.92"/>
	<circle cx="1878.08" cy="458.10" r="26.64" style="fill:#000000"/>
	<circle cx="1878.08" cy="458.10" r="20.70" style="fill:none;stroke:#000000;stroke-width:11.88"/>
	<circle cx="1849.50" cy="690.30" r="26.64" style="fill:#000000"/>
	<circle cx="1849.50" cy="690.30" r="20.70" style="fill:none;stroke:#000000;stroke-width:11.88"/>
	<circle cx="2004.08" cy="922.50" r="26.64" style="fill:#000000"/>
	<circle cx="2004.08" cy="922.50" r="20.70" style="fill:none;stroke:#000000;stroke-width:11.88"/>
	<circle cx="2118.82" cy="1154.70" r="26.64" style="fill:#000000"/>
	<circle cx="2118.82" cy="1154.70" r="20.70" style="fill:none;stroke:#000000;stroke-width:11.88"/>
	<circle cx="1995.75" cy="1387.13" r="26.64" style="fill:#000000"/>
	<circle cx="1995.75" cy="1387.13" r="20.70" style="fill:none;stroke:#000000;stroke-width:11.88"/>
	<circle cx="1926.67" cy="1619.32" r="26.64" style="fill:#000000"/>
	<circle cx="1926.67" cy="1619.32" r="20.70" style="fill:none;stroke:#000000;stroke-width:11.88"/>
	<circle cx="1983.83" cy="1851.52" r="26.64" style="fill:#000000"/>
	<circle cx="1983.83" cy="1851.52" r="20.70" style="fill:none;stroke:#000000;stroke-width:11.88"/>
	<circle cx="1868.40" cy="2083.73" r="26.64" style="fill:#000000"/>
	<circle cx="1868.40" cy="2083.73" r="20.70" style="fill:none;stroke:#000000;stroke-width:11.88"/>
	<circle cx="1919.70" cy="2315.93" r="26.64" style="fill:#000000"/>
	<circle cx="1919.70" cy="2315.93" r="20.70" style="fill:none;stroke:#000000;stroke-width:11.88"/>
	<circle cx="1810.58" cy="2548.13" r="26.64" style="fill:#000000"/>
	<circle cx="1810.58" cy="2548.13" r="20.70" style="fill:none;stroke:#000000;stroke-width:11.88"/>
	<circle cx="1967.17" cy="2780.55" r="26.64" style="fill:#000000"/>
	<circle cx="1967.17" cy="2780.55" r="20.70" style="fill:none;stroke:#000000;stroke-width:11.88"/>
	<circle cx="2004.75" cy="3012.75" r="26.64" style="fill:#000000"/>
	<circle cx="2004.75" cy="3012.75" r="20.70" style="fill:none;stroke:#000000;stroke-width:11.88"/>
	<circle cx="2374.65" cy="3399.75" r="26.64" style="fill:#000000"/>
	<circle cx="2374.65" cy="3399.75" r="20.70" style="fill:none;stroke:#000000;stroke-width:11.88"/>
	<circle cx="2148.53" cy="3631.95" r="26.64" style="fill:#000000"/>
	<circle cx="2148.53" cy="3631.95" r="20.70" style="fill:none;stroke:#000000;stroke-width:11.88"/>
	<circle cx="2222.55" cy="3864.15" r="26.64" style="fill:#000000"/>
	<circle cx="2222.55" cy="3864.15" r="20.70" style="fill:none;stroke:#000000;stroke-width:11.88"/>
	<circle cx="2448.68" cy="4096.57" r="26.64" style="fill:#000000"/>
	<circle cx="2448.68" cy="4096.57" r="20.70" style="fill:none;stroke:#000000;stroke-width:11.88"/>
	<circle cx="2334.38" cy="4328.77" r="26.64" style="fill:#000000"/>
	<circle cx="2334.38" cy="4328.77" r="20.70" style="fill:none;stroke:#000000;stroke-width:11.88"/>
	<circle cx="2253.38" cy="4560.98" r="26.64" style="fill:#000000"/>
	<circle cx="2253.38" cy="4560.98" r="20.70" style="fill:none;stroke:#000000;stroke-width:11.88"/>
	<circle cx="2615.18" cy="4793.18" r="26.64" style="fill:#000000"/>
	<circle cx="2615.18" cy="4793.18" r="20.70" style="fill:none;stroke:#000000;stroke-width:11.88"/>
	<circle cx="2399.63" cy="5025.38" r="26.64" style="fill:#000000"/>
	<circle cx="2399.63" cy="5025.38" r="20.70" style="fill:none;stroke:#000000;stroke-width:11.88"/>
	<circle cx="2073.60" cy="5257.57" r="26.64" style="fill:#000000"/>
	<circle cx="2073.60" cy="5257.57" r="20.70" style="fill:none;stroke:#000000;stroke-width:11.88"/>
	<circle cx="1908.90" cy="5490.00" r="26.64" style="fill:#000000"/>
	<circle cx="1908.90" cy="5490.00" r="20.70" style="fill:none;stroke:#000000;stroke-width:11.88"/>
	<circle cx="2217.38" cy="5722.20" r="26.64" style="fill:#000000"/>
	<circle cx="2217.38" cy="5722.20" r="20.70" style="fill:none;stroke:#000000;stroke-width:11.88"/>
	<circle cx="2272.95" cy="5954.40" r="26.64" style="fill:#000000"/>
	<circle cx="2272.95" cy="5954.40" r="20.70" style="fill:none;stroke:#000000;stroke-width:11.88"/>
	<line x1="1807.88" y1="457.88" x2="1948.50" y2="457.88" style="stroke:#000000;stroke-width:7.92"/>
	<line x1="1948.50" y1="488.02" x2="1948.50" y2="427.50" stroke-linecap="round" style="stroke:#000000;stroke-width:7.92"/>
	<line x1="1807.88" y1="488.02" x2="1807.88" y2="427.50" stroke-linecap="round" style="stroke:#000000;stroke-width:7.92"/>
	<line x1="1791.00" y1="690.30" x2="1908.45" y2="690.30" style="stroke:#000000;stroke-width:7.92"/>
	<line x1="1908.45" y1="720.45" x2="1908.45" y2="659.93" stroke-linecap="round" style="stroke:#000000;stroke-width:7.92"/>
	<line x1="1791.00" y1="720.45" x2="1791.00" y2="659.93" stroke-linecap="round" style="stroke:#000000;stroke-width:7.92"/>
	<line x1="1892.25" y1="922.50" x2="2116.13" y2="922.50" style="stroke:#000000;stroke-width:7.92"/>
	<line x1="2116.13" y1="952.65" x2="2116.13" y2="892.13" stroke-linecap="round" style="stroke:#000000;stroke-width:7.92"/>
	<line x1="1892.25" y1="952.65" x2="1892.25" y2="892.13" stroke-linecap="round" style="stroke:#000000;stroke-width:7.92"/>
	<line x1="1999.13" y1="1154.70" x2="2238.75" y2="1154.70" style="stroke:#000000;stroke-width:7.92"/>
	<line x1="2238.75" y1="1184.85" x2="2238.75" y2="1124.32" stroke-linecap="round" style="stroke:#000000;stroke-width:7.92"/>
	<line x1="1999.13" y1="1184.85" x2="1999.13" y2="1124.32" stroke-linecap="round" style="stroke:#000000;stroke-width:7.92"/>
	<line x1="1897.42" y1="1386.90" x2="2094.30" y2="1386.90" style="stroke:#000000;stroke-width:7.92"/>
	<line x1="2094.30" y1="1417.05" x2="2094.30" y2="1356.52" stroke-linecap="round" style="stroke:#000000;stroke-width:7.92"/>
	<line x1="1897.42" y1="1417.05" x2="1897.42" y2="1356.52" stroke-linecap="round" style="stroke:#000000;stroke-width:7.92"/>
	<line x1="1879.88" y1="1619.10" x2="1973.92" y2="1619.10" style="stroke:#000000;stroke-width:7.92"/>
	<line x1="1973.92" y1="1649.25" x2="1973.92" y2="1588.73" stroke-linecap="round" style="stroke:#000000;stroke-width:7.92"/>
	<line x1="1879.88" y1="1649.25" x2="1879.88" y2="1588.73" stroke-linecap="round" style="stroke:#000000;stroke-width:7.92"/>
	<line x1="1937.25" y1="1851.30" x2="2030.85" y2="1851.30" style="stroke:#000000;stroke-width:7.92"/>
	<line x1="2030.85" y1="1881.45" x2="2030.85" y2="1820.93" stroke-linecap="round" style="stroke:#000000;stroke-width:7.92"/>
	<line x1="1937.25" y1="1881.45" x2="1937.25" y2="1820.93" stroke-linecap="round" style="stroke:#000000;stroke-width:7.92"/>
	<line x1="1817.55" y1="2083.73" x2="1919.70" y2="2083.73" style="stroke:#000000;stroke-width:7.92"/>
	<line x1="1919.70" y1="2113.88" x2="1919.70" y2="2053.35" stroke-linecap="round" style="stroke:#000000;stroke-width:7.92"/>
	<line x1="1817.55" y1="2113.88" x2="1817.55" y2="2053.35" stroke-linecap="round" style="stroke:#000000;stroke-width:7.92"/>
	<line x1="1867.28" y1="2315.93" x2="1972.35" y2="2315.93" style="stroke:#000000;stroke-width:7.92"/>
	<line x1="1972.35" y1="2346.07" x2="1972.35" y2="2285.55" stroke-linecap="round" style="stroke:#000000;stroke-width:7.92"/>
	<line x1="1867.28" y1="2346.07" x2="1867.28" y2="2285.55" stroke-linecap="round" style="stroke:#000000;stroke-width:7.92"/>
	<line x1="1711.35" y1="2548.13" x2="1909.80" y2="2548.13" style="stroke:#000000;stroke-width:7.92"/>
	<line x1="1909.80" y1="2578.27" x2="1909.80" y2="2517.75" stroke-linecap="round" style="stroke:#000000;stroke-width:7.92"/>
	<line x1="1711.35" y1="2578.27" x2="1711.35" y2="2517.75" stroke-linecap="round" style="stroke:#000000;stroke-width:7.92"/>
	<line x1="1903.72" y1="2780.32" x2="2030.63" y2="2780.32" style="stroke:#000000;stroke-width:7.92"/>
	<line x1="2030.63" y1="2810.48" x2="2030.63" y2="2749.95" stroke-linecap="round" style="stroke:#000000;stroke-width:7.92"/>
	<line x1="1903.72" y1="2810.48" x2="1903.72" y2="2749.95" stroke-linecap="round" style="stroke:#000000;stroke-width:7.92"/>
	<line x1="1928.92" y1="3012.52" x2="2080.80" y2="3012.52" style="stroke:#000000;stroke-width:7.92"/>
	<line x1="2080.80" y1="3042.68" x2="2080.80" y2="2982.15" stroke-linecap="round" style="stroke:#000000;stroke-width:7.92"/>
	<line x1="1928.92" y1="3042.68" x2="1928.92" y2="2982.15" stroke-linecap="round" style="stroke:#000000;stroke-width:7.92"/>
	<line x1="2299.50" y1="3399.75" x2="2450.25" y2="3399.75" style="stroke:#000000;stroke-width:7.92"/>
	<line x1="2450.25" y1="3429.90" x2="2450.25" y2="3369.38" stroke-linecap="round" style="stroke:#000000;stroke-width:7.92"/>
	<line x1="2299.50" y1="3429.90" x2="2299.50" y2="3369.38" stroke-linecap="round" style="stroke:#000000;stroke-width:7.92"/>
	<line x1="2081.93" y1="3631.95" x2="2215.35" y2="3631.95" style="stroke:#000000;stroke-width:7.92"/>
	<line x1="2215.35" y1="3662.10" x2="2215.35" y2="3601.57" stroke-linecap="round" style="stroke:#000000;stroke-width:7.92"/>
	<line x1="2081.93" y1="3662.10" x2="2081.93" y2="3601.57" stroke-linecap="round" style="stroke:#000000;stroke-width:7.92"/>
	<line x1="2119.05" y1="3864.15" x2="2326.50" y2="3864.15" style="stroke:#000000;stroke-width:7.92"/>
	<line x1="2326.50" y1="3894.30" x2="2326.50" y2="3833.78" stroke-linecap="round" style="stroke:#000000;stroke-width:7.92"/>
	<line x1="2119.05" y1="3894.30" x2="2119.05" y2="3833.78" stroke-linecap="round" style="stroke:#000000;stroke-width:7.92"/>
	<line x1="2352.82" y1="4096.35" x2="2544.75" y2="4096.35" style="stroke:#000000;stroke-width:7.92"/>
	<line x1="2544.75" y1="4126.50" x2="2544.75" y2="4065.97" stroke-linecap="round" style="stroke:#000000;stroke-width:7.92"/>
	<line x1="2352.82" y1="4126.50" x2="2352.82" y2="4065.97" stroke-linecap="round" style="stroke:#000000;stroke-width:7.92"/>
	<line x1="2243.03" y1="4328.55" x2="2425.95" y2="4328.55" style="stroke:#000000;stroke-width:7.92"/>
	<line x1="2425.95" y1="4358.70" x2="2425.95" y2="4298.18" stroke-linecap="round" style="stroke:#000000;stroke-width:7.92"/>
	<line x1="2243.03" y1="4358.70" x2="2243.03" y2="4298.18" stroke-linecap="round" style="stroke:#000000;stroke-width:7.92"/>
	<line x1="2214.22" y1="4560.75" x2="2292.75" y2="4560.75" style="stroke:#000000;stroke-width:7.92"/>
	<line x1="2292.75" y1="4590.90" x2="2292.75" y2="4530.38" stroke-linecap="round" style="stroke:#000000;stroke-width:7.92"/>
	<line x1="2214.22" y1="4590.90" x2="2214.22" y2="4530.38" stroke-linecap="round" style="stroke:#000000;stroke-width:7.92"/>
	<line x1="2561.18" y1="4793.18" x2="2669.40" y2="4793.18" style="stroke:#000000;stroke-width:7.92"/>
	<line x1="2669.40" y1="4823.32" x2="2669.40" y2="4762.80" stroke-linecap="round" style="stroke:#000000;stroke-width:7.92"/>
	<line x1="2561.18" y1="4823.32" x2="2561.18" y2="4762.80" stroke-linecap="round" style="stroke:#000000;stroke-width:7.92"/>
	<line x1="2335.95" y1="5025.38" x2="2463.75" y2="5025.38" style="stroke:#000000;stroke-width:7.92"/>
	<line x1="2463.75" y1="5055.52" x2="2463.75" y2="4995.00" stroke-linecap="round" style="stroke:#000000;stroke-width:7.92"/>
	<line x1="2335.95" y1="5055.52" x2="2335.95" y2="4995.00" stroke-linecap="round" style="stroke:#000000;stroke-width:7.92"/>
	<line x1="2033.55" y1="5257.57" x2="2114.10" y2="5257.57" style="stroke:#000000;stroke-width:7.92"/>
	<line x1="2114.10" y1="5287.73" x2="2114.10" y2="5227.20" stroke-linecap="round" style="stroke:#000000;stroke-width:7.92"/>
	<line x1="2033.55" y1="5287.73" x2="2033.55" y2="5227.20" stroke-linecap="round" style="stroke:#000000;stroke-width:7.92"/>
	<line x1="1829.92" y1="5489.77" x2="1988.33" y2="5489.77" style="stroke:#000000;stroke-width:7.92"/>
	<line x1="1988.33" y1="5519.93" x2="1988.33" y2="5459.40" stroke-linecap="round" style="stroke:#000000;stroke-width:7.92"/>
	<line x1="1829.92" y1="5519.93" x2="1829.92" y2="5459.40" stroke-linecap="round" style="stroke:#000000;stroke-width:7.92"/>
	<line x1="2164.72" y1="5721.98" x2="2270.03" y2="5721.98" style="stroke:#000000;stroke-width:7.92"/>
	<line x1="2270.03" y1="5752.13" x2="2270.03" y2="5691.60" stroke-linecap="round" style="stroke:#000000;stroke-width:7.92"/>
	<line x1="2164.72" y1="5752.13" x2="2164.72" y2="5691.60" stroke-linecap="round" style="stroke:#000000;stroke-width:7.92"/>
	<line x1="2207.70" y1="5954.40" x2="2338.43" y2="5954.40" style="stroke:#000000;stroke-width:7.92"/>
	<line x1="2338.43" y1="5984.55" x2="2338.43" y2="5924.02" stroke-linecap="round" style="stroke:#000000;stroke-width:7.92"/>
	<line x1="2207.70" y1="5984.55" x2="2207.70" y2="5924.02" stroke-linecap="round" style="stroke:#000000;stroke-width:7.92"/>
	<text x="3056.40" y="409.43" style="font-family:'Helvetica';font-size:82.58px;fill:#000000">0.80 (0.66-0.96)</text>
	<text x="3056.40" y="486.83" style="font-family:'Helvetica';font-size:82.58px;fill:#000000">0.82 (0.65-1.02)</text>
	<text x="3056.40" y="641.63" style="font-family:'Helvetica';font-size:82.58px;fill:#000000">0.65 (0.56-0.76)</text>
	<text x="3056.40" y="719.26" style="font-family:'Helvetica';font-size:82.58px;fill:#000000">0.74 (0.62-0.90)</text>
	<text x="3056.40" y="874.06" style="font-family:'Helvetica';font-size:82.58px;fill:#000000">1.09 (0.82-1.44)</text>
	<text x="3056.40" y="951.46" style="font-family:'Helvetica';font-size:82.58px;fill:#000000">1.22 (0.85-1.75)</text>
	<text x="3056.40" y="1106.26" style="font-family:'Helvetica';font-size:82.58px;fill:#000000">1.81 (1.31-2.49)</text>
	<text x="3056.40" y="1183.66" style="font-family:'Helvetica';font-size:82.58px;fill:#000000">1.77 (1.20-2.60)</text>
	<text x="3056.40" y="1338.46" style="font-family:'Helvetica';font-size:82.58px;fill:#000000">1.14 (0.88-1.48)</text>
	<text x="3056.40" y="1415.86" style="font-family:'Helvetica';font-size:82.58px;fill:#000000">1.19 (0.87-1.63)</text>
	<text x="3056.40" y="1570.66" style="font-family:'Helvetica';font-size:82.58px;fill:#000000">0.91 (0.81-1.04)</text>
	<text x="3056.40" y="1648.06" style="font-family:'Helvetica';font-size:82.58px;fill:#000000">0.95 (0.82-1.11)</text>
	<text x="3056.40" y="1802.86" style="font-family:'Helvetica';font-size:82.58px;fill:#000000">1.05 (0.93-1.20)</text>
	<text x="3056.40" y="1880.26" style="font-family:'Helvetica';font-size:82.58px;fill:#000000">1.15 (0.99-1.33)</text>
	<text x="3056.40" y="2035.28" style="font-family:'Helvetica';font-size:82.58px;fill:#000000">0.61 (0.53-0.70)</text>
	<text x="3056.40" y="2112.68" style="font-family:'Helvetica';font-size:82.58px;fill:#000000">0.79 (0.67-0.93)</text>
	<text x="3056.40" y="2267.48" style="font-family:'Helvetica';font-size:82.58px;fill:#000000">0.92 (0.80-1.06)</text>
	<text x="3056.40" y="2344.88" style="font-family:'Helvetica';font-size:82.58px;fill:#000000">0.93 (0.79-1.10)</text>
	<text x="3056.40" y="2499.68" style="font-family:'Helvetica';font-size:82.58px;fill:#000000">0.63 (0.48-0.83)</text>
	<text x="3056.40" y="2577.08" style="font-family:'Helvetica';font-size:82.58px;fill:#000000">0.66 (0.48-0.90)</text>
	<text x="3056.40" y="2731.88" style="font-family:'Helvetica';font-size:82.58px;fill:#000000">1.03 (0.87-1.22)</text>
	<text x="3056.40" y="2809.28" style="font-family:'Helvetica';font-size:82.58px;fill:#000000">1.09 (0.89-1.33)</text>
	<text x="3056.40" y="2964.08" style="font-family:'Helvetica';font-size:82.58px;fill:#000000">1.16 (0.95-1.43)</text>
	<text x="3056.40" y="3041.48" style="font-family:'Helvetica';font-size:82.58px;fill:#000000">1.23 (0.96-1.56)</text>
	<text x="3056.40" y="3351.31" style="font-family:'Helvetica';font-size:82.58px;fill:#000000">5.58 (4.73-6.58)</text>
	<text x="3056.40" y="3428.71" style="font-family:'Helvetica';font-size:82.58px;fill:#000000">4.03 (3.16-5.14)</text>
	<text x="3056.40" y="3583.51" style="font-family:'Helvetica';font-size:82.58px;fill:#000000">2.45 (2.18-2.76)</text>
	<text x="3056.40" y="3660.91" style="font-family:'Helvetica';font-size:82.58px;fill:#000000">1.95 (1.57-2.41)</text>
	<text x="3056.40" y="3815.71" style="font-family:'Helvetica';font-size:82.58px;fill:#000000">4.31 (3.48-5.34)</text>
	<text x="3056.40" y="3893.11" style="font-family:'Helvetica';font-size:82.58px;fill:#000000">2.47 (1.77-3.45)</text>
	<text x="3056.40" y="4047.91" style="font-family:'Helvetica';font-size:82.58px;fill:#000000">5.15 (4.19-6.33)</text>
	<text x="3056.40" y="4125.31" style="font-family:'Helvetica';font-size:82.58px;fill:#000000">5.11 (3.76-6.96)</text>
	<text x="3056.40" y="4280.11" style="font-family:'Helvetica';font-size:82.58px;fill:#000000">3.56 (2.94-4.31)</text>
	<text x="3056.40" y="4357.51" style="font-family:'Helvetica';font-size:82.58px;fill:#000000">3.54 (2.64-4.75)</text>
	<text x="3056.40" y="4512.31" style="font-family:'Helvetica';font-size:82.58px;fill:#000000">3.14 (2.86-3.44)</text>
	<text x="3056.40" y="4589.71" style="font-family:'Helvetica';font-size:82.58px;fill:#000000">2.73 (2.40-3.10)</text>
	<text x="3056.40" y="4744.73" style="font-family:'Helvetica';font-size:82.58px;fill:#000000">10.04 (8.90-11.33)</text>
	<text x="3056.40" y="4822.13" style="font-family:'Helvetica';font-size:82.58px;fill:#000000">8.74 (7.34-10.40)</text>
	<text x="3056.40" y="4976.93" style="font-family:'Helvetica';font-size:82.58px;fill:#000000">5.98 (5.24-6.83)</text>
	<text x="3056.40" y="5054.33" style="font-family:'Helvetica';font-size:82.58px;fill:#000000">4.37 (3.56-5.37)</text>
	<text x="3056.40" y="5209.13" style="font-family:'Helvetica';font-size:82.58px;fill:#000000">1.78 (1.61-1.97)</text>
	<text x="3056.40" y="5286.53" style="font-family:'Helvetica';font-size:82.58px;fill:#000000">1.53 (1.34-1.74)</text>
	<text x="3056.40" y="5441.33" style="font-family:'Helvetica';font-size:82.58px;fill:#000000">0.99 (0.81-1.21)</text>
	<text x="3056.40" y="5518.73" style="font-family:'Helvetica';font-size:82.58px;fill:#000000">0.90 (0.70-1.16)</text>
	<text x="3056.40" y="5673.53" style="font-family:'Helvetica';font-size:82.58px;fill:#000000">3.13 (2.77-3.54)</text>
	<text x="3056.40" y="5750.93" style="font-family:'Helvetica';font-size:82.58px;fill:#000000">2.43 (2.05-2.88)</text>
	<text x="3056.40" y="5905.73" style="font-family:'Helvetica';font-size:82.58px;fill:#000000">3.56 (3.08-4.12)</text>
	<text x="3056.40" y="5983.36" style="font-family:'Helvetica';font-size:82.58px;fill:#000000">2.90 (2.35-3.58)</text>
	<text x="352.80" y="409.43" style="font-family:'Helvetica';font-size:82.58px;fill:#707070">Other infections (A)</text>
	<text x="352.80" y="641.63" style="font-family:'Helvetica';font-size:82.58px;fill:#707070">Cancers (C ex C44)</text>
	<text x="352.80" y="874.06" style="font-family:'Helvetica';font-size:82.58px;fill:#707070">Endocrine, nutritional and metabolic (E)</text>
	<text x="352.80" y="1106.26" style="font-family:'Helvetica';font-size:82.58px;fill:#707070">Mental and behavioural (F/X60-84)</text>
	<text x="352.80" y="1338.46" style="font-family:'Helvetica';font-size:82.58px;fill:#707070">Nervous system (G)</text>
	<text x="352.80" y="1570.66" style="font-family:'Helvetica';font-size:82.58px;fill:#707070">Circulatory (I)</text>
	<text x="352.80" y="1802.86" style="font-family:'Helvetica';font-size:82.58px;fill:#707070">COVID/Flu/LRTI (J09-22, U071-072)</text>
	<text x="352.80" y="2035.28" style="font-family:'Helvetica';font-size:82.58px;fill:#707070">Other respiratory (J23-99)</text>
	<text x="352.80" y="2267.48" style="font-family:'Helvetica';font-size:82.58px;fill:#707070">Digestive (K)</text>
	<text x="352.80" y="2499.68" style="font-family:'Helvetica';font-size:82.58px;fill:#707070">Musculoskeletal (M)</text>
	<text x="352.80" y="2731.88" style="font-family:'Helvetica';font-size:82.58px;fill:#707070">Genitourinary (N)</text>
	<text x="352.80" y="2964.08" style="font-family:'Helvetica';font-size:82.58px;fill:#707070">External causes (S-Y except U/X60-84)</text>
	<text x="352.80" y="3351.31" style="font-family:'Helvetica';font-size:82.58px;fill:#707070">Other infections (A)</text>
	<text x="352.80" y="3583.51" style="font-family:'Helvetica';font-size:82.58px;fill:#707070">Cancers (C ex C44)</text>
	<text x="352.80" y="3815.71" style="font-family:'Helvetica';font-size:82.58px;fill:#707070">Endocrine, nutritional and metabolic (E)</text>
	<text x="352.80" y="4047.91" style="font-family:'Helvetica';font-size:82.58px;fill:#707070">Mental and behavioural (F/X60-84)</text>
	<text x="352.80" y="4280.11" style="font-family:'Helvetica';font-size:82.58px;fill:#707070">Nervous system (G)</text>
	<text x="352.80" y="4512.31" style="font-family:'Helvetica';font-size:82.58px;fill:#707070">Circulatory (I)</text>
	<text x="352.80" y="4744.73" style="font-family:'Helvetica';font-size:82.58px;fill:#707070">COVID/Flu/LRTI (J09-22, U071-072)</text>
	<text x="352.80" y="4976.93" style="font-family:'Helvetica';font-size:82.58px;fill:#707070">Other respiratory (J23-99)</text>
	<text x="352.80" y="5209.13" style="font-family:'Helvetica';font-size:82.58px;fill:#707070">Digestive (K)</text>
	<text x="352.80" y="5441.33" style="font-family:'Helvetica';font-size:82.58px;fill:#707070">Musculoskeletal (M)</text>
	<text x="352.80" y="5673.53" style="font-family:'Helvetica';font-size:82.58px;fill:#707070">Genitourinary (N)</text>
	<text x="352.80" y="5905.73" style="font-family:'Helvetica';font-size:82.58px;fill:#707070">External causes (S-Y except U/X60-84)</text>
	<text x="570.38" y="264.24" style="font-family:'Helvetica';font-size:110.03px;fill:#000000" text-anchor="middle">vs flu controls</text>
	<text x="1122.08" y="3205.89" style="font-family:'Helvetica';font-size:110.03px;fill:#000000" text-anchor="middle">vs 2019 general population controls</text>
	<text x="3344.85" y="254.63" style="font-family:'Helvetica';font-size:82.58px;fill:#000000" text-anchor="middle">HR and 95% CI</text>
	<line x1="138.60" y1="6118.88" x2="3821.40" y2="6118.88" style="stroke:#000000;stroke-width:7.92"/>
	<line x1="1726.20" y1="6118.88" x2="1726.20" y2="6173.77" style="stroke:#000000;stroke-width:7.92"/>
	<text x="1726.20" y="6297.35" style="font-family:'Helvetica';font-size:137.47px;fill:#000000" text-anchor="middle">.5</text>
	<line x1="1941.75" y1="6118.88" x2="1941.75" y2="6173.77" style="stroke:#000000;stroke-width:7.92"/>
	<text x="1941.75" y="6297.35" style="font-family:'Helvetica';font-size:137.47px;fill:#000000" text-anchor="middle">1</text>
	<line x1="2157.07" y1="6118.88" x2="2157.07" y2="6173.77" style="stroke:#000000;stroke-width:7.92"/>
	<text x="2157.07" y="6297.35" style="font-family:'Helvetica';font-size:137.47px;fill:#000000" text-anchor="middle">2</text>
	<line x1="2441.70" y1="6118.88" x2="2441.70" y2="6173.77" style="stroke:#000000;stroke-width:7.92"/>
	<text x="2441.70" y="6297.35" style="font-family:'Helvetica';font-size:137.47px;fill:#000000" text-anchor="middle">5</text>
	<line x1="2657.25" y1="6118.88" x2="2657.25" y2="6173.77" style="stroke:#000000;stroke-width:7.92"/>
	<text x="2657.25" y="6297.35" style="font-family:'Helvetica';font-size:137.47px;fill:#000000" text-anchor="middle">10</text>
	<line x1="2872.57" y1="6118.88" x2="2872.57" y2="6173.77" style="stroke:#000000;stroke-width:7.92"/>
	<text x="2872.57" y="6297.35" style="font-family:'Helvetica';font-size:137.47px;fill:#000000" text-anchor="middle">20</text>
	<text x="1980.00" y="6448.77" style="font-family:'Helvetica';font-size:137.47px;fill:#000000" text-anchor="middle">Subdistribution HR and 95% CI</text>
	<rect x="930.38" y="6565.05" width="2099.25" height="448.88" style="fill:#FFFFFF"/>
	<rect x="934.34" y="6569.01" width="2091.33" height="440.95" style="fill:none;stroke:#000000;stroke-width:7.92"/>
	<circle cx="1010.25" cy="6693.30" r="20.70" style="fill:none;stroke:#000000;stroke-width:11.88"/>
	<circle cx="1010.25" cy="6885.68" r="26.64" style="fill:#000000"/>
	<circle cx="1010.25" cy="6885.68" r="20.70" style="fill:none;stroke:#000000;stroke-width:11.88"/>
	<text x="1113.53" y="6741.47" style="font-family:'Helvetica';font-size:137.47px;fill:#000000">Adjusted for matching factors</text>
	<text x="1113.53" y="6933.85" style="font-family:'Helvetica';font-size:137.47px;fill:#000000">Fully adjusted</text>
</svg>
