<?xml version="1.0" encoding="UTF-8" standalone="no"?>
<!-- This is a Stata 16.1 generated SVG file (http://www.stata.com) -->

<svg version="1.1" width="5.50in" height="10.00in" viewBox="0 0 3960 7200" xmlns="http://www.w3.org/2000/svg" xmlns:xlink="http://www.w3.org/1999/xlink">
	<desc>Stata Graph - Graph</desc>
	<rect x="0" y="0" width="3960" height="7200" style="fill:#EAF2F3;stroke:none"/>
	<rect x="0.00" y="0.00" width="3960.00" height="7200.00" style="fill:#EAF2F3"/>
	<rect x="3.96" y="3.96" width="3952.08" height="7192.08" style="fill:none;stroke:#EAF2F3;stroke-width:7.92"/>
	<rect x="138.60" y="138.60" width="3682.80" height="5980.27" style="fill:#FFFFFF"/>
	<rect x="142.56" y="142.56" width="3674.88" height="5972.35" style="fill:none;stroke:#FFFFFF;stroke-width:7.92"/>
	<line x1="1941.75" y1="6118.88" x2="1941.75" y2="6039.68" style="stroke:#C10534;stroke-width:11.88"/>
	<line x1="1941.75" y1="6000.07" x2="1941.75" y2="5920.88" style="stroke:#C10534;stroke-width:11.88"/>
	<line x1="1941.75" y1="5881.27" x2="1941.75" y2="5802.07" style="stroke:#C10534;stroke-width:11.88"/>
	<line x1="1941.75" y1="5762.25" x2="1941.75" y2="5683.05" style="stroke:#C10534;stroke-width:11.88"/>
	<line x1="1941.75" y1="5643.45" x2="1941.75" y2="5564.25" style="stroke:#C10534;stroke-width:11.88"/>
	<line x1="1941.75" y1="5524.65" x2="1941.75" y2="5445.45" style="stroke:#C10534;stroke-width:11.88"/>
	<line x1="1941.75" y1="5405.85" x2="1941.75" y2="5326.65" style="stroke:#C10534;stroke-width:11.88"/>
	<line x1="1941.75" y1="5286.82" x2="1941.75" y2="5207.62" style="stroke:#C10534;stroke-width:11.88"/>
	<line x1="1941.75" y1="5168.02" x2="1941.75" y2="5088.82" style="stroke:#C10534;stroke-width:11.88"/>
	<line x1="1941.75" y1="5049.23" x2="1941.75" y2="4970.02" style="stroke:#C10534;stroke-width:11.88"/>
	<line x1="1941.75" y1="4930.43" x2="1941.75" y2="4851.23" style="stroke:#C10534;stroke-width:11.88"/>
	<line x1="1941.75" y1="4811.40" x2="1941.75" y2="4732.20" style="stroke:#C10534;stroke-width:11.88"/>
	<line x1="1941.75" y1="4692.60" x2="1941.75" y2="4613.40" style="stroke:#C10534;stroke-width:11.88"/>
	<line x1="1941.75" y1="4573.80" x2="1941.75" y2="4494.60" style="stroke:#C10534;stroke-width:11.88"/>
	<line x1="1941.75" y1="4455.00" x2="1941.75" y2="4375.80" style="stroke:#C10534;stroke-width:11.88"/>
	<line x1="1941.75" y1="4335.98" x2="1941.75" y2="4256.77" style="stroke:#C10534;stroke-width:11.88"/>
	<line x1="1941.75" y1="4217.18" x2="1941.75" y2="4137.98" style="stroke:#C10534;stroke-width:11.88"/>
	<line x1="1941.75" y1="4098.38" x2="1941.75" y2="4019.18" style="stroke:#C10534;stroke-width:11.88"/>
	<line x1="1941.75" y1="3979.57" x2="1941.75" y2="3900.38" style="stroke:#C10534;stroke-width:11.88"/>
	<line x1="1941.75" y1="3860.55" x2="1941.75" y2="3781.35" style="stroke:#C10534;stroke-width:11.88"/>
	<line x1="1941.75" y1="3741.75" x2="1941.75" y2="3662.55" style="stroke:#C10534;stroke-width:11.88"/>
	<line x1="1941.75" y1="3622.95" x2="1941.75" y2="3543.75" style="stroke:#C10534;stroke-width:11.88"/>
	<line x1="1941.75" y1="3504.15" x2="1941.75" y2="3424.95" style="stroke:#C10534;stroke-width:11.88"/>
	<line x1="1941.75" y1="3385.12" x2="1941.75" y2="3305.93" style="stroke:#C10534;stroke-width:11.88"/>
	<line x1="1941.75" y1="3266.32" x2="1941.75" y2="3187.12" style="stroke:#C10534;stroke-width:11.88"/>
	<line x1="1941.75" y1="3147.53" x2="1941.75" y2="3068.32" style="stroke:#C10534;stroke-width:11.88"/>
	<line x1="1941.75" y1="3028.73" x2="1941.75" y2="2949.52" style="stroke:#C10534;stroke-width:11.88"/>
	<line x1="1941.75" y1="2909.70" x2="1941.75" y2="2830.50" style="stroke:#C10534;stroke-width:11.88"/>
	<line x1="1941.75" y1="2790.90" x2="1941.75" y2="2711.70" style="stroke:#C10534;stroke-width:11.88"/>
	<line x1="1941.75" y1="2672.10" x2="1941.75" y2="2592.90" style="stroke:#C10534;stroke-width:11.88"/>
	<line x1="1941.75" y1="2553.30" x2="1941.75" y2="2474.10" style="stroke:#C10534;stroke-width:11.88"/>
	<line x1="1941.75" y1="2434.27" x2="1941.75" y2="2355.07" style="stroke:#C10534;stroke-width:11.88"/>
	<line x1="1941.75" y1="2315.48" x2="1941.75" y2="2236.27" style="stroke:#C10534;stroke-width:11.88"/>
	<line x1="1941.75" y1="2196.68" x2="1941.75" y2="2117.48" style="stroke:#C10534;stroke-width:11.88"/>
	<line x1="1941.75" y1="2077.88" x2="1941.75" y2="1998.68" style="stroke:#C10534;stroke-width:11.88"/>
	<line x1="1941.75" y1="1958.85" x2="1941.75" y2="1879.65" style="stroke:#C10534;stroke-width:11.88"/>
	<line x1="1941.75" y1="1840.05" x2="1941.75" y2="1760.85" style="stroke:#C10534;stroke-width:11.88"/>
	<line x1="1941.75" y1="1721.25" x2="1941.75" y2="1642.05" style="stroke:#C10534;stroke-width:11.88"/>
	<line x1="1941.75" y1="1602.45" x2="1941.75" y2="1523.25" style="stroke:#C10534;stroke-width:11.88"/>
	<line x1="1941.75" y1="1483.43" x2="1941.75" y2="1404.23" style="stroke:#C10534;stroke-width:11.88"/>
	<line x1="1941.75" y1="1364.62" x2="1941.75" y2="1285.43" style="stroke:#C10534;stroke-width:11.88"/>
	<line x1="1941.75" y1="1245.82" x2="1941.75" y2="1166.62" style="stroke:#C10534;stroke-width:11.88"/>
	<line x1="1941.75" y1="1127.02" x2="1941.75" y2="1047.82" style="stroke:#C10534;stroke-width:11.88"/>
	<line x1="1941.75" y1="1008.00" x2="1941.75" y2="928.80" style="stroke:#C10534;stroke-width:11.88"/>
	<line x1="1941.75" y1="889.20" x2="1941.75" y2="810.00" style="stroke:#C10534;stroke-width:11.88"/>
	<line x1="1941.75" y1="770.40" x2="1941.75" y2="691.20" style="stroke:#C10534;stroke-width:11.88"/>
	<line x1="1941.75" y1="651.60" x2="1941.75" y2="572.40" style="stroke:#C10534;stroke-width:11.88"/>
	<line x1="1941.75" y1="532.80" x2="1941.75" y2="453.60" style="stroke:#C10534;stroke-width:11.88"/>
	<line x1="1941.75" y1="413.77" x2="1941.75" y2="334.57" style="stroke:#C10534;stroke-width:11.88"/>
	<line x1="1941.75" y1="294.98" x2="1941.75" y2="215.77" style="stroke:#C10534;stroke-width:11.88"/>
	<line x1="1941.75" y1="176.18" x2="1941.75" y2="138.60" style="stroke:#C10534;stroke-width:11.88"/>
	<circle cx="1874.70" cy="380.70" r="20.70" style="fill:none;stroke:#000000;stroke-width:11.88"/>
	<circle cx="1809.22" cy="612.90" r="20.70" style="fill:none;stroke:#000000;stroke-width:11.88"/>
	<circle cx="1964.70" cy="845.10" r="20.70" style="fill:none;stroke:#000000;stroke-width:11.88"/>
	<circle cx="2118.38" cy="1077.30" r="20.70" style="fill:none;stroke:#000000;stroke-width:11.88"/>
	<circle cx="1982.92" cy="1309.73" r="20.70" style="fill:none;stroke:#000000;stroke-width:11.88"/>
	<circle cx="1913.40" cy="1541.93" r="20.70" style="fill:none;stroke:#000000;stroke-width:11.88"/>
	<circle cx="1959.08" cy="1774.12" r="20.70" style="fill:none;stroke:#000000;stroke-width:11.88"/>
	<circle cx="1785.83" cy="2006.32" r="20.70" style="fill:none;stroke:#000000;stroke-width:11.88"/>
	<circle cx="1918.58" cy="2238.52" r="20.70" style="fill:none;stroke:#000000;stroke-width:11.88"/>
	<circle cx="1798.20" cy="2470.73" r="20.70" style="fill:none;stroke:#000000;stroke-width:11.88"/>
	<circle cx="1946.03" cy="2703.15" r="20.70" style="fill:none;stroke:#000000;stroke-width:11.88"/>
	<circle cx="1980.45" cy="2935.35" r="20.70" style="fill:none;stroke:#000000;stroke-width:11.88"/>
	<circle cx="2478.15" cy="3322.35" r="20.70" style="fill:none;stroke:#000000;stroke-width:11.88"/>
	<circle cx="2219.62" cy="3554.55" r="20.70" style="fill:none;stroke:#000000;stroke-width:11.88"/>
	<circle cx="2396.70" cy="3786.75" r="20.70" style="fill:none;stroke:#000000;stroke-width:11.88"/>
	<circle cx="2448.68" cy="4019.18" r="20.70" style="fill:none;stroke:#000000;stroke-width:11.88"/>
	<circle cx="2343.82" cy="4251.38" r="20.70" style="fill:none;stroke:#000000;stroke-width:11.88"/>
	<circle cx="2294.78" cy="4483.57" r="20.70" style="fill:none;stroke:#000000;stroke-width:11.88"/>
	<circle cx="2656.80" cy="4715.77" r="20.70" style="fill:none;stroke:#000000;stroke-width:11.88"/>
	<circle cx="2493.45" cy="4947.98" r="20.70" style="fill:none;stroke:#000000;stroke-width:11.88"/>
	<circle cx="2122.43" cy="5180.18" r="20.70" style="fill:none;stroke:#000000;stroke-width:11.88"/>
	<circle cx="1934.78" cy="5412.60" r="20.70" style="fill:none;stroke:#000000;stroke-width:11.88"/>
	<circle cx="2293.20" cy="5644.80" r="20.70" style="fill:none;stroke:#000000;stroke-width:11.88"/>
	<circle cx="2332.12" cy="5877.00" r="20.70" style="fill:none;stroke:#000000;stroke-width:11.88"/>
	<line x1="1816.88" y1="380.48" x2="1932.53" y2="380.48" style="stroke:#000000;stroke-width:7.92"/>
	<line x1="1932.53" y1="410.62" x2="1932.53" y2="350.10" stroke-linecap="round" style="stroke:#000000;stroke-width:7.92"/>
	<line x1="1816.88" y1="410.62" x2="1816.88" y2="350.10" stroke-linecap="round" style="stroke:#000000;stroke-width:7.92"/>
	<line x1="1761.97" y1="612.68" x2="1856.70" y2="612.68" style="stroke:#000000;stroke-width:7.92"/>
	<line x1="1856.70" y1="642.82" x2="1856.70" y2="582.30" stroke-linecap="round" style="stroke:#000000;stroke-width:7.92"/>
	<line x1="1761.97" y1="642.82" x2="1761.97" y2="582.30" stroke-linecap="round" style="stroke:#000000;stroke-width:7.92"/>
	<line x1="1878.08" y1="845.10" x2="2051.55" y2="845.10" style="stroke:#000000;stroke-width:7.92"/>
	<line x1="2051.55" y1="875.25" x2="2051.55" y2="814.73" stroke-linecap="round" style="stroke:#000000;stroke-width:7.92"/>
	<line x1="1878.08" y1="875.25" x2="1878.08" y2="814.73" stroke-linecap="round" style="stroke:#000000;stroke-width:7.92"/>
	<line x1="2020.95" y1="1077.30" x2="2215.80" y2="1077.30" style="stroke:#000000;stroke-width:7.92"/>
	<line x1="2215.80" y1="1107.45" x2="2215.80" y2="1046.93" stroke-linecap="round" style="stroke:#000000;stroke-width:7.92"/>
	<line x1="2020.95" y1="1107.45" x2="2020.95" y2="1046.93" stroke-linecap="round" style="stroke:#000000;stroke-width:7.92"/>
	<line x1="1902.38" y1="1309.50" x2="2063.93" y2="1309.50" style="stroke:#000000;stroke-width:7.92"/>
	<line x1="2063.93" y1="1339.65" x2="2063.93" y2="1279.12" stroke-linecap="round" style="stroke:#000000;stroke-width:7.92"/>
	<line x1="1902.38" y1="1339.65" x2="1902.38" y2="1279.12" stroke-linecap="round" style="stroke:#000000;stroke-width:7.92"/>
	<line x1="1874.03" y1="1541.70" x2="1952.78" y2="1541.70" style="stroke:#000000;stroke-width:7.92"/>
	<line x1="1952.78" y1="1571.85" x2="1952.78" y2="1511.32" stroke-linecap="round" style="stroke:#000000;stroke-width:7.92"/>
	<line x1="1874.03" y1="1571.85" x2="1874.03" y2="1511.32" stroke-linecap="round" style="stroke:#000000;stroke-width:7.92"/>
	<line x1="1919.92" y1="1773.90" x2="1998.45" y2="1773.90" style="stroke:#000000;stroke-width:7.92"/>
	<line x1="1998.45" y1="1804.05" x2="1998.45" y2="1743.52" stroke-linecap="round" style="stroke:#000000;stroke-width:7.92"/>
	<line x1="1919.92" y1="1804.05" x2="1919.92" y2="1743.52" stroke-linecap="round" style="stroke:#000000;stroke-width:7.92"/>
	<line x1="1743.53" y1="2006.32" x2="1828.35" y2="2006.32" style="stroke:#000000;stroke-width:7.92"/>
	<line x1="1828.35" y1="2036.48" x2="1828.35" y2="1975.95" stroke-linecap="round" style="stroke:#000000;stroke-width:7.92"/>
	<line x1="1743.53" y1="2036.48" x2="1743.53" y2="1975.95" stroke-linecap="round" style="stroke:#000000;stroke-width:7.92"/>
	<line x1="1874.47" y1="2238.52" x2="1962.90" y2="2238.52" style="stroke:#000000;stroke-width:7.92"/>
	<line x1="1962.90" y1="2268.68" x2="1962.90" y2="2208.15" stroke-linecap="round" style="stroke:#000000;stroke-width:7.92"/>
	<line x1="1874.47" y1="2268.68" x2="1874.47" y2="2208.15" stroke-linecap="round" style="stroke:#000000;stroke-width:7.92"/>
	<line x1="1713.15" y1="2470.73" x2="1883.70" y2="2470.73" style="stroke:#000000;stroke-width:7.92"/>
	<line x1="1883.70" y1="2500.88" x2="1883.70" y2="2440.35" stroke-linecap="round" style="stroke:#000000;stroke-width:7.92"/>
	<line x1="1713.15" y1="2500.88" x2="1713.15" y2="2440.35" stroke-linecap="round" style="stroke:#000000;stroke-width:7.92"/>
	<line x1="1893.60" y1="2702.93" x2="1998.90" y2="2702.93" style="stroke:#000000;stroke-width:7.92"/>
	<line x1="1998.90" y1="2733.07" x2="1998.90" y2="2672.55" stroke-linecap="round" style="stroke:#000000;stroke-width:7.92"/>
	<line x1="1893.60" y1="2733.07" x2="1893.60" y2="2672.55" stroke-linecap="round" style="stroke:#000000;stroke-width:7.92"/>
	<line x1="1917.45" y1="2935.12" x2="2043.67" y2="2935.12" style="stroke:#000000;stroke-width:7.92"/>
	<line x1="2043.67" y1="2965.27" x2="2043.67" y2="2904.75" stroke-linecap="round" style="stroke:#000000;stroke-width:7.92"/>
	<line x1="1917.45" y1="2965.27" x2="1917.45" y2="2904.75" stroke-linecap="round" style="stroke:#000000;stroke-width:7.92"/>
	<line x1="2427.53" y1="3322.35" x2="2529.00" y2="3322.35" style="stroke:#000000;stroke-width:7.92"/>
	<line x1="2529.00" y1="3352.50" x2="2529.00" y2="3291.97" stroke-linecap="round" style="stroke:#000000;stroke-width:7.92"/>
	<line x1="2427.53" y1="3352.50" x2="2427.53" y2="3291.97" stroke-linecap="round" style="stroke:#000000;stroke-width:7.92"/>
	<line x1="2183.40" y1="3554.55" x2="2256.07" y2="3554.55" style="stroke:#000000;stroke-width:7.92"/>
	<line x1="2256.07" y1="3584.70" x2="2256.07" y2="3524.18" stroke-linecap="round" style="stroke:#000000;stroke-width:7.92"/>
	<line x1="2183.40" y1="3584.70" x2="2183.40" y2="3524.18" stroke-linecap="round" style="stroke:#000000;stroke-width:7.92"/>
	<line x1="2330.78" y1="3786.75" x2="2462.85" y2="3786.75" style="stroke:#000000;stroke-width:7.92"/>
	<line x1="2462.85" y1="3816.90" x2="2462.85" y2="3756.38" stroke-linecap="round" style="stroke:#000000;stroke-width:7.92"/>
	<line x1="2330.78" y1="3816.90" x2="2330.78" y2="3756.38" stroke-linecap="round" style="stroke:#000000;stroke-width:7.92"/>
	<line x1="2386.12" y1="4018.95" x2="2511.68" y2="4018.95" style="stroke:#000000;stroke-width:7.92"/>
	<line x1="2511.68" y1="4049.10" x2="2511.68" y2="3988.57" stroke-linecap="round" style="stroke:#000000;stroke-width:7.92"/>
	<line x1="2386.12" y1="4049.10" x2="2386.12" y2="3988.57" stroke-linecap="round" style="stroke:#000000;stroke-width:7.92"/>
	<line x1="2284.88" y1="4251.15" x2="2403.22" y2="4251.15" style="stroke:#000000;stroke-width:7.92"/>
	<line x1="2403.22" y1="4281.30" x2="2403.22" y2="4220.77" stroke-linecap="round" style="stroke:#000000;stroke-width:7.92"/>
	<line x1="2284.88" y1="4281.30" x2="2284.88" y2="4220.77" stroke-linecap="round" style="stroke:#000000;stroke-width:7.92"/>
	<line x1="2265.97" y1="4483.35" x2="2323.80" y2="4483.35" style="stroke:#000000;stroke-width:7.92"/>
	<line x1="2323.80" y1="4513.50" x2="2323.80" y2="4452.98" stroke-linecap="round" style="stroke:#000000;stroke-width:7.92"/>
	<line x1="2265.97" y1="4513.50" x2="2265.97" y2="4452.98" stroke-linecap="round" style="stroke:#000000;stroke-width:7.92"/>
	<line x1="2619.68" y1="4715.77" x2="2693.93" y2="4715.77" style="stroke:#000000;stroke-width:7.92"/>
	<line x1="2693.93" y1="4745.93" x2="2693.93" y2="4685.40" stroke-linecap="round" style="stroke:#000000;stroke-width:7.92"/>
	<line x1="2619.68" y1="4745.93" x2="2619.68" y2="4685.40" stroke-linecap="round" style="stroke:#000000;stroke-width:7.92"/>
	<line x1="2452.72" y1="4947.98" x2="2534.18" y2="4947.98" style="stroke:#000000;stroke-width:7.92"/>
	<line x1="2534.18" y1="4978.12" x2="2534.18" y2="4917.60" stroke-linecap="round" style="stroke:#000000;stroke-width:7.92"/>
	<line x1="2452.72" y1="4978.12" x2="2452.72" y2="4917.60" stroke-linecap="round" style="stroke:#000000;stroke-width:7.92"/>
	<line x1="2091.82" y1="5180.18" x2="2153.25" y2="5180.18" style="stroke:#000000;stroke-width:7.92"/>
	<line x1="2153.25" y1="5210.32" x2="2153.25" y2="5149.80" stroke-linecap="round" style="stroke:#000000;stroke-width:7.92"/>
	<line x1="2091.82" y1="5210.32" x2="2091.82" y2="5149.80" stroke-linecap="round" style="stroke:#000000;stroke-width:7.92"/>
	<line x1="1872.67" y1="5412.38" x2="1997.10" y2="5412.38" style="stroke:#000000;stroke-width:7.92"/>
	<line x1="1997.10" y1="5442.52" x2="1997.10" y2="5382.00" stroke-linecap="round" style="stroke:#000000;stroke-width:7.92"/>
	<line x1="1872.67" y1="5442.52" x2="1872.67" y2="5382.00" stroke-linecap="round" style="stroke:#000000;stroke-width:7.92"/>
	<line x1="2255.62" y1="5644.57" x2="2331.00" y2="5644.57" style="stroke:#000000;stroke-width:7.92"/>
	<line x1="2331.00" y1="5674.73" x2="2331.00" y2="5614.20" stroke-linecap="round" style="stroke:#000000;stroke-width:7.92"/>
	<line x1="2255.62" y1="5674.73" x2="2255.62" y2="5614.20" stroke-linecap="round" style="stroke:#000000;stroke-width:7.92"/>
	<line x1="2287.12" y1="5876.77" x2="2377.35" y2="5876.77" style="stroke:#000000;stroke-width:7.92"/>
	<line x1="2377.35" y1="5906.93" x2="2377.35" y2="5846.40" stroke-linecap="round" style="stroke:#000000;stroke-width:7.92"/>
	<line x1="2287.12" y1="5906.93" x2="2287.12" y2="5846.40" stroke-linecap="round" style="stroke:#000000;stroke-width:7.92"/>
	<circle cx="1882.58" cy="458.10" r="26.64" style="fill:#000000"/>
	<circle cx="1882.58" cy="458.10" r="20.70" style="fill:none;stroke:#000000;stroke-width:11.88"/>
	<circle cx="1845.00" cy="690.30" r="26.64" style="fill:#000000"/>
	<circle cx="1845.00" cy="690.30" r="20.70" style="fill:none;stroke:#000000;stroke-width:11.88"/>
	<circle cx="1997.55" cy="922.50" r="26.64" style="fill:#000000"/>
	<circle cx="1997.55" cy="922.50" r="20.70" style="fill:none;stroke:#000000;stroke-width:11.88"/>
	<circle cx="2115.68" cy="1154.70" r="26.64" style="fill:#000000"/>
	<circle cx="2115.68" cy="1154.70" r="20.70" style="fill:none;stroke:#000000;stroke-width:11.88"/>
	<circle cx="2000.92" cy="1387.12" r="26.64" style="fill:#000000"/>
	<circle cx="2000.92" cy="1387.12" r="20.70" style="fill:none;stroke:#000000;stroke-width:11.88"/>
	<circle cx="1925.33" cy="1619.32" r="26.64" style="fill:#000000"/>
	<circle cx="1925.33" cy="1619.32" r="20.70" style="fill:none;stroke:#000000;stroke-width:11.88"/>
	<circle cx="1984.05" cy="1851.52" r="26.64" style="fill:#000000"/>
	<circle cx="1984.05" cy="1851.52" r="20.70" style="fill:none;stroke:#000000;stroke-width:11.88"/>
	<circle cx="1864.80" cy="2083.73" r="26.64" style="fill:#000000"/>
	<circle cx="1864.80" cy="2083.73" r="20.70" style="fill:none;stroke:#000000;stroke-width:11.88"/>
	<circle cx="1923.97" cy="2315.93" r="26.64" style="fill:#000000"/>
	<circle cx="1923.97" cy="2315.93" r="20.70" style="fill:none;stroke:#000000;stroke-width:11.88"/>
	<circle cx="1812.15" cy="2548.12" r="26.64" style="fill:#000000"/>
	<circle cx="1812.15" cy="2548.12" r="20.70" style="fill:none;stroke:#000000;stroke-width:11.88"/>
	<circle cx="1960.88" cy="2780.55" r="26.64" style="fill:#000000"/>
	<circle cx="1960.88" cy="2780.55" r="20.70" style="fill:none;stroke:#000000;stroke-width:11.88"/>
	<circle cx="2002.95" cy="3012.75" r="26.64" style="fill:#000000"/>
	<circle cx="2002.95" cy="3012.75" r="20.70" style="fill:none;stroke:#000000;stroke-width:11.88"/>
	<circle cx="2385.68" cy="3399.75" r="26.64" style="fill:#000000"/>
	<circle cx="2385.68" cy="3399.75" r="20.70" style="fill:none;stroke:#000000;stroke-width:11.88"/>
	<circle cx="2145.38" cy="3631.95" r="26.64" style="fill:#000000"/>
	<circle cx="2145.38" cy="3631.95" r="20.70" style="fill:none;stroke:#000000;stroke-width:11.88"/>
	<circle cx="2232.90" cy="3864.15" r="26.64" style="fill:#000000"/>
	<circle cx="2232.90" cy="3864.15" r="20.70" style="fill:none;stroke:#000000;stroke-width:11.88"/>
	<circle cx="2437.65" cy="4096.57" r="26.64" style="fill:#000000"/>
	<circle cx="2437.65" cy="4096.57" r="20.70" style="fill:none;stroke:#000000;stroke-width:11.88"/>
	<circle cx="2340.68" cy="4328.77" r="26.64" style="fill:#000000"/>
	<circle cx="2340.68" cy="4328.77" r="20.70" style="fill:none;stroke:#000000;stroke-width:11.88"/>
	<circle cx="2251.12" cy="4560.98" r="26.64" style="fill:#000000"/>
	<circle cx="2251.12" cy="4560.98" r="20.70" style="fill:none;stroke:#000000;stroke-width:11.88"/>
	<circle cx="2616.75" cy="4793.18" r="26.64" style="fill:#000000"/>
	<circle cx="2616.75" cy="4793.18" r="20.70" style="fill:none;stroke:#000000;stroke-width:11.88"/>
	<circle cx="2399.18" cy="5025.38" r="26.64" style="fill:#000000"/>
	<circle cx="2399.18" cy="5025.38" r="20.70" style="fill:none;stroke:#000000;stroke-width:11.88"/>
	<circle cx="2074.95" cy="5257.57" r="26.64" style="fill:#000000"/>
	<circle cx="2074.95" cy="5257.57" r="20.70" style="fill:none;stroke:#000000;stroke-width:11.88"/>
	<circle cx="1905.08" cy="5490.00" r="26.64" style="fill:#000000"/>
	<circle cx="1905.08" cy="5490.00" r="20.70" style="fill:none;stroke:#000000;stroke-width:11.88"/>
	<circle cx="2215.57" cy="5722.20" r="26.64" style="fill:#000000"/>
	<circle cx="2215.57" cy="5722.20" r="20.70" style="fill:none;stroke:#000000;stroke-width:11.88"/>
	<circle cx="2269.57" cy="5954.40" r="26.64" style="fill:#000000"/>
	<circle cx="2269.57" cy="5954.40" r="20.70" style="fill:none;stroke:#000000;stroke-width:11.88"/>
	<line x1="1812.83" y1="457.88" x2="1952.55" y2="457.88" style="stroke:#000000;stroke-width:7.92"/>
	<line x1="1952.55" y1="488.02" x2="1952.55" y2="427.50" stroke-linecap="round" style="stroke:#000000;stroke-width:7.92"/>
	<line x1="1812.83" y1="488.02" x2="1812.83" y2="427.50" stroke-linecap="round" style="stroke:#000000;stroke-width:7.92"/>
	<line x1="1786.95" y1="690.30" x2="1903.50" y2="690.30" style="stroke:#000000;stroke-width:7.92"/>
	<line x1="1903.50" y1="720.45" x2="1903.50" y2="659.93" stroke-linecap="round" style="stroke:#000000;stroke-width:7.92"/>
	<line x1="1786.95" y1="720.45" x2="1786.95" y2="659.93" stroke-linecap="round" style="stroke:#000000;stroke-width:7.92"/>
	<line x1="1886.85" y1="922.50" x2="2108.47" y2="922.50" style="stroke:#000000;stroke-width:7.92"/>
	<line x1="2108.47" y1="952.65" x2="2108.47" y2="892.12" stroke-linecap="round" style="stroke:#000000;stroke-width:7.92"/>
	<line x1="1886.85" y1="952.65" x2="1886.85" y2="892.12" stroke-linecap="round" style="stroke:#000000;stroke-width:7.92"/>
	<line x1="1998.90" y1="1154.70" x2="2232.68" y2="1154.70" style="stroke:#000000;stroke-width:7.92"/>
	<line x1="2232.68" y1="1184.85" x2="2232.68" y2="1124.32" stroke-linecap="round" style="stroke:#000000;stroke-width:7.92"/>
	<line x1="1998.90" y1="1184.85" x2="1998.90" y2="1124.32" stroke-linecap="round" style="stroke:#000000;stroke-width:7.92"/>
	<line x1="1903.05" y1="1386.90" x2="2099.03" y2="1386.90" style="stroke:#000000;stroke-width:7.92"/>
	<line x1="2099.03" y1="1417.05" x2="2099.03" y2="1356.52" stroke-linecap="round" style="stroke:#000000;stroke-width:7.92"/>
	<line x1="1903.05" y1="1417.05" x2="1903.05" y2="1356.52" stroke-linecap="round" style="stroke:#000000;stroke-width:7.92"/>
	<line x1="1878.75" y1="1619.10" x2="1972.12" y2="1619.10" style="stroke:#000000;stroke-width:7.92"/>
	<line x1="1972.12" y1="1649.25" x2="1972.12" y2="1588.73" stroke-linecap="round" style="stroke:#000000;stroke-width:7.92"/>
	<line x1="1878.75" y1="1649.25" x2="1878.75" y2="1588.73" stroke-linecap="round" style="stroke:#000000;stroke-width:7.92"/>
	<line x1="1937.70" y1="1851.30" x2="2030.85" y2="1851.30" style="stroke:#000000;stroke-width:7.92"/>
	<line x1="2030.85" y1="1881.45" x2="2030.85" y2="1820.93" stroke-linecap="round" style="stroke:#000000;stroke-width:7.92"/>
	<line x1="1937.70" y1="1881.45" x2="1937.70" y2="1820.93" stroke-linecap="round" style="stroke:#000000;stroke-width:7.92"/>
	<line x1="1813.95" y1="2083.73" x2="1915.88" y2="2083.73" style="stroke:#000000;stroke-width:7.92"/>
	<line x1="1915.88" y1="2113.88" x2="1915.88" y2="2053.35" stroke-linecap="round" style="stroke:#000000;stroke-width:7.92"/>
	<line x1="1813.95" y1="2113.88" x2="1813.95" y2="2053.35" stroke-linecap="round" style="stroke:#000000;stroke-width:7.92"/>
	<line x1="1871.78" y1="2315.93" x2="1976.40" y2="2315.93" style="stroke:#000000;stroke-width:7.92"/>
	<line x1="1976.40" y1="2346.07" x2="1976.40" y2="2285.55" stroke-linecap="round" style="stroke:#000000;stroke-width:7.92"/>
	<line x1="1871.78" y1="2346.07" x2="1871.78" y2="2285.55" stroke-linecap="round" style="stroke:#000000;stroke-width:7.92"/>
	<line x1="1713.38" y1="2548.12" x2="1911.15" y2="2548.12" style="stroke:#000000;stroke-width:7.92"/>
	<line x1="1911.15" y1="2578.27" x2="1911.15" y2="2517.75" stroke-linecap="round" style="stroke:#000000;stroke-width:7.92"/>
	<line x1="1713.38" y1="2578.27" x2="1713.38" y2="2517.75" stroke-linecap="round" style="stroke:#000000;stroke-width:7.92"/>
	<line x1="1897.88" y1="2780.32" x2="2024.10" y2="2780.32" style="stroke:#000000;stroke-width:7.92"/>
	<line x1="2024.10" y1="2810.48" x2="2024.10" y2="2749.95" stroke-linecap="round" style="stroke:#000000;stroke-width:7.92"/>
	<line x1="1897.88" y1="2810.48" x2="1897.88" y2="2749.95" stroke-linecap="round" style="stroke:#000000;stroke-width:7.92"/>
	<line x1="1927.58" y1="3012.52" x2="2078.32" y2="3012.52" style="stroke:#000000;stroke-width:7.92"/>
	<line x1="2078.32" y1="3042.68" x2="2078.32" y2="2982.15" stroke-linecap="round" style="stroke:#000000;stroke-width:7.92"/>
	<line x1="1927.58" y1="3042.68" x2="1927.58" y2="2982.15" stroke-linecap="round" style="stroke:#000000;stroke-width:7.92"/>
	<line x1="2310.75" y1="3399.75" x2="2460.60" y2="3399.75" style="stroke:#000000;stroke-width:7.92"/>
	<line x1="2460.60" y1="3429.90" x2="2460.60" y2="3369.38" stroke-linecap="round" style="stroke:#000000;stroke-width:7.92"/>
	<line x1="2310.75" y1="3429.90" x2="2310.75" y2="3369.38" stroke-linecap="round" style="stroke:#000000;stroke-width:7.92"/>
	<line x1="2079.68" y1="3631.95" x2="2211.53" y2="3631.95" style="stroke:#000000;stroke-width:7.92"/>
	<line x1="2211.53" y1="3662.10" x2="2211.53" y2="3601.57" stroke-linecap="round" style="stroke:#000000;stroke-width:7.92"/>
	<line x1="2079.68" y1="3662.10" x2="2079.68" y2="3601.57" stroke-linecap="round" style="stroke:#000000;stroke-width:7.92"/>
	<line x1="2130.53" y1="3864.15" x2="2335.50" y2="3864.15" style="stroke:#000000;stroke-width:7.92"/>
	<line x1="2335.50" y1="3894.30" x2="2335.50" y2="3833.78" stroke-linecap="round" style="stroke:#000000;stroke-width:7.92"/>
	<line x1="2130.53" y1="3894.30" x2="2130.53" y2="3833.78" stroke-linecap="round" style="stroke:#000000;stroke-width:7.92"/>
	<line x1="2344.95" y1="4096.35" x2="2530.57" y2="4096.35" style="stroke:#000000;stroke-width:7.92"/>
	<line x1="2530.57" y1="4126.50" x2="2530.57" y2="4065.97" stroke-linecap="round" style="stroke:#000000;stroke-width:7.92"/>
	<line x1="2344.95" y1="4126.50" x2="2344.95" y2="4065.97" stroke-linecap="round" style="stroke:#000000;stroke-width:7.92"/>
	<line x1="2249.55" y1="4328.55" x2="2432.03" y2="4328.55" style="stroke:#000000;stroke-width:7.92"/>
	<line x1="2432.03" y1="4358.70" x2="2432.03" y2="4298.18" stroke-linecap="round" style="stroke:#000000;stroke-width:7.92"/>
	<line x1="2249.55" y1="4358.70" x2="2249.55" y2="4298.18" stroke-linecap="round" style="stroke:#000000;stroke-width:7.92"/>
	<line x1="2212.20" y1="4560.75" x2="2290.05" y2="4560.75" style="stroke:#000000;stroke-width:7.92"/>
	<line x1="2290.05" y1="4590.90" x2="2290.05" y2="4530.38" stroke-linecap="round" style="stroke:#000000;stroke-width:7.92"/>
	<line x1="2212.20" y1="4590.90" x2="2212.20" y2="4530.38" stroke-linecap="round" style="stroke:#000000;stroke-width:7.92"/>
	<line x1="2563.20" y1="4793.18" x2="2670.53" y2="4793.18" style="stroke:#000000;stroke-width:7.92"/>
	<line x1="2670.53" y1="4823.32" x2="2670.53" y2="4762.80" stroke-linecap="round" style="stroke:#000000;stroke-width:7.92"/>
	<line x1="2563.20" y1="4823.32" x2="2563.20" y2="4762.80" stroke-linecap="round" style="stroke:#000000;stroke-width:7.92"/>
	<line x1="2335.72" y1="5025.38" x2="2462.85" y2="5025.38" style="stroke:#000000;stroke-width:7.92"/>
	<line x1="2462.85" y1="5055.52" x2="2462.85" y2="4995.00" stroke-linecap="round" style="stroke:#000000;stroke-width:7.92"/>
	<line x1="2335.72" y1="5055.52" x2="2335.72" y2="4995.00" stroke-linecap="round" style="stroke:#000000;stroke-width:7.92"/>
	<line x1="2035.12" y1="5257.57" x2="2115.22" y2="5257.57" style="stroke:#000000;stroke-width:7.92"/>
	<line x1="2115.22" y1="5287.73" x2="2115.22" y2="5227.20" stroke-linecap="round" style="stroke:#000000;stroke-width:7.92"/>
	<line x1="2035.12" y1="5287.73" x2="2035.12" y2="5227.20" stroke-linecap="round" style="stroke:#000000;stroke-width:7.92"/>
	<line x1="1826.78" y1="5489.77" x2="1983.38" y2="5489.77" style="stroke:#000000;stroke-width:7.92"/>
	<line x1="1983.38" y1="5519.93" x2="1983.38" y2="5459.40" stroke-linecap="round" style="stroke:#000000;stroke-width:7.92"/>
	<line x1="1826.78" y1="5519.93" x2="1826.78" y2="5459.40" stroke-linecap="round" style="stroke:#000000;stroke-width:7.92"/>
	<line x1="2163.38" y1="5721.98" x2="2268.22" y2="5721.98" style="stroke:#000000;stroke-width:7.92"/>
	<line x1="2268.22" y1="5752.12" x2="2268.22" y2="5691.60" stroke-linecap="round" style="stroke:#000000;stroke-width:7.92"/>
	<line x1="2163.38" y1="5752.12" x2="2163.38" y2="5691.60" stroke-linecap="round" style="stroke:#000000;stroke-width:7.92"/>
	<line x1="2205.00" y1="5954.40" x2="2334.38" y2="5954.40" style="stroke:#000000;stroke-width:7.92"/>
	<line x1="2334.38" y1="5984.55" x2="2334.38" y2="5924.02" stroke-linecap="round" style="stroke:#000000;stroke-width:7.92"/>
	<line x1="2205.00" y1="5984.55" x2="2205.00" y2="5924.02" stroke-linecap="round" style="stroke:#000000;stroke-width:7.92"/>
	<text x="3056.40" y="409.43" style="font-family:'Helvetica';font-size:82.58px;fill:#000000">0.81 (0.67-0.97)</text>
	<text x="3056.40" y="486.83" style="font-family:'Helvetica';font-size:82.58px;fill:#000000">0.83 (0.66-1.04)</text>
	<text x="3056.40" y="641.63" style="font-family:'Helvetica';font-size:82.58px;fill:#000000">0.65 (0.56-0.76)</text>
	<text x="3056.40" y="719.26" style="font-family:'Helvetica';font-size:82.58px;fill:#000000">0.73 (0.61-0.88)</text>
	<text x="3056.40" y="874.06" style="font-family:'Helvetica';font-size:82.58px;fill:#000000">1.08 (0.82-1.42)</text>
	<text x="3056.40" y="951.46" style="font-family:'Helvetica';font-size:82.58px;fill:#000000">1.20 (0.84-1.71)</text>
	<text x="3056.40" y="1106.26" style="font-family:'Helvetica';font-size:82.58px;fill:#000000">1.77 (1.29-2.42)</text>
	<text x="3056.40" y="1183.66" style="font-family:'Helvetica';font-size:82.58px;fill:#000000">1.75 (1.20-2.55)</text>
	<text x="3056.40" y="1338.46" style="font-family:'Helvetica';font-size:82.58px;fill:#000000">1.14 (0.88-1.48)</text>
	<text x="3056.40" y="1415.86" style="font-family:'Helvetica';font-size:82.58px;fill:#000000">1.21 (0.88-1.66)</text>
	<text x="3056.40" y="1570.66" style="font-family:'Helvetica';font-size:82.58px;fill:#000000">0.91 (0.80-1.04)</text>
	<text x="3056.40" y="1648.06" style="font-family:'Helvetica';font-size:82.58px;fill:#000000">0.95 (0.82-1.10)</text>
	<text x="3056.40" y="1802.86" style="font-family:'Helvetica';font-size:82.58px;fill:#000000">1.06 (0.93-1.20)</text>
	<text x="3056.40" y="1880.26" style="font-family:'Helvetica';font-size:82.58px;fill:#000000">1.15 (0.99-1.33)</text>
	<text x="3056.40" y="2035.28" style="font-family:'Helvetica';font-size:82.58px;fill:#000000">0.61 (0.53-0.69)</text>
	<text x="3056.40" y="2112.68" style="font-family:'Helvetica';font-size:82.58px;fill:#000000">0.78 (0.66-0.92)</text>
	<text x="3056.40" y="2267.48" style="font-family:'Helvetica';font-size:82.58px;fill:#000000">0.93 (0.81-1.07)</text>
	<text x="3056.40" y="2344.88" style="font-family:'Helvetica';font-size:82.58px;fill:#000000">0.94 (0.80-1.12)</text>
	<text x="3056.40" y="2499.68" style="font-family:'Helvetica';font-size:82.58px;fill:#000000">0.63 (0.48-0.83)</text>
	<text x="3056.40" y="2577.08" style="font-family:'Helvetica';font-size:82.58px;fill:#000000">0.66 (0.48-0.91)</text>
	<text x="3056.40" y="2731.88" style="font-family:'Helvetica';font-size:82.58px;fill:#000000">1.01 (0.86-1.20)</text>
	<text x="3056.40" y="2809.28" style="font-family:'Helvetica';font-size:82.58px;fill:#000000">1.06 (0.87-1.30)</text>
	<text x="3056.40" y="2964.08" style="font-family:'Helvetica';font-size:82.58px;fill:#000000">1.13 (0.92-1.39)</text>
	<text x="3056.40" y="3041.48" style="font-family:'Helvetica';font-size:82.58px;fill:#000000">1.22 (0.96-1.55)</text>
	<text x="3056.40" y="3351.31" style="font-family:'Helvetica';font-size:82.58px;fill:#000000">5.62 (4.78-6.62)</text>
	<text x="3056.40" y="3428.71" style="font-family:'Helvetica';font-size:82.58px;fill:#000000">4.17 (3.28-5.31)</text>
	<text x="3056.40" y="3583.51" style="font-family:'Helvetica';font-size:82.58px;fill:#000000">2.45 (2.18-2.75)</text>
	<text x="3056.40" y="3660.91" style="font-family:'Helvetica';font-size:82.58px;fill:#000000">1.93 (1.56-2.38)</text>
	<text x="3056.40" y="3815.71" style="font-family:'Helvetica';font-size:82.58px;fill:#000000">4.33 (3.50-5.35)</text>
	<text x="3056.40" y="3893.11" style="font-family:'Helvetica';font-size:82.58px;fill:#000000">2.55 (1.84-3.55)</text>
	<text x="3056.40" y="4047.91" style="font-family:'Helvetica';font-size:82.58px;fill:#000000">5.12 (4.18-6.26)</text>
	<text x="3056.40" y="4125.31" style="font-family:'Helvetica';font-size:82.58px;fill:#000000">4.93 (3.66-6.65)</text>
	<text x="3056.40" y="4280.11" style="font-family:'Helvetica';font-size:82.58px;fill:#000000">3.65 (3.02-4.41)</text>
	<text x="3056.40" y="4357.51" style="font-family:'Helvetica';font-size:82.58px;fill:#000000">3.61 (2.69-4.84)</text>
	<text x="3056.40" y="4512.31" style="font-family:'Helvetica';font-size:82.58px;fill:#000000">3.12 (2.84-3.42)</text>
	<text x="3056.40" y="4589.71" style="font-family:'Helvetica';font-size:82.58px;fill:#000000">2.71 (2.39-3.07)</text>
	<text x="3056.40" y="4744.73" style="font-family:'Helvetica';font-size:82.58px;fill:#000000">9.99 (8.86-11.26)</text>
	<text x="3056.40" y="4822.13" style="font-family:'Helvetica';font-size:82.58px;fill:#000000">8.78 (7.39-10.43)</text>
	<text x="3056.40" y="4976.93" style="font-family:'Helvetica';font-size:82.58px;fill:#000000">5.90 (5.18-6.73)</text>
	<text x="3056.40" y="5054.33" style="font-family:'Helvetica';font-size:82.58px;fill:#000000">4.36 (3.55-5.35)</text>
	<text x="3056.40" y="5209.13" style="font-family:'Helvetica';font-size:82.58px;fill:#000000">1.79 (1.62-1.98)</text>
	<text x="3056.40" y="5286.53" style="font-family:'Helvetica';font-size:82.58px;fill:#000000">1.54 (1.35-1.75)</text>
	<text x="3056.40" y="5441.33" style="font-family:'Helvetica';font-size:82.58px;fill:#000000">0.98 (0.80-1.20)</text>
	<text x="3056.40" y="5518.73" style="font-family:'Helvetica';font-size:82.58px;fill:#000000">0.89 (0.69-1.14)</text>
	<text x="3056.40" y="5673.53" style="font-family:'Helvetica';font-size:82.58px;fill:#000000">3.10 (2.75-3.50)</text>
	<text x="3056.40" y="5750.93" style="font-family:'Helvetica';font-size:82.58px;fill:#000000">2.42 (2.04-2.86)</text>
	<text x="3056.40" y="5905.73" style="font-family:'Helvetica';font-size:82.58px;fill:#000000">3.51 (3.04-4.06)</text>
	<text x="3056.40" y="5983.36" style="font-family:'Helvetica';font-size:82.58px;fill:#000000">2.87 (2.33-3.54)</text>
	<text x="352.80" y="409.43" style="font-family:'Helvetica';font-size:82.58px;fill:#707070">Other infections (A)</text>
	<text x="352.80" y="641.63" style="font-family:'Helvetica';font-size:82.58px;fill:#707070">Cancers (C ex C44)</text>
	<text x="352.80" y="874.06" style="font-family:'Helvetica';font-size:82.58px;fill:#707070">Endocrine, nutritional and metabolic (E)</text>
	<text x="352.80" y="1106.26" style="font-family:'Helvetica';font-size:82.58px;fill:#707070">Mental and behavioural (F/X60-84)</text>
	<text x="352.80" y="1338.46" style="font-family:'Helvetica';font-size:82.58px;fill:#707070">Nervous system (G)</text>
	<text x="352.80" y="1570.66" style="font-family:'Helvetica';font-size:82.58px;fill:#707070">Circulatory (I)</text>
	<text x="352.80" y="1802.86" style="font-family:'Helvetica';font-size:82.58px;fill:#707070">COVID/Flu/LRTI (J09-22, U071-072)</text>
	<text x="352.80" y="2035.28" style="font-family:'Helvetica';font-size:82.58px;fill:#707070">Other respiratory (J23-99)</text>
	<text x="352.80" y="2267.48" style="font-family:'Helvetica';font-size:82.58px;fill:#707070">Digestive (K)</text>
	<text x="352.80" y="2499.68" style="font-family:'Helvetica';font-size:82.58px;fill:#707070">Musculoskeletal (M)</text>
	<text x="352.80" y="2731.88" style="font-family:'Helvetica';font-size:82.58px;fill:#707070">Genitourinary (N)</text>
	<text x="352.80" y="2964.08" style="font-family:'Helvetica';font-size:82.58px;fill:#707070">External causes (S-Y except U/X60-84)</text>
	<text x="352.80" y="3351.31" style="font-family:'Helvetica';font-size:82.58px;fill:#707070">Other infections (A)</text>
	<text x="352.80" y="3583.51" style="font-family:'Helvetica';font-size:82.58px;fill:#707070">Cancers (C ex C44)</text>
	<text x="352.80" y="3815.71" style="font-family:'Helvetica';font-size:82.58px;fill:#707070">Endocrine, nutritional and metabolic (E)</text>
	<text x="352.80" y="4047.91" style="font-family:'Helvetica';font-size:82.58px;fill:#707070">Mental and behavioural (F/X60-84)</text>
	<text x="352.80" y="4280.11" style="font-family:'Helvetica';font-size:82.58px;fill:#707070">Nervous system (G)</text>
	<text x="352.80" y="4512.31" style="font-family:'Helvetica';font-size:82.58px;fill:#707070">Circulatory (I)</text>
	<text x="352.80" y="4744.73" style="font-family:'Helvetica';font-size:82.58px;fill:#707070">COVID/Flu/LRTI (J09-22, U071-072)</text>
	<text x="352.80" y="4976.93" style="font-family:'Helvetica';font-size:82.58px;fill:#707070">Other respiratory (J23-99)</text>
	<text x="352.80" y="5209.13" style="font-family:'Helvetica';font-size:82.58px;fill:#707070">Digestive (K)</text>
	<text x="352.80" y="5441.33" style="font-family:'Helvetica';font-size:82.58px;fill:#707070">Musculoskeletal (M)</text>
	<text x="352.80" y="5673.53" style="font-family:'Helvetica';font-size:82.58px;fill:#707070">Genitourinary (N)</text>
	<text x="352.80" y="5905.73" style="font-family:'Helvetica';font-size:82.58px;fill:#707070">External causes (S-Y except U/X60-84)</text>
	<text x="577.35" y="264.24" style="font-family:'Helvetica';font-size:110.03px;fill:#000000" text-anchor="middle">vs flu controls</text>
	<text x="1120.05" y="3205.89" style="font-family:'Helvetica';font-size:110.03px;fill:#000000" text-anchor="middle">vs 2019 general population controls</text>
	<text x="3338.78" y="254.63" style="font-family:'Helvetica';font-size:82.58px;fill:#000000" text-anchor="middle">HR and 95% CI</text>
	<line x1="138.60" y1="6118.88" x2="3821.40" y2="6118.88" style="stroke:#000000;stroke-width:7.92"/>
	<line x1="1726.20" y1="6118.88" x2="1726.20" y2="6173.77" style="stroke:#000000;stroke-width:7.92"/>
	<text x="1726.20" y="6297.35" style="font-family:'Helvetica';font-size:137.47px;fill:#000000" text-anchor="middle">.5</text>
	<line x1="1941.75" y1="6118.88" x2="1941.75" y2="6173.77" style="stroke:#000000;stroke-width:7.92"/>
	<text x="1941.75" y="6297.35" style="font-family:'Helvetica';font-size:137.47px;fill:#000000" text-anchor="middle">1</text>
	<line x1="2157.07" y1="6118.88" x2="2157.07" y2="6173.77" style="stroke:#000000;stroke-width:7.92"/>
	<text x="2157.07" y="6297.35" style="font-family:'Helvetica';font-size:137.47px;fill:#000000" text-anchor="middle">2</text>
	<line x1="2441.70" y1="6118.88" x2="2441.70" y2="6173.77" style="stroke:#000000;stroke-width:7.92"/>
	<text x="2441.70" y="6297.35" style="font-family:'Helvetica';font-size:137.47px;fill:#000000" text-anchor="middle">5</text>
	<line x1="2657.25" y1="6118.88" x2="2657.25" y2="6173.77" style="stroke:#000000;stroke-width:7.92"/>
	<text x="2657.25" y="6297.35" style="font-family:'Helvetica';font-size:137.47px;fill:#000000" text-anchor="middle">10</text>
	<line x1="2872.57" y1="6118.88" x2="2872.57" y2="6173.77" style="stroke:#000000;stroke-width:7.92"/>
	<text x="2872.57" y="6297.35" style="font-family:'Helvetica';font-size:137.47px;fill:#000000" text-anchor="middle">20</text>
	<text x="1980.00" y="6448.77" style="font-family:'Helvetica';font-size:137.47px;fill:#000000" text-anchor="middle">Subdistribution HR and 95% CI</text>
	<rect x="941.17" y="6565.05" width="2077.65" height="448.88" style="fill:#FFFFFF"/>
	<rect x="945.13" y="6569.01" width="2069.73" height="440.95" style="fill:none;stroke:#000000;stroke-width:7.92"/>
	<circle cx="1021.27" cy="6693.30" r="20.70" style="fill:none;stroke:#000000;stroke-width:11.88"/>
	<circle cx="1021.27" cy="6885.68" r="26.64" style="fill:#000000"/>
	<circle cx="1021.27" cy="6885.68" r="20.70" style="fill:none;stroke:#000000;stroke-width:11.88"/>
	<text x="1124.33" y="6741.47" style="font-family:'Helvetica';font-size:137.47px;fill:#000000">Adjusted for matching factors</text>
	<text x="1124.33" y="6933.85" style="font-family:'Helvetica';font-size:137.47px;fill:#000000">Fully adjusted</text>
</svg>
