<?xml version="1.0" encoding="UTF-8" standalone="no"?>
<!-- This is a Stata 16.1 generated SVG file (http://www.stata.com) -->

<svg version="1.1" width="5.50in" height="8.00in" viewBox="0 0 3960 5760" xmlns="http://www.w3.org/2000/svg" xmlns:xlink="http://www.w3.org/1999/xlink">
	<desc>Stata Graph - Graph</desc>
	<rect x="0" y="0" width="3960" height="5760" style="fill:#EAF2F3;stroke:none"/>
	<rect x="0.00" y="0.00" width="3960.00" height="5760.00" style="fill:#EAF2F3"/>
	<rect x="3.96" y="3.96" width="3952.08" height="5752.08" style="fill:none;stroke:#EAF2F3;stroke-width:7.92"/>
	<rect x="138.60" y="138.60" width="3682.80" height="5221.62" style="fill:#FFFFFF"/>
	<rect x="142.56" y="142.56" width="3674.88" height="5213.70" style="fill:none;stroke:#FFFFFF;stroke-width:7.92"/>
	<line x1="138.60" y1="5273.10" x2="3821.40" y2="5273.10" style="stroke:#EAF2F3;stroke-width:11.88"/>
	<line x1="138.60" y1="4175.82" x2="3821.40" y2="4175.82" style="stroke:#EAF2F3;stroke-width:11.88"/>
	<line x1="138.60" y1="3078.54" x2="3821.40" y2="3078.54" style="stroke:#EAF2F3;stroke-width:11.88"/>
	<line x1="138.60" y1="1981.26" x2="3821.40" y2="1981.26" style="stroke:#EAF2F3;stroke-width:11.88"/>
	<line x1="138.60" y1="883.98" x2="3821.40" y2="883.98" style="stroke:#EAF2F3;stroke-width:11.88"/>
	<line x1="1703.88" y1="5360.22" x2="1703.88" y2="5281.02" style="stroke:#C10534;stroke-width:11.88"/>
	<line x1="1703.88" y1="5241.42" x2="1703.88" y2="5162.22" style="stroke:#C10534;stroke-width:11.88"/>
	<line x1="1703.88" y1="5122.62" x2="1703.88" y2="5043.42" style="stroke:#C10534;stroke-width:11.88"/>
	<line x1="1703.88" y1="5003.82" x2="1703.88" y2="4924.62" style="stroke:#C10534;stroke-width:11.88"/>
	<line x1="1703.88" y1="4884.84" x2="1703.88" y2="4805.64" style="stroke:#C10534;stroke-width:11.88"/>
	<line x1="1703.88" y1="4766.04" x2="1703.88" y2="4686.84" style="stroke:#C10534;stroke-width:11.88"/>
	<line x1="1703.88" y1="4647.24" x2="1703.88" y2="4568.04" style="stroke:#C10534;stroke-width:11.88"/>
	<line x1="1703.88" y1="4528.44" x2="1703.88" y2="4449.24" style="stroke:#C10534;stroke-width:11.88"/>
	<line x1="1703.88" y1="4409.64" x2="1703.88" y2="4330.44" style="stroke:#C10534;stroke-width:11.88"/>
	<line x1="1703.88" y1="4290.84" x2="1703.88" y2="4211.46" style="stroke:#C10534;stroke-width:11.88"/>
	<line x1="1703.88" y1="4171.86" x2="1703.88" y2="4092.66" style="stroke:#C10534;stroke-width:11.88"/>
	<line x1="1703.88" y1="4053.06" x2="1703.88" y2="3973.86" style="stroke:#C10534;stroke-width:11.88"/>
	<line x1="1703.88" y1="3934.26" x2="1703.88" y2="3855.06" style="stroke:#C10534;stroke-width:11.88"/>
	<line x1="1703.88" y1="3815.46" x2="1703.88" y2="3736.26" style="stroke:#C10534;stroke-width:11.88"/>
	<line x1="1703.88" y1="3696.66" x2="1703.88" y2="3617.28" style="stroke:#C10534;stroke-width:11.88"/>
	<line x1="1703.88" y1="3577.68" x2="1703.88" y2="3498.48" style="stroke:#C10534;stroke-width:11.88"/>
	<line x1="1703.88" y1="3458.88" x2="1703.88" y2="3379.68" style="stroke:#C10534;stroke-width:11.88"/>
	<line x1="1703.88" y1="3340.08" x2="1703.88" y2="3260.88" style="stroke:#C10534;stroke-width:11.88"/>
	<line x1="1703.88" y1="3221.28" x2="1703.88" y2="3142.08" style="stroke:#C10534;stroke-width:11.88"/>
	<line x1="1703.88" y1="3102.48" x2="1703.88" y2="3023.28" style="stroke:#C10534;stroke-width:11.88"/>
	<line x1="1703.88" y1="2983.68" x2="1703.88" y2="2904.30" style="stroke:#C10534;stroke-width:11.88"/>
	<line x1="1703.88" y1="2864.70" x2="1703.88" y2="2785.50" style="stroke:#C10534;stroke-width:11.88"/>
	<line x1="1703.88" y1="2745.90" x2="1703.88" y2="2666.70" style="stroke:#C10534;stroke-width:11.88"/>
	<line x1="1703.88" y1="2627.10" x2="1703.88" y2="2547.90" style="stroke:#C10534;stroke-width:11.88"/>
	<line x1="1703.88" y1="2508.30" x2="1703.88" y2="2429.10" style="stroke:#C10534;stroke-width:11.88"/>
	<line x1="1703.88" y1="2389.50" x2="1703.88" y2="2310.12" style="stroke:#C10534;stroke-width:11.88"/>
	<line x1="1703.88" y1="2270.52" x2="1703.88" y2="2191.32" style="stroke:#C10534;stroke-width:11.88"/>
	<line x1="1703.88" y1="2151.72" x2="1703.88" y2="2072.52" style="stroke:#C10534;stroke-width:11.88"/>
	<line x1="1703.88" y1="2032.92" x2="1703.88" y2="1953.72" style="stroke:#C10534;stroke-width:11.88"/>
	<line x1="1703.88" y1="1914.12" x2="1703.88" y2="1834.92" style="stroke:#C10534;stroke-width:11.88"/>
	<line x1="1703.88" y1="1795.32" x2="1703.88" y2="1716.12" style="stroke:#C10534;stroke-width:11.88"/>
	<line x1="1703.88" y1="1676.34" x2="1703.88" y2="1597.14" style="stroke:#C10534;stroke-width:11.88"/>
	<line x1="1703.88" y1="1557.54" x2="1703.88" y2="1478.34" style="stroke:#C10534;stroke-width:11.88"/>
	<line x1="1703.88" y1="1438.74" x2="1703.88" y2="1359.54" style="stroke:#C10534;stroke-width:11.88"/>
	<line x1="1703.88" y1="1319.94" x2="1703.88" y2="1240.74" style="stroke:#C10534;stroke-width:11.88"/>
	<line x1="1703.88" y1="1201.14" x2="1703.88" y2="1121.94" style="stroke:#C10534;stroke-width:11.88"/>
	<line x1="1703.88" y1="1082.34" x2="1703.88" y2="1002.96" style="stroke:#C10534;stroke-width:11.88"/>
	<line x1="1703.88" y1="963.36" x2="1703.88" y2="884.16" style="stroke:#C10534;stroke-width:11.88"/>
	<line x1="1703.88" y1="844.56" x2="1703.88" y2="765.36" style="stroke:#C10534;stroke-width:11.88"/>
	<line x1="1703.88" y1="725.76" x2="1703.88" y2="646.56" style="stroke:#C10534;stroke-width:11.88"/>
	<line x1="1703.88" y1="606.96" x2="1703.88" y2="527.76" style="stroke:#C10534;stroke-width:11.88"/>
	<line x1="1703.88" y1="488.16" x2="1703.88" y2="408.96" style="stroke:#C10534;stroke-width:11.88"/>
	<line x1="1703.88" y1="369.18" x2="1703.88" y2="289.98" style="stroke:#C10534;stroke-width:11.88"/>
	<line x1="1703.88" y1="250.38" x2="1703.88" y2="171.18" style="stroke:#C10534;stroke-width:11.88"/>
	<circle cx="1652.94" cy="664.74" r="26.64" style="fill:#000000"/>
	<circle cx="1652.94" cy="664.74" r="20.70" style="fill:none;stroke:#000000;stroke-width:11.88"/>
	<circle cx="1662.48" cy="884.16" r="26.64" style="fill:#000000"/>
	<circle cx="1662.48" cy="884.16" r="20.70" style="fill:none;stroke:#000000;stroke-width:11.88"/>
	<circle cx="1671.30" cy="1103.58" r="26.64" style="fill:#000000"/>
	<circle cx="1671.30" cy="1103.58" r="20.70" style="fill:none;stroke:#000000;stroke-width:11.88"/>
	<circle cx="1675.26" cy="1323.00" r="26.64" style="fill:#000000"/>
	<circle cx="1675.26" cy="1323.00" r="20.70" style="fill:none;stroke:#000000;stroke-width:11.88"/>
	<circle cx="2053.44" cy="1762.02" r="26.64" style="fill:#000000"/>
	<circle cx="2053.44" cy="1762.02" r="20.70" style="fill:none;stroke:#000000;stroke-width:11.88"/>
	<circle cx="2030.58" cy="1981.44" r="26.64" style="fill:#000000"/>
	<circle cx="2030.58" cy="1981.44" r="20.70" style="fill:none;stroke:#000000;stroke-width:11.88"/>
	<circle cx="2048.22" cy="2200.86" r="26.64" style="fill:#000000"/>
	<circle cx="2048.22" cy="2200.86" r="20.70" style="fill:none;stroke:#000000;stroke-width:11.88"/>
	<circle cx="2064.78" cy="2420.28" r="26.64" style="fill:#000000"/>
	<circle cx="2064.78" cy="2420.28" r="20.70" style="fill:none;stroke:#000000;stroke-width:11.88"/>
	<circle cx="2070.72" cy="3298.14" r="26.64" style="fill:#000000"/>
	<circle cx="2070.72" cy="3298.14" r="20.70" style="fill:none;stroke:#000000;stroke-width:11.88"/>
	<circle cx="2069.46" cy="3517.56" r="26.64" style="fill:#000000"/>
	<circle cx="2069.46" cy="3517.56" r="20.70" style="fill:none;stroke:#000000;stroke-width:11.88"/>
	<circle cx="2060.10" cy="3736.98" r="26.64" style="fill:#000000"/>
	<circle cx="2060.10" cy="3736.98" r="20.70" style="fill:none;stroke:#000000;stroke-width:11.88"/>
	<circle cx="2004.66" cy="3956.40" r="26.64" style="fill:#000000"/>
	<circle cx="2004.66" cy="3956.40" r="20.70" style="fill:none;stroke:#000000;stroke-width:11.88"/>
	<circle cx="2584.98" cy="4395.42" r="26.64" style="fill:#000000"/>
	<circle cx="2584.98" cy="4395.42" r="20.70" style="fill:none;stroke:#000000;stroke-width:11.88"/>
	<circle cx="2604.06" cy="4614.84" r="26.64" style="fill:#000000"/>
	<circle cx="2604.06" cy="4614.84" r="20.70" style="fill:none;stroke:#000000;stroke-width:11.88"/>
	<circle cx="2632.32" cy="4834.26" r="26.64" style="fill:#000000"/>
	<circle cx="2632.32" cy="4834.26" r="20.70" style="fill:none;stroke:#000000;stroke-width:11.88"/>
	<circle cx="2593.62" cy="5053.68" r="26.64" style="fill:#000000"/>
	<circle cx="2593.62" cy="5053.68" r="20.70" style="fill:none;stroke:#000000;stroke-width:11.88"/>
	<line x1="1628.46" y1="664.56" x2="1677.78" y2="664.56" style="stroke:#000000;stroke-width:7.92"/>
	<line x1="1677.78" y1="694.80" x2="1677.78" y2="634.32" stroke-linecap="round" style="stroke:#000000;stroke-width:7.92"/>
	<line x1="1628.46" y1="694.80" x2="1628.46" y2="634.32" stroke-linecap="round" style="stroke:#000000;stroke-width:7.92"/>
	<line x1="1634.22" y1="883.98" x2="1690.92" y2="883.98" style="stroke:#000000;stroke-width:7.92"/>
	<line x1="1690.92" y1="914.22" x2="1690.92" y2="853.74" stroke-linecap="round" style="stroke:#000000;stroke-width:7.92"/>
	<line x1="1634.22" y1="914.22" x2="1634.22" y2="853.74" stroke-linecap="round" style="stroke:#000000;stroke-width:7.92"/>
	<line x1="1642.86" y1="1103.58" x2="1699.92" y2="1103.58" style="stroke:#000000;stroke-width:7.92"/>
	<line x1="1699.92" y1="1133.82" x2="1699.92" y2="1073.34" stroke-linecap="round" style="stroke:#000000;stroke-width:7.92"/>
	<line x1="1642.86" y1="1133.82" x2="1642.86" y2="1073.34" stroke-linecap="round" style="stroke:#000000;stroke-width:7.92"/>
	<line x1="1646.64" y1="1323.00" x2="1704.06" y2="1323.00" style="stroke:#000000;stroke-width:7.92"/>
	<line x1="1704.06" y1="1353.24" x2="1704.06" y2="1292.76" stroke-linecap="round" style="stroke:#000000;stroke-width:7.92"/>
	<line x1="1646.64" y1="1353.24" x2="1646.64" y2="1292.76" stroke-linecap="round" style="stroke:#000000;stroke-width:7.92"/>
	<line x1="1979.82" y1="1761.84" x2="2127.42" y2="1761.84" style="stroke:#000000;stroke-width:7.92"/>
	<line x1="2127.42" y1="1792.08" x2="2127.42" y2="1731.60" stroke-linecap="round" style="stroke:#000000;stroke-width:7.92"/>
	<line x1="1979.82" y1="1792.08" x2="1979.82" y2="1731.60" stroke-linecap="round" style="stroke:#000000;stroke-width:7.92"/>
	<line x1="1945.44" y1="1981.26" x2="2115.90" y2="1981.26" style="stroke:#000000;stroke-width:7.92"/>
	<line x1="2115.90" y1="2011.50" x2="2115.90" y2="1951.02" stroke-linecap="round" style="stroke:#000000;stroke-width:7.92"/>
	<line x1="1945.44" y1="2011.50" x2="1945.44" y2="1951.02" stroke-linecap="round" style="stroke:#000000;stroke-width:7.92"/>
	<line x1="1963.44" y1="2200.68" x2="2133.18" y2="2200.68" style="stroke:#000000;stroke-width:7.92"/>
	<line x1="2133.18" y1="2230.92" x2="2133.18" y2="2170.44" stroke-linecap="round" style="stroke:#000000;stroke-width:7.92"/>
	<line x1="1963.44" y1="2230.92" x2="1963.44" y2="2170.44" stroke-linecap="round" style="stroke:#000000;stroke-width:7.92"/>
	<line x1="1979.82" y1="2420.28" x2="2149.92" y2="2420.28" style="stroke:#000000;stroke-width:7.92"/>
	<line x1="2149.92" y1="2450.52" x2="2149.92" y2="2390.04" stroke-linecap="round" style="stroke:#000000;stroke-width:7.92"/>
	<line x1="1979.82" y1="2450.52" x2="1979.82" y2="2390.04" stroke-linecap="round" style="stroke:#000000;stroke-width:7.92"/>
	<line x1="2058.12" y1="3297.96" x2="2083.50" y2="3297.96" style="stroke:#000000;stroke-width:7.92"/>
	<line x1="2083.50" y1="3328.20" x2="2083.50" y2="3267.72" stroke-linecap="round" style="stroke:#000000;stroke-width:7.92"/>
	<line x1="2058.12" y1="3328.20" x2="2058.12" y2="3267.72" stroke-linecap="round" style="stroke:#000000;stroke-width:7.92"/>
	<line x1="2053.80" y1="3517.38" x2="2085.12" y2="3517.38" style="stroke:#000000;stroke-width:7.92"/>
	<line x1="2085.12" y1="3547.62" x2="2085.12" y2="3487.14" stroke-linecap="round" style="stroke:#000000;stroke-width:7.92"/>
	<line x1="2053.80" y1="3547.62" x2="2053.80" y2="3487.14" stroke-linecap="round" style="stroke:#000000;stroke-width:7.92"/>
	<line x1="2044.26" y1="3736.98" x2="2076.12" y2="3736.98" style="stroke:#000000;stroke-width:7.92"/>
	<line x1="2076.12" y1="3767.22" x2="2076.12" y2="3706.74" stroke-linecap="round" style="stroke:#000000;stroke-width:7.92"/>
	<line x1="2044.26" y1="3767.22" x2="2044.26" y2="3706.74" stroke-linecap="round" style="stroke:#000000;stroke-width:7.92"/>
	<line x1="1988.10" y1="3956.40" x2="2021.40" y2="3956.40" style="stroke:#000000;stroke-width:7.92"/>
	<line x1="2021.40" y1="3986.64" x2="2021.40" y2="3926.16" stroke-linecap="round" style="stroke:#000000;stroke-width:7.92"/>
	<line x1="1988.10" y1="3986.64" x2="1988.10" y2="3926.16" stroke-linecap="round" style="stroke:#000000;stroke-width:7.92"/>
	<line x1="2520.00" y1="4395.24" x2="2650.32" y2="4395.24" style="stroke:#000000;stroke-width:7.92"/>
	<line x1="2650.32" y1="4425.48" x2="2650.32" y2="4365.00" stroke-linecap="round" style="stroke:#000000;stroke-width:7.92"/>
	<line x1="2520.00" y1="4425.48" x2="2520.00" y2="4365.00" stroke-linecap="round" style="stroke:#000000;stroke-width:7.92"/>
	<line x1="2528.46" y1="4614.66" x2="2679.84" y2="4614.66" style="stroke:#000000;stroke-width:7.92"/>
	<line x1="2679.84" y1="4644.90" x2="2679.84" y2="4584.42" stroke-linecap="round" style="stroke:#000000;stroke-width:7.92"/>
	<line x1="2528.46" y1="4644.90" x2="2528.46" y2="4584.42" stroke-linecap="round" style="stroke:#000000;stroke-width:7.92"/>
	<line x1="2556.18" y1="4834.08" x2="2708.46" y2="4834.08" style="stroke:#000000;stroke-width:7.92"/>
	<line x1="2708.46" y1="4864.32" x2="2708.46" y2="4803.84" stroke-linecap="round" style="stroke:#000000;stroke-width:7.92"/>
	<line x1="2556.18" y1="4864.32" x2="2556.18" y2="4803.84" stroke-linecap="round" style="stroke:#000000;stroke-width:7.92"/>
	<line x1="2517.12" y1="5053.68" x2="2670.30" y2="5053.68" style="stroke:#000000;stroke-width:7.92"/>
	<line x1="2670.30" y1="5083.92" x2="2670.30" y2="5023.44" stroke-linecap="round" style="stroke:#000000;stroke-width:7.92"/>
	<line x1="2517.12" y1="5083.92" x2="2517.12" y2="5023.44" stroke-linecap="round" style="stroke:#000000;stroke-width:7.92"/>
	<text x="2958.84" y="693.46" style="font-family:'Helvetica';font-size:82.44px;fill:#000000">0.87 (0.81-0.93)</text>
	<text x="2958.84" y="912.88" style="font-family:'Helvetica';font-size:82.44px;fill:#000000">0.89 (0.82-0.96)</text>
	<text x="2958.84" y="1132.48" style="font-family:'Helvetica';font-size:82.44px;fill:#000000">0.91 (0.84-0.99)</text>
	<text x="2958.84" y="1351.90" style="font-family:'Helvetica';font-size:82.44px;fill:#000000">0.92 (0.85-1.00)</text>
	<text x="2958.84" y="1790.74" style="font-family:'Helvetica';font-size:82.44px;fill:#000000">2.70 (2.19-3.33)</text>
	<text x="2958.84" y="2010.16" style="font-family:'Helvetica';font-size:82.44px;fill:#000000">2.53 (1.99-3.22)</text>
	<text x="2958.84" y="2229.58" style="font-family:'Helvetica';font-size:82.44px;fill:#000000">2.66 (2.09-3.39)</text>
	<text x="2958.84" y="2449.18" style="font-family:'Helvetica';font-size:82.44px;fill:#000000">2.79 (2.19-3.55)</text>
	<text x="2958.84" y="3326.86" style="font-family:'Helvetica';font-size:82.44px;fill:#000000">2.84 (2.73-2.94)</text>
	<text x="2958.84" y="3546.28" style="font-family:'Helvetica';font-size:82.44px;fill:#000000">2.82 (2.70-2.95)</text>
	<text x="2958.84" y="3765.88" style="font-family:'Helvetica';font-size:82.44px;fill:#000000">2.75 (2.63-2.88)</text>
	<text x="2958.84" y="3985.30" style="font-family:'Helvetica';font-size:82.44px;fill:#000000">2.35 (2.24-2.46)</text>
	<text x="2958.84" y="4424.14" style="font-family:'Helvetica';font-size:82.44px;fill:#000000">12.22 (10.16-14.71)</text>
	<text x="2958.84" y="4643.56" style="font-family:'Helvetica';font-size:82.44px;fill:#000000">12.90 (10.41-16.00)</text>
	<text x="2958.84" y="4862.98" style="font-family:'Helvetica';font-size:82.44px;fill:#000000">13.98 (11.26-17.36)</text>
	<text x="2958.84" y="5082.58" style="font-family:'Helvetica';font-size:82.44px;fill:#000000">12.53 (10.08-15.57)</text>
	<text x="384.84" y="693.46" style="font-family:'Helvetica';font-size:82.44px;fill:#707070">Adj for matching factors only</text>
	<text x="384.84" y="912.88" style="font-family:'Helvetica';font-size:82.44px;fill:#707070">+ ethnicity/IMD</text>
	<text x="384.84" y="1132.48" style="font-family:'Helvetica';font-size:82.44px;fill:#707070">+ obesity/smoking</text>
	<text x="384.84" y="1351.90" style="font-family:'Helvetica';font-size:82.44px;fill:#707070">+ comorbidities</text>
	<text x="384.84" y="1790.74" style="font-family:'Helvetica';font-size:82.44px;fill:#707070">Adj for matching factors only</text>
	<text x="384.84" y="2010.16" style="font-family:'Helvetica';font-size:82.44px;fill:#707070">+ ethnicity/IMD</text>
	<text x="384.84" y="2229.58" style="font-family:'Helvetica';font-size:82.44px;fill:#707070">+ obesity/smoking</text>
	<text x="384.84" y="2449.18" style="font-family:'Helvetica';font-size:82.44px;fill:#707070">+ comorbidities</text>
	<text x="384.84" y="3326.86" style="font-family:'Helvetica';font-size:82.44px;fill:#707070">Adj for matching factors only</text>
	<text x="384.84" y="3546.28" style="font-family:'Helvetica';font-size:82.44px;fill:#707070">+ ethnicity/IMD</text>
	<text x="384.84" y="3765.88" style="font-family:'Helvetica';font-size:82.44px;fill:#707070">+ obesity/smoking</text>
	<text x="384.84" y="3985.30" style="font-family:'Helvetica';font-size:82.44px;fill:#707070">+ comorbidities</text>
	<text x="384.84" y="4424.14" style="font-family:'Helvetica';font-size:82.44px;fill:#707070">Adj for matching factors only</text>
	<text x="384.84" y="4643.56" style="font-family:'Helvetica';font-size:82.44px;fill:#707070">+ ethnicity/IMD</text>
	<text x="384.84" y="4862.98" style="font-family:'Helvetica';font-size:82.44px;fill:#707070">+ obesity/smoking</text>
	<text x="384.84" y="5082.58" style="font-family:'Helvetica';font-size:82.44px;fill:#707070">+ comorbidities</text>
	<text x="484.38" y="254.62" style="font-family:'Helvetica';font-size:82.44px;fill:#000000" text-anchor="middle">vs flu controls</text>
	<text x="1144.44" y="474.04" style="font-family:'Helvetica';font-size:82.44px;fill:#000000" text-anchor="middle">Outcome: hospitalisation or death (composite)</text>
	<text x="630.72" y="1571.32" style="font-family:'Helvetica';font-size:82.44px;fill:#000000" text-anchor="middle">Outcome: mortality</text>
	<text x="898.20" y="2888.02" style="font-family:'Helvetica';font-size:82.44px;fill:#000000" text-anchor="middle">vs 2019 general population controls</text>
	<text x="1144.44" y="3107.44" style="font-family:'Helvetica';font-size:82.44px;fill:#000000" text-anchor="middle">Outcome: hospitalisation or death (composite)</text>
	<text x="630.72" y="4204.72" style="font-family:'Helvetica';font-size:82.44px;fill:#000000" text-anchor="middle">Outcome: mortality</text>
	<text x="3253.86" y="254.62" style="font-family:'Helvetica';font-size:82.44px;fill:#000000" text-anchor="middle">HR and 95% CI</text>
	<line x1="138.60" y1="5360.22" x2="3821.40" y2="5360.22" style="stroke:#000000;stroke-width:7.92"/>
	<line x1="1459.98" y1="5360.22" x2="1459.98" y2="5415.12" style="stroke:#000000;stroke-width:7.92"/>
	<text x="1459.98" y="5538.83" style="font-family:'Helvetica';font-size:137.52px;fill:#000000" text-anchor="middle">.5</text>
	<line x1="1703.88" y1="5360.22" x2="1703.88" y2="5415.12" style="stroke:#000000;stroke-width:7.92"/>
	<text x="1703.88" y="5538.83" style="font-family:'Helvetica';font-size:137.52px;fill:#000000" text-anchor="middle">1</text>
	<line x1="1947.96" y1="5360.22" x2="1947.96" y2="5415.12" style="stroke:#000000;stroke-width:7.92"/>
	<text x="1947.96" y="5538.83" style="font-family:'Helvetica';font-size:137.52px;fill:#000000" text-anchor="middle">2</text>
	<line x1="2270.52" y1="5360.22" x2="2270.52" y2="5415.12" style="stroke:#000000;stroke-width:7.92"/>
	<text x="2270.52" y="5538.83" style="font-family:'Helvetica';font-size:137.52px;fill:#000000" text-anchor="middle">5</text>
	<line x1="2514.42" y1="5360.22" x2="2514.42" y2="5415.12" style="stroke:#000000;stroke-width:7.92"/>
	<text x="2514.42" y="5538.83" style="font-family:'Helvetica';font-size:137.52px;fill:#000000" text-anchor="middle">10</text>
	<line x1="2758.32" y1="5360.22" x2="2758.32" y2="5415.12" style="stroke:#000000;stroke-width:7.92"/>
	<text x="2758.32" y="5538.83" style="font-family:'Helvetica';font-size:137.52px;fill:#000000" text-anchor="middle">20</text>
</svg>
